  0
SECTION
  2
HEADER
  9
$ACADVER
  1
AC1009
  9
$LIMMIN
 10
0.033464566929136
 20
0.03311358267716748
  9
$LIMMAX
 10
4.022181102362462
 20
3.130420866141933
  9
$GRIDMODE
 70
32
  9
$GRIDUNIT
 10
0.001968503937008
 20
0.001968503937008
  9
$SNAPMODE
 70
1
  9
$SNAPSTYLE
 70
0
  9
$SNAPUNIT
 10
0.001968503937008
 20
0.001968503937008
  9
$FILLMODE
 70
1
  9
$CECOLOR
 62
256
  0
ENDSEC
  0
SECTION
  2
ENTITIES
  0
POLYLINE
  8
BOT
 66
      1
 70
1
 40
0.0230
 41
0.0230
  0
VERTEX
  8
BOT
 10
2.0260
 20
1.4960
 30
 0.0
 42
1.0
  0
VERTEX
  8
BOT
 10
2.0480
 20
1.4960
 30
 0.0
 42
1.0
  0
SEQEND
  8
BOT
  0
POLYLINE
  8
DRL
 66
      1
 70
1
 40
0.0100
 41
0.0100
  0
VERTEX
  8
DRL
 10
2.0320
 20
1.4960
 30
 0.0
 42
1.0
  0
VERTEX
  8
DRL
 10
2.0420
 20
1.4960
 30
 0.0
 42
1.0
  0
SEQEND
  8
DRL
  0
POLYLINE
  8
BOT
 66
      1
 70
1
 40
0.0230
 41
0.0230
  0
VERTEX
  8
BOT
 10
2.0260
 20
1.5750
 30
 0.0
 42
1.0
  0
VERTEX
  8
BOT
 10
2.0480
 20
1.5750
 30
 0.0
 42
1.0
  0
SEQEND
  8
BOT
  0
POLYLINE
  8
DRL
 66
      1
 70
1
 40
0.0100
 41
0.0100
  0
VERTEX
  8
DRL
 10
2.0320
 20
1.5750
 30
 0.0
 42
1.0
  0
VERTEX
  8
DRL
 10
2.0420
 20
1.5750
 30
 0.0
 42
1.0
  0
SEQEND
  8
DRL
  0
POLYLINE
  8
BOT
 66
      1
 70
1
 40
0.0230
 41
0.0230
  0
VERTEX
  8
BOT
 10
2.0260
 20
1.6540
 30
 0.0
 42
1.0
  0
VERTEX
  8
BOT
 10
2.0480
 20
1.6540
 30
 0.0
 42
1.0
  0
SEQEND
  8
BOT
  0
POLYLINE
  8
DRL
 66
      1
 70
1
 40
0.0100
 41
0.0100
  0
VERTEX
  8
DRL
 10
2.0320
 20
1.6540
 30
 0.0
 42
1.0
  0
VERTEX
  8
DRL
 10
2.0420
 20
1.6540
 30
 0.0
 42
1.0
  0
SEQEND
  8
DRL
  0
POLYLINE
  8
BOT
 66
      1
 70
1
 40
0.0230
 41
0.0230
  0
VERTEX
  8
BOT
 10
1.9480
 20
1.4960
 30
 0.0
 42
1.0
  0
VERTEX
  8
BOT
 10
1.9700
 20
1.4960
 30
 0.0
 42
1.0
  0
SEQEND
  8
BOT
  0
POLYLINE
  8
DRL
 66
      1
 70
1
 40
0.0100
 41
0.0100
  0
VERTEX
  8
DRL
 10
1.9540
 20
1.4960
 30
 0.0
 42
1.0
  0
VERTEX
  8
DRL
 10
1.9640
 20
1.4960
 30
 0.0
 42
1.0
  0
SEQEND
  8
DRL
  0
POLYLINE
  8
BOT
 66
      1
 70
1
 40
0.0230
 41
0.0230
  0
VERTEX
  8
BOT
 10
1.8690
 20
1.4960
 30
 0.0
 42
1.0
  0
VERTEX
  8
BOT
 10
1.8910
 20
1.4960
 30
 0.0
 42
1.0
  0
SEQEND
  8
BOT
  0
POLYLINE
  8
DRL
 66
      1
 70
1
 40
0.0100
 41
0.0100
  0
VERTEX
  8
DRL
 10
1.8750
 20
1.4960
 30
 0.0
 42
1.0
  0
VERTEX
  8
DRL
 10
1.8850
 20
1.4960
 30
 0.0
 42
1.0
  0
SEQEND
  8
DRL
  0
POLYLINE
  8
BOT
 66
      1
 70
1
 40
0.0230
 41
0.0230
  0
VERTEX
  8
BOT
 10
1.9480
 20
1.5750
 30
 0.0
 42
1.0
  0
VERTEX
  8
BOT
 10
1.9700
 20
1.5750
 30
 0.0
 42
1.0
  0
SEQEND
  8
BOT
  0
POLYLINE
  8
DRL
 66
      1
 70
1
 40
0.0100
 41
0.0100
  0
VERTEX
  8
DRL
 10
1.9540
 20
1.5750
 30
 0.0
 42
1.0
  0
VERTEX
  8
DRL
 10
1.9640
 20
1.5750
 30
 0.0
 42
1.0
  0
SEQEND
  8
DRL
  0
POLYLINE
  8
BOT
 66
      1
 70
1
 40
0.0230
 41
0.0230
  0
VERTEX
  8
BOT
 10
1.8690
 20
1.5750
 30
 0.0
 42
1.0
  0
VERTEX
  8
BOT
 10
1.8910
 20
1.5750
 30
 0.0
 42
1.0
  0
SEQEND
  8
BOT
  0
POLYLINE
  8
DRL
 66
      1
 70
1
 40
0.0100
 41
0.0100
  0
VERTEX
  8
DRL
 10
1.8750
 20
1.5750
 30
 0.0
 42
1.0
  0
VERTEX
  8
DRL
 10
1.8850
 20
1.5750
 30
 0.0
 42
1.0
  0
SEQEND
  8
DRL
  0
POLYLINE
  8
BOT
 66
      1
 70
1
 40
0.0230
 41
0.0230
  0
VERTEX
  8
BOT
 10
1.9480
 20
1.6540
 30
 0.0
 42
1.0
  0
VERTEX
  8
BOT
 10
1.9700
 20
1.6540
 30
 0.0
 42
1.0
  0
SEQEND
  8
BOT
  0
POLYLINE
  8
DRL
 66
      1
 70
1
 40
0.0100
 41
0.0100
  0
VERTEX
  8
DRL
 10
1.9540
 20
1.6540
 30
 0.0
 42
1.0
  0
VERTEX
  8
DRL
 10
1.9640
 20
1.6540
 30
 0.0
 42
1.0
  0
SEQEND
  8
DRL
  0
POLYLINE
  8
BOT
 66
      1
 70
1
 40
0.0230
 41
0.0230
  0
VERTEX
  8
BOT
 10
1.8690
 20
1.6540
 30
 0.0
 42
1.0
  0
VERTEX
  8
BOT
 10
1.8910
 20
1.6540
 30
 0.0
 42
1.0
  0
SEQEND
  8
BOT
  0
POLYLINE
  8
DRL
 66
      1
 70
1
 40
0.0100
 41
0.0100
  0
VERTEX
  8
DRL
 10
1.8750
 20
1.6540
 30
 0.0
 42
1.0
  0
VERTEX
  8
DRL
 10
1.8850
 20
1.6540
 30
 0.0
 42
1.0
  0
SEQEND
  8
DRL
  0
POLYLINE
  8
BOT
 66
      1
 70
1
 40
0.0780
 41
0.0780
  0
VERTEX
  8
BOT
 10
0.3680
 20
2.5070
 30
 0.0
 42
1.0
  0
VERTEX
  8
BOT
 10
0.4460
 20
2.5070
 30
 0.0
 42
1.0
  0
SEQEND
  8
BOT
  0
POLYLINE
  8
DRL
 66
      1
 70
1
 40
0.0490
 41
0.0490
  0
VERTEX
  8
DRL
 10
0.3830
 20
2.5070
 30
 0.0
 42
1.0
  0
VERTEX
  8
DRL
 10
0.4310
 20
2.5070
 30
 0.0
 42
1.0
  0
SEQEND
  8
DRL
  0
POLYLINE
  8
BOT
 66
      1
 70
1
 40
0.0780
 41
0.0780
  0
VERTEX
  8
BOT
 10
0.1680
 20
2.3870
 30
 0.0
 42
1.0
  0
VERTEX
  8
BOT
 10
0.2460
 20
2.3870
 30
 0.0
 42
1.0
  0
SEQEND
  8
BOT
  0
POLYLINE
  8
DRL
 66
      1
 70
1
 40
0.0490
 41
0.0490
  0
VERTEX
  8
DRL
 10
0.1830
 20
2.3870
 30
 0.0
 42
1.0
  0
VERTEX
  8
DRL
 10
0.2310
 20
2.3870
 30
 0.0
 42
1.0
  0
SEQEND
  8
DRL
  0
POLYLINE
  8
BOT
 66
      1
 70
1
 40
0.0920
 41
0.0920
  0
VERTEX
  8
BOT
 10
0.3610
 20
2.2620
 30
 0.0
 42
1.0
  0
VERTEX
  8
BOT
 10
0.4530
 20
2.2620
 30
 0.0
 42
1.0
  0
SEQEND
  8
BOT
  0
POLYLINE
  8
DRL
 66
      1
 70
1
 40
0.0590
 41
0.0590
  0
VERTEX
  8
DRL
 10
0.3780
 20
2.2620
 30
 0.0
 42
1.0
  0
VERTEX
  8
DRL
 10
0.4360
 20
2.2620
 30
 0.0
 42
1.0
  0
SEQEND
  8
DRL
 0
SOLID
  8
BOT
 10
1.2340
 20
2.4400
 11
1.3520
 21
2.4400
 12
1.2340
 22
2.5960
 13
1.3520
 23
2.5960
  0
POLYLINE
  8
DRL
 66
      1
 70
1
 40
0.0290
 41
0.0290
  0
VERTEX
  8
DRL
 10
1.2790
 20
2.5180
 30
 0.0
 42
1.0
  0
VERTEX
  8
DRL
 10
1.3070
 20
2.5180
 30
 0.0
 42
1.0
  0
SEQEND
  8
DRL
 0
SOLID
  8
BOT
 10
1.0840
 20
2.4400
 11
1.2020
 21
2.4400
 12
1.0840
 22
2.5960
 13
1.2020
 23
2.5960
  0
POLYLINE
  8
DRL
 66
      1
 70
1
 40
0.0290
 41
0.0290
  0
VERTEX
  8
DRL
 10
1.1290
 20
2.5180
 30
 0.0
 42
1.0
  0
VERTEX
  8
DRL
 10
1.1570
 20
2.5180
 30
 0.0
 42
1.0
  0
SEQEND
  8
DRL
 0
SOLID
  8
BOT
 10
0.7840
 20
2.4400
 11
0.9020
 21
2.4400
 12
0.7840
 22
2.5960
 13
0.9020
 23
2.5960
  0
POLYLINE
  8
DRL
 66
      1
 70
1
 40
0.0290
 41
0.0290
  0
VERTEX
  8
DRL
 10
0.8290
 20
2.5180
 30
 0.0
 42
1.0
  0
VERTEX
  8
DRL
 10
0.8570
 20
2.5180
 30
 0.0
 42
1.0
  0
SEQEND
  8
DRL
 0
SOLID
  8
BOT
 10
0.9340
 20
2.4400
 11
1.0520
 21
2.4400
 12
0.9340
 22
2.5960
 13
1.0520
 23
2.5960
  0
POLYLINE
  8
DRL
 66
      1
 70
1
 40
0.0290
 41
0.0290
  0
VERTEX
  8
DRL
 10
0.9790
 20
2.5180
 30
 0.0
 42
1.0
  0
VERTEX
  8
DRL
 10
1.0070
 20
2.5180
 30
 0.0
 42
1.0
  0
SEQEND
  8
DRL
  0
POLYLINE
  8
BOT
 66
      1
 70
1
 40
0.0470
 41
0.0470
  0
VERTEX
  8
BOT
 10
3.4570
 20
2.4340
 30
 0.0
 42
1.0
  0
VERTEX
  8
BOT
 10
3.5030
 20
2.4340
 30
 0.0
 42
1.0
  0
SEQEND
  8
BOT
  0
POLYLINE
  8
DRL
 66
      1
 70
1
 40
0.0270
 41
0.0270
  0
VERTEX
  8
DRL
 10
3.4670
 20
2.4340
 30
 0.0
 42
1.0
  0
VERTEX
  8
DRL
 10
3.4930
 20
2.4340
 30
 0.0
 42
1.0
  0
SEQEND
  8
DRL
  0
POLYLINE
  8
BOT
 66
      1
 70
1
 40
0.0470
 41
0.0470
  0
VERTEX
  8
BOT
 10
3.6570
 20
2.4340
 30
 0.0
 42
1.0
  0
VERTEX
  8
BOT
 10
3.7030
 20
2.4340
 30
 0.0
 42
1.0
  0
SEQEND
  8
BOT
  0
POLYLINE
  8
DRL
 66
      1
 70
1
 40
0.0270
 41
0.0270
  0
VERTEX
  8
DRL
 10
3.6670
 20
2.4340
 30
 0.0
 42
1.0
  0
VERTEX
  8
DRL
 10
3.6930
 20
2.4340
 30
 0.0
 42
1.0
  0
SEQEND
  8
DRL
  0
POLYLINE
  8
BOT
 66
      1
 70
1
 40
0.0470
 41
0.0470
  0
VERTEX
  8
BOT
 10
3.6570
 20
2.6340
 30
 0.0
 42
1.0
  0
VERTEX
  8
BOT
 10
3.7030
 20
2.6340
 30
 0.0
 42
1.0
  0
SEQEND
  8
BOT
  0
POLYLINE
  8
DRL
 66
      1
 70
1
 40
0.0270
 41
0.0270
  0
VERTEX
  8
DRL
 10
3.6670
 20
2.6340
 30
 0.0
 42
1.0
  0
VERTEX
  8
DRL
 10
3.6930
 20
2.6340
 30
 0.0
 42
1.0
  0
SEQEND
  8
DRL
  0
POLYLINE
  8
BOT
 66
      1
 70
1
 40
0.0470
 41
0.0470
  0
VERTEX
  8
BOT
 10
3.4570
 20
2.6340
 30
 0.0
 42
1.0
  0
VERTEX
  8
BOT
 10
3.5030
 20
2.6340
 30
 0.0
 42
1.0
  0
SEQEND
  8
BOT
  0
POLYLINE
  8
DRL
 66
      1
 70
1
 40
0.0270
 41
0.0270
  0
VERTEX
  8
DRL
 10
3.4670
 20
2.6340
 30
 0.0
 42
1.0
  0
VERTEX
  8
DRL
 10
3.4930
 20
2.6340
 30
 0.0
 42
1.0
  0
SEQEND
  8
DRL
  0
POLYLINE
  8
BOT
 66
      1
 70
1
 40
0.0470
 41
0.0470
  0
VERTEX
  8
BOT
 10
3.5570
 20
2.5340
 30
 0.0
 42
1.0
  0
VERTEX
  8
BOT
 10
3.6030
 20
2.5340
 30
 0.0
 42
1.0
  0
SEQEND
  8
BOT
  0
POLYLINE
  8
DRL
 66
      1
 70
1
 40
0.0270
 41
0.0270
  0
VERTEX
  8
DRL
 10
3.5670
 20
2.5340
 30
 0.0
 42
1.0
  0
VERTEX
  8
DRL
 10
3.5930
 20
2.5340
 30
 0.0
 42
1.0
  0
SEQEND
  8
DRL
  0
POLYLINE
  8
BOT
 66
      1
 70
1
 40
0.0290
 41
0.0290
  0
VERTEX
  8
BOT
 10
3.0400
 20
0.5140
 30
 0.0
 42
1.0
  0
VERTEX
  8
BOT
 10
3.0680
 20
0.5140
 30
 0.0
 42
1.0
  0
SEQEND
  8
BOT
  0
POLYLINE
  8
SSB
 66
      1
 70
1
 40
0.0290
 41
0.0290
  0
VERTEX
  8
SSB
 10
3.0400
 20
0.5140
 30
 0.0
 42
1.0
  0
VERTEX
  8
SSB
 10
3.0680
 20
0.5140
 30
 0.0
 42
1.0
  0
SEQEND
  8
SSB
  0
POLYLINE
  8
DRL
 66
      1
 70
1
 40
0.0290
 41
0.0290
  0
VERTEX
  8
DRL
 10
3.0400
 20
0.5140
 30
 0.0
 42
1.0
  0
VERTEX
  8
DRL
 10
3.0680
 20
0.5140
 30
 0.0
 42
1.0
  0
SEQEND
  8
DRL
  0
POLYLINE
  8
BOT
 66
      1
 70
1
 40
0.0290
 41
0.0290
  0
VERTEX
  8
BOT
 10
3.5910
 20
0.5140
 30
 0.0
 42
1.0
  0
VERTEX
  8
BOT
 10
3.6190
 20
0.5140
 30
 0.0
 42
1.0
  0
SEQEND
  8
BOT
  0
POLYLINE
  8
SSB
 66
      1
 70
1
 40
0.0290
 41
0.0290
  0
VERTEX
  8
SSB
 10
3.5910
 20
0.5140
 30
 0.0
 42
1.0
  0
VERTEX
  8
SSB
 10
3.6190
 20
0.5140
 30
 0.0
 42
1.0
  0
SEQEND
  8
SSB
  0
POLYLINE
  8
DRL
 66
      1
 70
1
 40
0.0290
 41
0.0290
  0
VERTEX
  8
DRL
 10
3.5910
 20
0.5140
 30
 0.0
 42
1.0
  0
VERTEX
  8
DRL
 10
3.6190
 20
0.5140
 30
 0.0
 42
1.0
  0
SEQEND
  8
DRL
 0
SOLID
  8
BOT
 10
3.6970
 20
0.4260
 11
3.7750
 21
0.4260
 12
3.6970
 22
0.5440
 13
3.7750
 23
0.5440
 0
SOLID
  8
BOT
 10
3.1860
 20
1.2700
 11
3.2240
 21
1.2700
 12
3.1860
 22
1.3680
 13
3.2240
 23
1.3680
 0
SOLID
  8
BOT
 10
3.2360
 20
1.2700
 11
3.2740
 21
1.2700
 12
3.2360
 22
1.3680
 13
3.2740
 23
1.3680
 0
SOLID
  8
BOT
 10
3.2860
 20
1.2700
 11
3.3240
 21
1.2700
 12
3.2860
 22
1.3680
 13
3.3240
 23
1.3680
 0
SOLID
  8
BOT
 10
3.3360
 20
1.2700
 11
3.3740
 21
1.2700
 12
3.3360
 22
1.3680
 13
3.3740
 23
1.3680
 0
SOLID
  8
BOT
 10
3.3860
 20
1.2700
 11
3.4240
 21
1.2700
 12
3.3860
 22
1.3680
 13
3.4240
 23
1.3680
 0
SOLID
  8
BOT
 10
3.4360
 20
1.2700
 11
3.4740
 21
1.2700
 12
3.4360
 22
1.3680
 13
3.4740
 23
1.3680
 0
SOLID
  8
BOT
 10
3.4860
 20
1.2700
 11
3.5240
 21
1.2700
 12
3.4860
 22
1.3680
 13
3.5240
 23
1.3680
 0
SOLID
  8
BOT
 10
3.5360
 20
1.2700
 11
3.5740
 21
1.2700
 12
3.5360
 22
1.3680
 13
3.5740
 23
1.3680
 0
SOLID
  8
BOT
 10
2.8840
 20
0.4260
 11
2.9620
 21
0.4260
 12
2.8840
 22
0.5440
 13
2.9620
 23
0.5440
  0
POLYLINE
  8
BOT
 66
      1
 70
1
 40
0.0880
 41
0.0880
  0
VERTEX
  8
BOT
 10
1.2640
 20
0.6390
 30
 0.0
 42
1.0
  0
VERTEX
  8
BOT
 10
1.3520
 20
0.6390
 30
 0.0
 42
1.0
  0
SEQEND
  8
BOT
  0
POLYLINE
  8
DRL
 66
      1
 70
1
 40
0.0630
 41
0.0630
  0
VERTEX
  8
DRL
 10
1.2770
 20
0.6390
 30
 0.0
 42
1.0
  0
VERTEX
  8
DRL
 10
1.3390
 20
0.6390
 30
 0.0
 42
1.0
  0
SEQEND
  8
DRL
  0
POLYLINE
  8
BOT
 66
      1
 70
1
 40
0.0880
 41
0.0880
  0
VERTEX
  8
BOT
 10
0.2800
 20
0.6390
 30
 0.0
 42
1.0
  0
VERTEX
  8
BOT
 10
0.3680
 20
0.6390
 30
 0.0
 42
1.0
  0
SEQEND
  8
BOT
  0
POLYLINE
  8
DRL
 66
      1
 70
1
 40
0.0630
 41
0.0630
  0
VERTEX
  8
DRL
 10
0.2930
 20
0.6390
 30
 0.0
 42
1.0
  0
VERTEX
  8
DRL
 10
0.3550
 20
0.6390
 30
 0.0
 42
1.0
  0
SEQEND
  8
DRL
  0
POLYLINE
  8
BOT
 66
      1
 70
1
 40
0.0470
 41
0.0470
  0
VERTEX
  8
BOT
 10
0.9570
 20
0.5830
 30
 0.0
 42
1.0
  0
VERTEX
  8
BOT
 10
1.0030
 20
0.5830
 30
 0.0
 42
1.0
  0
SEQEND
  8
BOT
  0
POLYLINE
  8
DRL
 66
      1
 70
1
 40
0.0190
 41
0.0190
  0
VERTEX
  8
DRL
 10
0.9710
 20
0.5830
 30
 0.0
 42
1.0
  0
VERTEX
  8
DRL
 10
0.9890
 20
0.5830
 30
 0.0
 42
1.0
  0
SEQEND
  8
DRL
  0
POLYLINE
  8
BOT
 66
      1
 70
1
 40
0.0470
 41
0.0470
  0
VERTEX
  8
BOT
 10
0.8480
 20
0.5830
 30
 0.0
 42
1.0
  0
VERTEX
  8
BOT
 10
0.8940
 20
0.5830
 30
 0.0
 42
1.0
  0
SEQEND
  8
BOT
  0
POLYLINE
  8
DRL
 66
      1
 70
1
 40
0.0190
 41
0.0190
  0
VERTEX
  8
DRL
 10
0.8620
 20
0.5830
 30
 0.0
 42
1.0
  0
VERTEX
  8
DRL
 10
0.8800
 20
0.5830
 30
 0.0
 42
1.0
  0
SEQEND
  8
DRL
  0
POLYLINE
  8
BOT
 66
      1
 70
1
 40
0.0470
 41
0.0470
  0
VERTEX
  8
BOT
 10
0.7390
 20
0.5830
 30
 0.0
 42
1.0
  0
VERTEX
  8
BOT
 10
0.7850
 20
0.5830
 30
 0.0
 42
1.0
  0
SEQEND
  8
BOT
  0
POLYLINE
  8
DRL
 66
      1
 70
1
 40
0.0190
 41
0.0190
  0
VERTEX
  8
DRL
 10
0.7530
 20
0.5830
 30
 0.0
 42
1.0
  0
VERTEX
  8
DRL
 10
0.7710
 20
0.5830
 30
 0.0
 42
1.0
  0
SEQEND
  8
DRL
  0
POLYLINE
  8
BOT
 66
      1
 70
1
 40
0.0470
 41
0.0470
  0
VERTEX
  8
BOT
 10
0.6300
 20
0.5830
 30
 0.0
 42
1.0
  0
VERTEX
  8
BOT
 10
0.6760
 20
0.5830
 30
 0.0
 42
1.0
  0
SEQEND
  8
BOT
  0
POLYLINE
  8
DRL
 66
      1
 70
1
 40
0.0190
 41
0.0190
  0
VERTEX
  8
DRL
 10
0.6440
 20
0.5830
 30
 0.0
 42
1.0
  0
VERTEX
  8
DRL
 10
0.6620
 20
0.5830
 30
 0.0
 42
1.0
  0
SEQEND
  8
DRL
  0
POLYLINE
  8
BOT
 66
      1
 70
1
 40
0.0470
 41
0.0470
  0
VERTEX
  8
BOT
 10
1.0110
 20
0.6950
 30
 0.0
 42
1.0
  0
VERTEX
  8
BOT
 10
1.0570
 20
0.6950
 30
 0.0
 42
1.0
  0
SEQEND
  8
BOT
  0
POLYLINE
  8
DRL
 66
      1
 70
1
 40
0.0190
 41
0.0190
  0
VERTEX
  8
DRL
 10
1.0250
 20
0.6950
 30
 0.0
 42
1.0
  0
VERTEX
  8
DRL
 10
1.0430
 20
0.6950
 30
 0.0
 42
1.0
  0
SEQEND
  8
DRL
  0
POLYLINE
  8
BOT
 66
      1
 70
1
 40
0.0470
 41
0.0470
  0
VERTEX
  8
BOT
 10
0.9020
 20
0.6950
 30
 0.0
 42
1.0
  0
VERTEX
  8
BOT
 10
0.9480
 20
0.6950
 30
 0.0
 42
1.0
  0
SEQEND
  8
BOT
  0
POLYLINE
  8
DRL
 66
      1
 70
1
 40
0.0190
 41
0.0190
  0
VERTEX
  8
DRL
 10
0.9160
 20
0.6950
 30
 0.0
 42
1.0
  0
VERTEX
  8
DRL
 10
0.9340
 20
0.6950
 30
 0.0
 42
1.0
  0
SEQEND
  8
DRL
  0
POLYLINE
  8
BOT
 66
      1
 70
1
 40
0.0470
 41
0.0470
  0
VERTEX
  8
BOT
 10
0.7930
 20
0.6950
 30
 0.0
 42
1.0
  0
VERTEX
  8
BOT
 10
0.8390
 20
0.6950
 30
 0.0
 42
1.0
  0
SEQEND
  8
BOT
  0
POLYLINE
  8
DRL
 66
      1
 70
1
 40
0.0190
 41
0.0190
  0
VERTEX
  8
DRL
 10
0.8070
 20
0.6950
 30
 0.0
 42
1.0
  0
VERTEX
  8
DRL
 10
0.8250
 20
0.6950
 30
 0.0
 42
1.0
  0
SEQEND
  8
DRL
  0
POLYLINE
  8
BOT
 66
      1
 70
1
 40
0.0470
 41
0.0470
  0
VERTEX
  8
BOT
 10
0.6840
 20
0.6950
 30
 0.0
 42
1.0
  0
VERTEX
  8
BOT
 10
0.7300
 20
0.6950
 30
 0.0
 42
1.0
  0
SEQEND
  8
BOT
  0
POLYLINE
  8
DRL
 66
      1
 70
1
 40
0.0190
 41
0.0190
  0
VERTEX
  8
DRL
 10
0.6980
 20
0.6950
 30
 0.0
 42
1.0
  0
VERTEX
  8
DRL
 10
0.7160
 20
0.6950
 30
 0.0
 42
1.0
  0
SEQEND
  8
DRL
 0
SOLID
  8
BOT
 10
0.5510
 20
0.6480
 11
0.6450
 21
0.6480
 12
0.5510
 22
0.7420
 13
0.6450
 23
0.7420
  0
POLYLINE
  8
DRL
 66
      1
 70
1
 40
0.0190
 41
0.0190
  0
VERTEX
  8
DRL
 10
0.5890
 20
0.6950
 30
 0.0
 42
1.0
  0
VERTEX
  8
DRL
 10
0.6070
 20
0.6950
 30
 0.0
 42
1.0
  0
SEQEND
  8
DRL
 0
SOLID
  8
BOT
 10
1.7530
 20
0.4700
 11
1.7910
 21
0.4700
 12
1.7530
 22
0.5280
 13
1.7910
 23
0.5280
  0
POLYLINE
  8
DRL
 66
      1
 70
1
 40
0.0120
 41
0.0120
  0
VERTEX
  8
DRL
 10
1.7660
 20
0.4990
 30
 0.0
 42
1.0
  0
VERTEX
  8
DRL
 10
1.7780
 20
0.4990
 30
 0.0
 42
1.0
  0
SEQEND
  8
DRL
 0
SOLID
  8
BOT
 10
1.7030
 20
0.4700
 11
1.7410
 21
0.4700
 12
1.7030
 22
0.5280
 13
1.7410
 23
0.5280
  0
POLYLINE
  8
DRL
 66
      1
 70
1
 40
0.0120
 41
0.0120
  0
VERTEX
  8
DRL
 10
1.7160
 20
0.4990
 30
 0.0
 42
1.0
  0
VERTEX
  8
DRL
 10
1.7280
 20
0.4990
 30
 0.0
 42
1.0
  0
SEQEND
  8
DRL
 0
SOLID
  8
BOT
 10
1.6050
 20
0.4700
 11
1.6430
 21
0.4700
 12
1.6050
 22
0.5280
 13
1.6430
 23
0.5280
  0
POLYLINE
  8
DRL
 66
      1
 70
1
 40
0.0120
 41
0.0120
  0
VERTEX
  8
DRL
 10
1.6180
 20
0.4990
 30
 0.0
 42
1.0
  0
VERTEX
  8
DRL
 10
1.6300
 20
0.4990
 30
 0.0
 42
1.0
  0
SEQEND
  8
DRL
 0
SOLID
  8
BOT
 10
1.6540
 20
0.4700
 11
1.6920
 21
0.4700
 12
1.6540
 22
0.5280
 13
1.6920
 23
0.5280
  0
POLYLINE
  8
DRL
 66
      1
 70
1
 40
0.0120
 41
0.0120
  0
VERTEX
  8
DRL
 10
1.6670
 20
0.4990
 30
 0.0
 42
1.0
  0
VERTEX
  8
DRL
 10
1.6790
 20
0.4990
 30
 0.0
 42
1.0
  0
SEQEND
  8
DRL
 0
SOLID
  8
BOT
 10
1.5560
 20
0.4700
 11
1.5940
 21
0.4700
 12
1.5560
 22
0.5280
 13
1.5940
 23
0.5280
  0
POLYLINE
  8
DRL
 66
      1
 70
1
 40
0.0120
 41
0.0120
  0
VERTEX
  8
DRL
 10
1.5690
 20
0.4990
 30
 0.0
 42
1.0
  0
VERTEX
  8
DRL
 10
1.5810
 20
0.4990
 30
 0.0
 42
1.0
  0
SEQEND
  8
DRL
 0
SOLID
  8
BOT
 10
1.8590
 20
0.4590
 11
1.9290
 21
0.4590
 12
1.8590
 22
0.5690
 13
1.9290
 23
0.5690
  0
POLYLINE
  8
DRL
 66
      1
 70
1
 40
0.0190
 41
0.0190
  0
VERTEX
  8
DRL
 10
1.8850
 20
0.5140
 30
 0.0
 42
1.0
  0
VERTEX
  8
DRL
 10
1.9030
 20
0.5140
 30
 0.0
 42
1.0
  0
SEQEND
  8
DRL
 0
SOLID
  8
BOT
 10
1.9590
 20
0.4590
 11
2.0290
 21
0.4590
 12
1.9590
 22
0.5690
 13
2.0290
 23
0.5690
  0
POLYLINE
  8
DRL
 66
      1
 70
1
 40
0.0190
 41
0.0190
  0
VERTEX
  8
DRL
 10
1.9850
 20
0.5140
 30
 0.0
 42
1.0
  0
VERTEX
  8
DRL
 10
2.0030
 20
0.5140
 30
 0.0
 42
1.0
  0
SEQEND
  8
DRL
 0
SOLID
  8
BOT
 10
2.0560
 20
0.4590
 11
2.1260
 21
0.4590
 12
2.0560
 22
0.5690
 13
2.1260
 23
0.5690
  0
POLYLINE
  8
DRL
 66
      1
 70
1
 40
0.0190
 41
0.0190
  0
VERTEX
  8
DRL
 10
2.0820
 20
0.5140
 30
 0.0
 42
1.0
  0
VERTEX
  8
DRL
 10
2.1000
 20
0.5140
 30
 0.0
 42
1.0
  0
SEQEND
  8
DRL
 0
SOLID
  8
BOT
 10
2.1560
 20
0.4590
 11
2.2260
 21
0.4590
 12
2.1560
 22
0.5690
 13
2.2260
 23
0.5690
  0
POLYLINE
  8
DRL
 66
      1
 70
1
 40
0.0190
 41
0.0190
  0
VERTEX
  8
DRL
 10
2.1820
 20
0.5140
 30
 0.0
 42
1.0
  0
VERTEX
  8
DRL
 10
2.2000
 20
0.5140
 30
 0.0
 42
1.0
  0
SEQEND
  8
DRL
 0
SOLID
  8
BOT
 10
2.2530
 20
0.4590
 11
2.3230
 21
0.4590
 12
2.2530
 22
0.5690
 13
2.3230
 23
0.5690
  0
POLYLINE
  8
DRL
 66
      1
 70
1
 40
0.0190
 41
0.0190
  0
VERTEX
  8
DRL
 10
2.2790
 20
0.5140
 30
 0.0
 42
1.0
  0
VERTEX
  8
DRL
 10
2.2970
 20
0.5140
 30
 0.0
 42
1.0
  0
SEQEND
  8
DRL
 0
SOLID
  8
BOT
 10
2.3530
 20
0.4590
 11
2.4230
 21
0.4590
 12
2.3530
 22
0.5690
 13
2.4230
 23
0.5690
  0
POLYLINE
  8
DRL
 66
      1
 70
1
 40
0.0190
 41
0.0190
  0
VERTEX
  8
DRL
 10
2.3790
 20
0.5140
 30
 0.0
 42
1.0
  0
VERTEX
  8
DRL
 10
2.3970
 20
0.5140
 30
 0.0
 42
1.0
  0
SEQEND
  8
DRL
 0
SOLID
  8
BOT
 10
2.4490
 20
0.4590
 11
2.5190
 21
0.4590
 12
2.4490
 22
0.5690
 13
2.5190
 23
0.5690
  0
POLYLINE
  8
DRL
 66
      1
 70
1
 40
0.0190
 41
0.0190
  0
VERTEX
  8
DRL
 10
2.4750
 20
0.5140
 30
 0.0
 42
1.0
  0
VERTEX
  8
DRL
 10
2.4930
 20
0.5140
 30
 0.0
 42
1.0
  0
SEQEND
  8
DRL
 0
SOLID
  8
BOT
 10
2.5490
 20
0.4590
 11
2.6190
 21
0.4590
 12
2.5490
 22
0.5690
 13
2.6190
 23
0.5690
  0
POLYLINE
  8
DRL
 66
      1
 70
1
 40
0.0190
 41
0.0190
  0
VERTEX
  8
DRL
 10
2.5750
 20
0.5140
 30
 0.0
 42
1.0
  0
VERTEX
  8
DRL
 10
2.5930
 20
0.5140
 30
 0.0
 42
1.0
  0
SEQEND
  8
DRL
 0
SOLID
  8
BOT
 10
2.6460
 20
0.4590
 11
2.7160
 21
0.4590
 12
2.6460
 22
0.5690
 13
2.7160
 23
0.5690
  0
POLYLINE
  8
DRL
 66
      1
 70
1
 40
0.0190
 41
0.0190
  0
VERTEX
  8
DRL
 10
2.6720
 20
0.5140
 30
 0.0
 42
1.0
  0
VERTEX
  8
DRL
 10
2.6900
 20
0.5140
 30
 0.0
 42
1.0
  0
SEQEND
  8
DRL
 0
SOLID
  8
BOT
 10
2.7460
 20
0.4590
 11
2.8160
 21
0.4590
 12
2.7460
 22
0.5690
 13
2.8160
 23
0.5690
  0
POLYLINE
  8
DRL
 66
      1
 70
1
 40
0.0190
 41
0.0190
  0
VERTEX
  8
DRL
 10
2.7720
 20
0.5140
 30
 0.0
 42
1.0
  0
VERTEX
  8
DRL
 10
2.7900
 20
0.5140
 30
 0.0
 42
1.0
  0
SEQEND
  8
DRL
  0
POLYLINE
  8
BOT
 66
      1
 70
1
 40
0.0350
 41
0.0350
  0
VERTEX
  8
BOT
 10
1.4730
 20
2.3940
 30
 0.0
 42
1.0
  0
VERTEX
  8
BOT
 10
1.5070
 20
2.3940
 30
 0.0
 42
1.0
  0
SEQEND
  8
BOT
  0
POLYLINE
  8
DRL
 66
      1
 70
1
 40
0.0150
 41
0.0150
  0
VERTEX
  8
DRL
 10
1.4830
 20
2.3940
 30
 0.0
 42
1.0
  0
VERTEX
  8
DRL
 10
1.4970
 20
2.3940
 30
 0.0
 42
1.0
  0
SEQEND
  8
DRL
  0
POLYLINE
  8
BOT
 66
      1
 70
1
 40
0.0350
 41
0.0350
  0
VERTEX
  8
BOT
 10
1.5520
 20
2.5910
 30
 0.0
 42
1.0
  0
VERTEX
  8
BOT
 10
1.5860
 20
2.5910
 30
 0.0
 42
1.0
  0
SEQEND
  8
BOT
  0
POLYLINE
  8
DRL
 66
      1
 70
1
 40
0.0150
 41
0.0150
  0
VERTEX
  8
DRL
 10
1.5620
 20
2.5910
 30
 0.0
 42
1.0
  0
VERTEX
  8
DRL
 10
1.5760
 20
2.5910
 30
 0.0
 42
1.0
  0
SEQEND
  8
DRL
  0
POLYLINE
  8
BOT
 66
      1
 70
1
 40
0.0390
 41
0.0390
  0
VERTEX
  8
BOT
 10
3.2250
 20
2.2720
 30
 0.0
 42
1.0
  0
VERTEX
  8
BOT
 10
3.2630
 20
2.2720
 30
 0.0
 42
1.0
  0
SEQEND
  8
BOT
  0
POLYLINE
  8
DRL
 66
      1
 70
1
 40
0.0190
 41
0.0190
  0
VERTEX
  8
DRL
 10
3.2350
 20
2.2720
 30
 0.0
 42
1.0
  0
VERTEX
  8
DRL
 10
3.2530
 20
2.2720
 30
 0.0
 42
1.0
  0
SEQEND
  8
DRL
  0
POLYLINE
  8
BOT
 66
      1
 70
1
 40
0.0190
 41
0.0190
  0
VERTEX
  8
BOT
 10
2.0600
 20
2.6380
 30
 0.0
 42
1.0
  0
VERTEX
  8
BOT
 10
2.0780
 20
2.6380
 30
 0.0
 42
1.0
  0
SEQEND
  8
BOT
  0
POLYLINE
  8
DRL
 66
      1
 70
1
 40
0.0100
 41
0.0100
  0
VERTEX
  8
DRL
 10
2.0640
 20
2.6380
 30
 0.0
 42
1.0
  0
VERTEX
  8
DRL
 10
2.0740
 20
2.6380
 30
 0.0
 42
1.0
  0
SEQEND
  8
DRL
  0
POLYLINE
  8
BOT
 66
      1
 70
1
 40
0.0190
 41
0.0190
  0
VERTEX
  8
BOT
 10
3.1450
 20
2.6380
 30
 0.0
 42
1.0
  0
VERTEX
  8
BOT
 10
3.1630
 20
2.6380
 30
 0.0
 42
1.0
  0
SEQEND
  8
BOT
  0
POLYLINE
  8
DRL
 66
      1
 70
1
 40
0.0100
 41
0.0100
  0
VERTEX
  8
DRL
 10
3.1490
 20
2.6380
 30
 0.0
 42
1.0
  0
VERTEX
  8
DRL
 10
3.1590
 20
2.6380
 30
 0.0
 42
1.0
  0
SEQEND
  8
DRL
  0
POLYLINE
  8
BOT
 66
      1
 70
1
 40
0.0190
 41
0.0190
  0
VERTEX
  8
BOT
 10
0.3950
 20
2.0320
 30
 0.0
 42
1.0
  0
VERTEX
  8
BOT
 10
0.4130
 20
2.0320
 30
 0.0
 42
1.0
  0
SEQEND
  8
BOT
  0
POLYLINE
  8
DRL
 66
      1
 70
1
 40
0.0100
 41
0.0100
  0
VERTEX
  8
DRL
 10
0.3990
 20
2.0320
 30
 0.0
 42
1.0
  0
VERTEX
  8
DRL
 10
0.4090
 20
2.0320
 30
 0.0
 42
1.0
  0
SEQEND
  8
DRL
  0
POLYLINE
  8
BOT
 66
      1
 70
1
 40
0.0190
 41
0.0190
  0
VERTEX
  8
BOT
 10
0.1640
 20
1.5000
 30
 0.0
 42
1.0
  0
VERTEX
  8
BOT
 10
0.1820
 20
1.5000
 30
 0.0
 42
1.0
  0
SEQEND
  8
BOT
  0
POLYLINE
  8
DRL
 66
      1
 70
1
 40
0.0100
 41
0.0100
  0
VERTEX
  8
DRL
 10
0.1680
 20
1.5000
 30
 0.0
 42
1.0
  0
VERTEX
  8
DRL
 10
0.1780
 20
1.5000
 30
 0.0
 42
1.0
  0
SEQEND
  8
DRL
  0
POLYLINE
  8
BOT
 66
      1
 70
1
 40
0.0190
 41
0.0190
  0
VERTEX
  8
BOT
 10
2.0700
 20
1.0520
 30
 0.0
 42
1.0
  0
VERTEX
  8
BOT
 10
2.0880
 20
1.0520
 30
 0.0
 42
1.0
  0
SEQEND
  8
BOT
  0
POLYLINE
  8
DRL
 66
      1
 70
1
 40
0.0100
 41
0.0100
  0
VERTEX
  8
DRL
 10
2.0740
 20
1.0520
 30
 0.0
 42
1.0
  0
VERTEX
  8
DRL
 10
2.0840
 20
1.0520
 30
 0.0
 42
1.0
  0
SEQEND
  8
DRL
  0
POLYLINE
  8
BOT
 66
      1
 70
1
 40
0.0190
 41
0.0190
  0
VERTEX
  8
BOT
 10
2.1180
 20
1.1390
 30
 0.0
 42
1.0
  0
VERTEX
  8
BOT
 10
2.1360
 20
1.1390
 30
 0.0
 42
1.0
  0
SEQEND
  8
BOT
  0
POLYLINE
  8
DRL
 66
      1
 70
1
 40
0.0100
 41
0.0100
  0
VERTEX
  8
DRL
 10
2.1220
 20
1.1390
 30
 0.0
 42
1.0
  0
VERTEX
  8
DRL
 10
2.1320
 20
1.1390
 30
 0.0
 42
1.0
  0
SEQEND
  8
DRL
  0
POLYLINE
  8
BOT
 66
      1
 70
1
 40
0.0190
 41
0.0190
  0
VERTEX
  8
BOT
 10
2.0180
 20
1.0960
 30
 0.0
 42
1.0
  0
VERTEX
  8
BOT
 10
2.0360
 20
1.0960
 30
 0.0
 42
1.0
  0
SEQEND
  8
BOT
  0
POLYLINE
  8
DRL
 66
      1
 70
1
 40
0.0100
 41
0.0100
  0
VERTEX
  8
DRL
 10
2.0220
 20
1.0960
 30
 0.0
 42
1.0
  0
VERTEX
  8
DRL
 10
2.0320
 20
1.0960
 30
 0.0
 42
1.0
  0
SEQEND
  8
DRL
  0
POLYLINE
  8
BOT
 66
      1
 70
1
 40
0.0190
 41
0.0190
  0
VERTEX
  8
BOT
 10
3.5120
 20
0.8600
 30
 0.0
 42
1.0
  0
VERTEX
  8
BOT
 10
3.5300
 20
0.8600
 30
 0.0
 42
1.0
  0
SEQEND
  8
BOT
  0
POLYLINE
  8
DRL
 66
      1
 70
1
 40
0.0100
 41
0.0100
  0
VERTEX
  8
DRL
 10
3.5160
 20
0.8600
 30
 0.0
 42
1.0
  0
VERTEX
  8
DRL
 10
3.5260
 20
0.8600
 30
 0.0
 42
1.0
  0
SEQEND
  8
DRL
  0
POLYLINE
  8
BOT
 66
      1
 70
1
 40
0.0190
 41
0.0190
  0
VERTEX
  8
BOT
 10
3.4490
 20
0.9930
 30
 0.0
 42
1.0
  0
VERTEX
  8
BOT
 10
3.4670
 20
0.9930
 30
 0.0
 42
1.0
  0
SEQEND
  8
BOT
  0
POLYLINE
  8
DRL
 66
      1
 70
1
 40
0.0100
 41
0.0100
  0
VERTEX
  8
DRL
 10
3.4530
 20
0.9930
 30
 0.0
 42
1.0
  0
VERTEX
  8
DRL
 10
3.4630
 20
0.9930
 30
 0.0
 42
1.0
  0
SEQEND
  8
DRL
  0
POLYLINE
  8
BOT
 66
      1
 70
1
 40
0.0190
 41
0.0190
  0
VERTEX
  8
BOT
 10
3.5450
 20
0.9660
 30
 0.0
 42
1.0
  0
VERTEX
  8
BOT
 10
3.5630
 20
0.9660
 30
 0.0
 42
1.0
  0
SEQEND
  8
BOT
  0
POLYLINE
  8
DRL
 66
      1
 70
1
 40
0.0100
 41
0.0100
  0
VERTEX
  8
DRL
 10
3.5490
 20
0.9660
 30
 0.0
 42
1.0
  0
VERTEX
  8
DRL
 10
3.5590
 20
0.9660
 30
 0.0
 42
1.0
  0
SEQEND
  8
DRL
  0
POLYLINE
  8
BOT
 66
      1
 70
1
 40
0.0190
 41
0.0190
  0
VERTEX
  8
BOT
 10
3.5310
 20
1.0440
 30
 0.0
 42
1.0
  0
VERTEX
  8
BOT
 10
3.5490
 20
1.0440
 30
 0.0
 42
1.0
  0
SEQEND
  8
BOT
  0
POLYLINE
  8
DRL
 66
      1
 70
1
 40
0.0100
 41
0.0100
  0
VERTEX
  8
DRL
 10
3.5350
 20
1.0440
 30
 0.0
 42
1.0
  0
VERTEX
  8
DRL
 10
3.5450
 20
1.0440
 30
 0.0
 42
1.0
  0
SEQEND
  8
DRL
  0
POLYLINE
  8
BOT
 66
      1
 70
1
 40
0.0190
 41
0.0190
  0
VERTEX
  8
BOT
 10
2.2740
 20
1.1320
 30
 0.0
 42
1.0
  0
VERTEX
  8
BOT
 10
2.2920
 20
1.1320
 30
 0.0
 42
1.0
  0
SEQEND
  8
BOT
  0
POLYLINE
  8
DRL
 66
      1
 70
1
 40
0.0100
 41
0.0100
  0
VERTEX
  8
DRL
 10
2.2780
 20
1.1320
 30
 0.0
 42
1.0
  0
VERTEX
  8
DRL
 10
2.2880
 20
1.1320
 30
 0.0
 42
1.0
  0
SEQEND
  8
DRL
  0
POLYLINE
  8
BOT
 66
      1
 70
1
 40
0.0190
 41
0.0190
  0
VERTEX
  8
BOT
 10
1.9840
 20
2.1170
 30
 0.0
 42
1.0
  0
VERTEX
  8
BOT
 10
2.0020
 20
2.1170
 30
 0.0
 42
1.0
  0
SEQEND
  8
BOT
  0
POLYLINE
  8
DRL
 66
      1
 70
1
 40
0.0100
 41
0.0100
  0
VERTEX
  8
DRL
 10
1.9880
 20
2.1170
 30
 0.0
 42
1.0
  0
VERTEX
  8
DRL
 10
1.9980
 20
2.1170
 30
 0.0
 42
1.0
  0
SEQEND
  8
DRL
  0
POLYLINE
  8
BOT
 66
      1
 70
1
 40
0.0190
 41
0.0190
  0
VERTEX
  8
BOT
 10
1.7020
 20
0.6340
 30
 0.0
 42
1.0
  0
VERTEX
  8
BOT
 10
1.7200
 20
0.6340
 30
 0.0
 42
1.0
  0
SEQEND
  8
BOT
  0
POLYLINE
  8
DRL
 66
      1
 70
1
 40
0.0100
 41
0.0100
  0
VERTEX
  8
DRL
 10
1.7060
 20
0.6340
 30
 0.0
 42
1.0
  0
VERTEX
  8
DRL
 10
1.7160
 20
0.6340
 30
 0.0
 42
1.0
  0
SEQEND
  8
DRL
  0
POLYLINE
  8
BOT
 66
      1
 70
1
 40
0.0190
 41
0.0190
  0
VERTEX
  8
BOT
 10
2.0950
 20
1.7520
 30
 0.0
 42
1.0
  0
VERTEX
  8
BOT
 10
2.1130
 20
1.7520
 30
 0.0
 42
1.0
  0
SEQEND
  8
BOT
  0
POLYLINE
  8
DRL
 66
      1
 70
1
 40
0.0100
 41
0.0100
  0
VERTEX
  8
DRL
 10
2.0990
 20
1.7520
 30
 0.0
 42
1.0
  0
VERTEX
  8
DRL
 10
2.1090
 20
1.7520
 30
 0.0
 42
1.0
  0
SEQEND
  8
DRL
  0
POLYLINE
  8
BOT
 66
      1
 70
1
 40
0.0190
 41
0.0190
  0
VERTEX
  8
BOT
 10
1.8550
 20
1.7520
 30
 0.0
 42
1.0
  0
VERTEX
  8
BOT
 10
1.8730
 20
1.7520
 30
 0.0
 42
1.0
  0
SEQEND
  8
BOT
  0
POLYLINE
  8
DRL
 66
      1
 70
1
 40
0.0100
 41
0.0100
  0
VERTEX
  8
DRL
 10
1.8590
 20
1.7520
 30
 0.0
 42
1.0
  0
VERTEX
  8
DRL
 10
1.8690
 20
1.7520
 30
 0.0
 42
1.0
  0
SEQEND
  8
DRL
  0
POLYLINE
  8
BOT
 66
      1
 70
1
 40
0.0190
 41
0.0190
  0
VERTEX
  8
BOT
 10
1.7620
 20
1.6150
 30
 0.0
 42
1.0
  0
VERTEX
  8
BOT
 10
1.7800
 20
1.6150
 30
 0.0
 42
1.0
  0
SEQEND
  8
BOT
  0
POLYLINE
  8
DRL
 66
      1
 70
1
 40
0.0100
 41
0.0100
  0
VERTEX
  8
DRL
 10
1.7660
 20
1.6150
 30
 0.0
 42
1.0
  0
VERTEX
  8
DRL
 10
1.7760
 20
1.6150
 30
 0.0
 42
1.0
  0
SEQEND
  8
DRL
  0
POLYLINE
  8
BOT
 66
      1
 70
1
 40
0.0190
 41
0.0190
  0
VERTEX
  8
BOT
 10
1.7610
 20
1.4370
 30
 0.0
 42
1.0
  0
VERTEX
  8
BOT
 10
1.7790
 20
1.4370
 30
 0.0
 42
1.0
  0
SEQEND
  8
BOT
  0
POLYLINE
  8
DRL
 66
      1
 70
1
 40
0.0100
 41
0.0100
  0
VERTEX
  8
DRL
 10
1.7650
 20
1.4370
 30
 0.0
 42
1.0
  0
VERTEX
  8
DRL
 10
1.7750
 20
1.4370
 30
 0.0
 42
1.0
  0
SEQEND
  8
DRL
  0
POLYLINE
  8
BOT
 66
      1
 70
1
 40
0.0190
 41
0.0190
  0
VERTEX
  8
BOT
 10
1.9120
 20
1.3950
 30
 0.0
 42
1.0
  0
VERTEX
  8
BOT
 10
1.9300
 20
1.3950
 30
 0.0
 42
1.0
  0
SEQEND
  8
BOT
  0
POLYLINE
  8
DRL
 66
      1
 70
1
 40
0.0100
 41
0.0100
  0
VERTEX
  8
DRL
 10
1.9160
 20
1.3950
 30
 0.0
 42
1.0
  0
VERTEX
  8
DRL
 10
1.9260
 20
1.3950
 30
 0.0
 42
1.0
  0
SEQEND
  8
DRL
  0
POLYLINE
  8
BOT
 66
      1
 70
1
 40
0.0190
 41
0.0190
  0
VERTEX
  8
BOT
 10
2.1300
 20
1.5550
 30
 0.0
 42
1.0
  0
VERTEX
  8
BOT
 10
2.1480
 20
1.5550
 30
 0.0
 42
1.0
  0
SEQEND
  8
BOT
  0
POLYLINE
  8
DRL
 66
      1
 70
1
 40
0.0100
 41
0.0100
  0
VERTEX
  8
DRL
 10
2.1340
 20
1.5550
 30
 0.0
 42
1.0
  0
VERTEX
  8
DRL
 10
2.1440
 20
1.5550
 30
 0.0
 42
1.0
  0
SEQEND
  8
DRL
  0
POLYLINE
  8
BOT
 66
      1
 70
1
 40
0.0190
 41
0.0190
  0
VERTEX
  8
BOT
 10
2.2390
 20
1.2060
 30
 0.0
 42
1.0
  0
VERTEX
  8
BOT
 10
2.2570
 20
1.2060
 30
 0.0
 42
1.0
  0
SEQEND
  8
BOT
  0
POLYLINE
  8
DRL
 66
      1
 70
1
 40
0.0100
 41
0.0100
  0
VERTEX
  8
DRL
 10
2.2430
 20
1.2060
 30
 0.0
 42
1.0
  0
VERTEX
  8
DRL
 10
2.2530
 20
1.2060
 30
 0.0
 42
1.0
  0
SEQEND
  8
DRL
  0
POLYLINE
  8
BOT
 66
      1
 70
1
 40
0.0190
 41
0.0190
  0
VERTEX
  8
BOT
 10
2.5150
 20
1.3210
 30
 0.0
 42
1.0
  0
VERTEX
  8
BOT
 10
2.5330
 20
1.3210
 30
 0.0
 42
1.0
  0
SEQEND
  8
BOT
  0
POLYLINE
  8
DRL
 66
      1
 70
1
 40
0.0100
 41
0.0100
  0
VERTEX
  8
DRL
 10
2.5190
 20
1.3210
 30
 0.0
 42
1.0
  0
VERTEX
  8
DRL
 10
2.5290
 20
1.3210
 30
 0.0
 42
1.0
  0
SEQEND
  8
DRL
  0
POLYLINE
  8
BOT
 66
      1
 70
1
 40
0.0190
 41
0.0190
  0
VERTEX
  8
BOT
 10
1.4020
 20
0.8820
 30
 0.0
 42
1.0
  0
VERTEX
  8
BOT
 10
1.4200
 20
0.8820
 30
 0.0
 42
1.0
  0
SEQEND
  8
BOT
  0
POLYLINE
  8
DRL
 66
      1
 70
1
 40
0.0100
 41
0.0100
  0
VERTEX
  8
DRL
 10
1.4060
 20
0.8820
 30
 0.0
 42
1.0
  0
VERTEX
  8
DRL
 10
1.4160
 20
0.8820
 30
 0.0
 42
1.0
  0
SEQEND
  8
DRL
  0
POLYLINE
  8
BOT
 66
      1
 70
1
 40
0.0190
 41
0.0190
  0
VERTEX
  8
BOT
 10
3.5720
 20
1.1740
 30
 0.0
 42
1.0
  0
VERTEX
  8
BOT
 10
3.5900
 20
1.1740
 30
 0.0
 42
1.0
  0
SEQEND
  8
BOT
  0
POLYLINE
  8
DRL
 66
      1
 70
1
 40
0.0100
 41
0.0100
  0
VERTEX
  8
DRL
 10
3.5760
 20
1.1740
 30
 0.0
 42
1.0
  0
VERTEX
  8
DRL
 10
3.5860
 20
1.1740
 30
 0.0
 42
1.0
  0
SEQEND
  8
DRL
  0
POLYLINE
  8
BOT
 66
      1
 70
1
 40
0.0190
 41
0.0190
  0
VERTEX
  8
BOT
 10
3.2460
 20
1.2000
 30
 0.0
 42
1.0
  0
VERTEX
  8
BOT
 10
3.2640
 20
1.2000
 30
 0.0
 42
1.0
  0
SEQEND
  8
BOT
  0
POLYLINE
  8
DRL
 66
      1
 70
1
 40
0.0100
 41
0.0100
  0
VERTEX
  8
DRL
 10
3.2500
 20
1.2000
 30
 0.0
 42
1.0
  0
VERTEX
  8
DRL
 10
3.2600
 20
1.2000
 30
 0.0
 42
1.0
  0
SEQEND
  8
DRL
  0
POLYLINE
  8
BOT
 66
      1
 70
1
 40
0.0190
 41
0.0190
  0
VERTEX
  8
BOT
 10
2.8280
 20
2.2150
 30
 0.0
 42
1.0
  0
VERTEX
  8
BOT
 10
2.8460
 20
2.2150
 30
 0.0
 42
1.0
  0
SEQEND
  8
BOT
  0
POLYLINE
  8
DRL
 66
      1
 70
1
 40
0.0100
 41
0.0100
  0
VERTEX
  8
DRL
 10
2.8320
 20
2.2150
 30
 0.0
 42
1.0
  0
VERTEX
  8
DRL
 10
2.8420
 20
2.2150
 30
 0.0
 42
1.0
  0
SEQEND
  8
DRL
  0
POLYLINE
  8
BOT
 66
      1
 70
1
 40
0.0190
 41
0.0190
  0
VERTEX
  8
BOT
 10
2.3790
 20
1.1190
 30
 0.0
 42
1.0
  0
VERTEX
  8
BOT
 10
2.3970
 20
1.1190
 30
 0.0
 42
1.0
  0
SEQEND
  8
BOT
  0
POLYLINE
  8
DRL
 66
      1
 70
1
 40
0.0100
 41
0.0100
  0
VERTEX
  8
DRL
 10
2.3830
 20
1.1190
 30
 0.0
 42
1.0
  0
VERTEX
  8
DRL
 10
2.3930
 20
1.1190
 30
 0.0
 42
1.0
  0
SEQEND
  8
DRL
  0
POLYLINE
  8
BOT
 66
      1
 70
1
 40
0.0190
 41
0.0190
  0
VERTEX
  8
BOT
 10
2.2720
 20
1.2900
 30
 0.0
 42
1.0
  0
VERTEX
  8
BOT
 10
2.2900
 20
1.2900
 30
 0.0
 42
1.0
  0
SEQEND
  8
BOT
  0
POLYLINE
  8
DRL
 66
      1
 70
1
 40
0.0100
 41
0.0100
  0
VERTEX
  8
DRL
 10
2.2760
 20
1.2900
 30
 0.0
 42
1.0
  0
VERTEX
  8
DRL
 10
2.2860
 20
1.2900
 30
 0.0
 42
1.0
  0
SEQEND
  8
DRL
  0
POLYLINE
  8
BOT
 66
      1
 70
1
 40
0.0190
 41
0.0190
  0
VERTEX
  8
BOT
 10
1.8450
 20
1.2050
 30
 0.0
 42
1.0
  0
VERTEX
  8
BOT
 10
1.8630
 20
1.2050
 30
 0.0
 42
1.0
  0
SEQEND
  8
BOT
  0
POLYLINE
  8
DRL
 66
      1
 70
1
 40
0.0100
 41
0.0100
  0
VERTEX
  8
DRL
 10
1.8490
 20
1.2050
 30
 0.0
 42
1.0
  0
VERTEX
  8
DRL
 10
1.8590
 20
1.2050
 30
 0.0
 42
1.0
  0
SEQEND
  8
DRL
  0
POLYLINE
  8
BOT
 66
      1
 70
1
 40
0.0190
 41
0.0190
  0
VERTEX
  8
BOT
 10
1.7160
 20
0.8410
 30
 0.0
 42
1.0
  0
VERTEX
  8
BOT
 10
1.7340
 20
0.8410
 30
 0.0
 42
1.0
  0
SEQEND
  8
BOT
  0
POLYLINE
  8
DRL
 66
      1
 70
1
 40
0.0100
 41
0.0100
  0
VERTEX
  8
DRL
 10
1.7200
 20
0.8410
 30
 0.0
 42
1.0
  0
VERTEX
  8
DRL
 10
1.7300
 20
0.8410
 30
 0.0
 42
1.0
  0
SEQEND
  8
DRL
  0
POLYLINE
  8
BOT
 66
      1
 70
1
 40
0.0210
 41
0.0210
  0
VERTEX
  8
BOT
 10
2.1990
 20
2.3630
 30
 0.0
 42
1.0
  0
VERTEX
  8
BOT
 10
2.2190
 20
2.3630
 30
 0.0
 42
1.0
  0
SEQEND
  8
BOT
  0
POLYLINE
  8
DRL
 66
      1
 70
1
 40
0.0140
 41
0.0140
  0
VERTEX
  8
DRL
 10
2.2020
 20
2.3630
 30
 0.0
 42
1.0
  0
VERTEX
  8
DRL
 10
2.2160
 20
2.3630
 30
 0.0
 42
1.0
  0
SEQEND
  8
DRL
  0
POLYLINE
  8
BOT
 66
      1
 70
1
 40
0.0210
 41
0.0210
  0
VERTEX
  8
BOT
 10
2.1990
 20
2.4100
 30
 0.0
 42
1.0
  0
VERTEX
  8
BOT
 10
2.2190
 20
2.4100
 30
 0.0
 42
1.0
  0
SEQEND
  8
BOT
  0
POLYLINE
  8
DRL
 66
      1
 70
1
 40
0.0140
 41
0.0140
  0
VERTEX
  8
DRL
 10
2.2020
 20
2.4100
 30
 0.0
 42
1.0
  0
VERTEX
  8
DRL
 10
2.2160
 20
2.4100
 30
 0.0
 42
1.0
  0
SEQEND
  8
DRL
  0
POLYLINE
  8
BOT
 66
      1
 70
1
 40
0.0210
 41
0.0210
  0
VERTEX
  8
BOT
 10
2.2540
 20
2.4100
 30
 0.0
 42
1.0
  0
VERTEX
  8
BOT
 10
2.2740
 20
2.4100
 30
 0.0
 42
1.0
  0
SEQEND
  8
BOT
  0
POLYLINE
  8
DRL
 66
      1
 70
1
 40
0.0140
 41
0.0140
  0
VERTEX
  8
DRL
 10
2.2570
 20
2.4100
 30
 0.0
 42
1.0
  0
VERTEX
  8
DRL
 10
2.2710
 20
2.4100
 30
 0.0
 42
1.0
  0
SEQEND
  8
DRL
  0
POLYLINE
  8
BOT
 66
      1
 70
1
 40
0.0210
 41
0.0210
  0
VERTEX
  8
BOT
 10
2.1990
 20
2.3160
 30
 0.0
 42
1.0
  0
VERTEX
  8
BOT
 10
2.2190
 20
2.3160
 30
 0.0
 42
1.0
  0
SEQEND
  8
BOT
  0
POLYLINE
  8
DRL
 66
      1
 70
1
 40
0.0140
 41
0.0140
  0
VERTEX
  8
DRL
 10
2.2020
 20
2.3160
 30
 0.0
 42
1.0
  0
VERTEX
  8
DRL
 10
2.2160
 20
2.3160
 30
 0.0
 42
1.0
  0
SEQEND
  8
DRL
  0
POLYLINE
  8
BOT
 66
      1
 70
1
 40
0.0210
 41
0.0210
  0
VERTEX
  8
BOT
 10
2.2540
 20
2.3630
 30
 0.0
 42
1.0
  0
VERTEX
  8
BOT
 10
2.2740
 20
2.3630
 30
 0.0
 42
1.0
  0
SEQEND
  8
BOT
  0
POLYLINE
  8
DRL
 66
      1
 70
1
 40
0.0140
 41
0.0140
  0
VERTEX
  8
DRL
 10
2.2570
 20
2.3630
 30
 0.0
 42
1.0
  0
VERTEX
  8
DRL
 10
2.2710
 20
2.3630
 30
 0.0
 42
1.0
  0
SEQEND
  8
DRL
  0
POLYLINE
  8
BOT
 66
      1
 70
1
 40
0.0210
 41
0.0210
  0
VERTEX
  8
BOT
 10
2.2540
 20
2.3160
 30
 0.0
 42
1.0
  0
VERTEX
  8
BOT
 10
2.2740
 20
2.3160
 30
 0.0
 42
1.0
  0
SEQEND
  8
BOT
  0
POLYLINE
  8
DRL
 66
      1
 70
1
 40
0.0140
 41
0.0140
  0
VERTEX
  8
DRL
 10
2.2570
 20
2.3160
 30
 0.0
 42
1.0
  0
VERTEX
  8
DRL
 10
2.2710
 20
2.3160
 30
 0.0
 42
1.0
  0
SEQEND
  8
DRL
  0
POLYLINE
  8
BOT
 66
      1
 70
1
 40
0.0190
 41
0.0190
  0
VERTEX
  8
BOT
 10
0.2690
 20
1.6850
 30
 0.0
 42
1.0
  0
VERTEX
  8
BOT
 10
0.2870
 20
1.6850
 30
 0.0
 42
1.0
  0
SEQEND
  8
BOT
  0
POLYLINE
  8
DRL
 66
      1
 70
1
 40
0.0100
 41
0.0100
  0
VERTEX
  8
DRL
 10
0.2730
 20
1.6850
 30
 0.0
 42
1.0
  0
VERTEX
  8
DRL
 10
0.2830
 20
1.6850
 30
 0.0
 42
1.0
  0
SEQEND
  8
DRL
  0
POLYLINE
  8
BOT
 66
      1
 70
1
 40
0.0190
 41
0.0190
  0
VERTEX
  8
BOT
 10
3.7990
 20
0.6730
 30
 0.0
 42
1.0
  0
VERTEX
  8
BOT
 10
3.8170
 20
0.6730
 30
 0.0
 42
1.0
  0
SEQEND
  8
BOT
  0
POLYLINE
  8
DRL
 66
      1
 70
1
 40
0.0100
 41
0.0100
  0
VERTEX
  8
DRL
 10
3.8030
 20
0.6730
 30
 0.0
 42
1.0
  0
VERTEX
  8
DRL
 10
3.8130
 20
0.6730
 30
 0.0
 42
1.0
  0
SEQEND
  8
DRL
  0
POLYLINE
  8
BOT
 66
      1
 70
1
 40
0.0190
 41
0.0190
  0
VERTEX
  8
BOT
 10
2.8280
 20
2.2720
 30
 0.0
 42
1.0
  0
VERTEX
  8
BOT
 10
2.8460
 20
2.2720
 30
 0.0
 42
1.0
  0
SEQEND
  8
BOT
  0
POLYLINE
  8
DRL
 66
      1
 70
1
 40
0.0100
 41
0.0100
  0
VERTEX
  8
DRL
 10
2.8320
 20
2.2720
 30
 0.0
 42
1.0
  0
VERTEX
  8
DRL
 10
2.8420
 20
2.2720
 30
 0.0
 42
1.0
  0
SEQEND
  8
DRL
  0
POLYLINE
  8
BOT
 66
      1
 70
1
 40
0.0190
 41
0.0190
  0
VERTEX
  8
BOT
 10
1.4960
 20
1.2140
 30
 0.0
 42
1.0
  0
VERTEX
  8
BOT
 10
1.5140
 20
1.2140
 30
 0.0
 42
1.0
  0
SEQEND
  8
BOT
  0
POLYLINE
  8
DRL
 66
      1
 70
1
 40
0.0100
 41
0.0100
  0
VERTEX
  8
DRL
 10
1.5000
 20
1.2140
 30
 0.0
 42
1.0
  0
VERTEX
  8
DRL
 10
1.5100
 20
1.2140
 30
 0.0
 42
1.0
  0
SEQEND
  8
DRL
  0
POLYLINE
  8
BOT
 66
      1
 70
1
 40
0.0190
 41
0.0190
  0
VERTEX
  8
BOT
 10
0.1750
 20
0.8230
 30
 0.0
 42
1.0
  0
VERTEX
  8
BOT
 10
0.1930
 20
0.8230
 30
 0.0
 42
1.0
  0
SEQEND
  8
BOT
  0
POLYLINE
  8
DRL
 66
      1
 70
1
 40
0.0100
 41
0.0100
  0
VERTEX
  8
DRL
 10
0.1790
 20
0.8230
 30
 0.0
 42
1.0
  0
VERTEX
  8
DRL
 10
0.1890
 20
0.8230
 30
 0.0
 42
1.0
  0
SEQEND
  8
DRL
  0
POLYLINE
  8
BOT
 66
      1
 70
1
 40
0.0190
 41
0.0190
  0
VERTEX
  8
BOT
 10
0.1780
 20
0.4840
 30
 0.0
 42
1.0
  0
VERTEX
  8
BOT
 10
0.1960
 20
0.4840
 30
 0.0
 42
1.0
  0
SEQEND
  8
BOT
  0
POLYLINE
  8
DRL
 66
      1
 70
1
 40
0.0100
 41
0.0100
  0
VERTEX
  8
DRL
 10
0.1820
 20
0.4840
 30
 0.0
 42
1.0
  0
VERTEX
  8
DRL
 10
0.1920
 20
0.4840
 30
 0.0
 42
1.0
  0
SEQEND
  8
DRL
  0
POLYLINE
  8
BOT
 66
      1
 70
1
 40
0.0190
 41
0.0190
  0
VERTEX
  8
BOT
 10
1.2390
 20
0.4700
 30
 0.0
 42
1.0
  0
VERTEX
  8
BOT
 10
1.2570
 20
0.4700
 30
 0.0
 42
1.0
  0
SEQEND
  8
BOT
  0
POLYLINE
  8
DRL
 66
      1
 70
1
 40
0.0100
 41
0.0100
  0
VERTEX
  8
DRL
 10
1.2430
 20
0.4700
 30
 0.0
 42
1.0
  0
VERTEX
  8
DRL
 10
1.2530
 20
0.4700
 30
 0.0
 42
1.0
  0
SEQEND
  8
DRL
  0
POLYLINE
  8
BOT
 66
      1
 70
1
 40
0.0190
 41
0.0190
  0
VERTEX
  8
BOT
 10
1.0500
 20
0.4650
 30
 0.0
 42
1.0
  0
VERTEX
  8
BOT
 10
1.0680
 20
0.4650
 30
 0.0
 42
1.0
  0
SEQEND
  8
BOT
  0
POLYLINE
  8
DRL
 66
      1
 70
1
 40
0.0100
 41
0.0100
  0
VERTEX
  8
DRL
 10
1.0540
 20
0.4650
 30
 0.0
 42
1.0
  0
VERTEX
  8
DRL
 10
1.0640
 20
0.4650
 30
 0.0
 42
1.0
  0
SEQEND
  8
DRL
  0
POLYLINE
  8
BOT
 66
      1
 70
1
 40
0.0190
 41
0.0190
  0
VERTEX
  8
BOT
 10
2.9280
 20
2.5410
 30
 0.0
 42
1.0
  0
VERTEX
  8
BOT
 10
2.9460
 20
2.5410
 30
 0.0
 42
1.0
  0
SEQEND
  8
BOT
  0
POLYLINE
  8
DRL
 66
      1
 70
1
 40
0.0100
 41
0.0100
  0
VERTEX
  8
DRL
 10
2.9320
 20
2.5410
 30
 0.0
 42
1.0
  0
VERTEX
  8
DRL
 10
2.9420
 20
2.5410
 30
 0.0
 42
1.0
  0
SEQEND
  8
DRL
  0
POLYLINE
  8
BOT
 66
      1
 70
1
 40
0.0190
 41
0.0190
  0
VERTEX
  8
BOT
 10
3.7790
 20
2.5380
 30
 0.0
 42
1.0
  0
VERTEX
  8
BOT
 10
3.7970
 20
2.5380
 30
 0.0
 42
1.0
  0
SEQEND
  8
BOT
  0
POLYLINE
  8
DRL
 66
      1
 70
1
 40
0.0100
 41
0.0100
  0
VERTEX
  8
DRL
 10
3.7830
 20
2.5380
 30
 0.0
 42
1.0
  0
VERTEX
  8
DRL
 10
3.7930
 20
2.5380
 30
 0.0
 42
1.0
  0
SEQEND
  8
DRL
  0
POLYLINE
  8
BOT
 66
      1
 70
1
 40
0.0190
 41
0.0190
  0
VERTEX
  8
BOT
 10
3.4270
 20
2.2580
 30
 0.0
 42
1.0
  0
VERTEX
  8
BOT
 10
3.4450
 20
2.2580
 30
 0.0
 42
1.0
  0
SEQEND
  8
BOT
  0
POLYLINE
  8
DRL
 66
      1
 70
1
 40
0.0100
 41
0.0100
  0
VERTEX
  8
DRL
 10
3.4310
 20
2.2580
 30
 0.0
 42
1.0
  0
VERTEX
  8
DRL
 10
3.4410
 20
2.2580
 30
 0.0
 42
1.0
  0
SEQEND
  8
DRL
  0
POLYLINE
  8
BOT
 66
      1
 70
1
 40
0.0190
 41
0.0190
  0
VERTEX
  8
BOT
 10
3.4270
 20
2.1320
 30
 0.0
 42
1.0
  0
VERTEX
  8
BOT
 10
3.4450
 20
2.1320
 30
 0.0
 42
1.0
  0
SEQEND
  8
BOT
  0
POLYLINE
  8
DRL
 66
      1
 70
1
 40
0.0100
 41
0.0100
  0
VERTEX
  8
DRL
 10
3.4310
 20
2.1320
 30
 0.0
 42
1.0
  0
VERTEX
  8
DRL
 10
3.4410
 20
2.1320
 30
 0.0
 42
1.0
  0
SEQEND
  8
DRL
  0
POLYLINE
  8
BOT
 66
      1
 70
1
 40
0.0190
 41
0.0190
  0
VERTEX
  8
BOT
 10
0.5700
 20
1.6230
 30
 0.0
 42
1.0
  0
VERTEX
  8
BOT
 10
0.5880
 20
1.6230
 30
 0.0
 42
1.0
  0
SEQEND
  8
BOT
  0
POLYLINE
  8
DRL
 66
      1
 70
1
 40
0.0100
 41
0.0100
  0
VERTEX
  8
DRL
 10
0.5740
 20
1.6230
 30
 0.0
 42
1.0
  0
VERTEX
  8
DRL
 10
0.5840
 20
1.6230
 30
 0.0
 42
1.0
  0
SEQEND
  8
DRL
  0
POLYLINE
  8
BOT
 66
      1
 70
1
 40
0.0190
 41
0.0190
  0
VERTEX
  8
BOT
 10
0.8180
 20
2.0320
 30
 0.0
 42
1.0
  0
VERTEX
  8
BOT
 10
0.8360
 20
2.0320
 30
 0.0
 42
1.0
  0
SEQEND
  8
BOT
  0
POLYLINE
  8
DRL
 66
      1
 70
1
 40
0.0100
 41
0.0100
  0
VERTEX
  8
DRL
 10
0.8220
 20
2.0320
 30
 0.0
 42
1.0
  0
VERTEX
  8
DRL
 10
0.8320
 20
2.0320
 30
 0.0
 42
1.0
  0
SEQEND
  8
DRL
  0
POLYLINE
  8
SSB
 66
      1
 70
1
 40
0.0060
 41
0.0060
  0
VERTEX
  8
SSB
 10
3.5630
 20
1.0940
 30
 0.0
 42
0.8827822185373189
  0
VERTEX
  8
SSB
 10
3.4990
 20
1.0940
 30
 0.0
  0
VERTEX
  8
SSB
 10
3.4990
 20
0.9860
 30
 0.0
 42
0.9394512213675873
  0
VERTEX
  8
SSB
 10
3.5630
 20
0.9860
 30
 0.0
  0
VERTEX
  8
SSB
 10
3.5630
 20
1.0940
 30
 0.0
  0
SEQEND
  8
SSB
  0
POLYLINE
  8
SSB
 66
      1
 70
1
 40
0.0030
 41
0.0030
  0
VERTEX
  8
SSB
 10
3.5615
 20
1.0940
 30
 0.0
 42
1.0
  0
VERTEX
  8
SSB
 10
3.5645
 20
1.0940
 30
 0.0
 42
1.0
  0
SEQEND
  8
SSB
  0
POLYLINE
  8
SSB
 66
      1
 70
1
 40
0.0030
 41
0.0030
  0
VERTEX
  8
SSB
 10
3.4975
 20
1.0940
 30
 0.0
 42
1.0
  0
VERTEX
  8
SSB
 10
3.5005
 20
1.0940
 30
 0.0
 42
1.0
  0
SEQEND
  8
SSB
  0
POLYLINE
  8
SSB
 66
      1
 70
1
 40
0.0030
 41
0.0030
  0
VERTEX
  8
SSB
 10
3.4975
 20
0.9860
 30
 0.0
 42
1.0
  0
VERTEX
  8
SSB
 10
3.5005
 20
0.9860
 30
 0.0
 42
1.0
  0
SEQEND
  8
SSB
  0
POLYLINE
  8
SSB
 66
      1
 70
1
 40
0.0030
 41
0.0030
  0
VERTEX
  8
SSB
 10
3.5615
 20
0.9860
 30
 0.0
 42
1.0
  0
VERTEX
  8
SSB
 10
3.5645
 20
0.9860
 30
 0.0
 42
1.0
  0
SEQEND
  8
SSB
  0
POLYLINE
  8
SSB
 66
      1
 70
1
 40
0.0030
 41
0.0030
  0
VERTEX
  8
SSB
 10
3.5615
 20
1.0940
 30
 0.0
 42
1.0
  0
VERTEX
  8
SSB
 10
3.5645
 20
1.0940
 30
 0.0
 42
1.0
  0
SEQEND
  8
SSB
  0
POLYLINE
  8
SSB
 66
      1
 70
1
 40
0.0140
 41
0.0140
  0
VERTEX
  8
SSB
 10
3.7110
 20
0.2780
 30
 0.0
  0
VERTEX
  8
SSB
 10
3.7110
 20
1.2740
 30
 0.0
  0
VERTEX
  8
SSB
 10
3.1180
 20
1.2740
 30
 0.0
  0
VERTEX
  8
SSB
 10
3.1180
 20
1.3130
 30
 0.0
  0
VERTEX
  8
SSB
 10
2.9490
 20
1.3130
 30
 0.0
  0
VERTEX
  8
SSB
 10
2.9490
 20
0.2780
 30
 0.0
  0
VERTEX
  8
SSB
 10
3.0860
 20
0.2780
 30
 0.0
  0
VERTEX
  8
SSB
 10
3.0860
 20
0.2800
 30
 0.0
 42
-0.1317581078529008
  0
VERTEX
  8
SSB
 10
3.5730
 20
0.2800
 30
 0.0
  0
VERTEX
  8
SSB
 10
3.5730
 20
0.2780
 30
 0.0
  0
VERTEX
  8
SSB
 10
3.7110
 20
0.2780
 30
 0.0
  0
SEQEND
  8
SSB
  0
POLYLINE
  8
SSB
 66
      1
 70
1
 40
0.0070
 41
0.0070
  0
VERTEX
  8
SSB
 10
3.7075
 20
0.2780
 30
 0.0
 42
1.0
  0
VERTEX
  8
SSB
 10
3.7145
 20
0.2780
 30
 0.0
 42
1.0
  0
SEQEND
  8
SSB
  0
POLYLINE
  8
SSB
 66
      1
 70
1
 40
0.0070
 41
0.0070
  0
VERTEX
  8
SSB
 10
3.7075
 20
1.2740
 30
 0.0
 42
1.0
  0
VERTEX
  8
SSB
 10
3.7145
 20
1.2740
 30
 0.0
 42
1.0
  0
SEQEND
  8
SSB
  0
POLYLINE
  8
SSB
 66
      1
 70
1
 40
0.0070
 41
0.0070
  0
VERTEX
  8
SSB
 10
3.1145
 20
1.2740
 30
 0.0
 42
1.0
  0
VERTEX
  8
SSB
 10
3.1215
 20
1.2740
 30
 0.0
 42
1.0
  0
SEQEND
  8
SSB
  0
POLYLINE
  8
SSB
 66
      1
 70
1
 40
0.0070
 41
0.0070
  0
VERTEX
  8
SSB
 10
3.1145
 20
1.3130
 30
 0.0
 42
1.0
  0
VERTEX
  8
SSB
 10
3.1215
 20
1.3130
 30
 0.0
 42
1.0
  0
SEQEND
  8
SSB
  0
POLYLINE
  8
SSB
 66
      1
 70
1
 40
0.0070
 41
0.0070
  0
VERTEX
  8
SSB
 10
2.9455
 20
1.3130
 30
 0.0
 42
1.0
  0
VERTEX
  8
SSB
 10
2.9525
 20
1.3130
 30
 0.0
 42
1.0
  0
SEQEND
  8
SSB
  0
POLYLINE
  8
SSB
 66
      1
 70
1
 40
0.0070
 41
0.0070
  0
VERTEX
  8
SSB
 10
2.9455
 20
0.2780
 30
 0.0
 42
1.0
  0
VERTEX
  8
SSB
 10
2.9525
 20
0.2780
 30
 0.0
 42
1.0
  0
SEQEND
  8
SSB
  0
POLYLINE
  8
SSB
 66
      1
 70
1
 40
0.0070
 41
0.0070
  0
VERTEX
  8
SSB
 10
3.0825
 20
0.2780
 30
 0.0
 42
1.0
  0
VERTEX
  8
SSB
 10
3.0895
 20
0.2780
 30
 0.0
 42
1.0
  0
SEQEND
  8
SSB
  0
POLYLINE
  8
SSB
 66
      1
 70
1
 40
0.0070
 41
0.0070
  0
VERTEX
  8
SSB
 10
3.0825
 20
0.2800
 30
 0.0
 42
1.0
  0
VERTEX
  8
SSB
 10
3.0895
 20
0.2800
 30
 0.0
 42
1.0
  0
SEQEND
  8
SSB
  0
POLYLINE
  8
SSB
 66
      1
 70
1
 40
0.0070
 41
0.0070
  0
VERTEX
  8
SSB
 10
3.5695
 20
0.2800
 30
 0.0
 42
1.0
  0
VERTEX
  8
SSB
 10
3.5765
 20
0.2800
 30
 0.0
 42
1.0
  0
SEQEND
  8
SSB
  0
POLYLINE
  8
SSB
 66
      1
 70
1
 40
0.0070
 41
0.0070
  0
VERTEX
  8
SSB
 10
3.5695
 20
0.2780
 30
 0.0
 42
1.0
  0
VERTEX
  8
SSB
 10
3.5765
 20
0.2780
 30
 0.0
 42
1.0
  0
SEQEND
  8
SSB
  0
POLYLINE
  8
SSB
 66
      1
 70
1
 40
0.0070
 41
0.0070
  0
VERTEX
  8
SSB
 10
3.7075
 20
0.2780
 30
 0.0
 42
1.0
  0
VERTEX
  8
SSB
 10
3.7145
 20
0.2780
 30
 0.0
 42
1.0
  0
SEQEND
  8
SSB
  0
POLYLINE
  8
BOT
 66
      1
 70
0
 40
0.0100
 41
0.0100
  0
VERTEX
  8
BOT
 10
0.0050
 20
2.6200
 30
 0.0
  0
VERTEX
  8
BOT
 10
0.0050
 20
2.7190
 30
 0.0
  0
VERTEX
  8
BOT
 10
0.1130
 20
2.7190
 30
 0.0
  0
SEQEND
  8
BOT
  0
POLYLINE
  8
BOT
 66
      1
 70
1
 40
0.0050
 41
0.0050
  0
VERTEX
  8
BOT
 10
0.0025
 20
2.6200
 30
 0.0
 42
1.0
  0
VERTEX
  8
BOT
 10
0.0075
 20
2.6200
 30
 0.0
 42
1.0
  0
SEQEND
  8
BOT
  0
POLYLINE
  8
BOT
 66
      1
 70
1
 40
0.0050
 41
0.0050
  0
VERTEX
  8
BOT
 10
0.0025
 20
2.7190
 30
 0.0
 42
1.0
  0
VERTEX
  8
BOT
 10
0.0075
 20
2.7190
 30
 0.0
 42
1.0
  0
SEQEND
  8
BOT
  0
POLYLINE
  8
BOT
 66
      1
 70
1
 40
0.0050
 41
0.0050
  0
VERTEX
  8
BOT
 10
0.1105
 20
2.7190
 30
 0.0
 42
1.0
  0
VERTEX
  8
BOT
 10
0.1155
 20
2.7190
 30
 0.0
 42
1.0
  0
SEQEND
  8
BOT
  0
POLYLINE
  8
BOT
 66
      1
 70
0
 40
0.0100
 41
0.0100
  0
VERTEX
  8
BOT
 10
3.9420
 20
2.6250
 30
 0.0
  0
VERTEX
  8
BOT
 10
3.9420
 20
2.7190
 30
 0.0
  0
VERTEX
  8
BOT
 10
3.8460
 20
2.7190
 30
 0.0
  0
SEQEND
  8
BOT
  0
POLYLINE
  8
BOT
 66
      1
 70
1
 40
0.0050
 41
0.0050
  0
VERTEX
  8
BOT
 10
3.9395
 20
2.6250
 30
 0.0
 42
1.0
  0
VERTEX
  8
BOT
 10
3.9445
 20
2.6250
 30
 0.0
 42
1.0
  0
SEQEND
  8
BOT
  0
POLYLINE
  8
BOT
 66
      1
 70
1
 40
0.0050
 41
0.0050
  0
VERTEX
  8
BOT
 10
3.9395
 20
2.7190
 30
 0.0
 42
1.0
  0
VERTEX
  8
BOT
 10
3.9445
 20
2.7190
 30
 0.0
 42
1.0
  0
SEQEND
  8
BOT
  0
POLYLINE
  8
BOT
 66
      1
 70
1
 40
0.0050
 41
0.0050
  0
VERTEX
  8
BOT
 10
3.8435
 20
2.7190
 30
 0.0
 42
1.0
  0
VERTEX
  8
BOT
 10
3.8485
 20
2.7190
 30
 0.0
 42
1.0
  0
SEQEND
  8
BOT
  0
POLYLINE
  8
BOT
 66
      1
 70
0
 40
0.0100
 41
0.0100
  0
VERTEX
  8
BOT
 10
3.9420
 20
0.4500
 30
 0.0
  0
VERTEX
  8
BOT
 10
3.9420
 20
0.3570
 30
 0.0
  0
VERTEX
  8
BOT
 10
3.8410
 20
0.3570
 30
 0.0
  0
SEQEND
  8
BOT
  0
POLYLINE
  8
BOT
 66
      1
 70
1
 40
0.0050
 41
0.0050
  0
VERTEX
  8
BOT
 10
3.9395
 20
0.4500
 30
 0.0
 42
1.0
  0
VERTEX
  8
BOT
 10
3.9445
 20
0.4500
 30
 0.0
 42
1.0
  0
SEQEND
  8
BOT
  0
POLYLINE
  8
BOT
 66
      1
 70
1
 40
0.0050
 41
0.0050
  0
VERTEX
  8
BOT
 10
3.9395
 20
0.3570
 30
 0.0
 42
1.0
  0
VERTEX
  8
BOT
 10
3.9445
 20
0.3570
 30
 0.0
 42
1.0
  0
SEQEND
  8
BOT
  0
POLYLINE
  8
BOT
 66
      1
 70
1
 40
0.0050
 41
0.0050
  0
VERTEX
  8
BOT
 10
3.8385
 20
0.3570
 30
 0.0
 42
1.0
  0
VERTEX
  8
BOT
 10
3.8435
 20
0.3570
 30
 0.0
 42
1.0
  0
SEQEND
  8
BOT
  0
POLYLINE
  8
BOT
 66
      1
 70
0
 40
0.0100
 41
0.0100
  0
VERTEX
  8
BOT
 10
0.0050
 20
0.4850
 30
 0.0
  0
VERTEX
  8
BOT
 10
0.0050
 20
0.3570
 30
 0.0
  0
VERTEX
  8
BOT
 10
0.1250
 20
0.3570
 30
 0.0
  0
SEQEND
  8
BOT
  0
POLYLINE
  8
BOT
 66
      1
 70
1
 40
0.0050
 41
0.0050
  0
VERTEX
  8
BOT
 10
0.0025
 20
0.4850
 30
 0.0
 42
1.0
  0
VERTEX
  8
BOT
 10
0.0075
 20
0.4850
 30
 0.0
 42
1.0
  0
SEQEND
  8
BOT
  0
POLYLINE
  8
BOT
 66
      1
 70
1
 40
0.0050
 41
0.0050
  0
VERTEX
  8
BOT
 10
0.0025
 20
0.3570
 30
 0.0
 42
1.0
  0
VERTEX
  8
BOT
 10
0.0075
 20
0.3570
 30
 0.0
 42
1.0
  0
SEQEND
  8
BOT
  0
POLYLINE
  8
BOT
 66
      1
 70
1
 40
0.0050
 41
0.0050
  0
VERTEX
  8
BOT
 10
0.1225
 20
0.3570
 30
 0.0
 42
1.0
  0
VERTEX
  8
BOT
 10
0.1275
 20
0.3570
 30
 0.0
 42
1.0
  0
SEQEND
  8
BOT
  0
POLYLINE
  8
0
 66
      1
 70
1
 40
0.0100
 41
0.0100
  0
VERTEX
  8
0
 10
0.0050
 20
2.7190
 30
 0.0
  0
VERTEX
  8
0
 10
0.0050
 20
0.3570
 30
 0.0
  0
VERTEX
  8
0
 10
3.9420
 20
0.3570
 30
 0.0
  0
VERTEX
  8
0
 10
3.9420
 20
2.7190
 30
 0.0
  0
VERTEX
  8
0
 10
0.0050
 20
2.7190
 30
 0.0
  0
SEQEND
  8
0
  0
POLYLINE
  8
0
 66
      1
 70
1
 40
0.0050
 41
0.0050
  0
VERTEX
  8
0
 10
0.0025
 20
2.7190
 30
 0.0
 42
1.0
  0
VERTEX
  8
0
 10
0.0075
 20
2.7190
 30
 0.0
 42
1.0
  0
SEQEND
  8
0
  0
POLYLINE
  8
0
 66
      1
 70
1
 40
0.0050
 41
0.0050
  0
VERTEX
  8
0
 10
0.0025
 20
0.3570
 30
 0.0
 42
1.0
  0
VERTEX
  8
0
 10
0.0075
 20
0.3570
 30
 0.0
 42
1.0
  0
SEQEND
  8
0
  0
POLYLINE
  8
0
 66
      1
 70
1
 40
0.0050
 41
0.0050
  0
VERTEX
  8
0
 10
3.9395
 20
0.3570
 30
 0.0
 42
1.0
  0
VERTEX
  8
0
 10
3.9445
 20
0.3570
 30
 0.0
 42
1.0
  0
SEQEND
  8
0
  0
POLYLINE
  8
0
 66
      1
 70
1
 40
0.0050
 41
0.0050
  0
VERTEX
  8
0
 10
3.9395
 20
2.7190
 30
 0.0
 42
1.0
  0
VERTEX
  8
0
 10
3.9445
 20
2.7190
 30
 0.0
 42
1.0
  0
SEQEND
  8
0
  0
POLYLINE
  8
0
 66
      1
 70
1
 40
0.0050
 41
0.0050
  0
VERTEX
  8
0
 10
0.0025
 20
2.7190
 30
 0.0
 42
1.0
  0
VERTEX
  8
0
 10
0.0075
 20
2.7190
 30
 0.0
 42
1.0
  0
SEQEND
  8
0
  0
POLYLINE
  8
BOT
 66
      1
 70
0
 40
0.0390
 41
0.0390
  0
VERTEX
  8
BOT
 10
2.8370
 20
2.2720
 30
 0.0
  0
VERTEX
  8
BOT
 10
2.8370
 20
2.2150
 30
 0.0
  0
SEQEND
  8
BOT
  0
POLYLINE
  8
BOT
 66
      1
 70
1
 40
0.0195
 41
0.0195
  0
VERTEX
  8
BOT
 10
2.8273
 20
2.2720
 30
 0.0
 42
1.0
  0
VERTEX
  8
BOT
 10
2.8468
 20
2.2720
 30
 0.0
 42
1.0
  0
SEQEND
  8
BOT
  0
POLYLINE
  8
BOT
 66
      1
 70
1
 40
0.0195
 41
0.0195
  0
VERTEX
  8
BOT
 10
2.8273
 20
2.2150
 30
 0.0
 42
1.0
  0
VERTEX
  8
BOT
 10
2.8468
 20
2.2150
 30
 0.0
 42
1.0
  0
SEQEND
  8
BOT
  0
POLYLINE
  8
BOT
 66
      1
 70
1
 40
0.0190
 41
0.0190
  0
VERTEX
  8
BOT
 10
2.3590
 20
0.8430
 30
 0.0
 42
1.0
  0
VERTEX
  8
BOT
 10
2.3770
 20
0.8430
 30
 0.0
 42
1.0
  0
SEQEND
  8
BOT
  0
POLYLINE
  8
DRL
 66
      1
 70
1
 40
0.0100
 41
0.0100
  0
VERTEX
  8
DRL
 10
2.3630
 20
0.8430
 30
 0.0
 42
1.0
  0
VERTEX
  8
DRL
 10
2.3730
 20
0.8430
 30
 0.0
 42
1.0
  0
SEQEND
  8
DRL
  0
POLYLINE
  8
BOT
 66
      1
 70
1
 40
0.0190
 41
0.0190
  0
VERTEX
  8
BOT
 10
3.1930
 20
0.9220
 30
 0.0
 42
1.0
  0
VERTEX
  8
BOT
 10
3.2110
 20
0.9220
 30
 0.0
 42
1.0
  0
SEQEND
  8
BOT
  0
POLYLINE
  8
DRL
 66
      1
 70
1
 40
0.0100
 41
0.0100
  0
VERTEX
  8
DRL
 10
3.1970
 20
0.9220
 30
 0.0
 42
1.0
  0
VERTEX
  8
DRL
 10
3.2070
 20
0.9220
 30
 0.0
 42
1.0
  0
SEQEND
  8
DRL
  0
POLYLINE
  8
BOT
 66
      1
 70
0
 40
0.0160
 41
0.0160
  0
VERTEX
  8
BOT
 10
2.3680
 20
0.8430
 30
 0.0
  0
VERTEX
  8
BOT
 10
2.4860
 20
0.9610
 30
 0.0
  0
SEQEND
  8
BOT
  0
POLYLINE
  8
BOT
 66
      1
 70
1
 40
0.0080
 41
0.0080
  0
VERTEX
  8
BOT
 10
2.3640
 20
0.8430
 30
 0.0
 42
1.0
  0
VERTEX
  8
BOT
 10
2.3720
 20
0.8430
 30
 0.0
 42
1.0
  0
SEQEND
  8
BOT
  0
POLYLINE
  8
BOT
 66
      1
 70
1
 40
0.0080
 41
0.0080
  0
VERTEX
  8
BOT
 10
2.4820
 20
0.9610
 30
 0.0
 42
1.0
  0
VERTEX
  8
BOT
 10
2.4900
 20
0.9610
 30
 0.0
 42
1.0
  0
SEQEND
  8
BOT
  0
POLYLINE
  8
BOT
 66
      1
 70
0
 40
0.0160
 41
0.0160
  0
VERTEX
  8
BOT
 10
2.4860
 20
0.9610
 30
 0.0
  0
VERTEX
  8
BOT
 10
3.1630
 20
0.9610
 30
 0.0
  0
SEQEND
  8
BOT
  0
POLYLINE
  8
BOT
 66
      1
 70
1
 40
0.0080
 41
0.0080
  0
VERTEX
  8
BOT
 10
2.4820
 20
0.9610
 30
 0.0
 42
1.0
  0
VERTEX
  8
BOT
 10
2.4900
 20
0.9610
 30
 0.0
 42
1.0
  0
SEQEND
  8
BOT
  0
POLYLINE
  8
BOT
 66
      1
 70
1
 40
0.0080
 41
0.0080
  0
VERTEX
  8
BOT
 10
3.1590
 20
0.9610
 30
 0.0
 42
1.0
  0
VERTEX
  8
BOT
 10
3.1670
 20
0.9610
 30
 0.0
 42
1.0
  0
SEQEND
  8
BOT
  0
POLYLINE
  8
BOT
 66
      1
 70
0
 40
0.0160
 41
0.0160
  0
VERTEX
  8
BOT
 10
3.1630
 20
0.9610
 30
 0.0
  0
VERTEX
  8
BOT
 10
3.2020
 20
0.9220
 30
 0.0
  0
SEQEND
  8
BOT
  0
POLYLINE
  8
BOT
 66
      1
 70
1
 40
0.0080
 41
0.0080
  0
VERTEX
  8
BOT
 10
3.1590
 20
0.9610
 30
 0.0
 42
1.0
  0
VERTEX
  8
BOT
 10
3.1670
 20
0.9610
 30
 0.0
 42
1.0
  0
SEQEND
  8
BOT
  0
POLYLINE
  8
BOT
 66
      1
 70
1
 40
0.0080
 41
0.0080
  0
VERTEX
  8
BOT
 10
3.1980
 20
0.9220
 30
 0.0
 42
1.0
  0
VERTEX
  8
BOT
 10
3.2060
 20
0.9220
 30
 0.0
 42
1.0
  0
SEQEND
  8
BOT
  0
POLYLINE
  8
BOT
 66
      1
 70
1
 40
0.0190
 41
0.0190
  0
VERTEX
  8
BOT
 10
2.4440
 20
0.8350
 30
 0.0
 42
1.0
  0
VERTEX
  8
BOT
 10
2.4620
 20
0.8350
 30
 0.0
 42
1.0
  0
SEQEND
  8
BOT
  0
POLYLINE
  8
DRL
 66
      1
 70
1
 40
0.0100
 41
0.0100
  0
VERTEX
  8
DRL
 10
2.4480
 20
0.8350
 30
 0.0
 42
1.0
  0
VERTEX
  8
DRL
 10
2.4580
 20
0.8350
 30
 0.0
 42
1.0
  0
SEQEND
  8
DRL
  0
POLYLINE
  8
BOT
 66
      1
 70
1
 40
0.0190
 41
0.0190
  0
VERTEX
  8
BOT
 10
3.0910
 20
0.9220
 30
 0.0
 42
1.0
  0
VERTEX
  8
BOT
 10
3.1090
 20
0.9220
 30
 0.0
 42
1.0
  0
SEQEND
  8
BOT
  0
POLYLINE
  8
DRL
 66
      1
 70
1
 40
0.0100
 41
0.0100
  0
VERTEX
  8
DRL
 10
3.0950
 20
0.9220
 30
 0.0
 42
1.0
  0
VERTEX
  8
DRL
 10
3.1050
 20
0.9220
 30
 0.0
 42
1.0
  0
SEQEND
  8
DRL
  0
POLYLINE
  8
BOT
 66
      1
 70
0
 40
0.0160
 41
0.0160
  0
VERTEX
  8
BOT
 10
2.4530
 20
0.8350
 30
 0.0
  0
VERTEX
  8
BOT
 10
2.4530
 20
0.8780
 30
 0.0
  0
SEQEND
  8
BOT
  0
POLYLINE
  8
BOT
 66
      1
 70
1
 40
0.0080
 41
0.0080
  0
VERTEX
  8
BOT
 10
2.4490
 20
0.8350
 30
 0.0
 42
1.0
  0
VERTEX
  8
BOT
 10
2.4570
 20
0.8350
 30
 0.0
 42
1.0
  0
SEQEND
  8
BOT
  0
POLYLINE
  8
BOT
 66
      1
 70
1
 40
0.0080
 41
0.0080
  0
VERTEX
  8
BOT
 10
2.4490
 20
0.8780
 30
 0.0
 42
1.0
  0
VERTEX
  8
BOT
 10
2.4570
 20
0.8780
 30
 0.0
 42
1.0
  0
SEQEND
  8
BOT
  0
POLYLINE
  8
BOT
 66
      1
 70
0
 40
0.0160
 41
0.0160
  0
VERTEX
  8
BOT
 10
2.4530
 20
0.8780
 30
 0.0
  0
VERTEX
  8
BOT
 10
2.4960
 20
0.9220
 30
 0.0
  0
SEQEND
  8
BOT
  0
POLYLINE
  8
BOT
 66
      1
 70
1
 40
0.0080
 41
0.0080
  0
VERTEX
  8
BOT
 10
2.4490
 20
0.8780
 30
 0.0
 42
1.0
  0
VERTEX
  8
BOT
 10
2.4570
 20
0.8780
 30
 0.0
 42
1.0
  0
SEQEND
  8
BOT
  0
POLYLINE
  8
BOT
 66
      1
 70
1
 40
0.0080
 41
0.0080
  0
VERTEX
  8
BOT
 10
2.4920
 20
0.9220
 30
 0.0
 42
1.0
  0
VERTEX
  8
BOT
 10
2.5000
 20
0.9220
 30
 0.0
 42
1.0
  0
SEQEND
  8
BOT
  0
POLYLINE
  8
BOT
 66
      1
 70
0
 40
0.0160
 41
0.0160
  0
VERTEX
  8
BOT
 10
2.4960
 20
0.9220
 30
 0.0
  0
VERTEX
  8
BOT
 10
3.1000
 20
0.9220
 30
 0.0
  0
SEQEND
  8
BOT
  0
POLYLINE
  8
BOT
 66
      1
 70
1
 40
0.0080
 41
0.0080
  0
VERTEX
  8
BOT
 10
2.4920
 20
0.9220
 30
 0.0
 42
1.0
  0
VERTEX
  8
BOT
 10
2.5000
 20
0.9220
 30
 0.0
 42
1.0
  0
SEQEND
  8
BOT
  0
POLYLINE
  8
BOT
 66
      1
 70
1
 40
0.0080
 41
0.0080
  0
VERTEX
  8
BOT
 10
3.0960
 20
0.9220
 30
 0.0
 42
1.0
  0
VERTEX
  8
BOT
 10
3.1040
 20
0.9220
 30
 0.0
 42
1.0
  0
SEQEND
  8
BOT
  0
POLYLINE
  8
BOT
 66
      1
 70
1
 40
0.0190
 41
0.0190
  0
VERTEX
  8
BOT
 10
0.7410
 20
1.5750
 30
 0.0
 42
1.0
  0
VERTEX
  8
BOT
 10
0.7590
 20
1.5750
 30
 0.0
 42
1.0
  0
SEQEND
  8
BOT
  0
POLYLINE
  8
DRL
 66
      1
 70
1
 40
0.0100
 41
0.0100
  0
VERTEX
  8
DRL
 10
0.7450
 20
1.5750
 30
 0.0
 42
1.0
  0
VERTEX
  8
DRL
 10
0.7550
 20
1.5750
 30
 0.0
 42
1.0
  0
SEQEND
  8
DRL
  0
POLYLINE
  8
BOT
 66
      1
 70
1
 40
0.0190
 41
0.0190
  0
VERTEX
  8
BOT
 10
1.5940
 20
1.2930
 30
 0.0
 42
1.0
  0
VERTEX
  8
BOT
 10
1.6120
 20
1.2930
 30
 0.0
 42
1.0
  0
SEQEND
  8
BOT
  0
POLYLINE
  8
DRL
 66
      1
 70
1
 40
0.0100
 41
0.0100
  0
VERTEX
  8
DRL
 10
1.5980
 20
1.2930
 30
 0.0
 42
1.0
  0
VERTEX
  8
DRL
 10
1.6080
 20
1.2930
 30
 0.0
 42
1.0
  0
SEQEND
  8
DRL
  0
POLYLINE
  8
BOT
 66
      1
 70
0
 40
0.0110
 41
0.0110
  0
VERTEX
  8
BOT
 10
0.7500
 20
1.5750
 30
 0.0
  0
VERTEX
  8
BOT
 10
1.3500
 20
1.5750
 30
 0.0
  0
SEQEND
  8
BOT
  0
POLYLINE
  8
BOT
 66
      1
 70
1
 40
0.0055
 41
0.0055
  0
VERTEX
  8
BOT
 10
0.7472
 20
1.5750
 30
 0.0
 42
1.0
  0
VERTEX
  8
BOT
 10
0.7528
 20
1.5750
 30
 0.0
 42
1.0
  0
SEQEND
  8
BOT
  0
POLYLINE
  8
BOT
 66
      1
 70
1
 40
0.0055
 41
0.0055
  0
VERTEX
  8
BOT
 10
1.3473
 20
1.5750
 30
 0.0
 42
1.0
  0
VERTEX
  8
BOT
 10
1.3528
 20
1.5750
 30
 0.0
 42
1.0
  0
SEQEND
  8
BOT
  0
POLYLINE
  8
BOT
 66
      1
 70
0
 40
0.0110
 41
0.0110
  0
VERTEX
  8
BOT
 10
1.3500
 20
1.5750
 30
 0.0
  0
VERTEX
  8
BOT
 10
1.6030
 20
1.3230
 30
 0.0
  0
SEQEND
  8
BOT
  0
POLYLINE
  8
BOT
 66
      1
 70
1
 40
0.0055
 41
0.0055
  0
VERTEX
  8
BOT
 10
1.3473
 20
1.5750
 30
 0.0
 42
1.0
  0
VERTEX
  8
BOT
 10
1.3528
 20
1.5750
 30
 0.0
 42
1.0
  0
SEQEND
  8
BOT
  0
POLYLINE
  8
BOT
 66
      1
 70
1
 40
0.0055
 41
0.0055
  0
VERTEX
  8
BOT
 10
1.6003
 20
1.3230
 30
 0.0
 42
1.0
  0
VERTEX
  8
BOT
 10
1.6058
 20
1.3230
 30
 0.0
 42
1.0
  0
SEQEND
  8
BOT
  0
POLYLINE
  8
BOT
 66
      1
 70
0
 40
0.0110
 41
0.0110
  0
VERTEX
  8
BOT
 10
1.6030
 20
1.3230
 30
 0.0
  0
VERTEX
  8
BOT
 10
1.6030
 20
1.2930
 30
 0.0
  0
SEQEND
  8
BOT
  0
POLYLINE
  8
BOT
 66
      1
 70
1
 40
0.0055
 41
0.0055
  0
VERTEX
  8
BOT
 10
1.6003
 20
1.3230
 30
 0.0
 42
1.0
  0
VERTEX
  8
BOT
 10
1.6058
 20
1.3230
 30
 0.0
 42
1.0
  0
SEQEND
  8
BOT
  0
POLYLINE
  8
BOT
 66
      1
 70
1
 40
0.0055
 41
0.0055
  0
VERTEX
  8
BOT
 10
1.6003
 20
1.2930
 30
 0.0
 42
1.0
  0
VERTEX
  8
BOT
 10
1.6058
 20
1.2930
 30
 0.0
 42
1.0
  0
SEQEND
  8
BOT
  0
POLYLINE
  8
BOT
 66
      1
 70
1
 40
0.0190
 41
0.0190
  0
VERTEX
  8
BOT
 10
0.5910
 20
1.5000
 30
 0.0
 42
1.0
  0
VERTEX
  8
BOT
 10
0.6090
 20
1.5000
 30
 0.0
 42
1.0
  0
SEQEND
  8
BOT
  0
POLYLINE
  8
DRL
 66
      1
 70
1
 40
0.0100
 41
0.0100
  0
VERTEX
  8
DRL
 10
0.5950
 20
1.5000
 30
 0.0
 42
1.0
  0
VERTEX
  8
DRL
 10
0.6050
 20
1.5000
 30
 0.0
 42
1.0
  0
SEQEND
  8
DRL
  0
POLYLINE
  8
BOT
 66
      1
 70
1
 40
0.0190
 41
0.0190
  0
VERTEX
  8
BOT
 10
1.4710
 20
1.3780
 30
 0.0
 42
1.0
  0
VERTEX
  8
BOT
 10
1.4890
 20
1.3780
 30
 0.0
 42
1.0
  0
SEQEND
  8
BOT
  0
POLYLINE
  8
DRL
 66
      1
 70
1
 40
0.0100
 41
0.0100
  0
VERTEX
  8
DRL
 10
1.4750
 20
1.3780
 30
 0.0
 42
1.0
  0
VERTEX
  8
DRL
 10
1.4850
 20
1.3780
 30
 0.0
 42
1.0
  0
SEQEND
  8
DRL
  0
POLYLINE
  8
BOT
 66
      1
 70
0
 40
0.0110
 41
0.0110
  0
VERTEX
  8
BOT
 10
0.6000
 20
1.5000
 30
 0.0
  0
VERTEX
  8
BOT
 10
0.6450
 20
1.5000
 30
 0.0
  0
SEQEND
  8
BOT
  0
POLYLINE
  8
BOT
 66
      1
 70
1
 40
0.0055
 41
0.0055
  0
VERTEX
  8
BOT
 10
0.5972
 20
1.5000
 30
 0.0
 42
1.0
  0
VERTEX
  8
BOT
 10
0.6028
 20
1.5000
 30
 0.0
 42
1.0
  0
SEQEND
  8
BOT
  0
POLYLINE
  8
BOT
 66
      1
 70
1
 40
0.0055
 41
0.0055
  0
VERTEX
  8
BOT
 10
0.6422
 20
1.5000
 30
 0.0
 42
1.0
  0
VERTEX
  8
BOT
 10
0.6478
 20
1.5000
 30
 0.0
 42
1.0
  0
SEQEND
  8
BOT
  0
POLYLINE
  8
BOT
 66
      1
 70
0
 40
0.0110
 41
0.0110
  0
VERTEX
  8
BOT
 10
0.6450
 20
1.5000
 30
 0.0
  0
VERTEX
  8
BOT
 10
0.6710
 20
1.5260
 30
 0.0
  0
SEQEND
  8
BOT
  0
POLYLINE
  8
BOT
 66
      1
 70
1
 40
0.0055
 41
0.0055
  0
VERTEX
  8
BOT
 10
0.6422
 20
1.5000
 30
 0.0
 42
1.0
  0
VERTEX
  8
BOT
 10
0.6478
 20
1.5000
 30
 0.0
 42
1.0
  0
SEQEND
  8
BOT
  0
POLYLINE
  8
BOT
 66
      1
 70
1
 40
0.0055
 41
0.0055
  0
VERTEX
  8
BOT
 10
0.6683
 20
1.5260
 30
 0.0
 42
1.0
  0
VERTEX
  8
BOT
 10
0.6738
 20
1.5260
 30
 0.0
 42
1.0
  0
SEQEND
  8
BOT
  0
POLYLINE
  8
BOT
 66
      1
 70
0
 40
0.0110
 41
0.0110
  0
VERTEX
  8
BOT
 10
0.6710
 20
1.5260
 30
 0.0
  0
VERTEX
  8
BOT
 10
0.7720
 20
1.5260
 30
 0.0
  0
SEQEND
  8
BOT
  0
POLYLINE
  8
BOT
 66
      1
 70
1
 40
0.0055
 41
0.0055
  0
VERTEX
  8
BOT
 10
0.6683
 20
1.5260
 30
 0.0
 42
1.0
  0
VERTEX
  8
BOT
 10
0.6738
 20
1.5260
 30
 0.0
 42
1.0
  0
SEQEND
  8
BOT
  0
POLYLINE
  8
BOT
 66
      1
 70
1
 40
0.0055
 41
0.0055
  0
VERTEX
  8
BOT
 10
0.7692
 20
1.5260
 30
 0.0
 42
1.0
  0
VERTEX
  8
BOT
 10
0.7748
 20
1.5260
 30
 0.0
 42
1.0
  0
SEQEND
  8
BOT
  0
POLYLINE
  8
BOT
 66
      1
 70
0
 40
0.0110
 41
0.0110
  0
VERTEX
  8
BOT
 10
0.7720
 20
1.5260
 30
 0.0
  0
VERTEX
  8
BOT
 10
0.7930
 20
1.5480
 30
 0.0
  0
SEQEND
  8
BOT
  0
POLYLINE
  8
BOT
 66
      1
 70
1
 40
0.0055
 41
0.0055
  0
VERTEX
  8
BOT
 10
0.7692
 20
1.5260
 30
 0.0
 42
1.0
  0
VERTEX
  8
BOT
 10
0.7748
 20
1.5260
 30
 0.0
 42
1.0
  0
SEQEND
  8
BOT
  0
POLYLINE
  8
BOT
 66
      1
 70
1
 40
0.0055
 41
0.0055
  0
VERTEX
  8
BOT
 10
0.7903
 20
1.5480
 30
 0.0
 42
1.0
  0
VERTEX
  8
BOT
 10
0.7958
 20
1.5480
 30
 0.0
 42
1.0
  0
SEQEND
  8
BOT
  0
POLYLINE
  8
BOT
 66
      1
 70
0
 40
0.0110
 41
0.0110
  0
VERTEX
  8
BOT
 10
0.7930
 20
1.5480
 30
 0.0
  0
VERTEX
  8
BOT
 10
1.3100
 20
1.5480
 30
 0.0
  0
SEQEND
  8
BOT
  0
POLYLINE
  8
BOT
 66
      1
 70
1
 40
0.0055
 41
0.0055
  0
VERTEX
  8
BOT
 10
0.7903
 20
1.5480
 30
 0.0
 42
1.0
  0
VERTEX
  8
BOT
 10
0.7958
 20
1.5480
 30
 0.0
 42
1.0
  0
SEQEND
  8
BOT
  0
POLYLINE
  8
BOT
 66
      1
 70
1
 40
0.0055
 41
0.0055
  0
VERTEX
  8
BOT
 10
1.3073
 20
1.5480
 30
 0.0
 42
1.0
  0
VERTEX
  8
BOT
 10
1.3128
 20
1.5480
 30
 0.0
 42
1.0
  0
SEQEND
  8
BOT
  0
POLYLINE
  8
BOT
 66
      1
 70
0
 40
0.0110
 41
0.0110
  0
VERTEX
  8
BOT
 10
1.3100
 20
1.5480
 30
 0.0
  0
VERTEX
  8
BOT
 10
1.4800
 20
1.3780
 30
 0.0
  0
SEQEND
  8
BOT
  0
POLYLINE
  8
BOT
 66
      1
 70
1
 40
0.0055
 41
0.0055
  0
VERTEX
  8
BOT
 10
1.3073
 20
1.5480
 30
 0.0
 42
1.0
  0
VERTEX
  8
BOT
 10
1.3128
 20
1.5480
 30
 0.0
 42
1.0
  0
SEQEND
  8
BOT
  0
POLYLINE
  8
BOT
 66
      1
 70
1
 40
0.0055
 41
0.0055
  0
VERTEX
  8
BOT
 10
1.4773
 20
1.3780
 30
 0.0
 42
1.0
  0
VERTEX
  8
BOT
 10
1.4828
 20
1.3780
 30
 0.0
 42
1.0
  0
SEQEND
  8
BOT
  0
POLYLINE
  8
BOT
 66
      1
 70
1
 40
0.0190
 41
0.0190
  0
VERTEX
  8
BOT
 10
1.6420
 20
1.2220
 30
 0.0
 42
1.0
  0
VERTEX
  8
BOT
 10
1.6600
 20
1.2220
 30
 0.0
 42
1.0
  0
SEQEND
  8
BOT
  0
POLYLINE
  8
DRL
 66
      1
 70
1
 40
0.0100
 41
0.0100
  0
VERTEX
  8
DRL
 10
1.6460
 20
1.2220
 30
 0.0
 42
1.0
  0
VERTEX
  8
DRL
 10
1.6560
 20
1.2220
 30
 0.0
 42
1.0
  0
SEQEND
  8
DRL
  0
POLYLINE
  8
BOT
 66
      1
 70
1
 40
0.0190
 41
0.0190
  0
VERTEX
  8
BOT
 10
0.6140
 20
1.5640
 30
 0.0
 42
1.0
  0
VERTEX
  8
BOT
 10
0.6320
 20
1.5640
 30
 0.0
 42
1.0
  0
SEQEND
  8
BOT
  0
POLYLINE
  8
DRL
 66
      1
 70
1
 40
0.0100
 41
0.0100
  0
VERTEX
  8
DRL
 10
0.6180
 20
1.5640
 30
 0.0
 42
1.0
  0
VERTEX
  8
DRL
 10
0.6280
 20
1.5640
 30
 0.0
 42
1.0
  0
SEQEND
  8
DRL
  0
POLYLINE
  8
BOT
 66
      1
 70
0
 40
0.0110
 41
0.0110
  0
VERTEX
  8
BOT
 10
1.6510
 20
1.2220
 30
 0.0
  0
VERTEX
  8
BOT
 10
1.6510
 20
1.3210
 30
 0.0
  0
SEQEND
  8
BOT
  0
POLYLINE
  8
BOT
 66
      1
 70
1
 40
0.0055
 41
0.0055
  0
VERTEX
  8
BOT
 10
1.6483
 20
1.2220
 30
 0.0
 42
1.0
  0
VERTEX
  8
BOT
 10
1.6538
 20
1.2220
 30
 0.0
 42
1.0
  0
SEQEND
  8
BOT
  0
POLYLINE
  8
BOT
 66
      1
 70
1
 40
0.0055
 41
0.0055
  0
VERTEX
  8
BOT
 10
1.6483
 20
1.3210
 30
 0.0
 42
1.0
  0
VERTEX
  8
BOT
 10
1.6538
 20
1.3210
 30
 0.0
 42
1.0
  0
SEQEND
  8
BOT
  0
POLYLINE
  8
BOT
 66
      1
 70
0
 40
0.0110
 41
0.0110
  0
VERTEX
  8
BOT
 10
1.6510
 20
1.3210
 30
 0.0
  0
VERTEX
  8
BOT
 10
1.3700
 20
1.6030
 30
 0.0
  0
SEQEND
  8
BOT
  0
POLYLINE
  8
BOT
 66
      1
 70
1
 40
0.0055
 41
0.0055
  0
VERTEX
  8
BOT
 10
1.6483
 20
1.3210
 30
 0.0
 42
1.0
  0
VERTEX
  8
BOT
 10
1.6538
 20
1.3210
 30
 0.0
 42
1.0
  0
SEQEND
  8
BOT
  0
POLYLINE
  8
BOT
 66
      1
 70
1
 40
0.0055
 41
0.0055
  0
VERTEX
  8
BOT
 10
1.3673
 20
1.6030
 30
 0.0
 42
1.0
  0
VERTEX
  8
BOT
 10
1.3728
 20
1.6030
 30
 0.0
 42
1.0
  0
SEQEND
  8
BOT
  0
POLYLINE
  8
BOT
 66
      1
 70
0
 40
0.0110
 41
0.0110
  0
VERTEX
  8
BOT
 10
1.3700
 20
1.6030
 30
 0.0
  0
VERTEX
  8
BOT
 10
0.8230
 20
1.6030
 30
 0.0
  0
SEQEND
  8
BOT
  0
POLYLINE
  8
BOT
 66
      1
 70
1
 40
0.0055
 41
0.0055
  0
VERTEX
  8
BOT
 10
1.3673
 20
1.6030
 30
 0.0
 42
1.0
  0
VERTEX
  8
BOT
 10
1.3728
 20
1.6030
 30
 0.0
 42
1.0
  0
SEQEND
  8
BOT
  0
POLYLINE
  8
BOT
 66
      1
 70
1
 40
0.0055
 41
0.0055
  0
VERTEX
  8
BOT
 10
0.8202
 20
1.6030
 30
 0.0
 42
1.0
  0
VERTEX
  8
BOT
 10
0.8257
 20
1.6030
 30
 0.0
 42
1.0
  0
SEQEND
  8
BOT
  0
POLYLINE
  8
BOT
 66
      1
 70
0
 40
0.0110
 41
0.0110
  0
VERTEX
  8
BOT
 10
0.8230
 20
1.6030
 30
 0.0
  0
VERTEX
  8
BOT
 10
0.8030
 20
1.6220
 30
 0.0
  0
SEQEND
  8
BOT
  0
POLYLINE
  8
BOT
 66
      1
 70
1
 40
0.0055
 41
0.0055
  0
VERTEX
  8
BOT
 10
0.8202
 20
1.6030
 30
 0.0
 42
1.0
  0
VERTEX
  8
BOT
 10
0.8257
 20
1.6030
 30
 0.0
 42
1.0
  0
SEQEND
  8
BOT
  0
POLYLINE
  8
BOT
 66
      1
 70
1
 40
0.0055
 41
0.0055
  0
VERTEX
  8
BOT
 10
0.8003
 20
1.6220
 30
 0.0
 42
1.0
  0
VERTEX
  8
BOT
 10
0.8058
 20
1.6220
 30
 0.0
 42
1.0
  0
SEQEND
  8
BOT
  0
POLYLINE
  8
BOT
 66
      1
 70
0
 40
0.0110
 41
0.0110
  0
VERTEX
  8
BOT
 10
0.8030
 20
1.6220
 30
 0.0
  0
VERTEX
  8
BOT
 10
0.6820
 20
1.6220
 30
 0.0
  0
SEQEND
  8
BOT
  0
POLYLINE
  8
BOT
 66
      1
 70
1
 40
0.0055
 41
0.0055
  0
VERTEX
  8
BOT
 10
0.8003
 20
1.6220
 30
 0.0
 42
1.0
  0
VERTEX
  8
BOT
 10
0.8058
 20
1.6220
 30
 0.0
 42
1.0
  0
SEQEND
  8
BOT
  0
POLYLINE
  8
BOT
 66
      1
 70
1
 40
0.0055
 41
0.0055
  0
VERTEX
  8
BOT
 10
0.6793
 20
1.6220
 30
 0.0
 42
1.0
  0
VERTEX
  8
BOT
 10
0.6848
 20
1.6220
 30
 0.0
 42
1.0
  0
SEQEND
  8
BOT
  0
POLYLINE
  8
BOT
 66
      1
 70
0
 40
0.0110
 41
0.0110
  0
VERTEX
  8
BOT
 10
0.6820
 20
1.6220
 30
 0.0
  0
VERTEX
  8
BOT
 10
0.6230
 20
1.5640
 30
 0.0
  0
SEQEND
  8
BOT
  0
POLYLINE
  8
BOT
 66
      1
 70
1
 40
0.0055
 41
0.0055
  0
VERTEX
  8
BOT
 10
0.6793
 20
1.6220
 30
 0.0
 42
1.0
  0
VERTEX
  8
BOT
 10
0.6848
 20
1.6220
 30
 0.0
 42
1.0
  0
SEQEND
  8
BOT
  0
POLYLINE
  8
BOT
 66
      1
 70
1
 40
0.0055
 41
0.0055
  0
VERTEX
  8
BOT
 10
0.6202
 20
1.5640
 30
 0.0
 42
1.0
  0
VERTEX
  8
BOT
 10
0.6258
 20
1.5640
 30
 0.0
 42
1.0
  0
SEQEND
  8
BOT
  0
POLYLINE
  8
BOT
 66
      1
 70
1
 40
0.0190
 41
0.0190
  0
VERTEX
  8
BOT
 10
1.5130
 20
1.3270
 30
 0.0
 42
1.0
  0
VERTEX
  8
BOT
 10
1.5310
 20
1.3270
 30
 0.0
 42
1.0
  0
SEQEND
  8
BOT
  0
POLYLINE
  8
DRL
 66
      1
 70
1
 40
0.0100
 41
0.0100
  0
VERTEX
  8
DRL
 10
1.5170
 20
1.3270
 30
 0.0
 42
1.0
  0
VERTEX
  8
DRL
 10
1.5270
 20
1.3270
 30
 0.0
 42
1.0
  0
SEQEND
  8
DRL
  0
POLYLINE
  8
BOT
 66
      1
 70
1
 40
0.0190
 41
0.0190
  0
VERTEX
  8
BOT
 10
0.6760
 20
1.4670
 30
 0.0
 42
1.0
  0
VERTEX
  8
BOT
 10
0.6940
 20
1.4670
 30
 0.0
 42
1.0
  0
SEQEND
  8
BOT
  0
POLYLINE
  8
DRL
 66
      1
 70
1
 40
0.0100
 41
0.0100
  0
VERTEX
  8
DRL
 10
0.6800
 20
1.4670
 30
 0.0
 42
1.0
  0
VERTEX
  8
DRL
 10
0.6900
 20
1.4670
 30
 0.0
 42
1.0
  0
SEQEND
  8
DRL
  0
POLYLINE
  8
BOT
 66
      1
 70
0
 40
0.0110
 41
0.0110
  0
VERTEX
  8
BOT
 10
1.5220
 20
1.3270
 30
 0.0
  0
VERTEX
  8
BOT
 10
1.4670
 20
1.3270
 30
 0.0
  0
SEQEND
  8
BOT
  0
POLYLINE
  8
BOT
 66
      1
 70
1
 40
0.0055
 41
0.0055
  0
VERTEX
  8
BOT
 10
1.5193
 20
1.3270
 30
 0.0
 42
1.0
  0
VERTEX
  8
BOT
 10
1.5248
 20
1.3270
 30
 0.0
 42
1.0
  0
SEQEND
  8
BOT
  0
POLYLINE
  8
BOT
 66
      1
 70
1
 40
0.0055
 41
0.0055
  0
VERTEX
  8
BOT
 10
1.4643
 20
1.3270
 30
 0.0
 42
1.0
  0
VERTEX
  8
BOT
 10
1.4698
 20
1.3270
 30
 0.0
 42
1.0
  0
SEQEND
  8
BOT
  0
POLYLINE
  8
BOT
 66
      1
 70
0
 40
0.0110
 41
0.0110
  0
VERTEX
  8
BOT
 10
1.4670
 20
1.3270
 30
 0.0
  0
VERTEX
  8
BOT
 10
1.2760
 20
1.5180
 30
 0.0
  0
SEQEND
  8
BOT
  0
POLYLINE
  8
BOT
 66
      1
 70
1
 40
0.0055
 41
0.0055
  0
VERTEX
  8
BOT
 10
1.4643
 20
1.3270
 30
 0.0
 42
1.0
  0
VERTEX
  8
BOT
 10
1.4698
 20
1.3270
 30
 0.0
 42
1.0
  0
SEQEND
  8
BOT
  0
POLYLINE
  8
BOT
 66
      1
 70
1
 40
0.0055
 41
0.0055
  0
VERTEX
  8
BOT
 10
1.2733
 20
1.5180
 30
 0.0
 42
1.0
  0
VERTEX
  8
BOT
 10
1.2788
 20
1.5180
 30
 0.0
 42
1.0
  0
SEQEND
  8
BOT
  0
POLYLINE
  8
BOT
 66
      1
 70
0
 40
0.0110
 41
0.0110
  0
VERTEX
  8
BOT
 10
1.2760
 20
1.5180
 30
 0.0
  0
VERTEX
  8
BOT
 10
0.8030
 20
1.5180
 30
 0.0
  0
SEQEND
  8
BOT
  0
POLYLINE
  8
BOT
 66
      1
 70
1
 40
0.0055
 41
0.0055
  0
VERTEX
  8
BOT
 10
1.2733
 20
1.5180
 30
 0.0
 42
1.0
  0
VERTEX
  8
BOT
 10
1.2788
 20
1.5180
 30
 0.0
 42
1.0
  0
SEQEND
  8
BOT
  0
POLYLINE
  8
BOT
 66
      1
 70
1
 40
0.0055
 41
0.0055
  0
VERTEX
  8
BOT
 10
0.8003
 20
1.5180
 30
 0.0
 42
1.0
  0
VERTEX
  8
BOT
 10
0.8058
 20
1.5180
 30
 0.0
 42
1.0
  0
SEQEND
  8
BOT
  0
POLYLINE
  8
BOT
 66
      1
 70
0
 40
0.0110
 41
0.0110
  0
VERTEX
  8
BOT
 10
0.8030
 20
1.5180
 30
 0.0
  0
VERTEX
  8
BOT
 10
0.7520
 20
1.4670
 30
 0.0
  0
SEQEND
  8
BOT
  0
POLYLINE
  8
BOT
 66
      1
 70
1
 40
0.0055
 41
0.0055
  0
VERTEX
  8
BOT
 10
0.8003
 20
1.5180
 30
 0.0
 42
1.0
  0
VERTEX
  8
BOT
 10
0.8058
 20
1.5180
 30
 0.0
 42
1.0
  0
SEQEND
  8
BOT
  0
POLYLINE
  8
BOT
 66
      1
 70
1
 40
0.0055
 41
0.0055
  0
VERTEX
  8
BOT
 10
0.7492
 20
1.4670
 30
 0.0
 42
1.0
  0
VERTEX
  8
BOT
 10
0.7548
 20
1.4670
 30
 0.0
 42
1.0
  0
SEQEND
  8
BOT
  0
POLYLINE
  8
BOT
 66
      1
 70
0
 40
0.0110
 41
0.0110
  0
VERTEX
  8
BOT
 10
0.7520
 20
1.4670
 30
 0.0
  0
VERTEX
  8
BOT
 10
0.6850
 20
1.4670
 30
 0.0
  0
SEQEND
  8
BOT
  0
POLYLINE
  8
BOT
 66
      1
 70
1
 40
0.0055
 41
0.0055
  0
VERTEX
  8
BOT
 10
0.7492
 20
1.4670
 30
 0.0
 42
1.0
  0
VERTEX
  8
BOT
 10
0.7548
 20
1.4670
 30
 0.0
 42
1.0
  0
SEQEND
  8
BOT
  0
POLYLINE
  8
BOT
 66
      1
 70
1
 40
0.0055
 41
0.0055
  0
VERTEX
  8
BOT
 10
0.6823
 20
1.4670
 30
 0.0
 42
1.0
  0
VERTEX
  8
BOT
 10
0.6878
 20
1.4670
 30
 0.0
 42
1.0
  0
SEQEND
  8
BOT
  0
POLYLINE
  8
BOT
 66
      1
 70
1
 40
0.0190
 41
0.0190
  0
VERTEX
  8
BOT
 10
2.2740
 20
0.8430
 30
 0.0
 42
1.0
  0
VERTEX
  8
BOT
 10
2.2920
 20
0.8430
 30
 0.0
 42
1.0
  0
SEQEND
  8
BOT
  0
POLYLINE
  8
DRL
 66
      1
 70
1
 40
0.0100
 41
0.0100
  0
VERTEX
  8
DRL
 10
2.2780
 20
0.8430
 30
 0.0
 42
1.0
  0
VERTEX
  8
DRL
 10
2.2880
 20
0.8430
 30
 0.0
 42
1.0
  0
SEQEND
  8
DRL
  0
POLYLINE
  8
BOT
 66
      1
 70
0
 40
0.0110
 41
0.0110
  0
VERTEX
  8
BOT
 10
2.2830
 20
0.8430
 30
 0.0
  0
VERTEX
  8
BOT
 10
2.1340
 20
0.9920
 30
 0.0
  0
SEQEND
  8
BOT
  0
POLYLINE
  8
BOT
 66
      1
 70
1
 40
0.0055
 41
0.0055
  0
VERTEX
  8
BOT
 10
2.2803
 20
0.8430
 30
 0.0
 42
1.0
  0
VERTEX
  8
BOT
 10
2.2857
 20
0.8430
 30
 0.0
 42
1.0
  0
SEQEND
  8
BOT
  0
POLYLINE
  8
BOT
 66
      1
 70
1
 40
0.0055
 41
0.0055
  0
VERTEX
  8
BOT
 10
2.1313
 20
0.9920
 30
 0.0
 42
1.0
  0
VERTEX
  8
BOT
 10
2.1367
 20
0.9920
 30
 0.0
 42
1.0
  0
SEQEND
  8
BOT
  0
POLYLINE
  8
BOT
 66
      1
 70
0
 40
0.0110
 41
0.0110
  0
VERTEX
  8
BOT
 10
2.1340
 20
0.9920
 30
 0.0
  0
VERTEX
  8
BOT
 10
2.1340
 20
1.0690
 30
 0.0
  0
SEQEND
  8
BOT
  0
POLYLINE
  8
BOT
 66
      1
 70
1
 40
0.0055
 41
0.0055
  0
VERTEX
  8
BOT
 10
2.1313
 20
0.9920
 30
 0.0
 42
1.0
  0
VERTEX
  8
BOT
 10
2.1367
 20
0.9920
 30
 0.0
 42
1.0
  0
SEQEND
  8
BOT
  0
POLYLINE
  8
BOT
 66
      1
 70
1
 40
0.0055
 41
0.0055
  0
VERTEX
  8
BOT
 10
2.1313
 20
1.0690
 30
 0.0
 42
1.0
  0
VERTEX
  8
BOT
 10
2.1367
 20
1.0690
 30
 0.0
 42
1.0
  0
SEQEND
  8
BOT
  0
POLYLINE
  8
BOT
 66
      1
 70
0
 40
0.0110
 41
0.0110
  0
VERTEX
  8
BOT
 10
2.1340
 20
1.0690
 30
 0.0
  0
VERTEX
  8
BOT
 10
2.1070
 20
1.0960
 30
 0.0
  0
SEQEND
  8
BOT
  0
POLYLINE
  8
BOT
 66
      1
 70
1
 40
0.0055
 41
0.0055
  0
VERTEX
  8
BOT
 10
2.1313
 20
1.0690
 30
 0.0
 42
1.0
  0
VERTEX
  8
BOT
 10
2.1367
 20
1.0690
 30
 0.0
 42
1.0
  0
SEQEND
  8
BOT
  0
POLYLINE
  8
BOT
 66
      1
 70
1
 40
0.0055
 41
0.0055
  0
VERTEX
  8
BOT
 10
2.1043
 20
1.0960
 30
 0.0
 42
1.0
  0
VERTEX
  8
BOT
 10
2.1098
 20
1.0960
 30
 0.0
 42
1.0
  0
SEQEND
  8
BOT
  0
POLYLINE
  8
BOT
 66
      1
 70
0
 40
0.0110
 41
0.0110
  0
VERTEX
  8
BOT
 10
2.1070
 20
1.0960
 30
 0.0
  0
VERTEX
  8
BOT
 10
2.0270
 20
1.0960
 30
 0.0
  0
SEQEND
  8
BOT
  0
POLYLINE
  8
BOT
 66
      1
 70
1
 40
0.0055
 41
0.0055
  0
VERTEX
  8
BOT
 10
2.1043
 20
1.0960
 30
 0.0
 42
1.0
  0
VERTEX
  8
BOT
 10
2.1098
 20
1.0960
 30
 0.0
 42
1.0
  0
SEQEND
  8
BOT
  0
POLYLINE
  8
BOT
 66
      1
 70
1
 40
0.0055
 41
0.0055
  0
VERTEX
  8
BOT
 10
2.0243
 20
1.0960
 30
 0.0
 42
1.0
  0
VERTEX
  8
BOT
 10
2.0297
 20
1.0960
 30
 0.0
 42
1.0
  0
SEQEND
  8
BOT
  0
POLYLINE
  8
BOT
 66
      1
 70
1
 40
0.0190
 41
0.0190
  0
VERTEX
  8
BOT
 10
2.1050
 20
0.8370
 30
 0.0
 42
1.0
  0
VERTEX
  8
BOT
 10
2.1230
 20
0.8370
 30
 0.0
 42
1.0
  0
SEQEND
  8
BOT
  0
POLYLINE
  8
DRL
 66
      1
 70
1
 40
0.0100
 41
0.0100
  0
VERTEX
  8
DRL
 10
2.1090
 20
0.8370
 30
 0.0
 42
1.0
  0
VERTEX
  8
DRL
 10
2.1190
 20
0.8370
 30
 0.0
 42
1.0
  0
SEQEND
  8
DRL
  0
POLYLINE
  8
BOT
 66
      1
 70
0
 40
0.0110
 41
0.0110
  0
VERTEX
  8
BOT
 10
2.1270
 20
1.1390
 30
 0.0
  0
VERTEX
  8
BOT
 10
1.9930
 20
1.1390
 30
 0.0
  0
SEQEND
  8
BOT
  0
POLYLINE
  8
BOT
 66
      1
 70
1
 40
0.0055
 41
0.0055
  0
VERTEX
  8
BOT
 10
2.1243
 20
1.1390
 30
 0.0
 42
1.0
  0
VERTEX
  8
BOT
 10
2.1297
 20
1.1390
 30
 0.0
 42
1.0
  0
SEQEND
  8
BOT
  0
POLYLINE
  8
BOT
 66
      1
 70
1
 40
0.0055
 41
0.0055
  0
VERTEX
  8
BOT
 10
1.9903
 20
1.1390
 30
 0.0
 42
1.0
  0
VERTEX
  8
BOT
 10
1.9958
 20
1.1390
 30
 0.0
 42
1.0
  0
SEQEND
  8
BOT
  0
POLYLINE
  8
BOT
 66
      1
 70
0
 40
0.0110
 41
0.0110
  0
VERTEX
  8
BOT
 10
1.9930
 20
1.1390
 30
 0.0
  0
VERTEX
  8
BOT
 10
1.9780
 20
1.1240
 30
 0.0
  0
SEQEND
  8
BOT
  0
POLYLINE
  8
BOT
 66
      1
 70
1
 40
0.0055
 41
0.0055
  0
VERTEX
  8
BOT
 10
1.9903
 20
1.1390
 30
 0.0
 42
1.0
  0
VERTEX
  8
BOT
 10
1.9958
 20
1.1390
 30
 0.0
 42
1.0
  0
SEQEND
  8
BOT
  0
POLYLINE
  8
BOT
 66
      1
 70
1
 40
0.0055
 41
0.0055
  0
VERTEX
  8
BOT
 10
1.9753
 20
1.1240
 30
 0.0
 42
1.0
  0
VERTEX
  8
BOT
 10
1.9808
 20
1.1240
 30
 0.0
 42
1.0
  0
SEQEND
  8
BOT
  0
POLYLINE
  8
BOT
 66
      1
 70
0
 40
0.0110
 41
0.0110
  0
VERTEX
  8
BOT
 10
1.9780
 20
1.1240
 30
 0.0
  0
VERTEX
  8
BOT
 10
1.9780
 20
1.0440
 30
 0.0
  0
SEQEND
  8
BOT
  0
POLYLINE
  8
BOT
 66
      1
 70
1
 40
0.0055
 41
0.0055
  0
VERTEX
  8
BOT
 10
1.9753
 20
1.1240
 30
 0.0
 42
1.0
  0
VERTEX
  8
BOT
 10
1.9808
 20
1.1240
 30
 0.0
 42
1.0
  0
SEQEND
  8
BOT
  0
POLYLINE
  8
BOT
 66
      1
 70
1
 40
0.0055
 41
0.0055
  0
VERTEX
  8
BOT
 10
1.9753
 20
1.0440
 30
 0.0
 42
1.0
  0
VERTEX
  8
BOT
 10
1.9808
 20
1.0440
 30
 0.0
 42
1.0
  0
SEQEND
  8
BOT
  0
POLYLINE
  8
BOT
 66
      1
 70
0
 40
0.0110
 41
0.0110
  0
VERTEX
  8
BOT
 10
1.9780
 20
1.0440
 30
 0.0
  0
VERTEX
  8
BOT
 10
2.1140
 20
0.9080
 30
 0.0
  0
SEQEND
  8
BOT
  0
POLYLINE
  8
BOT
 66
      1
 70
1
 40
0.0055
 41
0.0055
  0
VERTEX
  8
BOT
 10
1.9753
 20
1.0440
 30
 0.0
 42
1.0
  0
VERTEX
  8
BOT
 10
1.9808
 20
1.0440
 30
 0.0
 42
1.0
  0
SEQEND
  8
BOT
  0
POLYLINE
  8
BOT
 66
      1
 70
1
 40
0.0055
 41
0.0055
  0
VERTEX
  8
BOT
 10
2.1113
 20
0.9080
 30
 0.0
 42
1.0
  0
VERTEX
  8
BOT
 10
2.1167
 20
0.9080
 30
 0.0
 42
1.0
  0
SEQEND
  8
BOT
  0
POLYLINE
  8
BOT
 66
      1
 70
0
 40
0.0110
 41
0.0110
  0
VERTEX
  8
BOT
 10
2.1140
 20
0.9080
 30
 0.0
  0
VERTEX
  8
BOT
 10
2.1140
 20
0.8370
 30
 0.0
  0
SEQEND
  8
BOT
  0
POLYLINE
  8
BOT
 66
      1
 70
1
 40
0.0055
 41
0.0055
  0
VERTEX
  8
BOT
 10
2.1113
 20
0.9080
 30
 0.0
 42
1.0
  0
VERTEX
  8
BOT
 10
2.1167
 20
0.9080
 30
 0.0
 42
1.0
  0
SEQEND
  8
BOT
  0
POLYLINE
  8
BOT
 66
      1
 70
1
 40
0.0055
 41
0.0055
  0
VERTEX
  8
BOT
 10
2.1113
 20
0.8370
 30
 0.0
 42
1.0
  0
VERTEX
  8
BOT
 10
2.1167
 20
0.8370
 30
 0.0
 42
1.0
  0
SEQEND
  8
BOT
  0
POLYLINE
  8
BOT
 66
      1
 70
1
 40
0.0190
 41
0.0190
  0
VERTEX
  8
BOT
 10
0.9280
 20
0.8250
 30
 0.0
 42
1.0
  0
VERTEX
  8
BOT
 10
0.9460
 20
0.8250
 30
 0.0
 42
1.0
  0
SEQEND
  8
BOT
  0
POLYLINE
  8
DRL
 66
      1
 70
1
 40
0.0100
 41
0.0100
  0
VERTEX
  8
DRL
 10
0.9320
 20
0.8250
 30
 0.0
 42
1.0
  0
VERTEX
  8
DRL
 10
0.9420
 20
0.8250
 30
 0.0
 42
1.0
  0
SEQEND
  8
DRL
  0
POLYLINE
  8
BOT
 66
      1
 70
0
 40
0.0240
 41
0.0240
  0
VERTEX
  8
BOT
 10
0.7070
 20
0.6950
 30
 0.0
  0
VERTEX
  8
BOT
 10
0.7070
 20
0.7940
 30
 0.0
  0
SEQEND
  8
BOT
  0
POLYLINE
  8
BOT
 66
      1
 70
1
 40
0.0120
 41
0.0120
  0
VERTEX
  8
BOT
 10
0.7010
 20
0.6950
 30
 0.0
 42
1.0
  0
VERTEX
  8
BOT
 10
0.7130
 20
0.6950
 30
 0.0
 42
1.0
  0
SEQEND
  8
BOT
  0
POLYLINE
  8
BOT
 66
      1
 70
1
 40
0.0120
 41
0.0120
  0
VERTEX
  8
BOT
 10
0.7010
 20
0.7940
 30
 0.0
 42
1.0
  0
VERTEX
  8
BOT
 10
0.7130
 20
0.7940
 30
 0.0
 42
1.0
  0
SEQEND
  8
BOT
  0
POLYLINE
  8
BOT
 66
      1
 70
0
 40
0.0240
 41
0.0240
  0
VERTEX
  8
BOT
 10
0.7070
 20
0.7940
 30
 0.0
  0
VERTEX
  8
BOT
 10
0.7380
 20
0.8250
 30
 0.0
  0
SEQEND
  8
BOT
  0
POLYLINE
  8
BOT
 66
      1
 70
1
 40
0.0120
 41
0.0120
  0
VERTEX
  8
BOT
 10
0.7010
 20
0.7940
 30
 0.0
 42
1.0
  0
VERTEX
  8
BOT
 10
0.7130
 20
0.7940
 30
 0.0
 42
1.0
  0
SEQEND
  8
BOT
  0
POLYLINE
  8
BOT
 66
      1
 70
1
 40
0.0120
 41
0.0120
  0
VERTEX
  8
BOT
 10
0.7320
 20
0.8250
 30
 0.0
 42
1.0
  0
VERTEX
  8
BOT
 10
0.7440
 20
0.8250
 30
 0.0
 42
1.0
  0
SEQEND
  8
BOT
  0
POLYLINE
  8
BOT
 66
      1
 70
0
 40
0.0240
 41
0.0240
  0
VERTEX
  8
BOT
 10
0.7380
 20
0.8250
 30
 0.0
  0
VERTEX
  8
BOT
 10
0.9370
 20
0.8250
 30
 0.0
  0
SEQEND
  8
BOT
  0
POLYLINE
  8
BOT
 66
      1
 70
1
 40
0.0120
 41
0.0120
  0
VERTEX
  8
BOT
 10
0.7320
 20
0.8250
 30
 0.0
 42
1.0
  0
VERTEX
  8
BOT
 10
0.7440
 20
0.8250
 30
 0.0
 42
1.0
  0
SEQEND
  8
BOT
  0
POLYLINE
  8
BOT
 66
      1
 70
1
 40
0.0120
 41
0.0120
  0
VERTEX
  8
BOT
 10
0.9310
 20
0.8250
 30
 0.0
 42
1.0
  0
VERTEX
  8
BOT
 10
0.9430
 20
0.8250
 30
 0.0
 42
1.0
  0
SEQEND
  8
BOT
  0
POLYLINE
  8
BOT
 66
      1
 70
1
 40
0.0190
 41
0.0190
  0
VERTEX
  8
BOT
 10
2.1900
 20
0.8370
 30
 0.0
 42
1.0
  0
VERTEX
  8
BOT
 10
2.2080
 20
0.8370
 30
 0.0
 42
1.0
  0
SEQEND
  8
BOT
  0
POLYLINE
  8
DRL
 66
      1
 70
1
 40
0.0100
 41
0.0100
  0
VERTEX
  8
DRL
 10
2.1940
 20
0.8370
 30
 0.0
 42
1.0
  0
VERTEX
  8
DRL
 10
2.2040
 20
0.8370
 30
 0.0
 42
1.0
  0
SEQEND
  8
DRL
  0
POLYLINE
  8
BOT
 66
      1
 70
0
 40
0.0110
 41
0.0110
  0
VERTEX
  8
BOT
 10
2.1990
 20
0.8370
 30
 0.0
  0
VERTEX
  8
BOT
 10
2.1990
 20
0.8720
 30
 0.0
  0
SEQEND
  8
BOT
  0
POLYLINE
  8
BOT
 66
      1
 70
1
 40
0.0055
 41
0.0055
  0
VERTEX
  8
BOT
 10
2.1963
 20
0.8370
 30
 0.0
 42
1.0
  0
VERTEX
  8
BOT
 10
2.2017
 20
0.8370
 30
 0.0
 42
1.0
  0
SEQEND
  8
BOT
  0
POLYLINE
  8
BOT
 66
      1
 70
1
 40
0.0055
 41
0.0055
  0
VERTEX
  8
BOT
 10
2.1963
 20
0.8720
 30
 0.0
 42
1.0
  0
VERTEX
  8
BOT
 10
2.2017
 20
0.8720
 30
 0.0
 42
1.0
  0
SEQEND
  8
BOT
  0
POLYLINE
  8
BOT
 66
      1
 70
0
 40
0.0110
 41
0.0110
  0
VERTEX
  8
BOT
 10
2.1990
 20
0.8720
 30
 0.0
  0
VERTEX
  8
BOT
 10
2.0790
 20
0.9930
 30
 0.0
  0
SEQEND
  8
BOT
  0
POLYLINE
  8
BOT
 66
      1
 70
1
 40
0.0055
 41
0.0055
  0
VERTEX
  8
BOT
 10
2.1963
 20
0.8720
 30
 0.0
 42
1.0
  0
VERTEX
  8
BOT
 10
2.2017
 20
0.8720
 30
 0.0
 42
1.0
  0
SEQEND
  8
BOT
  0
POLYLINE
  8
BOT
 66
      1
 70
1
 40
0.0055
 41
0.0055
  0
VERTEX
  8
BOT
 10
2.0763
 20
0.9930
 30
 0.0
 42
1.0
  0
VERTEX
  8
BOT
 10
2.0818
 20
0.9930
 30
 0.0
 42
1.0
  0
SEQEND
  8
BOT
  0
POLYLINE
  8
BOT
 66
      1
 70
0
 40
0.0110
 41
0.0110
  0
VERTEX
  8
BOT
 10
2.0790
 20
0.9930
 30
 0.0
  0
VERTEX
  8
BOT
 10
2.0790
 20
1.0520
 30
 0.0
  0
SEQEND
  8
BOT
  0
POLYLINE
  8
BOT
 66
      1
 70
1
 40
0.0055
 41
0.0055
  0
VERTEX
  8
BOT
 10
2.0763
 20
0.9930
 30
 0.0
 42
1.0
  0
VERTEX
  8
BOT
 10
2.0818
 20
0.9930
 30
 0.0
 42
1.0
  0
SEQEND
  8
BOT
  0
POLYLINE
  8
BOT
 66
      1
 70
1
 40
0.0055
 41
0.0055
  0
VERTEX
  8
BOT
 10
2.0763
 20
1.0520
 30
 0.0
 42
1.0
  0
VERTEX
  8
BOT
 10
2.0818
 20
1.0520
 30
 0.0
 42
1.0
  0
SEQEND
  8
BOT
  0
POLYLINE
  8
BOT
 66
      1
 70
0
 40
0.0200
 41
0.0200
  0
VERTEX
  8
BOT
 10
0.4040
 20
2.0320
 30
 0.0
  0
VERTEX
  8
BOT
 10
0.8270
 20
2.0320
 30
 0.0
  0
SEQEND
  8
BOT
  0
POLYLINE
  8
BOT
 66
      1
 70
1
 40
0.0100
 41
0.0100
  0
VERTEX
  8
BOT
 10
0.3990
 20
2.0320
 30
 0.0
 42
1.0
  0
VERTEX
  8
BOT
 10
0.4090
 20
2.0320
 30
 0.0
 42
1.0
  0
SEQEND
  8
BOT
  0
POLYLINE
  8
BOT
 66
      1
 70
1
 40
0.0100
 41
0.0100
  0
VERTEX
  8
BOT
 10
0.8220
 20
2.0320
 30
 0.0
 42
1.0
  0
VERTEX
  8
BOT
 10
0.8320
 20
2.0320
 30
 0.0
 42
1.0
  0
SEQEND
  8
BOT
  0
POLYLINE
  8
BOT
 66
      1
 70
0
 40
0.0200
 41
0.0200
  0
VERTEX
  8
BOT
 10
3.5210
 20
0.8600
 30
 0.0
  0
VERTEX
  8
BOT
 10
3.2050
 20
1.1760
 30
 0.0
  0
SEQEND
  8
BOT
  0
POLYLINE
  8
BOT
 66
      1
 70
1
 40
0.0100
 41
0.0100
  0
VERTEX
  8
BOT
 10
3.5160
 20
0.8600
 30
 0.0
 42
1.0
  0
VERTEX
  8
BOT
 10
3.5260
 20
0.8600
 30
 0.0
 42
1.0
  0
SEQEND
  8
BOT
  0
POLYLINE
  8
BOT
 66
      1
 70
1
 40
0.0100
 41
0.0100
  0
VERTEX
  8
BOT
 10
3.2000
 20
1.1760
 30
 0.0
 42
1.0
  0
VERTEX
  8
BOT
 10
3.2100
 20
1.1760
 30
 0.0
 42
1.0
  0
SEQEND
  8
BOT
  0
POLYLINE
  8
BOT
 66
      1
 70
0
 40
0.0200
 41
0.0200
  0
VERTEX
  8
BOT
 10
3.2050
 20
1.1760
 30
 0.0
  0
VERTEX
  8
BOT
 10
3.2050
 20
1.3190
 30
 0.0
  0
SEQEND
  8
BOT
  0
POLYLINE
  8
BOT
 66
      1
 70
1
 40
0.0100
 41
0.0100
  0
VERTEX
  8
BOT
 10
3.2000
 20
1.1760
 30
 0.0
 42
1.0
  0
VERTEX
  8
BOT
 10
3.2100
 20
1.1760
 30
 0.0
 42
1.0
  0
SEQEND
  8
BOT
  0
POLYLINE
  8
BOT
 66
      1
 70
1
 40
0.0100
 41
0.0100
  0
VERTEX
  8
BOT
 10
3.2000
 20
1.3190
 30
 0.0
 42
1.0
  0
VERTEX
  8
BOT
 10
3.2100
 20
1.3190
 30
 0.0
 42
1.0
  0
SEQEND
  8
BOT
  0
POLYLINE
  8
BOT
 66
      1
 70
1
 40
0.0190
 41
0.0190
  0
VERTEX
  8
BOT
 10
1.0700
 20
1.6930
 30
 0.0
 42
1.0
  0
VERTEX
  8
BOT
 10
1.0880
 20
1.6930
 30
 0.0
 42
1.0
  0
SEQEND
  8
BOT
  0
POLYLINE
  8
DRL
 66
      1
 70
1
 40
0.0100
 41
0.0100
  0
VERTEX
  8
DRL
 10
1.0740
 20
1.6930
 30
 0.0
 42
1.0
  0
VERTEX
  8
DRL
 10
1.0840
 20
1.6930
 30
 0.0
 42
1.0
  0
SEQEND
  8
DRL
  0
POLYLINE
  8
BOT
 66
      1
 70
1
 40
0.0190
 41
0.0190
  0
VERTEX
  8
BOT
 10
1.1810
 20
1.6930
 30
 0.0
 42
1.0
  0
VERTEX
  8
BOT
 10
1.1990
 20
1.6930
 30
 0.0
 42
1.0
  0
SEQEND
  8
BOT
  0
POLYLINE
  8
DRL
 66
      1
 70
1
 40
0.0100
 41
0.0100
  0
VERTEX
  8
DRL
 10
1.1850
 20
1.6930
 30
 0.0
 42
1.0
  0
VERTEX
  8
DRL
 10
1.1950
 20
1.6930
 30
 0.0
 42
1.0
  0
SEQEND
  8
DRL
  0
POLYLINE
  8
BOT
 66
      1
 70
1
 40
0.0190
 41
0.0190
  0
VERTEX
  8
BOT
 10
1.0440
 20
1.3590
 30
 0.0
 42
1.0
  0
VERTEX
  8
BOT
 10
1.0620
 20
1.3590
 30
 0.0
 42
1.0
  0
SEQEND
  8
BOT
  0
POLYLINE
  8
DRL
 66
      1
 70
1
 40
0.0100
 41
0.0100
  0
VERTEX
  8
DRL
 10
1.0480
 20
1.3590
 30
 0.0
 42
1.0
  0
VERTEX
  8
DRL
 10
1.0580
 20
1.3590
 30
 0.0
 42
1.0
  0
SEQEND
  8
DRL
  0
POLYLINE
  8
BOT
 66
      1
 70
1
 40
0.0190
 41
0.0190
  0
VERTEX
  8
BOT
 10
0.8280
 20
1.2560
 30
 0.0
 42
1.0
  0
VERTEX
  8
BOT
 10
0.8460
 20
1.2560
 30
 0.0
 42
1.0
  0
SEQEND
  8
BOT
  0
POLYLINE
  8
DRL
 66
      1
 70
1
 40
0.0100
 41
0.0100
  0
VERTEX
  8
DRL
 10
0.8320
 20
1.2560
 30
 0.0
 42
1.0
  0
VERTEX
  8
DRL
 10
0.8420
 20
1.2560
 30
 0.0
 42
1.0
  0
SEQEND
  8
DRL
  0
POLYLINE
  8
BOT
 66
      1
 70
0
 40
0.0120
 41
0.0120
  0
VERTEX
  8
BOT
 10
1.0790
 20
1.6930
 30
 0.0
  0
VERTEX
  8
BOT
 10
1.1900
 20
1.6930
 30
 0.0
  0
SEQEND
  8
BOT
  0
POLYLINE
  8
BOT
 66
      1
 70
1
 40
0.0060
 41
0.0060
  0
VERTEX
  8
BOT
 10
1.0760
 20
1.6930
 30
 0.0
 42
1.0
  0
VERTEX
  8
BOT
 10
1.0820
 20
1.6930
 30
 0.0
 42
1.0
  0
SEQEND
  8
BOT
  0
POLYLINE
  8
BOT
 66
      1
 70
1
 40
0.0060
 41
0.0060
  0
VERTEX
  8
BOT
 10
1.1870
 20
1.6930
 30
 0.0
 42
1.0
  0
VERTEX
  8
BOT
 10
1.1930
 20
1.6930
 30
 0.0
 42
1.0
  0
SEQEND
  8
BOT
  0
POLYLINE
  8
BOT
 66
      1
 70
0
 40
0.0120
 41
0.0120
  0
VERTEX
  8
BOT
 10
1.0530
 20
1.3590
 30
 0.0
  0
VERTEX
  8
BOT
 10
0.9510
 20
1.2560
 30
 0.0
  0
SEQEND
  8
BOT
  0
POLYLINE
  8
BOT
 66
      1
 70
1
 40
0.0060
 41
0.0060
  0
VERTEX
  8
BOT
 10
1.0500
 20
1.3590
 30
 0.0
 42
1.0
  0
VERTEX
  8
BOT
 10
1.0560
 20
1.3590
 30
 0.0
 42
1.0
  0
SEQEND
  8
BOT
  0
POLYLINE
  8
BOT
 66
      1
 70
1
 40
0.0060
 41
0.0060
  0
VERTEX
  8
BOT
 10
0.9480
 20
1.2560
 30
 0.0
 42
1.0
  0
VERTEX
  8
BOT
 10
0.9540
 20
1.2560
 30
 0.0
 42
1.0
  0
SEQEND
  8
BOT
  0
POLYLINE
  8
BOT
 66
      1
 70
0
 40
0.0120
 41
0.0120
  0
VERTEX
  8
BOT
 10
0.9510
 20
1.2560
 30
 0.0
  0
VERTEX
  8
BOT
 10
0.8370
 20
1.2560
 30
 0.0
  0
SEQEND
  8
BOT
  0
POLYLINE
  8
BOT
 66
      1
 70
1
 40
0.0060
 41
0.0060
  0
VERTEX
  8
BOT
 10
0.9480
 20
1.2560
 30
 0.0
 42
1.0
  0
VERTEX
  8
BOT
 10
0.9540
 20
1.2560
 30
 0.0
 42
1.0
  0
SEQEND
  8
BOT
  0
POLYLINE
  8
BOT
 66
      1
 70
1
 40
0.0060
 41
0.0060
  0
VERTEX
  8
BOT
 10
0.8340
 20
1.2560
 30
 0.0
 42
1.0
  0
VERTEX
  8
BOT
 10
0.8400
 20
1.2560
 30
 0.0
 42
1.0
  0
SEQEND
  8
BOT
  0
POLYLINE
  8
BOT
 66
      1
 70
1
 40
0.0190
 41
0.0190
  0
VERTEX
  8
BOT
 10
1.9570
 20
1.8160
 30
 0.0
 42
1.0
  0
VERTEX
  8
BOT
 10
1.9750
 20
1.8160
 30
 0.0
 42
1.0
  0
SEQEND
  8
BOT
  0
POLYLINE
  8
DRL
 66
      1
 70
1
 40
0.0100
 41
0.0100
  0
VERTEX
  8
DRL
 10
1.9610
 20
1.8160
 30
 0.0
 42
1.0
  0
VERTEX
  8
DRL
 10
1.9710
 20
1.8160
 30
 0.0
 42
1.0
  0
SEQEND
  8
DRL
  0
POLYLINE
  8
BOT
 66
      1
 70
0
 40
0.0110
 41
0.0110
  0
VERTEX
  8
BOT
 10
1.9660
 20
1.8160
 30
 0.0
  0
VERTEX
  8
BOT
 10
1.7800
 20
1.8160
 30
 0.0
  0
SEQEND
  8
BOT
  0
POLYLINE
  8
BOT
 66
      1
 70
1
 40
0.0055
 41
0.0055
  0
VERTEX
  8
BOT
 10
1.9632
 20
1.8160
 30
 0.0
 42
1.0
  0
VERTEX
  8
BOT
 10
1.9688
 20
1.8160
 30
 0.0
 42
1.0
  0
SEQEND
  8
BOT
  0
POLYLINE
  8
BOT
 66
      1
 70
1
 40
0.0055
 41
0.0055
  0
VERTEX
  8
BOT
 10
1.7773
 20
1.8160
 30
 0.0
 42
1.0
  0
VERTEX
  8
BOT
 10
1.7828
 20
1.8160
 30
 0.0
 42
1.0
  0
SEQEND
  8
BOT
  0
POLYLINE
  8
BOT
 66
      1
 70
0
 40
0.0110
 41
0.0110
  0
VERTEX
  8
BOT
 10
1.7800
 20
1.8160
 30
 0.0
  0
VERTEX
  8
BOT
 10
1.7220
 20
1.7580
 30
 0.0
  0
SEQEND
  8
BOT
  0
POLYLINE
  8
BOT
 66
      1
 70
1
 40
0.0055
 41
0.0055
  0
VERTEX
  8
BOT
 10
1.7773
 20
1.8160
 30
 0.0
 42
1.0
  0
VERTEX
  8
BOT
 10
1.7828
 20
1.8160
 30
 0.0
 42
1.0
  0
SEQEND
  8
BOT
  0
POLYLINE
  8
BOT
 66
      1
 70
1
 40
0.0055
 41
0.0055
  0
VERTEX
  8
BOT
 10
1.7192
 20
1.7580
 30
 0.0
 42
1.0
  0
VERTEX
  8
BOT
 10
1.7248
 20
1.7580
 30
 0.0
 42
1.0
  0
SEQEND
  8
BOT
  0
POLYLINE
  8
BOT
 66
      1
 70
0
 40
0.0110
 41
0.0110
  0
VERTEX
  8
BOT
 10
1.7220
 20
1.7580
 30
 0.0
  0
VERTEX
  8
BOT
 10
1.7220
 20
1.1820
 30
 0.0
  0
SEQEND
  8
BOT
  0
POLYLINE
  8
BOT
 66
      1
 70
1
 40
0.0055
 41
0.0055
  0
VERTEX
  8
BOT
 10
1.7192
 20
1.7580
 30
 0.0
 42
1.0
  0
VERTEX
  8
BOT
 10
1.7248
 20
1.7580
 30
 0.0
 42
1.0
  0
SEQEND
  8
BOT
  0
POLYLINE
  8
BOT
 66
      1
 70
1
 40
0.0055
 41
0.0055
  0
VERTEX
  8
BOT
 10
1.7192
 20
1.1820
 30
 0.0
 42
1.0
  0
VERTEX
  8
BOT
 10
1.7248
 20
1.1820
 30
 0.0
 42
1.0
  0
SEQEND
  8
BOT
  0
POLYLINE
  8
BOT
 66
      1
 70
0
 40
0.0110
 41
0.0110
  0
VERTEX
  8
BOT
 10
1.7220
 20
1.1820
 30
 0.0
  0
VERTEX
  8
BOT
 10
1.6750
 20
1.1340
 30
 0.0
  0
SEQEND
  8
BOT
  0
POLYLINE
  8
BOT
 66
      1
 70
1
 40
0.0055
 41
0.0055
  0
VERTEX
  8
BOT
 10
1.7192
 20
1.1820
 30
 0.0
 42
1.0
  0
VERTEX
  8
BOT
 10
1.7248
 20
1.1820
 30
 0.0
 42
1.0
  0
SEQEND
  8
BOT
  0
POLYLINE
  8
BOT
 66
      1
 70
1
 40
0.0055
 41
0.0055
  0
VERTEX
  8
BOT
 10
1.6723
 20
1.1340
 30
 0.0
 42
1.0
  0
VERTEX
  8
BOT
 10
1.6778
 20
1.1340
 30
 0.0
 42
1.0
  0
SEQEND
  8
BOT
  0
POLYLINE
  8
BOT
 66
      1
 70
0
 40
0.0110
 41
0.0110
  0
VERTEX
  8
BOT
 10
1.6750
 20
1.1340
 30
 0.0
  0
VERTEX
  8
BOT
 10
1.3820
 20
1.1340
 30
 0.0
  0
SEQEND
  8
BOT
  0
POLYLINE
  8
BOT
 66
      1
 70
1
 40
0.0055
 41
0.0055
  0
VERTEX
  8
BOT
 10
1.6723
 20
1.1340
 30
 0.0
 42
1.0
  0
VERTEX
  8
BOT
 10
1.6778
 20
1.1340
 30
 0.0
 42
1.0
  0
SEQEND
  8
BOT
  0
POLYLINE
  8
BOT
 66
      1
 70
1
 40
0.0055
 41
0.0055
  0
VERTEX
  8
BOT
 10
1.3792
 20
1.1340
 30
 0.0
 42
1.0
  0
VERTEX
  8
BOT
 10
1.3847
 20
1.1340
 30
 0.0
 42
1.0
  0
SEQEND
  8
BOT
  0
POLYLINE
  8
BOT
 66
      1
 70
0
 40
0.0110
 41
0.0110
  0
VERTEX
  8
BOT
 10
1.3820
 20
1.1340
 30
 0.0
  0
VERTEX
  8
BOT
 10
1.3600
 20
1.1130
 30
 0.0
  0
SEQEND
  8
BOT
  0
POLYLINE
  8
BOT
 66
      1
 70
1
 40
0.0055
 41
0.0055
  0
VERTEX
  8
BOT
 10
1.3792
 20
1.1340
 30
 0.0
 42
1.0
  0
VERTEX
  8
BOT
 10
1.3847
 20
1.1340
 30
 0.0
 42
1.0
  0
SEQEND
  8
BOT
  0
POLYLINE
  8
BOT
 66
      1
 70
1
 40
0.0055
 41
0.0055
  0
VERTEX
  8
BOT
 10
1.3573
 20
1.1130
 30
 0.0
 42
1.0
  0
VERTEX
  8
BOT
 10
1.3628
 20
1.1130
 30
 0.0
 42
1.0
  0
SEQEND
  8
BOT
  0
POLYLINE
  8
BOT
 66
      1
 70
0
 40
0.0110
 41
0.0110
  0
VERTEX
  8
BOT
 10
1.3600
 20
1.1130
 30
 0.0
  0
VERTEX
  8
BOT
 10
1.3600
 20
0.8510
 30
 0.0
  0
SEQEND
  8
BOT
  0
POLYLINE
  8
BOT
 66
      1
 70
1
 40
0.0055
 41
0.0055
  0
VERTEX
  8
BOT
 10
1.3573
 20
1.1130
 30
 0.0
 42
1.0
  0
VERTEX
  8
BOT
 10
1.3628
 20
1.1130
 30
 0.0
 42
1.0
  0
SEQEND
  8
BOT
  0
POLYLINE
  8
BOT
 66
      1
 70
1
 40
0.0055
 41
0.0055
  0
VERTEX
  8
BOT
 10
1.3573
 20
0.8510
 30
 0.0
 42
1.0
  0
VERTEX
  8
BOT
 10
1.3628
 20
0.8510
 30
 0.0
 42
1.0
  0
SEQEND
  8
BOT
  0
POLYLINE
  8
BOT
 66
      1
 70
0
 40
0.0110
 41
0.0110
  0
VERTEX
  8
BOT
 10
1.3600
 20
0.8510
 30
 0.0
  0
VERTEX
  8
BOT
 10
1.5750
 20
0.6360
 30
 0.0
  0
SEQEND
  8
BOT
  0
POLYLINE
  8
BOT
 66
      1
 70
1
 40
0.0055
 41
0.0055
  0
VERTEX
  8
BOT
 10
1.3573
 20
0.8510
 30
 0.0
 42
1.0
  0
VERTEX
  8
BOT
 10
1.3628
 20
0.8510
 30
 0.0
 42
1.0
  0
SEQEND
  8
BOT
  0
POLYLINE
  8
BOT
 66
      1
 70
1
 40
0.0055
 41
0.0055
  0
VERTEX
  8
BOT
 10
1.5722
 20
0.6360
 30
 0.0
 42
1.0
  0
VERTEX
  8
BOT
 10
1.5778
 20
0.6360
 30
 0.0
 42
1.0
  0
SEQEND
  8
BOT
  0
POLYLINE
  8
BOT
 66
      1
 70
0
 40
0.0110
 41
0.0110
  0
VERTEX
  8
BOT
 10
1.5750
 20
0.6360
 30
 0.0
  0
VERTEX
  8
BOT
 10
1.5750
 20
0.4990
 30
 0.0
  0
SEQEND
  8
BOT
  0
POLYLINE
  8
BOT
 66
      1
 70
1
 40
0.0055
 41
0.0055
  0
VERTEX
  8
BOT
 10
1.5722
 20
0.6360
 30
 0.0
 42
1.0
  0
VERTEX
  8
BOT
 10
1.5778
 20
0.6360
 30
 0.0
 42
1.0
  0
SEQEND
  8
BOT
  0
POLYLINE
  8
BOT
 66
      1
 70
1
 40
0.0055
 41
0.0055
  0
VERTEX
  8
BOT
 10
1.5722
 20
0.4990
 30
 0.0
 42
1.0
  0
VERTEX
  8
BOT
 10
1.5778
 20
0.4990
 30
 0.0
 42
1.0
  0
SEQEND
  8
BOT
  0
POLYLINE
  8
BOT
 66
      1
 70
1
 40
0.0190
 41
0.0190
  0
VERTEX
  8
BOT
 10
3.3350
 20
0.8000
 30
 0.0
 42
1.0
  0
VERTEX
  8
BOT
 10
3.3530
 20
0.8000
 30
 0.0
 42
1.0
  0
SEQEND
  8
BOT
  0
POLYLINE
  8
DRL
 66
      1
 70
1
 40
0.0100
 41
0.0100
  0
VERTEX
  8
DRL
 10
3.3390
 20
0.8000
 30
 0.0
 42
1.0
  0
VERTEX
  8
DRL
 10
3.3490
 20
0.8000
 30
 0.0
 42
1.0
  0
SEQEND
  8
DRL
  0
POLYLINE
  8
BOT
 66
      1
 70
0
 40
0.0200
 41
0.0200
  0
VERTEX
  8
BOT
 10
0.5790
 20
1.6230
 30
 0.0
  0
VERTEX
  8
BOT
 10
0.5370
 20
1.5820
 30
 0.0
  0
SEQEND
  8
BOT
  0
POLYLINE
  8
BOT
 66
      1
 70
1
 40
0.0100
 41
0.0100
  0
VERTEX
  8
BOT
 10
0.5740
 20
1.6230
 30
 0.0
 42
1.0
  0
VERTEX
  8
BOT
 10
0.5840
 20
1.6230
 30
 0.0
 42
1.0
  0
SEQEND
  8
BOT
  0
POLYLINE
  8
BOT
 66
      1
 70
1
 40
0.0100
 41
0.0100
  0
VERTEX
  8
BOT
 10
0.5320
 20
1.5820
 30
 0.0
 42
1.0
  0
VERTEX
  8
BOT
 10
0.5420
 20
1.5820
 30
 0.0
 42
1.0
  0
SEQEND
  8
BOT
  0
POLYLINE
  8
BOT
 66
      1
 70
0
 40
0.0200
 41
0.0200
  0
VERTEX
  8
BOT
 10
0.5370
 20
1.5820
 30
 0.0
  0
VERTEX
  8
BOT
 10
0.5370
 20
1.4430
 30
 0.0
  0
SEQEND
  8
BOT
  0
POLYLINE
  8
BOT
 66
      1
 70
1
 40
0.0100
 41
0.0100
  0
VERTEX
  8
BOT
 10
0.5320
 20
1.5820
 30
 0.0
 42
1.0
  0
VERTEX
  8
BOT
 10
0.5420
 20
1.5820
 30
 0.0
 42
1.0
  0
SEQEND
  8
BOT
  0
POLYLINE
  8
BOT
 66
      1
 70
1
 40
0.0100
 41
0.0100
  0
VERTEX
  8
BOT
 10
0.5320
 20
1.4430
 30
 0.0
 42
1.0
  0
VERTEX
  8
BOT
 10
0.5420
 20
1.4430
 30
 0.0
 42
1.0
  0
SEQEND
  8
BOT
  0
POLYLINE
  8
BOT
 66
      1
 70
0
 40
0.0200
 41
0.0200
  0
VERTEX
  8
BOT
 10
0.5370
 20
1.4430
 30
 0.0
  0
VERTEX
  8
BOT
 10
0.5610
 20
1.4200
 30
 0.0
  0
SEQEND
  8
BOT
  0
POLYLINE
  8
BOT
 66
      1
 70
1
 40
0.0100
 41
0.0100
  0
VERTEX
  8
BOT
 10
0.5320
 20
1.4430
 30
 0.0
 42
1.0
  0
VERTEX
  8
BOT
 10
0.5420
 20
1.4430
 30
 0.0
 42
1.0
  0
SEQEND
  8
BOT
  0
POLYLINE
  8
BOT
 66
      1
 70
1
 40
0.0100
 41
0.0100
  0
VERTEX
  8
BOT
 10
0.5560
 20
1.4200
 30
 0.0
 42
1.0
  0
VERTEX
  8
BOT
 10
0.5660
 20
1.4200
 30
 0.0
 42
1.0
  0
SEQEND
  8
BOT
  0
POLYLINE
  8
BOT
 66
      1
 70
0
 40
0.0200
 41
0.0200
  0
VERTEX
  8
BOT
 10
0.5610
 20
1.4200
 30
 0.0
  0
VERTEX
  8
BOT
 10
0.7580
 20
1.4200
 30
 0.0
  0
SEQEND
  8
BOT
  0
POLYLINE
  8
BOT
 66
      1
 70
1
 40
0.0100
 41
0.0100
  0
VERTEX
  8
BOT
 10
0.5560
 20
1.4200
 30
 0.0
 42
1.0
  0
VERTEX
  8
BOT
 10
0.5660
 20
1.4200
 30
 0.0
 42
1.0
  0
SEQEND
  8
BOT
  0
POLYLINE
  8
BOT
 66
      1
 70
1
 40
0.0100
 41
0.0100
  0
VERTEX
  8
BOT
 10
0.7530
 20
1.4200
 30
 0.0
 42
1.0
  0
VERTEX
  8
BOT
 10
0.7630
 20
1.4200
 30
 0.0
 42
1.0
  0
SEQEND
  8
BOT
  0
POLYLINE
  8
BOT
 66
      1
 70
0
 40
0.0200
 41
0.0200
  0
VERTEX
  8
BOT
 10
0.7580
 20
1.4200
 30
 0.0
  0
VERTEX
  8
BOT
 10
0.8230
 20
1.4850
 30
 0.0
  0
SEQEND
  8
BOT
  0
POLYLINE
  8
BOT
 66
      1
 70
1
 40
0.0100
 41
0.0100
  0
VERTEX
  8
BOT
 10
0.7530
 20
1.4200
 30
 0.0
 42
1.0
  0
VERTEX
  8
BOT
 10
0.7630
 20
1.4200
 30
 0.0
 42
1.0
  0
SEQEND
  8
BOT
  0
POLYLINE
  8
BOT
 66
      1
 70
1
 40
0.0100
 41
0.0100
  0
VERTEX
  8
BOT
 10
0.8180
 20
1.4850
 30
 0.0
 42
1.0
  0
VERTEX
  8
BOT
 10
0.8280
 20
1.4850
 30
 0.0
 42
1.0
  0
SEQEND
  8
BOT
  0
POLYLINE
  8
BOT
 66
      1
 70
0
 40
0.0200
 41
0.0200
  0
VERTEX
  8
BOT
 10
0.8230
 20
1.4850
 30
 0.0
  0
VERTEX
  8
BOT
 10
1.1080
 20
1.4850
 30
 0.0
  0
SEQEND
  8
BOT
  0
POLYLINE
  8
BOT
 66
      1
 70
1
 40
0.0100
 41
0.0100
  0
VERTEX
  8
BOT
 10
0.8180
 20
1.4850
 30
 0.0
 42
1.0
  0
VERTEX
  8
BOT
 10
0.8280
 20
1.4850
 30
 0.0
 42
1.0
  0
SEQEND
  8
BOT
  0
POLYLINE
  8
BOT
 66
      1
 70
1
 40
0.0100
 41
0.0100
  0
VERTEX
  8
BOT
 10
1.1030
 20
1.4850
 30
 0.0
 42
1.0
  0
VERTEX
  8
BOT
 10
1.1130
 20
1.4850
 30
 0.0
 42
1.0
  0
SEQEND
  8
BOT
  0
POLYLINE
  8
BOT
 66
      1
 70
0
 40
0.0200
 41
0.0200
  0
VERTEX
  8
BOT
 10
1.1080
 20
1.4850
 30
 0.0
  0
VERTEX
  8
BOT
 10
1.1480
 20
1.4450
 30
 0.0
  0
SEQEND
  8
BOT
  0
POLYLINE
  8
BOT
 66
      1
 70
1
 40
0.0100
 41
0.0100
  0
VERTEX
  8
BOT
 10
1.1030
 20
1.4850
 30
 0.0
 42
1.0
  0
VERTEX
  8
BOT
 10
1.1130
 20
1.4850
 30
 0.0
 42
1.0
  0
SEQEND
  8
BOT
  0
POLYLINE
  8
BOT
 66
      1
 70
1
 40
0.0100
 41
0.0100
  0
VERTEX
  8
BOT
 10
1.1430
 20
1.4450
 30
 0.0
 42
1.0
  0
VERTEX
  8
BOT
 10
1.1530
 20
1.4450
 30
 0.0
 42
1.0
  0
SEQEND
  8
BOT
  0
POLYLINE
  8
BOT
 66
      1
 70
0
 40
0.0200
 41
0.0200
  0
VERTEX
  8
BOT
 10
1.1480
 20
1.4450
 30
 0.0
  0
VERTEX
  8
BOT
 10
1.1480
 20
0.4290
 30
 0.0
  0
SEQEND
  8
BOT
  0
POLYLINE
  8
BOT
 66
      1
 70
1
 40
0.0100
 41
0.0100
  0
VERTEX
  8
BOT
 10
1.1430
 20
1.4450
 30
 0.0
 42
1.0
  0
VERTEX
  8
BOT
 10
1.1530
 20
1.4450
 30
 0.0
 42
1.0
  0
SEQEND
  8
BOT
  0
POLYLINE
  8
BOT
 66
      1
 70
1
 40
0.0100
 41
0.0100
  0
VERTEX
  8
BOT
 10
1.1430
 20
0.4290
 30
 0.0
 42
1.0
  0
VERTEX
  8
BOT
 10
1.1530
 20
0.4290
 30
 0.0
 42
1.0
  0
SEQEND
  8
BOT
  0
POLYLINE
  8
BOT
 66
      1
 70
0
 40
0.0200
 41
0.0200
  0
VERTEX
  8
BOT
 10
1.1480
 20
0.4290
 30
 0.0
  0
VERTEX
  8
BOT
 10
1.1850
 20
0.3920
 30
 0.0
  0
SEQEND
  8
BOT
  0
POLYLINE
  8
BOT
 66
      1
 70
1
 40
0.0100
 41
0.0100
  0
VERTEX
  8
BOT
 10
1.1430
 20
0.4290
 30
 0.0
 42
1.0
  0
VERTEX
  8
BOT
 10
1.1530
 20
0.4290
 30
 0.0
 42
1.0
  0
SEQEND
  8
BOT
  0
POLYLINE
  8
BOT
 66
      1
 70
1
 40
0.0100
 41
0.0100
  0
VERTEX
  8
BOT
 10
1.1800
 20
0.3920
 30
 0.0
 42
1.0
  0
VERTEX
  8
BOT
 10
1.1900
 20
0.3920
 30
 0.0
 42
1.0
  0
SEQEND
  8
BOT
  0
POLYLINE
  8
BOT
 66
      1
 70
0
 40
0.0200
 41
0.0200
  0
VERTEX
  8
BOT
 10
1.1850
 20
0.3920
 30
 0.0
  0
VERTEX
  8
BOT
 10
3.3070
 20
0.3920
 30
 0.0
  0
SEQEND
  8
BOT
  0
POLYLINE
  8
BOT
 66
      1
 70
1
 40
0.0100
 41
0.0100
  0
VERTEX
  8
BOT
 10
1.1800
 20
0.3920
 30
 0.0
 42
1.0
  0
VERTEX
  8
BOT
 10
1.1900
 20
0.3920
 30
 0.0
 42
1.0
  0
SEQEND
  8
BOT
  0
POLYLINE
  8
BOT
 66
      1
 70
1
 40
0.0100
 41
0.0100
  0
VERTEX
  8
BOT
 10
3.3020
 20
0.3920
 30
 0.0
 42
1.0
  0
VERTEX
  8
BOT
 10
3.3120
 20
0.3920
 30
 0.0
 42
1.0
  0
SEQEND
  8
BOT
  0
POLYLINE
  8
BOT
 66
      1
 70
0
 40
0.0200
 41
0.0200
  0
VERTEX
  8
BOT
 10
3.3070
 20
0.3920
 30
 0.0
  0
VERTEX
  8
BOT
 10
3.3440
 20
0.4290
 30
 0.0
  0
SEQEND
  8
BOT
  0
POLYLINE
  8
BOT
 66
      1
 70
1
 40
0.0100
 41
0.0100
  0
VERTEX
  8
BOT
 10
3.3020
 20
0.3920
 30
 0.0
 42
1.0
  0
VERTEX
  8
BOT
 10
3.3120
 20
0.3920
 30
 0.0
 42
1.0
  0
SEQEND
  8
BOT
  0
POLYLINE
  8
BOT
 66
      1
 70
1
 40
0.0100
 41
0.0100
  0
VERTEX
  8
BOT
 10
3.3390
 20
0.4290
 30
 0.0
 42
1.0
  0
VERTEX
  8
BOT
 10
3.3490
 20
0.4290
 30
 0.0
 42
1.0
  0
SEQEND
  8
BOT
  0
POLYLINE
  8
BOT
 66
      1
 70
0
 40
0.0200
 41
0.0200
  0
VERTEX
  8
BOT
 10
3.3440
 20
0.4290
 30
 0.0
  0
VERTEX
  8
BOT
 10
3.3440
 20
0.8000
 30
 0.0
  0
SEQEND
  8
BOT
  0
POLYLINE
  8
BOT
 66
      1
 70
1
 40
0.0100
 41
0.0100
  0
VERTEX
  8
BOT
 10
3.3390
 20
0.4290
 30
 0.0
 42
1.0
  0
VERTEX
  8
BOT
 10
3.3490
 20
0.4290
 30
 0.0
 42
1.0
  0
SEQEND
  8
BOT
  0
POLYLINE
  8
BOT
 66
      1
 70
1
 40
0.0100
 41
0.0100
  0
VERTEX
  8
BOT
 10
3.3390
 20
0.8000
 30
 0.0
 42
1.0
  0
VERTEX
  8
BOT
 10
3.3490
 20
0.8000
 30
 0.0
 42
1.0
  0
SEQEND
  8
BOT
  0
POLYLINE
  8
BOT
 66
      1
 70
0
 40
0.0200
 41
0.0200
  0
VERTEX
  8
BOT
 10
3.5400
 20
1.0440
 30
 0.0
  0
VERTEX
  8
BOT
 10
3.4550
 20
1.1290
 30
 0.0
  0
SEQEND
  8
BOT
  0
POLYLINE
  8
BOT
 66
      1
 70
1
 40
0.0100
 41
0.0100
  0
VERTEX
  8
BOT
 10
3.5350
 20
1.0440
 30
 0.0
 42
1.0
  0
VERTEX
  8
BOT
 10
3.5450
 20
1.0440
 30
 0.0
 42
1.0
  0
SEQEND
  8
BOT
  0
POLYLINE
  8
BOT
 66
      1
 70
1
 40
0.0100
 41
0.0100
  0
VERTEX
  8
BOT
 10
3.4500
 20
1.1290
 30
 0.0
 42
1.0
  0
VERTEX
  8
BOT
 10
3.4600
 20
1.1290
 30
 0.0
 42
1.0
  0
SEQEND
  8
BOT
  0
POLYLINE
  8
BOT
 66
      1
 70
0
 40
0.0200
 41
0.0200
  0
VERTEX
  8
BOT
 10
3.4550
 20
1.1290
 30
 0.0
  0
VERTEX
  8
BOT
 10
3.4550
 20
1.3190
 30
 0.0
  0
SEQEND
  8
BOT
  0
POLYLINE
  8
BOT
 66
      1
 70
1
 40
0.0100
 41
0.0100
  0
VERTEX
  8
BOT
 10
3.4500
 20
1.1290
 30
 0.0
 42
1.0
  0
VERTEX
  8
BOT
 10
3.4600
 20
1.1290
 30
 0.0
 42
1.0
  0
SEQEND
  8
BOT
  0
POLYLINE
  8
BOT
 66
      1
 70
1
 40
0.0100
 41
0.0100
  0
VERTEX
  8
BOT
 10
3.4500
 20
1.3190
 30
 0.0
 42
1.0
  0
VERTEX
  8
BOT
 10
3.4600
 20
1.3190
 30
 0.0
 42
1.0
  0
SEQEND
  8
BOT
  0
POLYLINE
  8
BOT
 66
      1
 70
0
 40
0.0200
 41
0.0200
  0
VERTEX
  8
BOT
 10
3.5540
 20
0.9660
 30
 0.0
  0
VERTEX
  8
BOT
 10
3.4050
 20
1.1150
 30
 0.0
  0
SEQEND
  8
BOT
  0
POLYLINE
  8
BOT
 66
      1
 70
1
 40
0.0100
 41
0.0100
  0
VERTEX
  8
BOT
 10
3.5490
 20
0.9660
 30
 0.0
 42
1.0
  0
VERTEX
  8
BOT
 10
3.5590
 20
0.9660
 30
 0.0
 42
1.0
  0
SEQEND
  8
BOT
  0
POLYLINE
  8
BOT
 66
      1
 70
1
 40
0.0100
 41
0.0100
  0
VERTEX
  8
BOT
 10
3.4000
 20
1.1150
 30
 0.0
 42
1.0
  0
VERTEX
  8
BOT
 10
3.4100
 20
1.1150
 30
 0.0
 42
1.0
  0
SEQEND
  8
BOT
  0
POLYLINE
  8
BOT
 66
      1
 70
0
 40
0.0200
 41
0.0200
  0
VERTEX
  8
BOT
 10
3.4050
 20
1.1150
 30
 0.0
  0
VERTEX
  8
BOT
 10
3.4050
 20
1.3190
 30
 0.0
  0
SEQEND
  8
BOT
  0
POLYLINE
  8
BOT
 66
      1
 70
1
 40
0.0100
 41
0.0100
  0
VERTEX
  8
BOT
 10
3.4000
 20
1.1150
 30
 0.0
 42
1.0
  0
VERTEX
  8
BOT
 10
3.4100
 20
1.1150
 30
 0.0
 42
1.0
  0
SEQEND
  8
BOT
  0
POLYLINE
  8
BOT
 66
      1
 70
1
 40
0.0100
 41
0.0100
  0
VERTEX
  8
BOT
 10
3.4000
 20
1.3190
 30
 0.0
 42
1.0
  0
VERTEX
  8
BOT
 10
3.4100
 20
1.3190
 30
 0.0
 42
1.0
  0
SEQEND
  8
BOT
  0
POLYLINE
  8
BOT
 66
      1
 70
0
 40
0.0200
 41
0.0200
  0
VERTEX
  8
BOT
 10
2.2830
 20
1.1320
 30
 0.0
  0
VERTEX
  8
BOT
 10
2.3430
 20
1.1910
 30
 0.0
  0
SEQEND
  8
BOT
  0
POLYLINE
  8
BOT
 66
      1
 70
1
 40
0.0100
 41
0.0100
  0
VERTEX
  8
BOT
 10
2.2780
 20
1.1320
 30
 0.0
 42
1.0
  0
VERTEX
  8
BOT
 10
2.2880
 20
1.1320
 30
 0.0
 42
1.0
  0
SEQEND
  8
BOT
  0
POLYLINE
  8
BOT
 66
      1
 70
1
 40
0.0100
 41
0.0100
  0
VERTEX
  8
BOT
 10
2.3380
 20
1.1910
 30
 0.0
 42
1.0
  0
VERTEX
  8
BOT
 10
2.3480
 20
1.1910
 30
 0.0
 42
1.0
  0
SEQEND
  8
BOT
  0
POLYLINE
  8
BOT
 66
      1
 70
0
 40
0.0200
 41
0.0200
  0
VERTEX
  8
BOT
 10
2.3430
 20
1.1910
 30
 0.0
  0
VERTEX
  8
BOT
 10
2.8290
 20
1.1910
 30
 0.0
  0
SEQEND
  8
BOT
  0
POLYLINE
  8
BOT
 66
      1
 70
1
 40
0.0100
 41
0.0100
  0
VERTEX
  8
BOT
 10
2.3380
 20
1.1910
 30
 0.0
 42
1.0
  0
VERTEX
  8
BOT
 10
2.3480
 20
1.1910
 30
 0.0
 42
1.0
  0
SEQEND
  8
BOT
  0
POLYLINE
  8
BOT
 66
      1
 70
1
 40
0.0100
 41
0.0100
  0
VERTEX
  8
BOT
 10
2.8240
 20
1.1910
 30
 0.0
 42
1.0
  0
VERTEX
  8
BOT
 10
2.8340
 20
1.1910
 30
 0.0
 42
1.0
  0
SEQEND
  8
BOT
  0
POLYLINE
  8
BOT
 66
      1
 70
0
 40
0.0200
 41
0.0200
  0
VERTEX
  8
BOT
 10
2.8290
 20
1.1910
 30
 0.0
  0
VERTEX
  8
BOT
 10
3.0910
 20
1.4530
 30
 0.0
  0
SEQEND
  8
BOT
  0
POLYLINE
  8
BOT
 66
      1
 70
1
 40
0.0100
 41
0.0100
  0
VERTEX
  8
BOT
 10
2.8240
 20
1.1910
 30
 0.0
 42
1.0
  0
VERTEX
  8
BOT
 10
2.8340
 20
1.1910
 30
 0.0
 42
1.0
  0
SEQEND
  8
BOT
  0
POLYLINE
  8
BOT
 66
      1
 70
1
 40
0.0100
 41
0.0100
  0
VERTEX
  8
BOT
 10
3.0860
 20
1.4530
 30
 0.0
 42
1.0
  0
VERTEX
  8
BOT
 10
3.0960
 20
1.4530
 30
 0.0
 42
1.0
  0
SEQEND
  8
BOT
  0
POLYLINE
  8
BOT
 66
      1
 70
0
 40
0.0200
 41
0.0200
  0
VERTEX
  8
BOT
 10
3.0910
 20
1.4530
 30
 0.0
  0
VERTEX
  8
BOT
 10
3.4720
 20
1.4530
 30
 0.0
  0
SEQEND
  8
BOT
  0
POLYLINE
  8
BOT
 66
      1
 70
1
 40
0.0100
 41
0.0100
  0
VERTEX
  8
BOT
 10
3.0860
 20
1.4530
 30
 0.0
 42
1.0
  0
VERTEX
  8
BOT
 10
3.0960
 20
1.4530
 30
 0.0
 42
1.0
  0
SEQEND
  8
BOT
  0
POLYLINE
  8
BOT
 66
      1
 70
1
 40
0.0100
 41
0.0100
  0
VERTEX
  8
BOT
 10
3.4670
 20
1.4530
 30
 0.0
 42
1.0
  0
VERTEX
  8
BOT
 10
3.4770
 20
1.4530
 30
 0.0
 42
1.0
  0
SEQEND
  8
BOT
  0
POLYLINE
  8
BOT
 66
      1
 70
0
 40
0.0200
 41
0.0200
  0
VERTEX
  8
BOT
 10
3.4720
 20
1.4530
 30
 0.0
  0
VERTEX
  8
BOT
 10
3.5050
 20
1.4210
 30
 0.0
  0
SEQEND
  8
BOT
  0
POLYLINE
  8
BOT
 66
      1
 70
1
 40
0.0100
 41
0.0100
  0
VERTEX
  8
BOT
 10
3.4670
 20
1.4530
 30
 0.0
 42
1.0
  0
VERTEX
  8
BOT
 10
3.4770
 20
1.4530
 30
 0.0
 42
1.0
  0
SEQEND
  8
BOT
  0
POLYLINE
  8
BOT
 66
      1
 70
1
 40
0.0100
 41
0.0100
  0
VERTEX
  8
BOT
 10
3.5000
 20
1.4210
 30
 0.0
 42
1.0
  0
VERTEX
  8
BOT
 10
3.5100
 20
1.4210
 30
 0.0
 42
1.0
  0
SEQEND
  8
BOT
  0
POLYLINE
  8
BOT
 66
      1
 70
0
 40
0.0200
 41
0.0200
  0
VERTEX
  8
BOT
 10
3.5050
 20
1.4210
 30
 0.0
  0
VERTEX
  8
BOT
 10
3.5050
 20
1.3190
 30
 0.0
  0
SEQEND
  8
BOT
  0
POLYLINE
  8
BOT
 66
      1
 70
1
 40
0.0100
 41
0.0100
  0
VERTEX
  8
BOT
 10
3.5000
 20
1.4210
 30
 0.0
 42
1.0
  0
VERTEX
  8
BOT
 10
3.5100
 20
1.4210
 30
 0.0
 42
1.0
  0
SEQEND
  8
BOT
  0
POLYLINE
  8
BOT
 66
      1
 70
1
 40
0.0100
 41
0.0100
  0
VERTEX
  8
BOT
 10
3.5000
 20
1.3190
 30
 0.0
 42
1.0
  0
VERTEX
  8
BOT
 10
3.5100
 20
1.3190
 30
 0.0
 42
1.0
  0
SEQEND
  8
BOT
  0
POLYLINE
  8
BOT
 66
      1
 70
0
 40
0.0200
 41
0.0200
  0
VERTEX
  8
BOT
 10
3.4580
 20
0.9930
 30
 0.0
  0
VERTEX
  8
BOT
 10
3.3050
 20
1.1470
 30
 0.0
  0
SEQEND
  8
BOT
  0
POLYLINE
  8
BOT
 66
      1
 70
1
 40
0.0100
 41
0.0100
  0
VERTEX
  8
BOT
 10
3.4530
 20
0.9930
 30
 0.0
 42
1.0
  0
VERTEX
  8
BOT
 10
3.4630
 20
0.9930
 30
 0.0
 42
1.0
  0
SEQEND
  8
BOT
  0
POLYLINE
  8
BOT
 66
      1
 70
1
 40
0.0100
 41
0.0100
  0
VERTEX
  8
BOT
 10
3.3000
 20
1.1470
 30
 0.0
 42
1.0
  0
VERTEX
  8
BOT
 10
3.3100
 20
1.1470
 30
 0.0
 42
1.0
  0
SEQEND
  8
BOT
  0
POLYLINE
  8
BOT
 66
      1
 70
0
 40
0.0200
 41
0.0200
  0
VERTEX
  8
BOT
 10
3.3050
 20
1.1470
 30
 0.0
  0
VERTEX
  8
BOT
 10
3.3050
 20
1.3190
 30
 0.0
  0
SEQEND
  8
BOT
  0
POLYLINE
  8
BOT
 66
      1
 70
1
 40
0.0100
 41
0.0100
  0
VERTEX
  8
BOT
 10
3.3000
 20
1.1470
 30
 0.0
 42
1.0
  0
VERTEX
  8
BOT
 10
3.3100
 20
1.1470
 30
 0.0
 42
1.0
  0
SEQEND
  8
BOT
  0
POLYLINE
  8
BOT
 66
      1
 70
1
 40
0.0100
 41
0.0100
  0
VERTEX
  8
BOT
 10
3.3000
 20
1.3190
 30
 0.0
 42
1.0
  0
VERTEX
  8
BOT
 10
3.3100
 20
1.3190
 30
 0.0
 42
1.0
  0
SEQEND
  8
BOT
  0
POLYLINE
  8
BOT
 66
      1
 70
1
 40
0.0190
 41
0.0190
  0
VERTEX
  8
BOT
 10
1.7610
 20
1.1500
 30
 0.0
 42
1.0
  0
VERTEX
  8
BOT
 10
1.7790
 20
1.1500
 30
 0.0
 42
1.0
  0
SEQEND
  8
BOT
  0
POLYLINE
  8
DRL
 66
      1
 70
1
 40
0.0100
 41
0.0100
  0
VERTEX
  8
DRL
 10
1.7650
 20
1.1500
 30
 0.0
 42
1.0
  0
VERTEX
  8
DRL
 10
1.7750
 20
1.1500
 30
 0.0
 42
1.0
  0
SEQEND
  8
DRL
  0
POLYLINE
  8
BOT
 66
      1
 70
0
 40
0.0110
 41
0.0110
  0
VERTEX
  8
BOT
 10
2.2830
 20
1.1320
 30
 0.0
  0
VERTEX
  8
BOT
 10
2.2380
 20
1.1320
 30
 0.0
  0
SEQEND
  8
BOT
  0
POLYLINE
  8
BOT
 66
      1
 70
1
 40
0.0055
 41
0.0055
  0
VERTEX
  8
BOT
 10
2.2803
 20
1.1320
 30
 0.0
 42
1.0
  0
VERTEX
  8
BOT
 10
2.2857
 20
1.1320
 30
 0.0
 42
1.0
  0
SEQEND
  8
BOT
  0
POLYLINE
  8
BOT
 66
      1
 70
1
 40
0.0055
 41
0.0055
  0
VERTEX
  8
BOT
 10
2.2353
 20
1.1320
 30
 0.0
 42
1.0
  0
VERTEX
  8
BOT
 10
2.2407
 20
1.1320
 30
 0.0
 42
1.0
  0
SEQEND
  8
BOT
  0
POLYLINE
  8
BOT
 66
      1
 70
0
 40
0.0110
 41
0.0110
  0
VERTEX
  8
BOT
 10
2.2380
 20
1.1320
 30
 0.0
  0
VERTEX
  8
BOT
 10
2.1200
 20
1.2500
 30
 0.0
  0
SEQEND
  8
BOT
  0
POLYLINE
  8
BOT
 66
      1
 70
1
 40
0.0055
 41
0.0055
  0
VERTEX
  8
BOT
 10
2.2353
 20
1.1320
 30
 0.0
 42
1.0
  0
VERTEX
  8
BOT
 10
2.2407
 20
1.1320
 30
 0.0
 42
1.0
  0
SEQEND
  8
BOT
  0
POLYLINE
  8
BOT
 66
      1
 70
1
 40
0.0055
 41
0.0055
  0
VERTEX
  8
BOT
 10
2.1173
 20
1.2500
 30
 0.0
 42
1.0
  0
VERTEX
  8
BOT
 10
2.1227
 20
1.2500
 30
 0.0
 42
1.0
  0
SEQEND
  8
BOT
  0
POLYLINE
  8
BOT
 66
      1
 70
0
 40
0.0110
 41
0.0110
  0
VERTEX
  8
BOT
 10
2.1200
 20
1.2500
 30
 0.0
  0
VERTEX
  8
BOT
 10
1.8030
 20
1.2500
 30
 0.0
  0
SEQEND
  8
BOT
  0
POLYLINE
  8
BOT
 66
      1
 70
1
 40
0.0055
 41
0.0055
  0
VERTEX
  8
BOT
 10
2.1173
 20
1.2500
 30
 0.0
 42
1.0
  0
VERTEX
  8
BOT
 10
2.1227
 20
1.2500
 30
 0.0
 42
1.0
  0
SEQEND
  8
BOT
  0
POLYLINE
  8
BOT
 66
      1
 70
1
 40
0.0055
 41
0.0055
  0
VERTEX
  8
BOT
 10
1.8002
 20
1.2500
 30
 0.0
 42
1.0
  0
VERTEX
  8
BOT
 10
1.8058
 20
1.2500
 30
 0.0
 42
1.0
  0
SEQEND
  8
BOT
  0
POLYLINE
  8
BOT
 66
      1
 70
0
 40
0.0110
 41
0.0110
  0
VERTEX
  8
BOT
 10
1.8030
 20
1.2500
 30
 0.0
  0
VERTEX
  8
BOT
 10
1.7700
 20
1.2180
 30
 0.0
  0
SEQEND
  8
BOT
  0
POLYLINE
  8
BOT
 66
      1
 70
1
 40
0.0055
 41
0.0055
  0
VERTEX
  8
BOT
 10
1.8002
 20
1.2500
 30
 0.0
 42
1.0
  0
VERTEX
  8
BOT
 10
1.8058
 20
1.2500
 30
 0.0
 42
1.0
  0
SEQEND
  8
BOT
  0
POLYLINE
  8
BOT
 66
      1
 70
1
 40
0.0055
 41
0.0055
  0
VERTEX
  8
BOT
 10
1.7673
 20
1.2180
 30
 0.0
 42
1.0
  0
VERTEX
  8
BOT
 10
1.7728
 20
1.2180
 30
 0.0
 42
1.0
  0
SEQEND
  8
BOT
  0
POLYLINE
  8
BOT
 66
      1
 70
0
 40
0.0110
 41
0.0110
  0
VERTEX
  8
BOT
 10
1.7700
 20
1.2180
 30
 0.0
  0
VERTEX
  8
BOT
 10
1.7700
 20
1.1500
 30
 0.0
  0
SEQEND
  8
BOT
  0
POLYLINE
  8
BOT
 66
      1
 70
1
 40
0.0055
 41
0.0055
  0
VERTEX
  8
BOT
 10
1.7673
 20
1.2180
 30
 0.0
 42
1.0
  0
VERTEX
  8
BOT
 10
1.7728
 20
1.2180
 30
 0.0
 42
1.0
  0
SEQEND
  8
BOT
  0
POLYLINE
  8
BOT
 66
      1
 70
1
 40
0.0055
 41
0.0055
  0
VERTEX
  8
BOT
 10
1.7673
 20
1.1500
 30
 0.0
 42
1.0
  0
VERTEX
  8
BOT
 10
1.7728
 20
1.1500
 30
 0.0
 42
1.0
  0
SEQEND
  8
BOT
  0
POLYLINE
  8
BOT
 66
      1
 70
1
 40
0.0190
 41
0.0190
  0
VERTEX
  8
BOT
 10
0.8980
 20
1.7350
 30
 0.0
 42
1.0
  0
VERTEX
  8
BOT
 10
0.9160
 20
1.7350
 30
 0.0
 42
1.0
  0
SEQEND
  8
BOT
  0
POLYLINE
  8
DRL
 66
      1
 70
1
 40
0.0100
 41
0.0100
  0
VERTEX
  8
DRL
 10
0.9020
 20
1.7350
 30
 0.0
 42
1.0
  0
VERTEX
  8
DRL
 10
0.9120
 20
1.7350
 30
 0.0
 42
1.0
  0
SEQEND
  8
DRL
  0
POLYLINE
  8
BOT
 66
      1
 70
0
 40
0.0120
 41
0.0120
  0
VERTEX
  8
BOT
 10
0.9070
 20
1.7350
 30
 0.0
  0
VERTEX
  8
BOT
 10
0.9070
 20
1.8940
 30
 0.0
  0
SEQEND
  8
BOT
  0
POLYLINE
  8
BOT
 66
      1
 70
1
 40
0.0060
 41
0.0060
  0
VERTEX
  8
BOT
 10
0.9040
 20
1.7350
 30
 0.0
 42
1.0
  0
VERTEX
  8
BOT
 10
0.9100
 20
1.7350
 30
 0.0
 42
1.0
  0
SEQEND
  8
BOT
  0
POLYLINE
  8
BOT
 66
      1
 70
1
 40
0.0060
 41
0.0060
  0
VERTEX
  8
BOT
 10
0.9040
 20
1.8940
 30
 0.0
 42
1.0
  0
VERTEX
  8
BOT
 10
0.9100
 20
1.8940
 30
 0.0
 42
1.0
  0
SEQEND
  8
BOT
  0
POLYLINE
  8
BOT
 66
      1
 70
0
 40
0.0120
 41
0.0120
  0
VERTEX
  8
BOT
 10
0.9070
 20
1.8940
 30
 0.0
  0
VERTEX
  8
BOT
 10
0.9330
 20
1.9200
 30
 0.0
  0
SEQEND
  8
BOT
  0
POLYLINE
  8
BOT
 66
      1
 70
1
 40
0.0060
 41
0.0060
  0
VERTEX
  8
BOT
 10
0.9040
 20
1.8940
 30
 0.0
 42
1.0
  0
VERTEX
  8
BOT
 10
0.9100
 20
1.8940
 30
 0.0
 42
1.0
  0
SEQEND
  8
BOT
  0
POLYLINE
  8
BOT
 66
      1
 70
1
 40
0.0060
 41
0.0060
  0
VERTEX
  8
BOT
 10
0.9300
 20
1.9200
 30
 0.0
 42
1.0
  0
VERTEX
  8
BOT
 10
0.9360
 20
1.9200
 30
 0.0
 42
1.0
  0
SEQEND
  8
BOT
  0
POLYLINE
  8
BOT
 66
      1
 70
0
 40
0.0120
 41
0.0120
  0
VERTEX
  8
BOT
 10
0.9330
 20
1.9200
 30
 0.0
  0
VERTEX
  8
BOT
 10
1.5450
 20
1.9200
 30
 0.0
  0
SEQEND
  8
BOT
  0
POLYLINE
  8
BOT
 66
      1
 70
1
 40
0.0060
 41
0.0060
  0
VERTEX
  8
BOT
 10
0.9300
 20
1.9200
 30
 0.0
 42
1.0
  0
VERTEX
  8
BOT
 10
0.9360
 20
1.9200
 30
 0.0
 42
1.0
  0
SEQEND
  8
BOT
  0
POLYLINE
  8
BOT
 66
      1
 70
1
 40
0.0060
 41
0.0060
  0
VERTEX
  8
BOT
 10
1.5420
 20
1.9200
 30
 0.0
 42
1.0
  0
VERTEX
  8
BOT
 10
1.5480
 20
1.9200
 30
 0.0
 42
1.0
  0
SEQEND
  8
BOT
  0
POLYLINE
  8
BOT
 66
      1
 70
0
 40
0.0120
 41
0.0120
  0
VERTEX
  8
BOT
 10
1.5450
 20
1.9200
 30
 0.0
  0
VERTEX
  8
BOT
 10
1.7430
 20
2.1170
 30
 0.0
  0
SEQEND
  8
BOT
  0
POLYLINE
  8
BOT
 66
      1
 70
1
 40
0.0060
 41
0.0060
  0
VERTEX
  8
BOT
 10
1.5420
 20
1.9200
 30
 0.0
 42
1.0
  0
VERTEX
  8
BOT
 10
1.5480
 20
1.9200
 30
 0.0
 42
1.0
  0
SEQEND
  8
BOT
  0
POLYLINE
  8
BOT
 66
      1
 70
1
 40
0.0060
 41
0.0060
  0
VERTEX
  8
BOT
 10
1.7400
 20
2.1170
 30
 0.0
 42
1.0
  0
VERTEX
  8
BOT
 10
1.7460
 20
2.1170
 30
 0.0
 42
1.0
  0
SEQEND
  8
BOT
  0
POLYLINE
  8
BOT
 66
      1
 70
0
 40
0.0120
 41
0.0120
  0
VERTEX
  8
BOT
 10
1.7430
 20
2.1170
 30
 0.0
  0
VERTEX
  8
BOT
 10
1.9930
 20
2.1170
 30
 0.0
  0
SEQEND
  8
BOT
  0
POLYLINE
  8
BOT
 66
      1
 70
1
 40
0.0060
 41
0.0060
  0
VERTEX
  8
BOT
 10
1.7400
 20
2.1170
 30
 0.0
 42
1.0
  0
VERTEX
  8
BOT
 10
1.7460
 20
2.1170
 30
 0.0
 42
1.0
  0
SEQEND
  8
BOT
  0
POLYLINE
  8
BOT
 66
      1
 70
1
 40
0.0060
 41
0.0060
  0
VERTEX
  8
BOT
 10
1.9900
 20
2.1170
 30
 0.0
 42
1.0
  0
VERTEX
  8
BOT
 10
1.9960
 20
2.1170
 30
 0.0
 42
1.0
  0
SEQEND
  8
BOT
  0
POLYLINE
  8
BOT
 66
      1
 70
0
 40
0.0790
 41
0.0790
  0
VERTEX
  8
BOT
 10
0.8430
 20
2.5180
 30
 0.0
  0
VERTEX
  8
BOT
 10
0.8430
 20
2.3090
 30
 0.0
  0
SEQEND
  8
BOT
  0
POLYLINE
  8
BOT
 66
      1
 70
1
 40
0.0395
 41
0.0395
  0
VERTEX
  8
BOT
 10
0.8232
 20
2.5180
 30
 0.0
 42
1.0
  0
VERTEX
  8
BOT
 10
0.8628
 20
2.5180
 30
 0.0
 42
1.0
  0
SEQEND
  8
BOT
  0
POLYLINE
  8
BOT
 66
      1
 70
1
 40
0.0395
 41
0.0395
  0
VERTEX
  8
BOT
 10
0.8232
 20
2.3090
 30
 0.0
 42
1.0
  0
VERTEX
  8
BOT
 10
0.8628
 20
2.3090
 30
 0.0
 42
1.0
  0
SEQEND
  8
BOT
  0
POLYLINE
  8
BOT
 66
      1
 70
0
 40
0.0790
 41
0.0790
  0
VERTEX
  8
BOT
 10
0.8430
 20
2.3090
 30
 0.0
  0
VERTEX
  8
BOT
 10
0.7950
 20
2.2620
 30
 0.0
  0
SEQEND
  8
BOT
  0
POLYLINE
  8
BOT
 66
      1
 70
1
 40
0.0395
 41
0.0395
  0
VERTEX
  8
BOT
 10
0.8232
 20
2.3090
 30
 0.0
 42
1.0
  0
VERTEX
  8
BOT
 10
0.8628
 20
2.3090
 30
 0.0
 42
1.0
  0
SEQEND
  8
BOT
  0
POLYLINE
  8
BOT
 66
      1
 70
1
 40
0.0395
 41
0.0395
  0
VERTEX
  8
BOT
 10
0.7752
 20
2.2620
 30
 0.0
 42
1.0
  0
VERTEX
  8
BOT
 10
0.8148
 20
2.2620
 30
 0.0
 42
1.0
  0
SEQEND
  8
BOT
  0
POLYLINE
  8
BOT
 66
      1
 70
0
 40
0.0790
 41
0.0790
  0
VERTEX
  8
BOT
 10
0.7950
 20
2.2620
 30
 0.0
  0
VERTEX
  8
BOT
 10
0.4070
 20
2.2620
 30
 0.0
  0
SEQEND
  8
BOT
  0
POLYLINE
  8
BOT
 66
      1
 70
1
 40
0.0395
 41
0.0395
  0
VERTEX
  8
BOT
 10
0.7752
 20
2.2620
 30
 0.0
 42
1.0
  0
VERTEX
  8
BOT
 10
0.8148
 20
2.2620
 30
 0.0
 42
1.0
  0
SEQEND
  8
BOT
  0
POLYLINE
  8
BOT
 66
      1
 70
1
 40
0.0395
 41
0.0395
  0
VERTEX
  8
BOT
 10
0.3872
 20
2.2620
 30
 0.0
 42
1.0
  0
VERTEX
  8
BOT
 10
0.4267
 20
2.2620
 30
 0.0
 42
1.0
  0
SEQEND
  8
BOT
  0
POLYLINE
  8
BOT
 66
      1
 70
0
 40
0.0470
 41
0.0470
  0
VERTEX
  8
BOT
 10
1.5690
 20
2.5910
 30
 0.0
  0
VERTEX
  8
BOT
 10
1.6180
 20
2.5420
 30
 0.0
  0
SEQEND
  8
BOT
  0
POLYLINE
  8
BOT
 66
      1
 70
1
 40
0.0235
 41
0.0235
  0
VERTEX
  8
BOT
 10
1.5573
 20
2.5910
 30
 0.0
 42
1.0
  0
VERTEX
  8
BOT
 10
1.5807
 20
2.5910
 30
 0.0
 42
1.0
  0
SEQEND
  8
BOT
  0
POLYLINE
  8
BOT
 66
      1
 70
1
 40
0.0235
 41
0.0235
  0
VERTEX
  8
BOT
 10
1.6063
 20
2.5420
 30
 0.0
 42
1.0
  0
VERTEX
  8
BOT
 10
1.6298
 20
2.5420
 30
 0.0
 42
1.0
  0
SEQEND
  8
BOT
  0
POLYLINE
  8
BOT
 66
      1
 70
0
 40
0.0470
 41
0.0470
  0
VERTEX
  8
BOT
 10
1.6180
 20
2.5420
 30
 0.0
  0
VERTEX
  8
BOT
 10
1.6180
 20
2.3000
 30
 0.0
  0
SEQEND
  8
BOT
  0
POLYLINE
  8
BOT
 66
      1
 70
1
 40
0.0235
 41
0.0235
  0
VERTEX
  8
BOT
 10
1.6063
 20
2.5420
 30
 0.0
 42
1.0
  0
VERTEX
  8
BOT
 10
1.6298
 20
2.5420
 30
 0.0
 42
1.0
  0
SEQEND
  8
BOT
  0
POLYLINE
  8
BOT
 66
      1
 70
1
 40
0.0235
 41
0.0235
  0
VERTEX
  8
BOT
 10
1.6063
 20
2.3000
 30
 0.0
 42
1.0
  0
VERTEX
  8
BOT
 10
1.6298
 20
2.3000
 30
 0.0
 42
1.0
  0
SEQEND
  8
BOT
  0
POLYLINE
  8
BOT
 66
      1
 70
0
 40
0.0470
 41
0.0470
  0
VERTEX
  8
BOT
 10
1.6180
 20
2.3000
 30
 0.0
  0
VERTEX
  8
BOT
 10
1.5670
 20
2.2480
 30
 0.0
  0
SEQEND
  8
BOT
  0
POLYLINE
  8
BOT
 66
      1
 70
1
 40
0.0235
 41
0.0235
  0
VERTEX
  8
BOT
 10
1.6063
 20
2.3000
 30
 0.0
 42
1.0
  0
VERTEX
  8
BOT
 10
1.6298
 20
2.3000
 30
 0.0
 42
1.0
  0
SEQEND
  8
BOT
  0
POLYLINE
  8
BOT
 66
      1
 70
1
 40
0.0235
 41
0.0235
  0
VERTEX
  8
BOT
 10
1.5553
 20
2.2480
 30
 0.0
 42
1.0
  0
VERTEX
  8
BOT
 10
1.5787
 20
2.2480
 30
 0.0
 42
1.0
  0
SEQEND
  8
BOT
  0
POLYLINE
  8
BOT
 66
      1
 70
0
 40
0.0470
 41
0.0470
  0
VERTEX
  8
BOT
 10
1.5670
 20
2.2480
 30
 0.0
  0
VERTEX
  8
BOT
 10
0.8980
 20
2.2480
 30
 0.0
  0
SEQEND
  8
BOT
  0
POLYLINE
  8
BOT
 66
      1
 70
1
 40
0.0235
 41
0.0235
  0
VERTEX
  8
BOT
 10
1.5553
 20
2.2480
 30
 0.0
 42
1.0
  0
VERTEX
  8
BOT
 10
1.5787
 20
2.2480
 30
 0.0
 42
1.0
  0
SEQEND
  8
BOT
  0
POLYLINE
  8
BOT
 66
      1
 70
1
 40
0.0235
 41
0.0235
  0
VERTEX
  8
BOT
 10
0.8862
 20
2.2480
 30
 0.0
 42
1.0
  0
VERTEX
  8
BOT
 10
0.9098
 20
2.2480
 30
 0.0
 42
1.0
  0
SEQEND
  8
BOT
  0
POLYLINE
  8
BOT
 66
      1
 70
0
 40
0.0470
 41
0.0470
  0
VERTEX
  8
BOT
 10
0.8980
 20
2.2480
 30
 0.0
  0
VERTEX
  8
BOT
 10
0.8430
 20
2.3040
 30
 0.0
  0
SEQEND
  8
BOT
  0
POLYLINE
  8
BOT
 66
      1
 70
1
 40
0.0235
 41
0.0235
  0
VERTEX
  8
BOT
 10
0.8862
 20
2.2480
 30
 0.0
 42
1.0
  0
VERTEX
  8
BOT
 10
0.9098
 20
2.2480
 30
 0.0
 42
1.0
  0
SEQEND
  8
BOT
  0
POLYLINE
  8
BOT
 66
      1
 70
1
 40
0.0235
 41
0.0235
  0
VERTEX
  8
BOT
 10
0.8312
 20
2.3040
 30
 0.0
 42
1.0
  0
VERTEX
  8
BOT
 10
0.8548
 20
2.3040
 30
 0.0
 42
1.0
  0
SEQEND
  8
BOT
  0
POLYLINE
  8
BOT
 66
      1
 70
0
 40
0.0470
 41
0.0470
  0
VERTEX
  8
BOT
 10
0.8430
 20
2.3040
 30
 0.0
  0
VERTEX
  8
BOT
 10
0.8430
 20
2.3090
 30
 0.0
  0
SEQEND
  8
BOT
  0
POLYLINE
  8
BOT
 66
      1
 70
1
 40
0.0235
 41
0.0235
  0
VERTEX
  8
BOT
 10
0.8312
 20
2.3040
 30
 0.0
 42
1.0
  0
VERTEX
  8
BOT
 10
0.8548
 20
2.3040
 30
 0.0
 42
1.0
  0
SEQEND
  8
BOT
  0
POLYLINE
  8
BOT
 66
      1
 70
1
 40
0.0235
 41
0.0235
  0
VERTEX
  8
BOT
 10
0.8312
 20
2.3090
 30
 0.0
 42
1.0
  0
VERTEX
  8
BOT
 10
0.8548
 20
2.3090
 30
 0.0
 42
1.0
  0
SEQEND
  8
BOT
  0
POLYLINE
  8
BOT
 66
      1
 70
0
 40
0.0790
 41
0.0790
  0
VERTEX
  8
BOT
 10
0.8430
 20
2.3090
 30
 0.0
  0
VERTEX
  8
BOT
 10
0.8430
 20
2.5180
 30
 0.0
  0
SEQEND
  8
BOT
  0
POLYLINE
  8
BOT
 66
      1
 70
1
 40
0.0395
 41
0.0395
  0
VERTEX
  8
BOT
 10
0.8232
 20
2.3090
 30
 0.0
 42
1.0
  0
VERTEX
  8
BOT
 10
0.8628
 20
2.3090
 30
 0.0
 42
1.0
  0
SEQEND
  8
BOT
  0
POLYLINE
  8
BOT
 66
      1
 70
1
 40
0.0395
 41
0.0395
  0
VERTEX
  8
BOT
 10
0.8232
 20
2.5180
 30
 0.0
 42
1.0
  0
VERTEX
  8
BOT
 10
0.8628
 20
2.5180
 30
 0.0
 42
1.0
  0
SEQEND
  8
BOT
  0
POLYLINE
  8
BOT
 66
      1
 70
0
 40
0.0390
 41
0.0390
  0
VERTEX
  8
BOT
 10
2.8370
 20
2.2720
 30
 0.0
  0
VERTEX
  8
BOT
 10
2.8370
 20
2.6380
 30
 0.0
  0
SEQEND
  8
BOT
  0
POLYLINE
  8
BOT
 66
      1
 70
1
 40
0.0195
 41
0.0195
  0
VERTEX
  8
BOT
 10
2.8273
 20
2.2720
 30
 0.0
 42
1.0
  0
VERTEX
  8
BOT
 10
2.8468
 20
2.2720
 30
 0.0
 42
1.0
  0
SEQEND
  8
BOT
  0
POLYLINE
  8
BOT
 66
      1
 70
1
 40
0.0195
 41
0.0195
  0
VERTEX
  8
BOT
 10
2.8273
 20
2.6380
 30
 0.0
 42
1.0
  0
VERTEX
  8
BOT
 10
2.8468
 20
2.6380
 30
 0.0
 42
1.0
  0
SEQEND
  8
BOT
  0
POLYLINE
  8
BOT
 66
      1
 70
0
 40
0.0390
 41
0.0390
  0
VERTEX
  8
BOT
 10
2.8370
 20
2.6380
 30
 0.0
  0
VERTEX
  8
BOT
 10
3.1540
 20
2.6380
 30
 0.0
  0
SEQEND
  8
BOT
  0
POLYLINE
  8
BOT
 66
      1
 70
1
 40
0.0195
 41
0.0195
  0
VERTEX
  8
BOT
 10
2.8273
 20
2.6380
 30
 0.0
 42
1.0
  0
VERTEX
  8
BOT
 10
2.8468
 20
2.6380
 30
 0.0
 42
1.0
  0
SEQEND
  8
BOT
  0
POLYLINE
  8
BOT
 66
      1
 70
1
 40
0.0195
 41
0.0195
  0
VERTEX
  8
BOT
 10
3.1443
 20
2.6380
 30
 0.0
 42
1.0
  0
VERTEX
  8
BOT
 10
3.1637
 20
2.6380
 30
 0.0
 42
1.0
  0
SEQEND
  8
BOT
  0
POLYLINE
  8
BOT
 66
      1
 70
0
 40
0.0390
 41
0.0390
  0
VERTEX
  8
BOT
 10
2.8370
 20
2.2720
 30
 0.0
  0
VERTEX
  8
BOT
 10
2.8370
 20
2.6380
 30
 0.0
  0
SEQEND
  8
BOT
  0
POLYLINE
  8
BOT
 66
      1
 70
1
 40
0.0195
 41
0.0195
  0
VERTEX
  8
BOT
 10
2.8273
 20
2.2720
 30
 0.0
 42
1.0
  0
VERTEX
  8
BOT
 10
2.8468
 20
2.2720
 30
 0.0
 42
1.0
  0
SEQEND
  8
BOT
  0
POLYLINE
  8
BOT
 66
      1
 70
1
 40
0.0195
 41
0.0195
  0
VERTEX
  8
BOT
 10
2.8273
 20
2.6380
 30
 0.0
 42
1.0
  0
VERTEX
  8
BOT
 10
2.8468
 20
2.6380
 30
 0.0
 42
1.0
  0
SEQEND
  8
BOT
  0
POLYLINE
  8
BOT
 66
      1
 70
0
 40
0.0390
 41
0.0390
  0
VERTEX
  8
BOT
 10
2.8370
 20
2.6380
 30
 0.0
  0
VERTEX
  8
BOT
 10
2.0690
 20
2.6380
 30
 0.0
  0
SEQEND
  8
BOT
  0
POLYLINE
  8
BOT
 66
      1
 70
1
 40
0.0195
 41
0.0195
  0
VERTEX
  8
BOT
 10
2.8273
 20
2.6380
 30
 0.0
 42
1.0
  0
VERTEX
  8
BOT
 10
2.8468
 20
2.6380
 30
 0.0
 42
1.0
  0
SEQEND
  8
BOT
  0
POLYLINE
  8
BOT
 66
      1
 70
1
 40
0.0195
 41
0.0195
  0
VERTEX
  8
BOT
 10
2.0593
 20
2.6380
 30
 0.0
 42
1.0
  0
VERTEX
  8
BOT
 10
2.0787
 20
2.6380
 30
 0.0
 42
1.0
  0
SEQEND
  8
BOT
  0
POLYLINE
  8
BOT
 66
      1
 70
0
 40
0.0310
 41
0.0310
  0
VERTEX
  8
BOT
 10
3.5810
 20
1.1740
 30
 0.0
  0
VERTEX
  8
BOT
 10
3.5550
 20
1.2000
 30
 0.0
  0
SEQEND
  8
BOT
  0
POLYLINE
  8
BOT
 66
      1
 70
1
 40
0.0155
 41
0.0155
  0
VERTEX
  8
BOT
 10
3.5732
 20
1.1740
 30
 0.0
 42
1.0
  0
VERTEX
  8
BOT
 10
3.5888
 20
1.1740
 30
 0.0
 42
1.0
  0
SEQEND
  8
BOT
  0
POLYLINE
  8
BOT
 66
      1
 70
1
 40
0.0155
 41
0.0155
  0
VERTEX
  8
BOT
 10
3.5473
 20
1.2000
 30
 0.0
 42
1.0
  0
VERTEX
  8
BOT
 10
3.5628
 20
1.2000
 30
 0.0
 42
1.0
  0
SEQEND
  8
BOT
  0
POLYLINE
  8
BOT
 66
      1
 70
0
 40
0.0310
 41
0.0310
  0
VERTEX
  8
BOT
 10
3.5550
 20
1.2000
 30
 0.0
  0
VERTEX
  8
BOT
 10
3.5550
 20
1.3190
 30
 0.0
  0
SEQEND
  8
BOT
  0
POLYLINE
  8
BOT
 66
      1
 70
1
 40
0.0155
 41
0.0155
  0
VERTEX
  8
BOT
 10
3.5473
 20
1.2000
 30
 0.0
 42
1.0
  0
VERTEX
  8
BOT
 10
3.5628
 20
1.2000
 30
 0.0
 42
1.0
  0
SEQEND
  8
BOT
  0
POLYLINE
  8
BOT
 66
      1
 70
1
 40
0.0155
 41
0.0155
  0
VERTEX
  8
BOT
 10
3.5473
 20
1.3190
 30
 0.0
 42
1.0
  0
VERTEX
  8
BOT
 10
3.5628
 20
1.3190
 30
 0.0
 42
1.0
  0
SEQEND
  8
BOT
  0
POLYLINE
  8
BOT
 66
      1
 70
0
 40
0.0310
 41
0.0310
  0
VERTEX
  8
BOT
 10
3.2550
 20
1.2000
 30
 0.0
  0
VERTEX
  8
BOT
 10
3.2550
 20
1.3190
 30
 0.0
  0
SEQEND
  8
BOT
  0
POLYLINE
  8
BOT
 66
      1
 70
1
 40
0.0155
 41
0.0155
  0
VERTEX
  8
BOT
 10
3.2472
 20
1.2000
 30
 0.0
 42
1.0
  0
VERTEX
  8
BOT
 10
3.2628
 20
1.2000
 30
 0.0
 42
1.0
  0
SEQEND
  8
BOT
  0
POLYLINE
  8
BOT
 66
      1
 70
1
 40
0.0155
 41
0.0155
  0
VERTEX
  8
BOT
 10
3.2472
 20
1.3190
 30
 0.0
 42
1.0
  0
VERTEX
  8
BOT
 10
3.2628
 20
1.3190
 30
 0.0
 42
1.0
  0
SEQEND
  8
BOT
  0
POLYLINE
  8
BOT
 66
      1
 70
1
 40
0.0190
 41
0.0190
  0
VERTEX
  8
BOT
 10
0.9400
 20
1.3850
 30
 0.0
 42
1.0
  0
VERTEX
  8
BOT
 10
0.9580
 20
1.3850
 30
 0.0
 42
1.0
  0
SEQEND
  8
BOT
  0
POLYLINE
  8
DRL
 66
      1
 70
1
 40
0.0100
 41
0.0100
  0
VERTEX
  8
DRL
 10
0.9440
 20
1.3850
 30
 0.0
 42
1.0
  0
VERTEX
  8
DRL
 10
0.9540
 20
1.3850
 30
 0.0
 42
1.0
  0
SEQEND
  8
DRL
  0
POLYLINE
  8
BOT
 66
      1
 70
0
 40
0.0200
 41
0.0200
  0
VERTEX
  8
BOT
 10
0.1730
 20
1.5000
 30
 0.0
  0
VERTEX
  8
BOT
 10
0.1440
 20
1.4710
 30
 0.0
  0
SEQEND
  8
BOT
  0
POLYLINE
  8
BOT
 66
      1
 70
1
 40
0.0100
 41
0.0100
  0
VERTEX
  8
BOT
 10
0.1680
 20
1.5000
 30
 0.0
 42
1.0
  0
VERTEX
  8
BOT
 10
0.1780
 20
1.5000
 30
 0.0
 42
1.0
  0
SEQEND
  8
BOT
  0
POLYLINE
  8
BOT
 66
      1
 70
1
 40
0.0100
 41
0.0100
  0
VERTEX
  8
BOT
 10
0.1390
 20
1.4710
 30
 0.0
 42
1.0
  0
VERTEX
  8
BOT
 10
0.1490
 20
1.4710
 30
 0.0
 42
1.0
  0
SEQEND
  8
BOT
  0
POLYLINE
  8
BOT
 66
      1
 70
0
 40
0.0200
 41
0.0200
  0
VERTEX
  8
BOT
 10
0.1440
 20
1.4710
 30
 0.0
  0
VERTEX
  8
BOT
 10
0.1440
 20
1.3980
 30
 0.0
  0
SEQEND
  8
BOT
  0
POLYLINE
  8
BOT
 66
      1
 70
1
 40
0.0100
 41
0.0100
  0
VERTEX
  8
BOT
 10
0.1390
 20
1.4710
 30
 0.0
 42
1.0
  0
VERTEX
  8
BOT
 10
0.1490
 20
1.4710
 30
 0.0
 42
1.0
  0
SEQEND
  8
BOT
  0
POLYLINE
  8
BOT
 66
      1
 70
1
 40
0.0100
 41
0.0100
  0
VERTEX
  8
BOT
 10
0.1390
 20
1.3980
 30
 0.0
 42
1.0
  0
VERTEX
  8
BOT
 10
0.1490
 20
1.3980
 30
 0.0
 42
1.0
  0
SEQEND
  8
BOT
  0
POLYLINE
  8
BOT
 66
      1
 70
0
 40
0.0200
 41
0.0200
  0
VERTEX
  8
BOT
 10
0.1440
 20
1.3980
 30
 0.0
  0
VERTEX
  8
BOT
 10
0.2090
 20
1.3330
 30
 0.0
  0
SEQEND
  8
BOT
  0
POLYLINE
  8
BOT
 66
      1
 70
1
 40
0.0100
 41
0.0100
  0
VERTEX
  8
BOT
 10
0.1390
 20
1.3980
 30
 0.0
 42
1.0
  0
VERTEX
  8
BOT
 10
0.1490
 20
1.3980
 30
 0.0
 42
1.0
  0
SEQEND
  8
BOT
  0
POLYLINE
  8
BOT
 66
      1
 70
1
 40
0.0100
 41
0.0100
  0
VERTEX
  8
BOT
 10
0.2040
 20
1.3330
 30
 0.0
 42
1.0
  0
VERTEX
  8
BOT
 10
0.2140
 20
1.3330
 30
 0.0
 42
1.0
  0
SEQEND
  8
BOT
  0
POLYLINE
  8
BOT
 66
      1
 70
0
 40
0.0200
 41
0.0200
  0
VERTEX
  8
BOT
 10
0.2090
 20
1.3330
 30
 0.0
  0
VERTEX
  8
BOT
 10
0.8090
 20
1.3330
 30
 0.0
  0
SEQEND
  8
BOT
  0
POLYLINE
  8
BOT
 66
      1
 70
1
 40
0.0100
 41
0.0100
  0
VERTEX
  8
BOT
 10
0.2040
 20
1.3330
 30
 0.0
 42
1.0
  0
VERTEX
  8
BOT
 10
0.2140
 20
1.3330
 30
 0.0
 42
1.0
  0
SEQEND
  8
BOT
  0
POLYLINE
  8
BOT
 66
      1
 70
1
 40
0.0100
 41
0.0100
  0
VERTEX
  8
BOT
 10
0.8040
 20
1.3330
 30
 0.0
 42
1.0
  0
VERTEX
  8
BOT
 10
0.8140
 20
1.3330
 30
 0.0
 42
1.0
  0
SEQEND
  8
BOT
  0
POLYLINE
  8
BOT
 66
      1
 70
0
 40
0.0200
 41
0.0200
  0
VERTEX
  8
BOT
 10
0.8090
 20
1.3330
 30
 0.0
  0
VERTEX
  8
BOT
 10
0.8620
 20
1.3850
 30
 0.0
  0
SEQEND
  8
BOT
  0
POLYLINE
  8
BOT
 66
      1
 70
1
 40
0.0100
 41
0.0100
  0
VERTEX
  8
BOT
 10
0.8040
 20
1.3330
 30
 0.0
 42
1.0
  0
VERTEX
  8
BOT
 10
0.8140
 20
1.3330
 30
 0.0
 42
1.0
  0
SEQEND
  8
BOT
  0
POLYLINE
  8
BOT
 66
      1
 70
1
 40
0.0100
 41
0.0100
  0
VERTEX
  8
BOT
 10
0.8570
 20
1.3850
 30
 0.0
 42
1.0
  0
VERTEX
  8
BOT
 10
0.8670
 20
1.3850
 30
 0.0
 42
1.0
  0
SEQEND
  8
BOT
  0
POLYLINE
  8
BOT
 66
      1
 70
0
 40
0.0200
 41
0.0200
  0
VERTEX
  8
BOT
 10
0.8620
 20
1.3850
 30
 0.0
  0
VERTEX
  8
BOT
 10
0.9490
 20
1.3850
 30
 0.0
  0
SEQEND
  8
BOT
  0
POLYLINE
  8
BOT
 66
      1
 70
1
 40
0.0100
 41
0.0100
  0
VERTEX
  8
BOT
 10
0.8570
 20
1.3850
 30
 0.0
 42
1.0
  0
VERTEX
  8
BOT
 10
0.8670
 20
1.3850
 30
 0.0
 42
1.0
  0
SEQEND
  8
BOT
  0
POLYLINE
  8
BOT
 66
      1
 70
1
 40
0.0100
 41
0.0100
  0
VERTEX
  8
BOT
 10
0.9440
 20
1.3850
 30
 0.0
 42
1.0
  0
VERTEX
  8
BOT
 10
0.9540
 20
1.3850
 30
 0.0
 42
1.0
  0
SEQEND
  8
BOT
  0
POLYLINE
  8
BOT
 66
      1
 70
0
 40
0.0200
 41
0.0200
  0
VERTEX
  8
BOT
 10
1.7110
 20
0.6340
 30
 0.0
  0
VERTEX
  8
BOT
 10
2.2880
 20
0.6340
 30
 0.0
  0
SEQEND
  8
BOT
  0
POLYLINE
  8
BOT
 66
      1
 70
1
 40
0.0100
 41
0.0100
  0
VERTEX
  8
BOT
 10
1.7060
 20
0.6340
 30
 0.0
 42
1.0
  0
VERTEX
  8
BOT
 10
1.7160
 20
0.6340
 30
 0.0
 42
1.0
  0
SEQEND
  8
BOT
  0
POLYLINE
  8
BOT
 66
      1
 70
1
 40
0.0100
 41
0.0100
  0
VERTEX
  8
BOT
 10
2.2830
 20
0.6340
 30
 0.0
 42
1.0
  0
VERTEX
  8
BOT
 10
2.2930
 20
0.6340
 30
 0.0
 42
1.0
  0
SEQEND
  8
BOT
  0
POLYLINE
  8
BOT
 66
      1
 70
0
 40
0.0200
 41
0.0200
  0
VERTEX
  8
BOT
 10
2.2880
 20
0.6340
 30
 0.0
  0
VERTEX
  8
BOT
 10
2.3270
 20
0.6740
 30
 0.0
  0
SEQEND
  8
BOT
  0
POLYLINE
  8
BOT
 66
      1
 70
1
 40
0.0100
 41
0.0100
  0
VERTEX
  8
BOT
 10
2.2830
 20
0.6340
 30
 0.0
 42
1.0
  0
VERTEX
  8
BOT
 10
2.2930
 20
0.6340
 30
 0.0
 42
1.0
  0
SEQEND
  8
BOT
  0
POLYLINE
  8
BOT
 66
      1
 70
1
 40
0.0100
 41
0.0100
  0
VERTEX
  8
BOT
 10
2.3220
 20
0.6740
 30
 0.0
 42
1.0
  0
VERTEX
  8
BOT
 10
2.3320
 20
0.6740
 30
 0.0
 42
1.0
  0
SEQEND
  8
BOT
  0
POLYLINE
  8
BOT
 66
      1
 70
0
 40
0.0200
 41
0.0200
  0
VERTEX
  8
BOT
 10
2.3270
 20
0.6740
 30
 0.0
  0
VERTEX
  8
BOT
 10
2.3270
 20
0.9550
 30
 0.0
  0
SEQEND
  8
BOT
  0
POLYLINE
  8
BOT
 66
      1
 70
1
 40
0.0100
 41
0.0100
  0
VERTEX
  8
BOT
 10
2.3220
 20
0.6740
 30
 0.0
 42
1.0
  0
VERTEX
  8
BOT
 10
2.3320
 20
0.6740
 30
 0.0
 42
1.0
  0
SEQEND
  8
BOT
  0
POLYLINE
  8
BOT
 66
      1
 70
1
 40
0.0100
 41
0.0100
  0
VERTEX
  8
BOT
 10
2.3220
 20
0.9550
 30
 0.0
 42
1.0
  0
VERTEX
  8
BOT
 10
2.3320
 20
0.9550
 30
 0.0
 42
1.0
  0
SEQEND
  8
BOT
  0
POLYLINE
  8
BOT
 66
      1
 70
0
 40
0.0200
 41
0.0200
  0
VERTEX
  8
BOT
 10
2.3270
 20
0.9550
 30
 0.0
  0
VERTEX
  8
BOT
 10
2.3880
 20
1.0160
 30
 0.0
  0
SEQEND
  8
BOT
  0
POLYLINE
  8
BOT
 66
      1
 70
1
 40
0.0100
 41
0.0100
  0
VERTEX
  8
BOT
 10
2.3220
 20
0.9550
 30
 0.0
 42
1.0
  0
VERTEX
  8
BOT
 10
2.3320
 20
0.9550
 30
 0.0
 42
1.0
  0
SEQEND
  8
BOT
  0
POLYLINE
  8
BOT
 66
      1
 70
1
 40
0.0100
 41
0.0100
  0
VERTEX
  8
BOT
 10
2.3830
 20
1.0160
 30
 0.0
 42
1.0
  0
VERTEX
  8
BOT
 10
2.3930
 20
1.0160
 30
 0.0
 42
1.0
  0
SEQEND
  8
BOT
  0
POLYLINE
  8
BOT
 66
      1
 70
0
 40
0.0200
 41
0.0200
  0
VERTEX
  8
BOT
 10
2.3880
 20
1.0160
 30
 0.0
  0
VERTEX
  8
BOT
 10
2.3880
 20
1.1190
 30
 0.0
  0
SEQEND
  8
BOT
  0
POLYLINE
  8
BOT
 66
      1
 70
1
 40
0.0100
 41
0.0100
  0
VERTEX
  8
BOT
 10
2.3830
 20
1.0160
 30
 0.0
 42
1.0
  0
VERTEX
  8
BOT
 10
2.3930
 20
1.0160
 30
 0.0
 42
1.0
  0
SEQEND
  8
BOT
  0
POLYLINE
  8
BOT
 66
      1
 70
1
 40
0.0100
 41
0.0100
  0
VERTEX
  8
BOT
 10
2.3830
 20
1.1190
 30
 0.0
 42
1.0
  0
VERTEX
  8
BOT
 10
2.3930
 20
1.1190
 30
 0.0
 42
1.0
  0
SEQEND
  8
BOT
  0
POLYLINE
  8
BOT
 66
      1
 70
0
 40
0.0200
 41
0.0200
  0
VERTEX
  8
BOT
 10
1.4110
 20
0.8820
 30
 0.0
  0
VERTEX
  8
BOT
 10
1.4110
 20
1.0770
 30
 0.0
  0
SEQEND
  8
BOT
  0
POLYLINE
  8
BOT
 66
      1
 70
1
 40
0.0100
 41
0.0100
  0
VERTEX
  8
BOT
 10
1.4060
 20
0.8820
 30
 0.0
 42
1.0
  0
VERTEX
  8
BOT
 10
1.4160
 20
0.8820
 30
 0.0
 42
1.0
  0
SEQEND
  8
BOT
  0
POLYLINE
  8
BOT
 66
      1
 70
1
 40
0.0100
 41
0.0100
  0
VERTEX
  8
BOT
 10
1.4060
 20
1.0770
 30
 0.0
 42
1.0
  0
VERTEX
  8
BOT
 10
1.4160
 20
1.0770
 30
 0.0
 42
1.0
  0
SEQEND
  8
BOT
  0
POLYLINE
  8
BOT
 66
      1
 70
0
 40
0.0200
 41
0.0200
  0
VERTEX
  8
BOT
 10
1.4110
 20
1.0770
 30
 0.0
  0
VERTEX
  8
BOT
 10
1.4330
 20
1.0990
 30
 0.0
  0
SEQEND
  8
BOT
  0
POLYLINE
  8
BOT
 66
      1
 70
1
 40
0.0100
 41
0.0100
  0
VERTEX
  8
BOT
 10
1.4060
 20
1.0770
 30
 0.0
 42
1.0
  0
VERTEX
  8
BOT
 10
1.4160
 20
1.0770
 30
 0.0
 42
1.0
  0
SEQEND
  8
BOT
  0
POLYLINE
  8
BOT
 66
      1
 70
1
 40
0.0100
 41
0.0100
  0
VERTEX
  8
BOT
 10
1.4280
 20
1.0990
 30
 0.0
 42
1.0
  0
VERTEX
  8
BOT
 10
1.4380
 20
1.0990
 30
 0.0
 42
1.0
  0
SEQEND
  8
BOT
  0
POLYLINE
  8
BOT
 66
      1
 70
0
 40
0.0200
 41
0.0200
  0
VERTEX
  8
BOT
 10
1.4330
 20
1.0990
 30
 0.0
  0
VERTEX
  8
BOT
 10
1.7950
 20
1.0990
 30
 0.0
  0
SEQEND
  8
BOT
  0
POLYLINE
  8
BOT
 66
      1
 70
1
 40
0.0100
 41
0.0100
  0
VERTEX
  8
BOT
 10
1.4280
 20
1.0990
 30
 0.0
 42
1.0
  0
VERTEX
  8
BOT
 10
1.4380
 20
1.0990
 30
 0.0
 42
1.0
  0
SEQEND
  8
BOT
  0
POLYLINE
  8
BOT
 66
      1
 70
1
 40
0.0100
 41
0.0100
  0
VERTEX
  8
BOT
 10
1.7900
 20
1.0990
 30
 0.0
 42
1.0
  0
VERTEX
  8
BOT
 10
1.8000
 20
1.0990
 30
 0.0
 42
1.0
  0
SEQEND
  8
BOT
  0
POLYLINE
  8
BOT
 66
      1
 70
0
 40
0.0200
 41
0.0200
  0
VERTEX
  8
BOT
 10
1.7950
 20
1.0990
 30
 0.0
  0
VERTEX
  8
BOT
 10
1.8540
 20
1.1580
 30
 0.0
  0
SEQEND
  8
BOT
  0
POLYLINE
  8
BOT
 66
      1
 70
1
 40
0.0100
 41
0.0100
  0
VERTEX
  8
BOT
 10
1.7900
 20
1.0990
 30
 0.0
 42
1.0
  0
VERTEX
  8
BOT
 10
1.8000
 20
1.0990
 30
 0.0
 42
1.0
  0
SEQEND
  8
BOT
  0
POLYLINE
  8
BOT
 66
      1
 70
1
 40
0.0100
 41
0.0100
  0
VERTEX
  8
BOT
 10
1.8490
 20
1.1580
 30
 0.0
 42
1.0
  0
VERTEX
  8
BOT
 10
1.8590
 20
1.1580
 30
 0.0
 42
1.0
  0
SEQEND
  8
BOT
  0
POLYLINE
  8
BOT
 66
      1
 70
0
 40
0.0200
 41
0.0200
  0
VERTEX
  8
BOT
 10
1.8540
 20
1.1580
 30
 0.0
  0
VERTEX
  8
BOT
 10
1.8540
 20
1.2050
 30
 0.0
  0
SEQEND
  8
BOT
  0
POLYLINE
  8
BOT
 66
      1
 70
1
 40
0.0100
 41
0.0100
  0
VERTEX
  8
BOT
 10
1.8490
 20
1.1580
 30
 0.0
 42
1.0
  0
VERTEX
  8
BOT
 10
1.8590
 20
1.1580
 30
 0.0
 42
1.0
  0
SEQEND
  8
BOT
  0
POLYLINE
  8
BOT
 66
      1
 70
1
 40
0.0100
 41
0.0100
  0
VERTEX
  8
BOT
 10
1.8490
 20
1.2050
 30
 0.0
 42
1.0
  0
VERTEX
  8
BOT
 10
1.8590
 20
1.2050
 30
 0.0
 42
1.0
  0
SEQEND
  8
BOT
  0
POLYLINE
  8
BOT
 66
      1
 70
0
 40
0.0390
 41
0.0390
  0
VERTEX
  8
BOT
 10
2.1390
 20
1.5550
 30
 0.0
  0
VERTEX
  8
BOT
 10
2.1390
 20
1.4280
 30
 0.0
  0
SEQEND
  8
BOT
  0
POLYLINE
  8
BOT
 66
      1
 70
1
 40
0.0195
 41
0.0195
  0
VERTEX
  8
BOT
 10
2.1292
 20
1.5550
 30
 0.0
 42
1.0
  0
VERTEX
  8
BOT
 10
2.1487
 20
1.5550
 30
 0.0
 42
1.0
  0
SEQEND
  8
BOT
  0
POLYLINE
  8
BOT
 66
      1
 70
1
 40
0.0195
 41
0.0195
  0
VERTEX
  8
BOT
 10
2.1292
 20
1.4280
 30
 0.0
 42
1.0
  0
VERTEX
  8
BOT
 10
2.1487
 20
1.4280
 30
 0.0
 42
1.0
  0
SEQEND
  8
BOT
  0
POLYLINE
  8
BOT
 66
      1
 70
0
 40
0.0390
 41
0.0390
  0
VERTEX
  8
BOT
 10
2.1390
 20
1.4280
 30
 0.0
  0
VERTEX
  8
BOT
 10
2.1400
 20
1.4280
 30
 0.0
  0
SEQEND
  8
BOT
  0
POLYLINE
  8
BOT
 66
      1
 70
1
 40
0.0195
 41
0.0195
  0
VERTEX
  8
BOT
 10
2.1292
 20
1.4280
 30
 0.0
 42
1.0
  0
VERTEX
  8
BOT
 10
2.1487
 20
1.4280
 30
 0.0
 42
1.0
  0
SEQEND
  8
BOT
  0
POLYLINE
  8
BOT
 66
      1
 70
1
 40
0.0195
 41
0.0195
  0
VERTEX
  8
BOT
 10
2.1303
 20
1.4280
 30
 0.0
 42
1.0
  0
VERTEX
  8
BOT
 10
2.1498
 20
1.4280
 30
 0.0
 42
1.0
  0
SEQEND
  8
BOT
  0
POLYLINE
  8
BOT
 66
      1
 70
0
 40
0.0390
 41
0.0390
  0
VERTEX
  8
BOT
 10
2.1400
 20
1.4280
 30
 0.0
  0
VERTEX
  8
BOT
 10
2.1400
 20
1.3140
 30
 0.0
  0
SEQEND
  8
BOT
  0
POLYLINE
  8
BOT
 66
      1
 70
1
 40
0.0195
 41
0.0195
  0
VERTEX
  8
BOT
 10
2.1303
 20
1.4280
 30
 0.0
 42
1.0
  0
VERTEX
  8
BOT
 10
2.1498
 20
1.4280
 30
 0.0
 42
1.0
  0
SEQEND
  8
BOT
  0
POLYLINE
  8
BOT
 66
      1
 70
1
 40
0.0195
 41
0.0195
  0
VERTEX
  8
BOT
 10
2.1303
 20
1.3140
 30
 0.0
 42
1.0
  0
VERTEX
  8
BOT
 10
2.1498
 20
1.3140
 30
 0.0
 42
1.0
  0
SEQEND
  8
BOT
  0
POLYLINE
  8
BOT
 66
      1
 70
0
 40
0.0390
 41
0.0390
  0
VERTEX
  8
BOT
 10
2.1400
 20
1.3140
 30
 0.0
  0
VERTEX
  8
BOT
 10
2.2480
 20
1.2060
 30
 0.0
  0
SEQEND
  8
BOT
  0
POLYLINE
  8
BOT
 66
      1
 70
1
 40
0.0195
 41
0.0195
  0
VERTEX
  8
BOT
 10
2.1303
 20
1.3140
 30
 0.0
 42
1.0
  0
VERTEX
  8
BOT
 10
2.1498
 20
1.3140
 30
 0.0
 42
1.0
  0
SEQEND
  8
BOT
  0
POLYLINE
  8
BOT
 66
      1
 70
1
 40
0.0195
 41
0.0195
  0
VERTEX
  8
BOT
 10
2.2383
 20
1.2060
 30
 0.0
 42
1.0
  0
VERTEX
  8
BOT
 10
2.2578
 20
1.2060
 30
 0.0
 42
1.0
  0
SEQEND
  8
BOT
  0
POLYLINE
  8
BOT
 66
      1
 70
0
 40
0.0390
 41
0.0390
  0
VERTEX
  8
BOT
 10
1.8640
 20
1.7520
 30
 0.0
  0
VERTEX
  8
BOT
 10
1.8050
 20
1.7520
 30
 0.0
  0
SEQEND
  8
BOT
  0
POLYLINE
  8
BOT
 66
      1
 70
1
 40
0.0195
 41
0.0195
  0
VERTEX
  8
BOT
 10
1.8543
 20
1.7520
 30
 0.0
 42
1.0
  0
VERTEX
  8
BOT
 10
1.8738
 20
1.7520
 30
 0.0
 42
1.0
  0
SEQEND
  8
BOT
  0
POLYLINE
  8
BOT
 66
      1
 70
1
 40
0.0195
 41
0.0195
  0
VERTEX
  8
BOT
 10
1.7953
 20
1.7520
 30
 0.0
 42
1.0
  0
VERTEX
  8
BOT
 10
1.8147
 20
1.7520
 30
 0.0
 42
1.0
  0
SEQEND
  8
BOT
  0
POLYLINE
  8
BOT
 66
      1
 70
0
 40
0.0390
 41
0.0390
  0
VERTEX
  8
BOT
 10
1.8050
 20
1.7520
 30
 0.0
  0
VERTEX
  8
BOT
 10
1.7700
 20
1.7180
 30
 0.0
  0
SEQEND
  8
BOT
  0
POLYLINE
  8
BOT
 66
      1
 70
1
 40
0.0195
 41
0.0195
  0
VERTEX
  8
BOT
 10
1.7953
 20
1.7520
 30
 0.0
 42
1.0
  0
VERTEX
  8
BOT
 10
1.8147
 20
1.7520
 30
 0.0
 42
1.0
  0
SEQEND
  8
BOT
  0
POLYLINE
  8
BOT
 66
      1
 70
1
 40
0.0195
 41
0.0195
  0
VERTEX
  8
BOT
 10
1.7603
 20
1.7180
 30
 0.0
 42
1.0
  0
VERTEX
  8
BOT
 10
1.7797
 20
1.7180
 30
 0.0
 42
1.0
  0
SEQEND
  8
BOT
  0
POLYLINE
  8
BOT
 66
      1
 70
0
 40
0.0390
 41
0.0390
  0
VERTEX
  8
BOT
 10
1.7700
 20
1.7180
 30
 0.0
  0
VERTEX
  8
BOT
 10
1.7700
 20
1.6150
 30
 0.0
  0
SEQEND
  8
BOT
  0
POLYLINE
  8
BOT
 66
      1
 70
1
 40
0.0195
 41
0.0195
  0
VERTEX
  8
BOT
 10
1.7603
 20
1.7180
 30
 0.0
 42
1.0
  0
VERTEX
  8
BOT
 10
1.7797
 20
1.7180
 30
 0.0
 42
1.0
  0
SEQEND
  8
BOT
  0
POLYLINE
  8
BOT
 66
      1
 70
1
 40
0.0195
 41
0.0195
  0
VERTEX
  8
BOT
 10
1.7603
 20
1.6150
 30
 0.0
 42
1.0
  0
VERTEX
  8
BOT
 10
1.7797
 20
1.6150
 30
 0.0
 42
1.0
  0
SEQEND
  8
BOT
  0
POLYLINE
  8
BOT
 66
      1
 70
0
 40
0.0390
 41
0.0390
  0
VERTEX
  8
BOT
 10
1.7700
 20
1.6150
 30
 0.0
  0
VERTEX
  8
BOT
 10
1.7710
 20
1.6150
 30
 0.0
  0
SEQEND
  8
BOT
  0
POLYLINE
  8
BOT
 66
      1
 70
1
 40
0.0195
 41
0.0195
  0
VERTEX
  8
BOT
 10
1.7603
 20
1.6150
 30
 0.0
 42
1.0
  0
VERTEX
  8
BOT
 10
1.7797
 20
1.6150
 30
 0.0
 42
1.0
  0
SEQEND
  8
BOT
  0
POLYLINE
  8
BOT
 66
      1
 70
1
 40
0.0195
 41
0.0195
  0
VERTEX
  8
BOT
 10
1.7613
 20
1.6150
 30
 0.0
 42
1.0
  0
VERTEX
  8
BOT
 10
1.7807
 20
1.6150
 30
 0.0
 42
1.0
  0
SEQEND
  8
BOT
  0
POLYLINE
  8
BOT
 66
      1
 70
0
 40
0.0200
 41
0.0200
  0
VERTEX
  8
BOT
 10
0.4040
 20
2.0320
 30
 0.0
  0
VERTEX
  8
BOT
 10
0.4040
 20
1.9360
 30
 0.0
  0
SEQEND
  8
BOT
  0
POLYLINE
  8
BOT
 66
      1
 70
1
 40
0.0100
 41
0.0100
  0
VERTEX
  8
BOT
 10
0.3990
 20
2.0320
 30
 0.0
 42
1.0
  0
VERTEX
  8
BOT
 10
0.4090
 20
2.0320
 30
 0.0
 42
1.0
  0
SEQEND
  8
BOT
  0
POLYLINE
  8
BOT
 66
      1
 70
1
 40
0.0100
 41
0.0100
  0
VERTEX
  8
BOT
 10
0.3990
 20
1.9360
 30
 0.0
 42
1.0
  0
VERTEX
  8
BOT
 10
0.4090
 20
1.9360
 30
 0.0
 42
1.0
  0
SEQEND
  8
BOT
  0
POLYLINE
  8
BOT
 66
      1
 70
0
 40
0.0200
 41
0.0200
  0
VERTEX
  8
BOT
 10
0.4040
 20
1.9360
 30
 0.0
  0
VERTEX
  8
BOT
 10
0.1730
 20
1.7050
 30
 0.0
  0
SEQEND
  8
BOT
  0
POLYLINE
  8
BOT
 66
      1
 70
1
 40
0.0100
 41
0.0100
  0
VERTEX
  8
BOT
 10
0.3990
 20
1.9360
 30
 0.0
 42
1.0
  0
VERTEX
  8
BOT
 10
0.4090
 20
1.9360
 30
 0.0
 42
1.0
  0
SEQEND
  8
BOT
  0
POLYLINE
  8
BOT
 66
      1
 70
1
 40
0.0100
 41
0.0100
  0
VERTEX
  8
BOT
 10
0.1680
 20
1.7050
 30
 0.0
 42
1.0
  0
VERTEX
  8
BOT
 10
0.1780
 20
1.7050
 30
 0.0
 42
1.0
  0
SEQEND
  8
BOT
  0
POLYLINE
  8
BOT
 66
      1
 70
0
 40
0.0200
 41
0.0200
  0
VERTEX
  8
BOT
 10
0.1730
 20
1.7050
 30
 0.0
  0
VERTEX
  8
BOT
 10
0.1730
 20
1.5000
 30
 0.0
  0
SEQEND
  8
BOT
  0
POLYLINE
  8
BOT
 66
      1
 70
1
 40
0.0100
 41
0.0100
  0
VERTEX
  8
BOT
 10
0.1680
 20
1.7050
 30
 0.0
 42
1.0
  0
VERTEX
  8
BOT
 10
0.1780
 20
1.7050
 30
 0.0
 42
1.0
  0
SEQEND
  8
BOT
  0
POLYLINE
  8
BOT
 66
      1
 70
1
 40
0.0100
 41
0.0100
  0
VERTEX
  8
BOT
 10
0.1680
 20
1.5000
 30
 0.0
 42
1.0
  0
VERTEX
  8
BOT
 10
0.1780
 20
1.5000
 30
 0.0
 42
1.0
  0
SEQEND
  8
BOT
  0
POLYLINE
  8
BOT
 66
      1
 70
0
 40
0.0390
 41
0.0390
  0
VERTEX
  8
BOT
 10
2.1390
 20
1.5550
 30
 0.0
  0
VERTEX
  8
BOT
 10
2.1390
 20
1.4280
 30
 0.0
  0
SEQEND
  8
BOT
  0
POLYLINE
  8
BOT
 66
      1
 70
1
 40
0.0195
 41
0.0195
  0
VERTEX
  8
BOT
 10
2.1292
 20
1.5550
 30
 0.0
 42
1.0
  0
VERTEX
  8
BOT
 10
2.1487
 20
1.5550
 30
 0.0
 42
1.0
  0
SEQEND
  8
BOT
  0
POLYLINE
  8
BOT
 66
      1
 70
1
 40
0.0195
 41
0.0195
  0
VERTEX
  8
BOT
 10
2.1292
 20
1.4280
 30
 0.0
 42
1.0
  0
VERTEX
  8
BOT
 10
2.1487
 20
1.4280
 30
 0.0
 42
1.0
  0
SEQEND
  8
BOT
  0
POLYLINE
  8
BOT
 66
      1
 70
0
 40
0.0390
 41
0.0390
  0
VERTEX
  8
BOT
 10
2.1390
 20
1.4280
 30
 0.0
  0
VERTEX
  8
BOT
 10
2.1390
 20
1.3950
 30
 0.0
  0
SEQEND
  8
BOT
  0
POLYLINE
  8
BOT
 66
      1
 70
1
 40
0.0195
 41
0.0195
  0
VERTEX
  8
BOT
 10
2.1292
 20
1.4280
 30
 0.0
 42
1.0
  0
VERTEX
  8
BOT
 10
2.1487
 20
1.4280
 30
 0.0
 42
1.0
  0
SEQEND
  8
BOT
  0
POLYLINE
  8
BOT
 66
      1
 70
1
 40
0.0195
 41
0.0195
  0
VERTEX
  8
BOT
 10
2.1292
 20
1.3950
 30
 0.0
 42
1.0
  0
VERTEX
  8
BOT
 10
2.1487
 20
1.3950
 30
 0.0
 42
1.0
  0
SEQEND
  8
BOT
  0
POLYLINE
  8
BOT
 66
      1
 70
0
 40
0.0390
 41
0.0390
  0
VERTEX
  8
BOT
 10
2.1390
 20
1.3950
 30
 0.0
  0
VERTEX
  8
BOT
 10
1.9210
 20
1.3950
 30
 0.0
  0
SEQEND
  8
BOT
  0
POLYLINE
  8
BOT
 66
      1
 70
1
 40
0.0195
 41
0.0195
  0
VERTEX
  8
BOT
 10
2.1292
 20
1.3950
 30
 0.0
 42
1.0
  0
VERTEX
  8
BOT
 10
2.1487
 20
1.3950
 30
 0.0
 42
1.0
  0
SEQEND
  8
BOT
  0
POLYLINE
  8
BOT
 66
      1
 70
1
 40
0.0195
 41
0.0195
  0
VERTEX
  8
BOT
 10
1.9113
 20
1.3950
 30
 0.0
 42
1.0
  0
VERTEX
  8
BOT
 10
1.9308
 20
1.3950
 30
 0.0
 42
1.0
  0
SEQEND
  8
BOT
  0
POLYLINE
  8
BOT
 66
      1
 70
0
 40
0.0390
 41
0.0390
  0
VERTEX
  8
BOT
 10
1.7700
 20
1.4370
 30
 0.0
  0
VERTEX
  8
BOT
 10
1.7700
 20
1.6150
 30
 0.0
  0
SEQEND
  8
BOT
  0
POLYLINE
  8
BOT
 66
      1
 70
1
 40
0.0195
 41
0.0195
  0
VERTEX
  8
BOT
 10
1.7603
 20
1.4370
 30
 0.0
 42
1.0
  0
VERTEX
  8
BOT
 10
1.7797
 20
1.4370
 30
 0.0
 42
1.0
  0
SEQEND
  8
BOT
  0
POLYLINE
  8
BOT
 66
      1
 70
1
 40
0.0195
 41
0.0195
  0
VERTEX
  8
BOT
 10
1.7603
 20
1.6150
 30
 0.0
 42
1.0
  0
VERTEX
  8
BOT
 10
1.7797
 20
1.6150
 30
 0.0
 42
1.0
  0
SEQEND
  8
BOT
  0
POLYLINE
  8
BOT
 66
      1
 70
0
 40
0.0390
 41
0.0390
  0
VERTEX
  8
BOT
 10
1.7700
 20
1.6150
 30
 0.0
  0
VERTEX
  8
BOT
 10
1.7710
 20
1.6150
 30
 0.0
  0
SEQEND
  8
BOT
  0
POLYLINE
  8
BOT
 66
      1
 70
1
 40
0.0195
 41
0.0195
  0
VERTEX
  8
BOT
 10
1.7603
 20
1.6150
 30
 0.0
 42
1.0
  0
VERTEX
  8
BOT
 10
1.7797
 20
1.6150
 30
 0.0
 42
1.0
  0
SEQEND
  8
BOT
  0
POLYLINE
  8
BOT
 66
      1
 70
1
 40
0.0195
 41
0.0195
  0
VERTEX
  8
BOT
 10
1.7613
 20
1.6150
 30
 0.0
 42
1.0
  0
VERTEX
  8
BOT
 10
1.7807
 20
1.6150
 30
 0.0
 42
1.0
  0
SEQEND
  8
BOT
  0
POLYLINE
  8
BOT
 66
      1
 70
0
 40
0.0390
 41
0.0390
  0
VERTEX
  8
BOT
 10
1.7700
 20
1.4370
 30
 0.0
  0
VERTEX
  8
BOT
 10
1.7700
 20
1.4370
 30
 0.0
  0
SEQEND
  8
BOT
  0
POLYLINE
  8
BOT
 66
      1
 70
1
 40
0.0195
 41
0.0195
  0
VERTEX
  8
BOT
 10
1.7603
 20
1.4370
 30
 0.0
 42
1.0
  0
VERTEX
  8
BOT
 10
1.7797
 20
1.4370
 30
 0.0
 42
1.0
  0
SEQEND
  8
BOT
  0
POLYLINE
  8
BOT
 66
      1
 70
1
 40
0.0195
 41
0.0195
  0
VERTEX
  8
BOT
 10
1.7603
 20
1.4370
 30
 0.0
 42
1.0
  0
VERTEX
  8
BOT
 10
1.7797
 20
1.4370
 30
 0.0
 42
1.0
  0
SEQEND
  8
BOT
  0
POLYLINE
  8
BOT
 66
      1
 70
0
 40
0.0390
 41
0.0390
  0
VERTEX
  8
BOT
 10
1.7700
 20
1.4370
 30
 0.0
  0
VERTEX
  8
BOT
 10
1.8120
 20
1.3950
 30
 0.0
  0
SEQEND
  8
BOT
  0
POLYLINE
  8
BOT
 66
      1
 70
1
 40
0.0195
 41
0.0195
  0
VERTEX
  8
BOT
 10
1.7603
 20
1.4370
 30
 0.0
 42
1.0
  0
VERTEX
  8
BOT
 10
1.7797
 20
1.4370
 30
 0.0
 42
1.0
  0
SEQEND
  8
BOT
  0
POLYLINE
  8
BOT
 66
      1
 70
1
 40
0.0195
 41
0.0195
  0
VERTEX
  8
BOT
 10
1.8023
 20
1.3950
 30
 0.0
 42
1.0
  0
VERTEX
  8
BOT
 10
1.8218
 20
1.3950
 30
 0.0
 42
1.0
  0
SEQEND
  8
BOT
  0
POLYLINE
  8
BOT
 66
      1
 70
0
 40
0.0390
 41
0.0390
  0
VERTEX
  8
BOT
 10
1.8120
 20
1.3950
 30
 0.0
  0
VERTEX
  8
BOT
 10
1.9210
 20
1.3950
 30
 0.0
  0
SEQEND
  8
BOT
  0
POLYLINE
  8
BOT
 66
      1
 70
1
 40
0.0195
 41
0.0195
  0
VERTEX
  8
BOT
 10
1.8023
 20
1.3950
 30
 0.0
 42
1.0
  0
VERTEX
  8
BOT
 10
1.8218
 20
1.3950
 30
 0.0
 42
1.0
  0
SEQEND
  8
BOT
  0
POLYLINE
  8
BOT
 66
      1
 70
1
 40
0.0195
 41
0.0195
  0
VERTEX
  8
BOT
 10
1.9113
 20
1.3950
 30
 0.0
 42
1.0
  0
VERTEX
  8
BOT
 10
1.9308
 20
1.3950
 30
 0.0
 42
1.0
  0
SEQEND
  8
BOT
  0
POLYLINE
  8
BOT
 66
      1
 70
0
 40
0.0390
 41
0.0390
  0
VERTEX
  8
BOT
 10
1.8640
 20
1.7520
 30
 0.0
  0
VERTEX
  8
BOT
 10
2.1040
 20
1.7520
 30
 0.0
  0
SEQEND
  8
BOT
  0
POLYLINE
  8
BOT
 66
      1
 70
1
 40
0.0195
 41
0.0195
  0
VERTEX
  8
BOT
 10
1.8543
 20
1.7520
 30
 0.0
 42
1.0
  0
VERTEX
  8
BOT
 10
1.8738
 20
1.7520
 30
 0.0
 42
1.0
  0
SEQEND
  8
BOT
  0
POLYLINE
  8
BOT
 66
      1
 70
1
 40
0.0195
 41
0.0195
  0
VERTEX
  8
BOT
 10
2.0943
 20
1.7520
 30
 0.0
 42
1.0
  0
VERTEX
  8
BOT
 10
2.1138
 20
1.7520
 30
 0.0
 42
1.0
  0
SEQEND
  8
BOT
  0
TEXT
  8
BOT
 10
2.9000
 20
1.7350
 40
0.0790
 41
0.8000
 71
2
  1
GSM01
 50
0.0000
  0
TEXT
  8
BOT
 10
2.7950
 20
2.5360
 40
0.0590
 41
0.8000
 71
2
  1
12_15
 50
0.0000
  0
TEXT
  8
SSB
 10
3.7270
 20
0.7190
 40
0.0870
 41
0.8000
 71
2
  1
SIM CARD
 50
270.0000
  0
TEXT
  8
SSB
 10
3.1080
 20
1.3380
 40
0.0790
 41
0.8000
 71
2
  1
CN5
 50
0.0000
  0
ENDSEC
  0
EOF
