  0
SECTION
  2
HEADER
  9
$ACADVER
  1
AC1015
  9
$ACADMAINTVER
 70
     6
  9
$DWGCODEPAGE
  3
ANSI_1254
  9
$INSBASE
 10
0.0
 20
0.0
 30
0.0
  9
$EXTMIN
 10
0.0
 20
0.0
 30
0.0
  9
$EXTMAX
 10
210.0
 20
297.0
 30
0.0
  9
$LIMMIN
 10
0.0
 20
0.0
  9
$LIMMAX
 10
210.0
 20
297.0
  9
$ORTHOMODE
 70
     0
  9
$REGENMODE
 70
     1
  9
$FILLMODE
 70
     1
  9
$QTEXTMODE
 70
     0
  9
$MIRRTEXT
 70
     1
  9
$LTSCALE
 40
1.0
  9
$ATTMODE
 70
     1
  9
$TEXTSIZE
 40
3.5
  9
$TRACEWID
 40
1.0
  9
$TEXTSTYLE
  7
Standard
  9
$CLAYER
  8
0
  9
$CELTYPE
  6
ByLayer
  9
$CECOLOR
 62
   256
  9
$CELTSCALE
 40
1.0
  9
$DISPSILH
 70
     0
  9
$DIMSCALE
 40
1.0
  9
$DIMASZ
 40
3.302
  9
$DIMEXO
 40
1.0
  9
$DIMDLI
 40
3.75
  9
$DIMRND
 40
0.0
  9
$DIMDLE
 40
0.0
  9
$DIMEXE
 40
1.0
  9
$DIMTP
 40
0.0
  9
$DIMTM
 40
0.0
  9
$DIMTXT
 40
3.5
  9
$DIMCEN
 40
2.5
  9
$DIMTSZ
 40
0.0
  9
$DIMTOL
 70
     0
  9
$DIMLIM
 70
     0
  9
$DIMTIH
 70
     1
  9
$DIMTOH
 70
     1
  9
$DIMSE1
 70
     0
  9
$DIMSE2
 70
     0
  9
$DIMTAD
 70
     1
  9
$DIMZIN
 70
     0
  9
$DIMBLK
  1

  9
$DIMASO
 70
     1
  9
$DIMSHO
 70
     1
  9
$DIMPOST
  1

  9
$DIMAPOST
  1

  9
$DIMALT
 70
     0
  9
$DIMALTD
 70
     3
  9
$DIMALTF
 40
0.0393700787
  9
$DIMLFAC
 40
1.0
  9
$DIMTOFL
 70
     1
  9
$DIMTVP
 40
0.0
  9
$DIMTIX
 70
     0
  9
$DIMSOXD
 70
     0
  9
$DIMSAH
 70
     0
  9
$DIMBLK1
  1

  9
$DIMBLK2
  1

  9
$DIMSTYLE
  2
ISO-25
  9
$DIMCLRD
 70
     0
  9
$DIMCLRE
 70
     0
  9
$DIMCLRT
 70
     0
  9
$DIMTFAC
 40
1.0
  9
$DIMGAP
 40
1.524
  9
$DIMJUST
 70
     0
  9
$DIMSD1
 70
     0
  9
$DIMSD2
 70
     0
  9
$DIMTOLJ
 70
     0
  9
$DIMTZIN
 70
     0
  9
$DIMALTZ
 70
     0
  9
$DIMALTTZ
 70
     0
  9
$DIMUPT
 70
     0
  9
$DIMDEC
 70
     3
  9
$DIMTDEC
 70
     3
  9
$DIMALTU
 70
     2
  9
$DIMALTTD
 70
     3
  9
$DIMTXSTY
  7
Standard
  9
$DIMAUNIT
 70
     0
  9
$DIMADEC
 70
     2
  9
$DIMALTRND
 40
0.0
  9
$DIMAZIN
 70
     0
  9
$DIMDSEP
 70
    44
  9
$DIMATFIT
 70
     3
  9
$DIMFRAC
 70
     0
  9
$DIMLDRBLK
  1

  9
$DIMLUNIT
 70
     2
  9
$DIMLWD
 70
    -2
  9
$DIMLWE
 70
    -2
  9
$DIMTMOVE
 70
     0
  9
$LUNITS
 70
     2
  9
$LUPREC
 70
     2
  9
$SKETCHINC
 40
1.0
  9
$FILLETRAD
 40
10.0
  9
$AUNITS
 70
     0
  9
$AUPREC
 70
     2
  9
$MENU
  1
.
  9
$ELEVATION
 40
0.0
  9
$PELEVATION
 40
0.0
  9
$THICKNESS
 40
0.0
  9
$LIMCHECK
 70
     0
  9
$CHAMFERA
 40
10.0
  9
$CHAMFERB
 40
10.0
  9
$CHAMFERC
 40
20.0
  9
$CHAMFERD
 40
0.0
  9
$SKPOLY
 70
     0
  9
$TDCREATE
 40
2456048.581579502
  9
$TDUCREATE
 40
2456048.456579502
  9
$TDUPDATE
 40
2456048.581579514
  9
$TDUUPDATE
 40
2456048.456579514
  9
$TDINDWG
 40
0.0000000116
  9
$TDUSRTIMER
 40
0.0000000116
  9
$USRTIMER
 70
     1
  9
$ANGBASE
 50
0.0
  9
$ANGDIR
 70
     0
  9
$PDMODE
 70
     0
  9
$PDSIZE
 40
-1.0
  9
$PLINEWID
 40
0.0
  9
$SPLFRAME
 70
     0
  9
$SPLINETYPE
 70
     6
  9
$SPLINESEGS
 70
     8
  9
$HANDSEED
  5
1BF
  9
$SURFTAB1
 70
     6
  9
$SURFTAB2
 70
     6
  9
$SURFTYPE
 70
     6
  9
$SURFU
 70
     6
  9
$SURFV
 70
     6
  9
$UCSBASE
  2

  9
$UCSNAME
  2

  9
$UCSORG
 10
0.0
 20
0.0
 30
0.0
  9
$UCSXDIR
 10
1.0
 20
0.0
 30
0.0
  9
$UCSYDIR
 10
0.0
 20
1.0
 30
0.0
  9
$UCSORTHOREF
  2

  9
$UCSORTHOVIEW
 70
     0
  9
$UCSORGTOP
 10
0.0
 20
0.0
 30
0.0
  9
$UCSORGBOTTOM
 10
0.0
 20
0.0
 30
0.0
  9
$UCSORGLEFT
 10
0.0
 20
0.0
 30
0.0
  9
$UCSORGRIGHT
 10
0.0
 20
0.0
 30
0.0
  9
$UCSORGFRONT
 10
0.0
 20
0.0
 30
0.0
  9
$UCSORGBACK
 10
0.0
 20
0.0
 30
0.0
  9
$PUCSBASE
  2

  9
$PUCSNAME
  2

  9
$PUCSORG
 10
0.0
 20
0.0
 30
0.0
  9
$PUCSXDIR
 10
1.0
 20
0.0
 30
0.0
  9
$PUCSYDIR
 10
0.0
 20
1.0
 30
0.0
  9
$PUCSORTHOREF
  2

  9
$PUCSORTHOVIEW
 70
     0
  9
$PUCSORGTOP
 10
0.0
 20
0.0
 30
0.0
  9
$PUCSORGBOTTOM
 10
0.0
 20
0.0
 30
0.0
  9
$PUCSORGLEFT
 10
0.0
 20
0.0
 30
0.0
  9
$PUCSORGRIGHT
 10
0.0
 20
0.0
 30
0.0
  9
$PUCSORGFRONT
 10
0.0
 20
0.0
 30
0.0
  9
$PUCSORGBACK
 10
0.0
 20
0.0
 30
0.0
  9
$USERI1
 70
     0
  9
$USERI2
 70
     0
  9
$USERI3
 70
     0
  9
$USERI4
 70
     0
  9
$USERI5
 70
     0
  9
$USERR1
 40
0.0
  9
$USERR2
 40
0.0
  9
$USERR3
 40
0.0
  9
$USERR4
 40
0.0
  9
$USERR5
 40
0.0
  9
$WORLDVIEW
 70
     1
  9
$SHADEDGE
 70
     3
  9
$SHADEDIF
 70
    70
  9
$TILEMODE
 70
     1
  9
$MAXACTVP
 70
    64
  9
$PINSBASE
 10
0.0
 20
0.0
 30
0.0
  9
$PLIMCHECK
 70
     0
  9
$PEXTMIN
 10
1.0000000000E+20
 20
1.0000000000E+20
 30
1.0000000000E+20
  9
$PEXTMAX
 10
-1.0000000000E+20
 20
-1.0000000000E+20
 30
-1.0000000000E+20
  9
$PLIMMIN
 10
0.0
 20
0.0
  9
$PLIMMAX
 10
420.0
 20
297.0
  9
$UNITMODE
 70
     0
  9
$VISRETAIN
 70
     1
  9
$PLINEGEN
 70
     0
  9
$PSLTSCALE
 70
     1
  9
$TREEDEPTH
 70
  3020
  9
$CMLSTYLE
  2
Standard
  9
$CMLJUST
 70
     0
  9
$CMLSCALE
 40
20.0
  9
$PROXYGRAPHICS
 70
     1
  9
$MEASUREMENT
 70
     1
  9
$CELWEIGHT
370
    -1
  9
$ENDCAPS
280
     0
  9
$JOINSTYLE
280
     0
  9
$LWDISPLAY
290
     1
  9
$INSUNITS
 70
     4
  9
$HYPERLINKBASE
  1

  9
$STYLESHEET
  1

  9
$XEDIT
290
     1
  9
$CEPSNTYPE
380
     0
  9
$PSTYLEMODE
290
     1
  9
$FINGERPRINTGUID
  2
{C2C9C37C-CAD2-40F8-9813-66E4747C492D}
  9
$VERSIONGUID
  2
{FAEB1C32-E019-11D5-929B-00C0DF256EC4}
  9
$EXTNAMES
290
     1
  9
$PSVPSCALE
 40
0.0
  9
$OLESTARTUP
290
     0
  0
ENDSEC
  0
SECTION
  2
CLASSES
  0
CLASS
  1
ACDBDICTIONARYWDFLT
  2
AcDbDictionaryWithDefault
  3
ObjectDBX Classes
 90
        0
280
     0
281
     0
  0
CLASS
  1
VISUALSTYLE
  2
AcDbVisualStyle
  3
ObjectDBX Classes
 90
     4095
280
     0
281
     0
  0
CLASS
  1
MATERIAL
  2
AcDbMaterial
  3
ObjectDBX Classes
 90
     1153
280
     0
281
     0
  0
CLASS
  1
ACDBPLACEHOLDER
  2
AcDbPlaceHolder
  3
ObjectDBX Classes
 90
        0
280
     0
281
     0
  0
CLASS
  1
LAYOUT
  2
AcDbLayout
  3
ObjectDBX Classes
 90
        0
280
     0
281
     0
  0
ENDSEC
  0
SECTION
  2
TABLES
  0
TABLE
  2
VPORT
  5
8
330
0
100
AcDbSymbolTable
 70
     1
  0
VPORT
  5
29
330
8
100
AcDbSymbolTableRecord
100
AcDbViewportTableRecord
  2
*Active
 70
     0
 10
0.0
 20
0.0
 11
1.0
 21
1.0
 12
105.0
 22
148.5
 13
0.0
 23
0.0
 14
10.0
 24
10.0
 15
10.0
 25
10.0
 16
0.0
 26
0.0
 36
1.0
 17
0.0
 27
0.0
 37
0.0
 40
297.0
 41
0.7070707071
 42
50.0
 43
0.0
 44
0.0
 50
0.0
 51
0.0
 71
     0
 72
  2000
 73
     1
 74
     3
 75
     0
 76
     0
 77
     0
 78
     0
281
     0
 65
     1
110
0.0
120
0.0
130
0.0
111
1.0
121
0.0
131
0.0
112
0.0
122
1.0
132
0.0
 79
     0
146
0.0
  0
ENDTAB
  0
TABLE
  2
LTYPE
  5
5
330
0
100
AcDbSymbolTable
 70
     6
  0
LTYPE
  5
14
330
5
100
AcDbSymbolTableRecord
100
AcDbLinetypeTableRecord
  2
ByBlock
 70
     0
  3

 72
    65
 73
     0
 40
0.0
  0
LTYPE
  5
15
330
5
100
AcDbSymbolTableRecord
100
AcDbLinetypeTableRecord
  2
ByLayer
 70
     0
  3

 72
    65
 73
     0
 40
0.0
  0
LTYPE
  5
16
330
5
100
AcDbSymbolTableRecord
100
AcDbLinetypeTableRecord
  2
Continuous
 70
     0
  3
Solid line
 72
    65
 73
     0
 40
0.0
  0
LTYPE
  5
3F
330
5
100
AcDbSymbolTableRecord
100
AcDbLinetypeTableRecord
  2
HIDDEN
 70
     0
  3
Hidden __ __ __ __ __ __ __ __ __ __ __ __ __ __
 72
    65
 73
     2
 40
1.905
 49
1.27
 74
     0
 49
-0.635
 74
     0
  0
LTYPE
  5
40
330
5
100
AcDbSymbolTableRecord
100
AcDbLinetypeTableRecord
  2
PHANTOM
 70
     0
  3
Phantom ______  __  __  ______  __  __  ______
 72
    65
 73
     6
 40
12.7
 49
6.35
 74
     0
 49
-1.27
 74
     0
 49
1.27
 74
     0
 49
-1.27
 74
     0
 49
1.27
 74
     0
 49
-1.27
 74
     0
  0
LTYPE
  5
41
330
5
100
AcDbSymbolTableRecord
100
AcDbLinetypeTableRecord
  2
CENTER
 70
     0
  3
Center ____ _ ____ _ ____ _ ____ _ ____ _ ____
 72
    65
 73
     4
 40
10.16
 49
6.35
 74
     0
 49
-1.27
 74
     0
 49
1.27
 74
     0
 49
-1.27
 74
     0
  0
LTYPE
  5
42
330
5
100
AcDbSymbolTableRecord
100
AcDbLinetypeTableRecord
  2
CENTERX2
 70
     0
  3
Center (2x) ________  __  ________  __  _____
 72
    65
 73
     4
 40
20.32
 49
12.7
 74
     0
 49
-2.54
 74
     0
 49
2.54
 74
     0
 49
-2.54
 74
     0
  0
LTYPE
  5
43
330
5
100
AcDbSymbolTableRecord
100
AcDbLinetypeTableRecord
  2
DOT2
 70
     0
  3
Dot (.5x) ........................................
 72
    65
 73
     2
 40
0.635
 49
0.0
 74
     0
 49
-0.635
 74
     0
  0
ENDTAB
  0
TABLE
  2
LAYER
  5
2
330
0
100
AcDbSymbolTable
 70
     6
  0
LAYER
  5
10
330
2
100
AcDbSymbolTableRecord
100
AcDbLayerTableRecord
  2
0
 70
     0
 62
     7
  6
Continuous
370
    -3
390
F
  0
LAYER
  5
44
330
2
100
AcDbSymbolTableRecord
100
AcDbLayerTableRecord
  2
FORMAT
 70
     0
 62
     7
  6
Continuous
370
    -3
390
F
  0
LAYER
  5
45
330
2
100
AcDbSymbolTableRecord
100
AcDbLayerTableRecord
  2
LAYER_1
 70
     0
 62
   179
  6
Continuous
370
    15
390
F
  0
LAYER
  5
46
330
2
100
AcDbSymbolTableRecord
100
AcDbLayerTableRecord
  2
LAYER_2
 70
     0
 62
     1
  6
Continuous
370
    -3
390
F
  0
LAYER
  5
47
330
2
100
AcDbSymbolTableRecord
100
AcDbLayerTableRecord
  2
LAYER1
 70
     0
 62
     7
  6
Continuous
370
    15
390
F
  0
LAYER
  5
48
330
2
100
AcDbSymbolTableRecord
100
AcDbLayerTableRecord
  2
LAYER2
 70
     0
 62
     1
  6
Continuous
370
    -3
390
F
  0
ENDTAB
  0
TABLE
  2
STYLE
  5
3
330
0
100
AcDbSymbolTable
 70
     5
  0
STYLE
  5
11
330
3
100
AcDbSymbolTableRecord
100
AcDbTextStyleTableRecord
  2
Standard
 70
     0
 40
0.0
 41
1.0
 50
0.0
 71
     0
 42
2.5
  3
txt
  4

  0
STYLE
  5
B4
330
3
100
AcDbSymbolTableRecord
100
AcDbTextStyleTableRecord
  2
SLDTEXTSTYLE0
 70
     0
 40
0.0
 41
0.7
 50
0.0
 71
     0
 42
0.2
  3
TXT
  4

  0
STYLE
  5
103
330
3
100
AcDbSymbolTableRecord
100
AcDbTextStyleTableRecord
  2
SLDTEXTSTYLE1
 70
     0
 40
0.0
 41
0.605
 50
0.0
 71
     0
 42
0.2
  3
TXT
  4

  0
STYLE
  5
10D
330
3
100
AcDbSymbolTableRecord
100
AcDbTextStyleTableRecord
  2
SLDTEXTSTYLE2
 70
     0
 40
0.0
 41
0.75
 50
0.0
 71
     0
 42
0.2
  3
TXT
  4

  0
STYLE
  5
11F
330
3
100
AcDbSymbolTableRecord
100
AcDbTextStyleTableRecord
  2
SLDTEXTSTYLE3
 70
     0
 40
0.0
 41
0.605
 50
0.0
 71
     0
 42
0.2
  3
TXT
  4
bigfont
  0
ENDTAB
  0
TABLE
  2
VIEW
  5
6
330
0
100
AcDbSymbolTable
 70
     0
  0
ENDTAB
  0
TABLE
  2
UCS
  5
7
330
0
100
AcDbSymbolTable
 70
     0
  0
ENDTAB
  0
TABLE
  2
APPID
  5
9
330
0
100
AcDbSymbolTable
 70
     1
  0
APPID
  5
12
330
9
100
AcDbSymbolTableRecord
100
AcDbRegAppTableRecord
  2
ACAD
 70
     0
  0
ENDTAB
  0
TABLE
  2
DIMSTYLE
  5
A
330
0
100
AcDbSymbolTable
 70
     5
100
AcDbDimStyleTable
  0
DIMSTYLE
105
27
330
A
100
AcDbSymbolTableRecord
100
AcDbDimStyleTableRecord
  2
ISO-25
 70
     0
 41
2.5
 42
0.625
 43
3.75
 44
1.25
 73
     0
 74
     0
 77
     1
 78
     8
140
2.5
141
2.5
143
0.0393700787
147
0.625
171
     3
172
     1
178
     0
271
     2
272
     2
274
     3
278
    44
283
     0
284
     8
340
11
  0
DIMSTYLE
105
147
102
{ACAD_REACTORS
330
146
330
151
102
}
330
A
100
AcDbSymbolTableRecord
100
AcDbDimStyleTableRecord
  2
SLDDIMSTYLE0
 70
     0
 41
3.302
 44
0.0
 45
0.000000001
 73
     0
 74
     0
 77
     1
 78
    12
 79
     3
140
3.5
147
0.875
173
     1
178
     0
271
     2
272
     2
276
     2
284
    12
340
10D
  0
DIMSTYLE
105
15C
102
{ACAD_REACTORS
330
15B
330
166
102
}
330
A
100
AcDbSymbolTableRecord
100
AcDbDimStyleTableRecord
  2
SLDDIMSTYLE1
 70
     0
 41
3.302
 44
0.0
 45
0.000000001
 73
     0
 74
     0
 77
     1
 78
    12
 79
     3
140
3.5
147
0.875
173
     1
178
     0
271
     1
272
     1
276
     2
284
    12
340
10D
  0
DIMSTYLE
105
171
102
{ACAD_REACTORS
330
170
102
}
330
A
100
AcDbSymbolTableRecord
100
AcDbDimStyleTableRecord
  2
SLDDIMSTYLE2
 70
     0
 41
3.302
 44
0.0
 45
0.000000001
 73
     0
 74
     0
 77
     1
 78
    12
 79
     3
140
3.5
141
0.0
147
0.875
172
     1
173
     1
178
     0
271
     1
272
     1
276
     2
284
    12
340
10D
341
172
343
172
  0
DIMSTYLE
105
1B3
102
{ACAD_REACTORS
330
1B2
102
}
330
A
100
AcDbSymbolTableRecord
100
AcDbDimStyleTableRecord
  2
SLDDIMSTYLE3
 70
     0
 41
3.302
 44
0.0
 45
0.000000001
 73
     0
 74
     0
 77
     1
 78
    12
 79
     3
140
3.5
147
0.875
172
     1
173
     1
178
     0
271
     1
272
     1
276
     2
284
    12
289
     0
340
10D
  0
ENDTAB
  0
TABLE
  2
BLOCK_RECORD
  5
1
330
0
100
AcDbSymbolTable
 70
    18
  0
BLOCK_RECORD
  5
1F
330
1
100
AcDbSymbolTableRecord
100
AcDbBlockTableRecord
  2
*Model_Space
340
22
  0
BLOCK_RECORD
  5
1B
330
1
100
AcDbSymbolTableRecord
100
AcDbBlockTableRecord
  2
*Paper_Space
340
1E
  0
BLOCK_RECORD
  5
23
330
1
100
AcDbSymbolTableRecord
100
AcDbBlockTableRecord
  2
*Paper_Space0
340
26
  0
BLOCK_RECORD
  5
49
330
1
100
AcDbSymbolTableRecord
100
AcDbBlockTableRecord
  2
Block5
340
0
102
{BLKREFS
331
100
102
}
  0
BLOCK_RECORD
  5
54
330
1
100
AcDbSymbolTableRecord
100
AcDbBlockTableRecord
  2
Block6
340
0
102
{BLKREFS
331
101
102
}
  0
BLOCK_RECORD
  5
B1
330
1
100
AcDbSymbolTableRecord
100
AcDbBlockTableRecord
  2
Block4_2
340
0
102
{BLKREFS
331
102
102
}
  0
BLOCK_RECORD
  5
115
330
1
100
AcDbSymbolTableRecord
100
AcDbBlockTableRecord
  2
SW_NOTE_0
340
0
102
{BLKREFS
331
11D
102
}
  0
BLOCK_RECORD
  5
122
330
1
100
AcDbSymbolTableRecord
100
AcDbBlockTableRecord
  2
SW_NOTE_1
340
0
102
{BLKREFS
331
129
102
}
  0
BLOCK_RECORD
  5
134
330
1
100
AcDbSymbolTableRecord
100
AcDbBlockTableRecord
  2
SW_NOTE_2
340
0
102
{BLKREFS
331
13D
102
}
  0
BLOCK_RECORD
  5
148
330
1
100
AcDbSymbolTableRecord
100
AcDbBlockTableRecord
  2
*D7
340
0
  0
BLOCK_RECORD
  5
152
330
1
100
AcDbSymbolTableRecord
100
AcDbBlockTableRecord
  2
*D8
340
0
  0
BLOCK_RECORD
  5
15D
330
1
100
AcDbSymbolTableRecord
100
AcDbBlockTableRecord
  2
*D9
340
0
  0
BLOCK_RECORD
  5
167
330
1
100
AcDbSymbolTableRecord
100
AcDbBlockTableRecord
  2
*D10
340
0
  0
BLOCK_RECORD
  5
172
330
1
100
AcDbSymbolTableRecord
100
AcDbBlockTableRecord
  2
_NONE
340
0
  0
BLOCK_RECORD
  5
175
330
1
100
AcDbSymbolTableRecord
100
AcDbBlockTableRecord
  2
*D12
340
0
  0
BLOCK_RECORD
  5
17E
330
1
100
AcDbSymbolTableRecord
100
AcDbBlockTableRecord
  2
SW_CENTERMARKSYMBOL_0
340
0
102
{BLKREFS
331
189
102
}
  0
BLOCK_RECORD
  5
18A
330
1
100
AcDbSymbolTableRecord
100
AcDbBlockTableRecord
  2
SW_CENTERMARKSYMBOL_1
340
0
102
{BLKREFS
331
195
102
}
  0
BLOCK_RECORD
  5
196
330
1
100
AcDbSymbolTableRecord
100
AcDbBlockTableRecord
  2
SW_CENTERMARKSYMBOL_2
340
0
102
{BLKREFS
331
1A1
102
}
  0
BLOCK_RECORD
  5
1A2
330
1
100
AcDbSymbolTableRecord
100
AcDbBlockTableRecord
  2
SW_CENTERMARKSYMBOL_3
340
0
102
{BLKREFS
331
1AD
102
}
  0
BLOCK_RECORD
  5
1B4
330
1
100
AcDbSymbolTableRecord
100
AcDbBlockTableRecord
  2
*D17
340
0
  0
ENDTAB
  0
ENDSEC
  0
SECTION
  2
BLOCKS
  0
BLOCK
  5
20
330
1F
100
AcDbEntity
  8
0
100
AcDbBlockBegin
  2
*Model_Space
 70
     0
 10
0.0
 20
0.0
 30
0.0
  3
*Model_Space
  1

  0
ENDBLK
  5
21
330
1F
100
AcDbEntity
  8
0
100
AcDbBlockEnd
  0
BLOCK
  5
1C
330
1B
100
AcDbEntity
 67
     1
  8
0
100
AcDbBlockBegin
  2
*Paper_Space
 70
     0
 10
0.0
 20
0.0
 30
0.0
  3
*Paper_Space
  1

  0
ENDBLK
  5
1D
330
1B
100
AcDbEntity
 67
     1
  8
0
100
AcDbBlockEnd
  0
BLOCK
  5
24
330
23
100
AcDbEntity
  8
0
100
AcDbBlockBegin
  2
*Paper_Space0
 70
     0
 10
0.0
 20
0.0
 30
0.0
  3
*Paper_Space0
  1

  0
ENDBLK
  5
25
330
23
100
AcDbEntity
  8
0
100
AcDbBlockEnd
  0
BLOCK
  5
4A
330
49
100
AcDbEntity
  8
0
100
AcDbBlockBegin
  2
Block5
 70
     0
 10
0.0
 20
0.0
 30
0.0
  3
Block5
  1

  0
CIRCLE
  5
4C
330
49
100
AcDbEntity
  8
LAYER_1
100
AcDbCircle
 10
11.8202720118
 20
3.9855728122
 30
0.0
 40
1.400000000000031
  0
CIRCLE
  5
4D
330
49
100
AcDbEntity
  8
LAYER_1
100
AcDbCircle
 10
11.8202720118
 20
3.9855728122
 30
0.0
 40
3.400000000000028
  0
LINE
  5
4E
330
49
100
AcDbEntity
  8
LAYER_1
100
AcDbLine
 10
0.0
 20
4.0266952847
 30
0.0
 11
15.8776569467
 21
4.0266952847
 31
0.0
  0
LINE
  5
4F
330
49
100
AcDbEntity
  8
LAYER_1
100
AcDbLine
 10
6.7934234199
 20
7.3359236059
 30
0.0
 11
6.7934234199
 21
0.5359236059
 31
0.0
  0
LINE
  5
50
330
49
100
AcDbEntity
  8
LAYER_1
100
AcDbLine
 10
1.0125475392
 20
5.3359236059
 30
0.0
 11
1.0125475392
 21
2.5359236059
 31
0.0
  0
LINE
  5
51
330
49
100
AcDbEntity
  8
LAYER_1
100
AcDbLine
 10
1.0125475392
 20
2.5359236059
 30
0.0
 11
6.7934234199
 21
0.5359236059
 31
0.0
  0
LINE
  5
52
330
49
100
AcDbEntity
  8
LAYER_1
100
AcDbLine
 10
6.7934234199
 20
7.3359236059
 30
0.0
 11
1.0125475392
 21
5.3359236059
 31
0.0
  0
LINE
  5
53
330
49
100
AcDbEntity
  8
LAYER_1
100
AcDbLine
 10
11.8202720118
 20
8.1865819926
 30
0.0
 11
11.8202720118
 21
0.0
 31
0.0
  0
ENDBLK
  5
4B
330
49
100
AcDbEntity
  8
0
100
AcDbBlockEnd
  0
BLOCK
  5
55
330
54
100
AcDbEntity
  8
0
100
AcDbBlockBegin
  2
Block6
 70
     0
 10
0.0
 20
0.0
 30
0.0
  3
Block6
  1

  0
LINE
  5
57
330
54
100
AcDbEntity
  8
LAYER_1
 62
   250
100
AcDbLine
 10
24.9996066667
 20
0.0
 30
0.0
 11
26.2681466667
 21
4.35981
 31
0.0
  0
LINE
  5
58
330
54
100
AcDbEntity
  8
LAYER_1
 62
   250
100
AcDbLine
 10
26.2681466667
 20
4.35981
 30
0.0
 11
27.4404866667
 21
4.35981
 31
0.0
  0
LINE
  5
59
330
54
100
AcDbEntity
  8
LAYER_1
 62
   250
100
AcDbLine
 10
27.4404866667
 20
4.35981
 30
0.0
 11
28.7082033333
 21
0.0
 31
0.0
  0
LINE
  5
5A
330
54
100
AcDbEntity
  8
LAYER_1
 62
   250
100
AcDbLine
 10
28.7082033333
 20
0.0
 30
0.0
 11
27.56
 21
0.0
 31
0.0
  0
LINE
  5
5B
330
54
100
AcDbEntity
  8
LAYER_1
 62
   250
100
AcDbLine
 10
27.56
 20
0.0
 30
0.0
 11
27.4255366667
 21
0.5769833333
 31
0.0
  0
LINE
  5
5C
330
54
100
AcDbEntity
  8
LAYER_1
 62
   250
100
AcDbLine
 10
27.4255366667
 20
0.5769833333
 30
0.0
 11
26.27716
 21
0.5769833333
 31
0.0
  0
LINE
  5
5D
330
54
100
AcDbEntity
  8
LAYER_1
 62
   250
100
AcDbLine
 10
26.27716
 20
0.5769833333
 30
0.0
 11
26.1376266667
 21
0.0
 31
0.0
  0
LINE
  5
5E
330
54
100
AcDbEntity
  8
LAYER_1
 62
   250
100
AcDbLine
 10
26.1376266667
 20
0.0
 30
0.0
 11
24.9996066667
 21
0.0
 31
0.0
  0
LINE
  5
5F
330
54
100
AcDbEntity
  8
LAYER_1
 62
   250
100
AcDbLine
 10
26.48776
 20
1.4914466667
 30
0.0
 11
27.2148066667
 21
1.4914466667
 31
0.0
  0
LINE
  5
60
330
54
100
AcDbEntity
  8
LAYER_1
 62
   250
100
AcDbLine
 10
27.2148066667
 20
1.4914466667
 30
0.0
 11
26.8553566667
 21
3.00079
 31
0.0
  0
LINE
  5
61
330
54
100
AcDbEntity
  8
LAYER_1
 62
   250
100
AcDbLine
 10
26.8553566667
 20
3.00079
 30
0.0
 11
26.48776
 21
1.4914466667
 31
0.0
  0
LINE
  5
62
330
54
100
AcDbEntity
  8
LAYER_1
 62
   250
100
AcDbLine
 10
23.2651466667
 20
0.0
 30
0.0
 11
23.2651466667
 21
1.6134733333
 31
0.0
  0
LINE
  5
63
330
54
100
AcDbEntity
  8
LAYER_1
 62
   250
100
AcDbLine
 10
23.2651466667
 20
1.6134733333
 30
0.0
 11
21.93815
 21
4.35981
 31
0.0
  0
LINE
  5
64
330
54
100
AcDbEntity
  8
LAYER_1
 62
   250
100
AcDbLine
 10
21.93815
 20
4.35981
 30
0.0
 11
23.2209466667
 21
4.35981
 31
0.0
  0
LINE
  5
65
330
54
100
AcDbEntity
  8
LAYER_1
 62
   250
100
AcDbLine
 10
23.2209466667
 20
4.35981
 30
0.0
 11
23.84356
 21
2.87352
 31
0.0
  0
LINE
  5
66
330
54
100
AcDbEntity
  8
LAYER_1
 62
   250
100
AcDbLine
 10
23.84356
 20
2.87352
 30
0.0
 11
24.47042
 21
4.35981
 31
0.0
  0
LINE
  5
67
330
54
100
AcDbEntity
  8
LAYER_1
 62
   250
100
AcDbLine
 10
24.47042
 20
4.35981
 30
0.0
 11
25.71881
 21
4.35981
 31
0.0
  0
LINE
  5
68
330
54
100
AcDbEntity
  8
LAYER_1
 62
   250
100
AcDbLine
 10
25.71881
 20
4.35981
 30
0.0
 11
24.4234033333
 21
1.6134733333
 31
0.0
  0
LINE
  5
69
330
54
100
AcDbEntity
  8
LAYER_1
 62
   250
100
AcDbLine
 10
24.4234033333
 20
1.6134733333
 30
0.0
 11
24.4234033333
 21
0.0
 31
0.0
  0
LINE
  5
6A
330
54
100
AcDbEntity
  8
LAYER_1
 62
   250
100
AcDbLine
 10
24.4234033333
 20
0.0
 30
0.0
 11
23.2651466667
 21
0.0
 31
0.0
  0
LINE
  5
6B
330
54
100
AcDbEntity
  8
LAYER_1
 62
   250
100
AcDbLine
 10
18.94035
 20
0.0
 30
0.0
 11
20.2091066667
 21
4.35981
 31
0.0
  0
LINE
  5
6C
330
54
100
AcDbEntity
  8
LAYER_1
 62
   250
100
AcDbLine
 10
20.2091066667
 20
4.35981
 30
0.0
 11
21.38136
 21
4.35981
 31
0.0
  0
LINE
  5
6D
330
54
100
AcDbEntity
  8
LAYER_1
 62
   250
100
AcDbLine
 10
21.38136
 20
4.35981
 30
0.0
 11
22.64912
 21
0.0
 31
0.0
  0
LINE
  5
6E
330
54
100
AcDbEntity
  8
LAYER_1
 62
   250
100
AcDbLine
 10
22.64912
 20
0.0
 30
0.0
 11
21.50083
 21
0.0
 31
0.0
  0
LINE
  5
6F
330
54
100
AcDbEntity
  8
LAYER_1
 62
   250
100
AcDbLine
 10
21.50083
 20
0.0
 30
0.0
 11
21.36641
 21
0.5769833333
 31
0.0
  0
LINE
  5
70
330
54
100
AcDbEntity
  8
LAYER_1
 62
   250
100
AcDbLine
 10
21.36641
 20
0.5769833333
 30
0.0
 11
20.21799
 21
0.5769833333
 31
0.0
  0
LINE
  5
71
330
54
100
AcDbEntity
  8
LAYER_1
 62
   250
100
AcDbLine
 10
20.21799
 20
0.5769833333
 30
0.0
 11
20.07863
 21
0.0
 31
0.0
  0
LINE
  5
72
330
54
100
AcDbEntity
  8
LAYER_1
 62
   250
100
AcDbLine
 10
20.07863
 20
0.0
 30
0.0
 11
18.94035
 21
0.0
 31
0.0
  0
LINE
  5
73
330
54
100
AcDbEntity
  8
LAYER_1
 62
   250
100
AcDbLine
 10
20.4289366667
 20
1.4914466667
 30
0.0
 11
21.15594
 21
1.4914466667
 31
0.0
  0
LINE
  5
74
330
54
100
AcDbEntity
  8
LAYER_1
 62
   250
100
AcDbLine
 10
21.15594
 20
1.4914466667
 30
0.0
 11
20.79649
 21
3.00079
 31
0.0
  0
LINE
  5
75
330
54
100
AcDbEntity
  8
LAYER_1
 62
   250
100
AcDbLine
 10
20.79649
 20
3.00079
 30
0.0
 11
20.4289366667
 21
1.4914466667
 31
0.0
  0
LINE
  5
76
330
54
100
AcDbEntity
  8
LAYER_1
 62
   250
100
AcDbLine
 10
15.4246733333
 20
0.0
 30
0.0
 11
15.4246733333
 21
4.35981
 31
0.0
  0
LINE
  5
77
330
54
100
AcDbEntity
  8
LAYER_1
 62
   250
100
AcDbLine
 10
15.4246733333
 20
4.35981
 30
0.0
 11
16.5728333333
 21
4.35981
 31
0.0
  0
LINE
  5
78
330
54
100
AcDbEntity
  8
LAYER_1
 62
   250
100
AcDbLine
 10
16.5728333333
 20
4.35981
 30
0.0
 11
16.5728333333
 21
2.9150333333
 31
0.0
  0
LINE
  5
79
330
54
100
AcDbEntity
  8
LAYER_1
 62
   250
100
AcDbLine
 10
16.5728333333
 20
2.9150333333
 30
0.0
 11
17.6108833333
 21
4.35981
 31
0.0
  0
LINE
  5
7A
330
54
100
AcDbEntity
  8
LAYER_1
 62
   250
100
AcDbLine
 10
17.6108833333
 20
4.35981
 30
0.0
 11
18.9553433333
 21
4.35981
 31
0.0
  0
LINE
  5
7B
330
54
100
AcDbEntity
  8
LAYER_1
 62
   250
100
AcDbLine
 10
18.9553433333
 20
4.35981
 30
0.0
 11
17.6676066667
 21
2.75223
 31
0.0
  0
LINE
  5
7C
330
54
100
AcDbEntity
  8
LAYER_1
 62
   250
100
AcDbLine
 10
17.6676066667
 20
2.75223
 30
0.0
 11
19.1215266667
 21
0.0
 31
0.0
  0
LINE
  5
7D
330
54
100
AcDbEntity
  8
LAYER_1
 62
   250
100
AcDbLine
 10
19.1215266667
 20
0.0
 30
0.0
 11
17.7411
 21
0.0
 31
0.0
  0
LINE
  5
7E
330
54
100
AcDbEntity
  8
LAYER_1
 62
   250
100
AcDbLine
 10
17.7411
 20
0.0
 30
0.0
 11
16.8593966667
 21
1.7459
 31
0.0
  0
LINE
  5
7F
330
54
100
AcDbEntity
  8
LAYER_1
 62
   250
100
AcDbLine
 10
16.8593966667
 20
1.7459
 30
0.0
 11
16.5728333333
 21
1.38827
 31
0.0
  0
LINE
  5
80
330
54
100
AcDbEntity
  8
LAYER_1
 62
   250
100
AcDbLine
 10
16.5728333333
 20
1.38827
 30
0.0
 11
16.5728333333
 21
0.0
 31
0.0
  0
LINE
  5
81
330
54
100
AcDbEntity
  8
LAYER_1
 62
   250
100
AcDbLine
 10
16.5728333333
 20
0.0
 30
0.0
 11
15.4246733333
 21
0.0
 31
0.0
  0
LINE
  5
82
330
54
100
AcDbEntity
  8
LAYER_1
 62
   250
100
AcDbLine
 10
11.5248466667
 20
0.0
 30
0.0
 11
11.5248466667
 21
4.35981
 31
0.0
  0
LINE
  5
83
330
54
100
AcDbEntity
  8
LAYER_1
 62
   250
100
AcDbLine
 10
11.5248466667
 20
4.35981
 30
0.0
 11
12.6237366667
 21
4.35981
 31
0.0
  0
LINE
  5
84
330
54
100
AcDbEntity
  8
LAYER_1
 62
   250
100
AcDbLine
 10
12.6237366667
 20
4.35981
 30
0.0
 11
13.6350933333
 21
2.33181
 31
0.0
  0
LINE
  5
85
330
54
100
AcDbEntity
  8
LAYER_1
 62
   250
100
AcDbLine
 10
13.8163566667
 20
2.3027766667
 30
0.0
 11
13.8163566667
 21
4.35981
 31
0.0
  0
LINE
  5
86
330
54
100
AcDbEntity
  8
LAYER_1
 62
   250
100
AcDbLine
 10
13.8163566667
 20
4.35981
 30
0.0
 11
14.9203166667
 21
4.35981
 31
0.0
  0
LINE
  5
87
330
54
100
AcDbEntity
  8
LAYER_1
 62
   250
100
AcDbLine
 10
14.9203166667
 20
4.35981
 30
0.0
 11
14.9203166667
 21
0.0
 31
0.0
  0
LINE
  5
88
330
54
100
AcDbEntity
  8
LAYER_1
 62
   250
100
AcDbLine
 10
14.9203166667
 20
0.0
 30
0.0
 11
13.8163566667
 21
0.0
 31
0.0
  0
LINE
  5
89
330
54
100
AcDbEntity
  8
LAYER_1
 62
   250
100
AcDbLine
 10
13.8163566667
 20
0.0
 30
0.0
 11
12.805
 21
2.0127466667
 31
0.0
  0
LINE
  5
8A
330
54
100
AcDbEntity
  8
LAYER_1
 62
   250
100
AcDbLine
 10
12.6237366667
 20
2.0419533333
 30
0.0
 11
12.6237366667
 21
0.0
 31
0.0
  0
LINE
  5
8B
330
54
100
AcDbEntity
  8
LAYER_1
 62
   250
100
AcDbLine
 10
12.6237366667
 20
0.0
 30
0.0
 11
11.5248466667
 21
0.0
 31
0.0
  0
LINE
  5
8C
330
54
100
AcDbEntity
  8
LAYER_1
 62
   250
100
AcDbLine
 10
9.8223666667
 20
0.0
 30
0.0
 11
9.8223666667
 21
4.35981
 31
0.0
  0
LINE
  5
8D
330
54
100
AcDbEntity
  8
LAYER_1
 62
   250
100
AcDbLine
 10
9.8223666667
 20
4.35981
 30
0.0
 11
11.0021166667
 21
4.35981
 31
0.0
  0
LINE
  5
8E
330
54
100
AcDbEntity
  8
LAYER_1
 62
   250
100
AcDbLine
 10
11.0021166667
 20
4.35981
 30
0.0
 11
11.0021166667
 21
0.0
 31
0.0
  0
LINE
  5
8F
330
54
100
AcDbEntity
  8
LAYER_1
 62
   250
100
AcDbLine
 10
11.0021166667
 20
0.0
 30
0.0
 11
9.8223666667
 21
0.0
 31
0.0
  0
LINE
  5
90
330
54
100
AcDbEntity
  8
LAYER_1
 62
   250
100
AcDbLine
 10
7.23138
 20
0.0
 30
0.0
 11
7.23138
 21
3.2110433333
 31
0.0
  0
LINE
  5
91
330
54
100
AcDbEntity
  8
LAYER_1
 62
   250
100
AcDbLine
 10
7.23138
 20
3.2110433333
 30
0.0
 11
6.19346
 21
3.2110433333
 31
0.0
  0
LINE
  5
92
330
54
100
AcDbEntity
  8
LAYER_1
 62
   250
100
AcDbLine
 10
6.19346
 20
3.2110433333
 30
0.0
 11
6.19346
 21
4.35981
 31
0.0
  0
LINE
  5
93
330
54
100
AcDbEntity
  8
LAYER_1
 62
   250
100
AcDbLine
 10
6.19346
 20
4.35981
 30
0.0
 11
9.40576
 21
4.35981
 31
0.0
  0
LINE
  5
94
330
54
100
AcDbEntity
  8
LAYER_1
 62
   250
100
AcDbLine
 10
9.40576
 20
4.35981
 30
0.0
 11
9.40576
 21
3.2110433333
 31
0.0
  0
LINE
  5
95
330
54
100
AcDbEntity
  8
LAYER_1
 62
   250
100
AcDbLine
 10
9.40576
 20
3.2110433333
 30
0.0
 11
8.3895933333
 21
3.2110433333
 31
0.0
  0
LINE
  5
96
330
54
100
AcDbEntity
  8
LAYER_1
 62
   250
100
AcDbLine
 10
8.3895933333
 20
3.2110433333
 30
0.0
 11
8.3895933333
 21
0.0
 31
0.0
  0
LINE
  5
97
330
54
100
AcDbEntity
  8
LAYER_1
 62
   250
100
AcDbLine
 10
8.3895933333
 20
0.0
 30
0.0
 11
7.23138
 21
0.0
 31
0.0
  0
LINE
  5
98
330
54
100
AcDbEntity
  8
LAYER_1
 62
   250
100
AcDbLine
 10
4.0396633333
 20
0.0
 30
0.0
 11
4.0396633333
 21
4.35981
 31
0.0
  0
LINE
  5
99
330
54
100
AcDbEntity
  8
LAYER_1
 62
   250
100
AcDbLine
 10
4.0396633333
 20
4.35981
 30
0.0
 11
5.1978766667
 21
4.35981
 31
0.0
  0
LINE
  5
9A
330
54
100
AcDbEntity
  8
LAYER_1
 62
   250
100
AcDbLine
 10
5.1978766667
 20
4.35981
 30
0.0
 11
5.1978766667
 21
1.15791
 31
0.0
  0
LINE
  5
9B
330
54
100
AcDbEntity
  8
LAYER_1
 62
   250
100
AcDbLine
 10
5.1978766667
 20
1.15791
 30
0.0
 11
6.7722633333
 21
1.15791
 31
0.0
  0
LINE
  5
9C
330
54
100
AcDbEntity
  8
LAYER_1
 62
   250
100
AcDbLine
 10
6.7722633333
 20
1.15791
 30
0.0
 11
6.7722633333
 21
0.0
 31
0.0
  0
LINE
  5
9D
330
54
100
AcDbEntity
  8
LAYER_1
 62
   250
100
AcDbLine
 10
6.7722633333
 20
0.0
 30
0.0
 11
4.0396633333
 21
0.0
 31
0.0
  0
LINE
  5
9E
330
54
100
AcDbEntity
  8
LAYER_1
 62
   250
100
AcDbLine
 10
0.0
 20
0.0
 30
0.0
 11
1.26854
 21
4.35981
 31
0.0
  0
LINE
  5
9F
330
54
100
AcDbEntity
  8
LAYER_1
 62
   250
100
AcDbLine
 10
1.26854
 20
4.35981
 30
0.0
 11
2.4410966667
 21
4.35981
 31
0.0
  0
LINE
  5
A0
330
54
100
AcDbEntity
  8
LAYER_1
 62
   250
100
AcDbLine
 10
2.4410966667
 20
4.35981
 30
0.0
 11
3.7088133333
 21
0.0
 31
0.0
  0
LINE
  5
A1
330
54
100
AcDbEntity
  8
LAYER_1
 62
   250
100
AcDbLine
 10
3.7088133333
 20
0.0
 30
0.0
 11
2.5605233333
 21
0.0
 31
0.0
  0
LINE
  5
A2
330
54
100
AcDbEntity
  8
LAYER_1
 62
   250
100
AcDbLine
 10
2.5605233333
 20
0.0
 30
0.0
 11
2.4260166667
 21
0.5769833333
 31
0.0
  0
LINE
  5
A3
330
54
100
AcDbEntity
  8
LAYER_1
 62
   250
100
AcDbLine
 10
2.4260166667
 20
0.5769833333
 30
0.0
 11
1.27777
 21
0.5769833333
 31
0.0
  0
LINE
  5
A4
330
54
100
AcDbEntity
  8
LAYER_1
 62
   250
100
AcDbLine
 10
1.27777
 20
0.5769833333
 30
0.0
 11
1.1383233333
 21
0.0
 31
0.0
  0
LINE
  5
A5
330
54
100
AcDbEntity
  8
LAYER_1
 62
   250
100
AcDbLine
 10
1.1383233333
 20
0.0
 30
0.0
 11
0.0
 21
0.0
 31
0.0
  0
LINE
  5
A6
330
54
100
AcDbEntity
  8
LAYER_1
 62
   250
100
AcDbLine
 10
1.48824
 20
1.4914466667
 30
0.0
 11
2.21533
 21
1.4914466667
 31
0.0
  0
LINE
  5
A7
330
54
100
AcDbEntity
  8
LAYER_1
 62
   250
100
AcDbLine
 10
2.21533
 20
1.4914466667
 30
0.0
 11
1.8562266667
 21
3.00079
 31
0.0
  0
LINE
  5
A8
330
54
100
AcDbEntity
  8
LAYER_1
 62
   250
100
AcDbLine
 10
1.8562266667
 20
3.00079
 30
0.0
 11
1.48824
 21
1.4914466667
 31
0.0
  0
SPLINE
  5
A9
330
54
100
AcDbEntity
  8
LAYER_1
 62
   250
100
AcDbSpline
210
0.0
220
0.0
230
1.0
 70
     8
 71
     3
 72
     8
 73
     4
 74
     0
 42
0.00000001
 43
0.00000001
 40
0.1666666666666667
 40
0.1666666666666667
 40
0.1666666666666667
 40
0.1666666666666667
 40
0.2222222222222222
 40
0.2222222222222222
 40
0.2222222222222222
 40
0.2222222222222222
 10
13.63509333333335
 20
2.331810000000011
 30
0.0
 10
13.66599000000002
 20
2.275390000000009
 30
0.0
 10
13.69931333333335
 20
2.194486666666683
 30
0.0
 10
13.73441333333336
 20
2.089576666666683
 30
0.0
  0
SPLINE
  5
AA
330
54
100
AcDbEntity
  8
LAYER_1
 62
   250
100
AcDbSpline
210
0.0
220
0.0
230
1.0
 70
     8
 71
     3
 72
     8
 73
     4
 74
     0
 42
0.00000001
 43
0.00000001
 40
0.2222222222222222
 40
0.2222222222222222
 40
0.2222222222222222
 40
0.2222222222222222
 40
0.2777777777777778
 40
0.2777777777777778
 40
0.2777777777777778
 40
0.2777777777777778
 10
13.73441333333336
 20
2.089576666666683
 30
0.0
 10
13.76947000000001
 20
1.985403333333344
 30
0.0
 10
13.80613000000003
 20
1.859043333333338
 30
0.0
 10
13.84569333333335
 20
1.710670000000011
 30
0.0
  0
SPLINE
  5
AB
330
54
100
AcDbEntity
  8
LAYER_1
 62
   250
100
AcDbSpline
210
0.0
220
0.0
230
1.0
 70
     8
 71
     3
 72
     8
 73
     4
 74
     0
 42
0.00000001
 43
0.00000001
 40
0.2777777777777778
 40
0.2777777777777778
 40
0.2777777777777778
 40
0.2777777777777778
 40
0.3333333333333334
 40
0.3333333333333334
 40
0.3333333333333334
 40
0.3333333333333334
 10
13.84569333333335
 20
1.710670000000011
 30
0.0
 10
13.83555333333336
 20
1.787543333333343
 30
0.0
 10
13.82879333333337
 20
1.872173333333345
 30
0.0
 10
13.82381000000005
 20
1.965080000000015
 30
0.0
  0
SPLINE
  5
AC
330
54
100
AcDbEntity
  8
LAYER_1
 62
   250
100
AcDbSpline
210
0.0
220
0.0
230
1.0
 70
     8
 71
     3
 72
     8
 73
     4
 74
     0
 42
0.00000001
 43
0.00000001
 40
0.3333333333333334
 40
0.3333333333333334
 40
0.3333333333333334
 40
0.3333333333333334
 40
0.388888888888889
 40
0.388888888888889
 40
0.388888888888889
 40
0.388888888888889
 10
13.82381000000005
 20
1.965080000000015
 30
0.0
 10
13.81886999999998
 20
2.058246666666673
 30
0.0
 10
13.8163566666667
 20
2.170263333333346
 30
0.0
 10
13.8163566666667
 20
2.30277666666668
 30
0.0
  0
SPLINE
  5
AD
330
54
100
AcDbEntity
  8
LAYER_1
 62
   250
100
AcDbSpline
210
0.0
220
0.0
230
1.0
 70
     8
 71
     3
 72
     8
 73
     4
 74
     0
 42
0.00000001
 43
0.00000001
 40
0.6666666666666669
 40
0.6666666666666669
 40
0.6666666666666669
 40
0.6666666666666669
 40
0.7222222222222224
 40
0.7222222222222224
 40
0.7222222222222224
 40
0.7222222222222224
 10
12.80500000000001
 20
2.012746666666676
 30
0.0
 10
12.77419000000002
 20
2.072330000000004
 30
0.0
 10
12.74004333333334
 20
2.156093333333345
 30
0.0
 10
12.70321000000002
 20
2.264340000000018
 30
0.0
  0
SPLINE
  5
AE
330
54
100
AcDbEntity
  8
LAYER_1
 62
   250
100
AcDbSpline
210
0.0
220
0.0
230
1.0
 70
     8
 71
     3
 72
     8
 73
     4
 74
     0
 42
0.00000001
 43
0.00000001
 40
0.7222222222222224
 40
0.7222222222222224
 40
0.7222222222222224
 40
0.7222222222222224
 40
0.777777777777778
 40
0.777777777777778
 40
0.777777777777778
 40
0.777777777777778
 10
12.70321000000002
 20
2.264340000000018
 30
0.0
 10
12.66620333333335
 20
2.372543333333345
 30
0.0
 10
12.62954333333333
 20
2.49665000000001
 30
0.0
 10
12.59206000000002
 20
2.637050000000009
 30
0.0
  0
SPLINE
  5
AF
330
54
100
AcDbEntity
  8
LAYER_1
 62
   250
100
AcDbSpline
210
0.0
220
0.0
230
1.0
 70
     8
 71
     3
 72
     8
 73
     4
 74
     0
 42
0.00000001
 43
0.00000001
 40
0.777777777777778
 40
0.777777777777778
 40
0.777777777777778
 40
0.777777777777778
 40
0.8333333333333336
 40
0.8333333333333336
 40
0.8333333333333336
 40
0.8333333333333336
 10
12.59206000000002
 20
2.637050000000009
 30
0.0
 10
12.60367333333334
 20
2.560350000000017
 30
0.0
 10
12.61117
 20
2.479446666666676
 30
0.0
 10
12.61615333333338
 20
2.395553333333349
 30
0.0
  0
SPLINE
  5
B0
330
54
100
AcDbEntity
  8
LAYER_1
 62
   250
100
AcDbSpline
210
0.0
220
0.0
230
1.0
 70
     8
 71
     3
 72
     8
 73
     4
 74
     0
 42
0.00000001
 43
0.00000001
 40
0.8333333333333336
 40
0.8333333333333336
 40
0.8333333333333336
 40
0.8333333333333336
 40
0.8888888888888892
 40
0.8888888888888892
 40
0.8888888888888892
 40
0.8888888888888892
 10
12.61615333333338
 20
2.395553333333349
 30
0.0
 10
12.62122333333332
 20
2.311746666666677
 30
0.0
 10
12.62373666666672
 20
2.194486666666683
 30
0.0
 10
12.62373666666672
 20
2.041953333333346
 30
0.0
  0
ENDBLK
  5
56
330
54
100
AcDbEntity
  8
0
100
AcDbBlockEnd
  0
BLOCK
  5
B2
330
B1
100
AcDbEntity
  8
0
100
AcDbBlockBegin
  2
Block4_2
 70
     0
 10
0.0
 20
0.0
 30
0.0
  3
Block4_2
  1

  0
MTEXT
  5
B5
330
B1
100
AcDbEntity
  8
0
  6
Continuous
 62
     7
370
     0
100
AcDbMText
 10
0.0681123653
 20
1.3698042505
 30
0.0
 40
1.3229166667
 41
0.0
 71
     1
 72
     1
  1
ENCLOSURES FOR ELECTRONICS
  7
SLDTEXTSTYLE0
 73
     1
 44
1.0
  0
ENDBLK
  5
B3
330
B1
100
AcDbEntity
  8
0
100
AcDbBlockEnd
  0
BLOCK
  5
116
330
115
100
AcDbEntity
  8
0
100
AcDbBlockBegin
  2
SW_NOTE_0
 70
     0
 10
0.0
 20
0.0
 30
0.0
  3
SW_NOTE_0
  1

  0
MTEXT
  5
118
330
115
100
AcDbEntity
  8
LAYER_1
 62
     0
100
AcDbMText
 10
0.0
 20
1.3642633579
 30
0.0
 40
1.0583333333
 41
0.0
 71
     1
 72
     1
  1
THE INFORMATION CONTAINED IN THIS DRAWING IS
  7
SLDTEXTSTYLE1
 73
     1
 44
1.0
  0
MTEXT
  5
119
330
115
100
AcDbEntity
  8
LAYER_1
 62
     0
100
AcDbMText
 10
0.0
 20
-0.0468477361
 30
0.0
 40
1.0583333333
 41
0.0
 71
     1
 72
     1
  1
THE SOLE PROPERTY OF ALTINKAYA ENCLOSURES.
  7
SLDTEXTSTYLE1
 73
     1
 44
1.0
  0
MTEXT
  5
11A
330
115
100
AcDbEntity
  8
LAYER_1
 62
     0
100
AcDbMText
 10
0.0
 20
-1.4579588302
 30
0.0
 40
1.0583333333
 41
0.0
 71
     1
 72
     1
  1
ANY REPRODUCTION IN PART OR AS A WHOLE
  7
SLDTEXTSTYLE1
 73
     1
 44
1.0
  0
MTEXT
  5
11B
330
115
100
AcDbEntity
  8
LAYER_1
 62
     0
100
AcDbMText
 10
0.0
 20
-2.8690699242
 30
0.0
 40
1.0583333333
 41
0.0
 71
     1
 72
     1
  1
WITHOUT THE WRITTEN PERMISSION OF ALTINKAYA
  7
SLDTEXTSTYLE1
 73
     1
 44
1.0
  0
MTEXT
  5
11C
330
115
100
AcDbEntity
  8
LAYER_1
 62
     0
100
AcDbMText
 10
0.0
 20
-4.2801810183
 30
0.0
 40
1.0583333333
 41
0.0
 71
     1
 72
     1
  1
ENCLOSURES IS PROHIBITED.
  7
SLDTEXTSTYLE1
 73
     1
 44
1.0
  0
ENDBLK
  5
117
330
115
100
AcDbEntity
  8
0
100
AcDbBlockEnd
  0
BLOCK
  5
123
330
122
100
AcDbEntity
  8
0
100
AcDbBlockBegin
  2
SW_NOTE_1
 70
     0
 10
0.0
 20
0.0
 30
0.0
  3
SW_NOTE_1
  1

  0
MTEXT
  5
125
330
122
100
AcDbEntity
  8
LAYER_1
 62
     0
100
AcDbMText
 10
0.0
 20
1.7053291974
 30
0.0
 40
1.3229166667
 41
0.0
 71
     1
 72
     1
  1
COMMENTS: This drawing is subject to technical modification without
  7
SLDTEXTSTYLE1
 73
     1
 44
1.0
  0
MTEXT
  5
126
330
122
100
AcDbEntity
  8
LAYER_1
 62
     0
100
AcDbMText
 10
0.0
 20
-0.0585596702
 30
0.0
 40
1.3229166667
 41
0.0
 71
     1
 72
     1
  1
prior notice. Typographical and other errors do not justify any claims for
  7
SLDTEXTSTYLE1
 73
     1
 44
1.0
  0
MTEXT
  5
127
330
122
100
AcDbEntity
  8
LAYER_1
 62
     0
100
AcDbMText
 10
0.0
 20
-1.8224485377
 30
0.0
 40
1.3229166667
 41
0.0
 71
     1
 72
     1
  1
damages. All dimensions should be verified using an actual produced
  7
SLDTEXTSTYLE1
 73
     1
 44
1.0
  0
MTEXT
  5
128
330
122
100
AcDbEntity
  8
LAYER_1
 62
     0
100
AcDbMText
 10
0.0
 20
-3.5863374053
 30
0.0
 40
1.3229166667
 41
0.0
 71
     1
 72
     1
  1
part.
  7
SLDTEXTSTYLE1
 73
     1
 44
1.0
  0
ENDBLK
  5
124
330
122
100
AcDbEntity
  8
0
100
AcDbBlockEnd
  0
BLOCK
  5
135
330
134
100
AcDbEntity
  8
0
100
AcDbBlockBegin
  2
SW_NOTE_2
 70
     0
 10
0.0
 20
0.0
 30
0.0
  3
SW_NOTE_2
  1

  0
MTEXT
  5
137
330
134
100
AcDbEntity
  8
LAYER_1
 62
     0
100
AcDbMText
 10
0.0
 20
1.3642633579
 30
0.0
 40
1.0583333333
 41
0.0
 71
     1
 72
     1
  1
DÝKKAT: BU RESÝM VE ÜRÜN ÖNCEDEN HABER VERÝLMEKSÝZÝN DEÐÝÞTÝREBÝLÝR.
  7
SLDTEXTSTYLE3
 73
     1
 44
1.0
  0
MTEXT
  5
138
330
134
100
AcDbEntity
  8
LAYER_1
 62
     0
100
AcDbMText
 10
0.0
 20
-0.0468477361
 30
0.0
 40
1.0583333333
 41
0.0
 71
     1
 72
     1
  1
RESÝM ÇÝZÝLÝRKEN HATASIZ OLMASINA ÇALIÞILMASINA RAÐMEN RESÝMDE
  7
SLDTEXTSTYLE3
 73
     1
 44
1.0
  0
MTEXT
  5
139
330
134
100
AcDbEntity
  8
LAYER_1
 62
     0
100
AcDbMText
 10
0.0
 20
-1.4579588302
 30
0.0
 40
1.0583333333
 41
0.0
 71
     1
 72
     1
  1
HATALAR BULUNABÝLÝR. RESÝMDEKÝ HATALARDAN DOLAYI OLUÞABÝLECEK
  7
SLDTEXTSTYLE3
 73
     1
 44
1.0
  0
MTEXT
  5
13A
330
134
100
AcDbEntity
  8
LAYER_1
 62
     0
100
AcDbMText
 10
0.0
 20
-2.8690699242
 30
0.0
 40
1.0583333333
 41
0.0
 71
     1
 72
     1
  1
ZARARLAR ÝÇÝN ALTINKAYA HÝÇ BÝR SORUMLULUK KABUL ETMEZ. BÜTÜN
  7
SLDTEXTSTYLE3
 73
     1
 44
1.0
  0
MTEXT
  5
13B
330
134
100
AcDbEntity
  8
LAYER_1
 62
     0
100
AcDbMText
 10
0.0
 20
-4.2801810183
 30
0.0
 40
1.0583333333
 41
0.0
 71
     1
 72
     1
  1
ÖLÇÜLER KULLANILMADAN ÖNCE ÜRETÝLMÝÞ GERÖEK NUMUNEDEN
  7
SLDTEXTSTYLE3
 73
     1
 44
1.0
  0
MTEXT
  5
13C
330
134
100
AcDbEntity
  8
LAYER_1
 62
     0
100
AcDbMText
 10
0.0
 20
-5.6912921124
 30
0.0
 40
1.0583333333
 41
0.0
 71
     1
 72
     1
  1
KONTROL EDÝLMELÝDÝR.
  7
SLDTEXTSTYLE3
 73
     1
 44
1.0
  0
ENDBLK
  5
136
330
134
100
AcDbEntity
  8
0
100
AcDbBlockEnd
  0
BLOCK
  5
149
330
148
100
AcDbEntity
  8
0
100
AcDbBlockBegin
  2
*D7
 70
     1
 10
0.0
 20
0.0
 30
0.0
  3
*D7
  1

  0
SOLID
  5
14B
330
148
100
AcDbEntity
  8
LAYER_1
100
AcDbTrace
 10
50.8613289037
 20
166.0093355482
 30
0.0
 11
54.1633289037
 21
165.5013355482
 31
0.0
 12
54.1633289037
 22
166.5173355482
 32
0.0
 13
54.1633289037
 23
166.5173355482
 33
0.0
  0
SOLID
  5
14C
330
148
100
AcDbEntity
  8
LAYER_1
100
AcDbTrace
 10
142.8613289037
 20
166.0093355482
 30
0.0
 11
139.5593289037
 21
166.5173355482
 31
0.0
 12
139.5593289037
 22
165.5013355482
 32
0.0
 13
139.5593289037
 23
165.5013355482
 33
0.0
  0
LINE
  5
14D
330
148
100
AcDbEntity
  8
LAYER_1
100
AcDbLine
 10
50.8613289037
 20
175.0093355482
 30
0.0
 11
50.8613289037
 21
165.0093355482
 31
0.0
  0
LINE
  5
14E
330
148
100
AcDbEntity
  8
LAYER_1
100
AcDbLine
 10
142.8613289037
 20
175.0093355482
 30
0.0
 11
142.8613289037
 21
165.0093355482
 31
0.0
  0
LINE
  5
14F
330
148
100
AcDbEntity
  8
LAYER_1
100
AcDbLine
 10
50.8613289037
 20
166.0093355482
 30
0.0
 11
142.8613289037
 21
166.0093355482
 31
0.0
  0
MTEXT
  5
150
330
148
100
AcDbEntity
  8
LAYER_1
100
AcDbMText
 10
91.5985253468
 20
170.5210724628
 30
-0.7
 40
3.5
 41
0.0
 71
     1
 72
     1
  1
92
  7
SLDTEXTSTYLE2
 73
     1
 44
1.0
  0
ENDBLK
  5
14A
330
148
100
AcDbEntity
  8
0
100
AcDbBlockEnd
  0
BLOCK
  5
153
330
152
100
AcDbEntity
  8
0
100
AcDbBlockBegin
  2
*D8
 70
     1
 10
0.0
 20
0.0
 30
0.0
  3
*D8
  1

  0
SOLID
  5
155
330
152
100
AcDbEntity
  8
LAYER_1
100
AcDbTrace
 10
44.277807309
 20
228.0093355482
 30
0.0
 11
43.769807309
 21
224.7073355482
 31
0.0
 12
44.785807309
 22
224.7073355482
 32
0.0
 13
44.785807309
 23
224.7073355482
 33
0.0
  0
SOLID
  5
156
330
152
100
AcDbEntity
  8
LAYER_1
100
AcDbTrace
 10
44.277807309
 20
176.0093355482
 30
0.0
 11
44.785807309
 21
179.3113355482
 31
0.0
 12
43.769807309
 22
179.3113355482
 32
0.0
 13
43.769807309
 23
179.3113355482
 33
0.0
  0
LINE
  5
157
330
152
100
AcDbEntity
  8
LAYER_1
100
AcDbLine
 10
49.8613289037
 20
228.0093355482
 30
0.0
 11
43.277807309
 21
228.0093355482
 31
0.0
  0
LINE
  5
158
330
152
100
AcDbEntity
  8
LAYER_1
100
AcDbLine
 10
49.8613289037
 20
176.0093355482
 30
0.0
 11
43.277807309
 21
176.0093355482
 31
0.0
  0
LINE
  5
159
330
152
100
AcDbEntity
  8
LAYER_1
100
AcDbLine
 10
44.277807309
 20
228.0093355482
 30
0.0
 11
44.277807309
 21
176.0093355482
 31
0.0
  0
MTEXT
  5
15A
330
152
100
AcDbEntity
  8
LAYER_1
100
AcDbMText
 10
39.7660703944
 20
196.6594223568
 30
-0.7
 40
3.5
 41
0.0
 71
     1
 72
     1
  1
52
  7
SLDTEXTSTYLE2
 11
-7.044195017643634E-15
 21
1.0
 31
0.0
 73
     1
 44
1.0
  0
ENDBLK
  5
154
330
152
100
AcDbEntity
  8
0
100
AcDbBlockEnd
  0
BLOCK
  5
15E
330
15D
100
AcDbEntity
  8
0
100
AcDbBlockBegin
  2
*D9
 70
     1
 10
0.0
 20
0.0
 30
0.0
  3
*D9
  1

  0
SOLID
  5
160
330
15D
100
AcDbEntity
  8
LAYER_1
100
AcDbTrace
 10
149.2364327492
 20
219.6593355482
 30
0.0
 11
148.7284327492
 21
216.3573355482
 31
0.0
 12
149.7444327492
 22
216.3573355482
 32
0.0
 13
149.7444327492
 23
216.3573355482
 33
0.0
  0
SOLID
  5
161
330
15D
100
AcDbEntity
  8
LAYER_1
100
AcDbTrace
 10
149.2364327492
 20
184.3593355482
 30
0.0
 11
149.7444327492
 21
187.6613355482
 31
0.0
 12
148.7284327492
 22
187.6613355482
 32
0.0
 13
148.7284327492
 23
187.6613355482
 33
0.0
  0
LINE
  5
162
330
15D
100
AcDbEntity
  8
LAYER_1
100
AcDbLine
 10
127.4113289037
 20
219.6593355482
 30
0.0
 11
150.2364327492
 21
219.6593355482
 31
0.0
  0
LINE
  5
163
330
15D
100
AcDbEntity
  8
LAYER_1
100
AcDbLine
 10
127.4113289037
 20
184.3593355482
 30
0.0
 11
150.2364327492
 21
184.3593355482
 31
0.0
  0
LINE
  5
164
330
15D
100
AcDbEntity
  8
LAYER_1
100
AcDbLine
 10
149.2364327492
 20
219.6593355482
 30
0.0
 11
149.2364327492
 21
184.3593355482
 31
0.0
  0
MTEXT
  5
165
330
15D
100
AcDbEntity
  8
LAYER_1
100
AcDbMText
 10
144.7246958346
 20
194.7198392527
 30
-0.7
 40
3.5
 41
0.0
 71
     1
 72
     1
  1
35,3
  7
SLDTEXTSTYLE2
 11
-7.044195017643634E-15
 21
1.0
 31
0.0
 73
     1
 44
1.0
  0
ENDBLK
  5
15F
330
15D
100
AcDbEntity
  8
0
100
AcDbBlockEnd
  0
BLOCK
  5
168
330
167
100
AcDbEntity
  8
0
100
AcDbBlockBegin
  2
*D10
 70
     1
 10
0.0
 20
0.0
 30
0.0
  3
*D10
  1

  0
SOLID
  5
16A
330
167
100
AcDbEntity
  8
LAYER_1
100
AcDbTrace
 10
122.2613289037
 20
232.8174011991
 30
0.0
 11
118.9593289037
 21
233.3254011991
 31
0.0
 12
118.9593289037
 22
232.3094011991
 32
0.0
 13
118.9593289037
 23
232.3094011991
 33
0.0
  0
SOLID
  5
16B
330
167
100
AcDbEntity
  8
LAYER_1
100
AcDbTrace
 10
71.4613289037
 20
232.8174011991
 30
0.0
 11
74.7633289037
 21
232.3094011991
 31
0.0
 12
74.7633289037
 22
233.3254011991
 32
0.0
 13
74.7633289037
 23
233.3254011991
 33
0.0
  0
LINE
  5
16C
330
167
100
AcDbEntity
  8
LAYER_1
100
AcDbLine
 10
122.2613289037
 20
224.8093355482
 30
0.0
 11
122.2613289037
 21
233.8174011991
 31
0.0
  0
LINE
  5
16D
330
167
100
AcDbEntity
  8
LAYER_1
100
AcDbLine
 10
71.4613289037
 20
224.8093355482
 30
0.0
 11
71.4613289037
 21
233.8174011991
 31
0.0
  0
LINE
  5
16E
330
167
100
AcDbEntity
  8
LAYER_1
100
AcDbLine
 10
122.2613289037
 20
232.8174011991
 30
0.0
 11
71.4613289037
 21
232.8174011991
 31
0.0
  0
MTEXT
  5
16F
330
167
100
AcDbEntity
  8
LAYER_1
100
AcDbMText
 10
85.6093767899
 20
237.3291381136
 30
-0.7
 40
3.5
 41
0.0
 71
     1
 72
     1
  1
50,8
  7
SLDTEXTSTYLE2
 73
     1
 44
1.0
  0
ENDBLK
  5
169
330
167
100
AcDbEntity
  8
0
100
AcDbBlockEnd
  0
BLOCK
  5
173
330
172
100
AcDbEntity
  8
0
100
AcDbBlockBegin
  2
_NONE
 70
     0
 10
0.0
 20
0.0
 30
0.0
  3
_NONE
  1

  0
ENDBLK
  5
174
330
172
100
AcDbEntity
  8
0
100
AcDbBlockEnd
  0
BLOCK
  5
176
330
175
100
AcDbEntity
  8
0
100
AcDbBlockBegin
  2
*D12
 70
     1
 10
0.0
 20
0.0
 30
0.0
  3
*D12
  1

  0
SOLID
  5
178
330
175
100
AcDbEntity
  8
LAYER_1
100
AcDbTrace
 10
72.6280550926
 20
185.5260617371
 30
0.0
 11
75.3221319289
 21
187.5017180838
 31
0.0
 12
74.6037114392
 22
188.2201385735
 32
0.0
 13
74.6037114392
 23
188.2201385735
 33
0.0
  0
LINE
  5
179
330
175
100
AcDbEntity
  8
LAYER_1
100
AcDbLine
 10
72.6280550926
 20
185.5260617371
 30
0.0
 11
88.9724808713
 21
201.8704875158
 31
0.0
  0
LINE
  5
17A
330
175
100
AcDbEntity
  8
LAYER_1
100
AcDbLine
 10
72.6280550926
 20
185.5260617371
 30
0.0
 11
70.2946027147
 21
183.1926093592
 31
0.0
  0
MTEXT
  5
17B
330
175
100
AcDbEntity
  8
LAYER_1
100
AcDbMText
 10
72.0487085186
 20
191.3379403846
 30
-0.7
 40
3.5
 41
0.0
 71
     1
 72
     1
  1
4x
  7
SLDTEXTSTYLE2
 11
0.7071067811865468
 21
0.7071067811865482
 31
0.0
 73
     1
 44
1.0
  0
MTEXT
  5
17C
330
175
100
AcDbEntity
  8
LAYER_1
100
AcDbMText
 10
75.4997825718
 20
194.7133933604
 30
-0.7
 40
3.5
 41
0.0
 71
     1
 72
     1
  1
%%c
  7
SLDTEXTSTYLE2
 11
0.7071067811865468
 21
0.7071067811865482
 31
0.0
 73
     1
 44
1.0
  0
MTEXT
  5
17D
330
175
100
AcDbEntity
  8
LAYER_1
100
AcDbMText
 10
79.1943905823
 20
198.4836224483
 30
-0.7
 40
3.5
 41
0.0
 71
     1
 72
     1
  1
3,3
  7
SLDTEXTSTYLE2
 11
0.7071067811865468
 21
0.7071067811865482
 31
0.0
 73
     1
 44
1.0
  0
ENDBLK
  5
177
330
175
100
AcDbEntity
  8
0
100
AcDbBlockEnd
  0
BLOCK
  5
17F
330
17E
100
AcDbEntity
  8
0
100
AcDbBlockBegin
  2
SW_CENTERMARKSYMBOL_0
 70
     0
 10
0.0
 20
0.0
 30
0.0
  3
SW_CENTERMARKSYMBOL_0
  1

  0
LINE
  5
181
330
17E
100
AcDbEntity
  8
LAYER_1
 62
     0
100
AcDbLine
 10
0.0
 20
0.0
 30
0.0
 11
0.0
 21
2.5
 31
0.0
  0
LINE
  5
182
330
17E
100
AcDbEntity
  8
LAYER_1
 62
     0
100
AcDbLine
 10
0.0
 20
0.0
 30
0.0
 11
-2.5
 21
0.0
 31
0.0
  0
LINE
  5
183
330
17E
100
AcDbEntity
  8
LAYER_1
 62
     0
100
AcDbLine
 10
0.0
 20
0.0
 30
0.0
 11
0.0
 21
-2.5
 31
0.0
  0
LINE
  5
184
330
17E
100
AcDbEntity
  8
LAYER_1
 62
     0
100
AcDbLine
 10
0.0
 20
0.0
 30
0.0
 11
2.5
 21
0.0
 31
0.0
  0
LINE
  5
185
330
17E
100
AcDbEntity
  8
LAYER_1
 62
     0
100
AcDbLine
 10
0.0
 20
2.5
 30
0.0
 11
0.0
 21
4.15
 31
0.0
  0
LINE
  5
186
330
17E
100
AcDbEntity
  8
LAYER_1
 62
     0
100
AcDbLine
 10
-2.5
 20
0.0
 30
0.0
 11
-4.15
 21
0.0
 31
0.0
  0
LINE
  5
187
330
17E
100
AcDbEntity
  8
LAYER_1
 62
     0
100
AcDbLine
 10
0.0
 20
-2.5
 30
0.0
 11
0.0
 21
-4.15
 31
0.0
  0
LINE
  5
188
330
17E
100
AcDbEntity
  8
LAYER_1
 62
     0
100
AcDbLine
 10
2.5
 20
0.0
 30
0.0
 11
4.15
 21
0.0
 31
0.0
  0
ENDBLK
  5
180
330
17E
100
AcDbEntity
  8
0
100
AcDbBlockEnd
  0
BLOCK
  5
18B
330
18A
100
AcDbEntity
  8
0
100
AcDbBlockBegin
  2
SW_CENTERMARKSYMBOL_1
 70
     0
 10
0.0
 20
0.0
 30
0.0
  3
SW_CENTERMARKSYMBOL_1
  1

  0
LINE
  5
18D
330
18A
100
AcDbEntity
  8
LAYER_1
 62
     0
100
AcDbLine
 10
0.0
 20
0.0
 30
0.0
 11
0.0
 21
2.5
 31
0.0
  0
LINE
  5
18E
330
18A
100
AcDbEntity
  8
LAYER_1
 62
     0
100
AcDbLine
 10
0.0
 20
0.0
 30
0.0
 11
-2.5
 21
0.0
 31
0.0
  0
LINE
  5
18F
330
18A
100
AcDbEntity
  8
LAYER_1
 62
     0
100
AcDbLine
 10
0.0
 20
0.0
 30
0.0
 11
0.0
 21
-2.5
 31
0.0
  0
LINE
  5
190
330
18A
100
AcDbEntity
  8
LAYER_1
 62
     0
100
AcDbLine
 10
0.0
 20
0.0
 30
0.0
 11
2.5
 21
0.0
 31
0.0
  0
LINE
  5
191
330
18A
100
AcDbEntity
  8
LAYER_1
 62
     0
100
AcDbLine
 10
0.0
 20
2.5
 30
0.0
 11
0.0
 21
4.15
 31
0.0
  0
LINE
  5
192
330
18A
100
AcDbEntity
  8
LAYER_1
 62
     0
100
AcDbLine
 10
-2.5
 20
0.0
 30
0.0
 11
-4.15
 21
0.0
 31
0.0
  0
LINE
  5
193
330
18A
100
AcDbEntity
  8
LAYER_1
 62
     0
100
AcDbLine
 10
0.0
 20
-2.5
 30
0.0
 11
0.0
 21
-4.15
 31
0.0
  0
LINE
  5
194
330
18A
100
AcDbEntity
  8
LAYER_1
 62
     0
100
AcDbLine
 10
2.5
 20
0.0
 30
0.0
 11
4.15
 21
0.0
 31
0.0
  0
ENDBLK
  5
18C
330
18A
100
AcDbEntity
  8
0
100
AcDbBlockEnd
  0
BLOCK
  5
197
330
196
100
AcDbEntity
  8
0
100
AcDbBlockBegin
  2
SW_CENTERMARKSYMBOL_2
 70
     0
 10
0.0
 20
0.0
 30
0.0
  3
SW_CENTERMARKSYMBOL_2
  1

  0
LINE
  5
199
330
196
100
AcDbEntity
  8
LAYER_1
 62
     0
100
AcDbLine
 10
0.0
 20
0.0
 30
0.0
 11
0.0
 21
2.5
 31
0.0
  0
LINE
  5
19A
330
196
100
AcDbEntity
  8
LAYER_1
 62
     0
100
AcDbLine
 10
0.0
 20
0.0
 30
0.0
 11
-2.5
 21
0.0
 31
0.0
  0
LINE
  5
19B
330
196
100
AcDbEntity
  8
LAYER_1
 62
     0
100
AcDbLine
 10
0.0
 20
0.0
 30
0.0
 11
0.0
 21
-2.5
 31
0.0
  0
LINE
  5
19C
330
196
100
AcDbEntity
  8
LAYER_1
 62
     0
100
AcDbLine
 10
0.0
 20
0.0
 30
0.0
 11
2.5
 21
0.0
 31
0.0
  0
LINE
  5
19D
330
196
100
AcDbEntity
  8
LAYER_1
 62
     0
100
AcDbLine
 10
0.0
 20
2.5
 30
0.0
 11
0.0
 21
4.15
 31
0.0
  0
LINE
  5
19E
330
196
100
AcDbEntity
  8
LAYER_1
 62
     0
100
AcDbLine
 10
-2.5
 20
0.0
 30
0.0
 11
-4.15
 21
0.0
 31
0.0
  0
LINE
  5
19F
330
196
100
AcDbEntity
  8
LAYER_1
 62
     0
100
AcDbLine
 10
0.0
 20
-2.5
 30
0.0
 11
0.0
 21
-4.15
 31
0.0
  0
LINE
  5
1A0
330
196
100
AcDbEntity
  8
LAYER_1
 62
     0
100
AcDbLine
 10
2.5
 20
0.0
 30
0.0
 11
4.15
 21
0.0
 31
0.0
  0
ENDBLK
  5
198
330
196
100
AcDbEntity
  8
0
100
AcDbBlockEnd
  0
BLOCK
  5
1A3
330
1A2
100
AcDbEntity
  8
0
100
AcDbBlockBegin
  2
SW_CENTERMARKSYMBOL_3
 70
     0
 10
0.0
 20
0.0
 30
0.0
  3
SW_CENTERMARKSYMBOL_3
  1

  0
LINE
  5
1A5
330
1A2
100
AcDbEntity
  8
LAYER_1
 62
     0
100
AcDbLine
 10
0.0
 20
0.0
 30
0.0
 11
0.0
 21
2.5
 31
0.0
  0
LINE
  5
1A6
330
1A2
100
AcDbEntity
  8
LAYER_1
 62
     0
100
AcDbLine
 10
0.0
 20
0.0
 30
0.0
 11
-2.5
 21
0.0
 31
0.0
  0
LINE
  5
1A7
330
1A2
100
AcDbEntity
  8
LAYER_1
 62
     0
100
AcDbLine
 10
0.0
 20
0.0
 30
0.0
 11
0.0
 21
-2.5
 31
0.0
  0
LINE
  5
1A8
330
1A2
100
AcDbEntity
  8
LAYER_1
 62
     0
100
AcDbLine
 10
0.0
 20
0.0
 30
0.0
 11
2.5
 21
0.0
 31
0.0
  0
LINE
  5
1A9
330
1A2
100
AcDbEntity
  8
LAYER_1
 62
     0
100
AcDbLine
 10
0.0
 20
2.5
 30
0.0
 11
0.0
 21
4.15
 31
0.0
  0
LINE
  5
1AA
330
1A2
100
AcDbEntity
  8
LAYER_1
 62
     0
100
AcDbLine
 10
-2.5
 20
0.0
 30
0.0
 11
-4.15
 21
0.0
 31
0.0
  0
LINE
  5
1AB
330
1A2
100
AcDbEntity
  8
LAYER_1
 62
     0
100
AcDbLine
 10
0.0
 20
-2.5
 30
0.0
 11
0.0
 21
-4.15
 31
0.0
  0
LINE
  5
1AC
330
1A2
100
AcDbEntity
  8
LAYER_1
 62
     0
100
AcDbLine
 10
2.5
 20
0.0
 30
0.0
 11
4.15
 21
0.0
 31
0.0
  0
ENDBLK
  5
1A4
330
1A2
100
AcDbEntity
  8
0
100
AcDbBlockEnd
  0
BLOCK
  5
1B5
330
1B4
100
AcDbEntity
  8
0
100
AcDbBlockBegin
  2
*D17
 70
     1
 10
0.0
 20
0.0
 30
0.0
  3
*D17
  1

  0
SOLID
  5
1B7
330
1B4
100
AcDbEntity
  8
LAYER_1
100
AcDbTrace
 10
165.8415282392
 20
169.5419402469
 30
0.0
 11
162.5395282392
 21
170.0499402469
 31
0.0
 12
162.5395282392
 22
169.0339402469
 32
0.0
 13
162.5395282392
 23
169.0339402469
 33
0.0
  0
SOLID
  5
1B8
330
1B4
100
AcDbEntity
  8
LAYER_1
100
AcDbTrace
 10
167.4415282392
 20
169.5419402469
 30
0.0
 11
170.7435282392
 21
169.0339402469
 31
0.0
 12
170.7435282392
 22
170.0499402469
 32
0.0
 13
170.7435282392
 23
170.0499402469
 33
0.0
  0
LINE
  5
1B9
330
1B4
100
AcDbEntity
  8
LAYER_1
100
AcDbLine
 10
165.8415282392
 20
175.0093355482
 30
0.0
 11
165.8415282392
 21
168.5419402469
 31
0.0
  0
LINE
  5
1BA
330
1B4
100
AcDbEntity
  8
LAYER_1
100
AcDbLine
 10
167.4415282392
 20
175.0093355482
 30
0.0
 11
167.4415282392
 21
168.5419402469
 31
0.0
  0
LINE
  5
1BB
330
1B4
100
AcDbEntity
  8
LAYER_1
100
AcDbLine
 10
165.8415282392
 20
169.5419402469
 30
0.0
 11
159.4915282392
 21
169.5419402469
 31
0.0
  0
LINE
  5
1BC
330
1B4
100
AcDbEntity
  8
LAYER_1
100
AcDbLine
 10
165.8415282392
 20
169.5419402469
 30
0.0
 11
167.4415282392
 21
169.5419402469
 31
0.0
  0
LINE
  5
1BD
330
1B4
100
AcDbEntity
  8
LAYER_1
100
AcDbLine
 10
167.4415282392
 20
169.5419402469
 30
0.0
 11
182.0960419112
 21
169.5419402469
 31
0.0
  0
MTEXT
  5
1BE
330
1B4
100
AcDbEntity
  8
LAYER_1
100
AcDbMText
 10
172.7870145672
 20
174.0536771615
 30
0.1
 40
3.5
 41
0.0
 71
     1
 72
     1
  1
1,6
  7
SLDTEXTSTYLE2
 73
     1
 44
1.0
  0
ENDBLK
  5
1B6
330
1B4
100
AcDbEntity
  8
0
100
AcDbBlockEnd
  0
ENDSEC
  0
SECTION
  2
ENTITIES
  0
HATCH
  5
B6
330
1F
100
AcDbEntity
  8
LAYER_2
100
AcDbHatch
 10
0.0
 20
0.0
 30
0.0
210
0.0
220
0.0
230
1.0
  2
SOLID
 70
     1
 71
     0
 91
        4
 92
        0
 93
       18
 72
     4
 94
        3
 73
     1
 74
     0
 95
        8
 96
        4
 40
0.9444444444444448
 40
0.9444444444444448
 40
0.9444444444444448
 40
0.9444444444444448
 40
1.0
 40
1.0
 40
1.0
 40
1.0
 10
19.61117805343615
 20
30.10821341477513
 42
1.0
 10
19.2889513867695
 20
30.10821341477513
 42
1.0
 10
19.02609138676947
 20
29.84535341477509
 42
1.0
 10
19.02609138676947
 20
29.52312674810845
 42
1.0
 72
     1
 10
19.02609138676947
 20
29.52312674810845
 11
19.02609138676947
 21
23.08700008144177
 72
     1
 10
19.02609138676947
 20
23.08700008144177
 11
19.76410138676943
 21
23.08700008144177
 72
     4
 94
        3
 73
     1
 74
     0
 95
        8
 96
        4
 40
0.777777777777778
 40
0.777777777777778
 40
0.777777777777778
 40
0.777777777777778
 40
0.8333333333333336
 40
0.8333333333333336
 40
0.8333333333333336
 40
0.8333333333333336
 10
19.76410138676943
 20
23.08700008144177
 42
1.0
 10
19.74741805343616
 20
23.15767674810845
 42
1.0
 10
19.73909805343616
 20
23.23338008144177
 42
1.0
 10
19.73940138676944
 20
23.31424008144178
 42
1.0
 72
     4
 94
        3
 73
     1
 74
     0
 95
        8
 96
        4
 40
0.7222222222222224
 40
0.7222222222222224
 40
0.7222222222222224
 40
0.7222222222222224
 40
0.777777777777778
 40
0.777777777777778
 40
0.777777777777778
 40
0.777777777777778
 10
19.73940138676944
 20
23.31424008144178
 42
1.0
 10
19.73714805343613
 20
23.87857008144179
 42
1.0
 10
20.15878138676947
 20
24.2001034147751
 42
1.0
 10
20.86676138676946
 20
24.2134934147751
 42
1.0
 72
     4
 94
        3
 73
     1
 74
     0
 95
        8
 96
        4
 40
0.6666666666666669
 40
0.6666666666666669
 40
0.6666666666666669
 40
0.6666666666666669
 40
0.7222222222222224
 40
0.7222222222222224
 40
0.7222222222222224
 40
0.7222222222222224
 10
20.86676138676946
 20
24.2134934147751
 42
1.0
 10
21.48720805343612
 20
24.22480341477509
 42
1.0
 10
22.1036247201028
 20
23.87857008144179
 42
1.0
 10
22.24636472010278
 20
23.79290008144178
 42
1.0
 72
     4
 94
        3
 73
     1
 74
     0
 95
        8
 96
        4
 40
0.6111111111111113
 40
0.6111111111111113
 40
0.6111111111111113
 40
0.6111111111111113
 40
0.6666666666666669
 40
0.6666666666666669
 40
0.6666666666666669
 40
0.6666666666666669
 10
22.24636472010278
 20
23.79290008144178
 42
1.0
 10
22.19592472010279
 20
23.6408434147751
 42
1.0
 10
22.16858138676947
 20
23.47843008144176
 42
1.0
 10
22.16858138676947
 20
23.30938674810845
 42
1.0
 72
     4
 94
        3
 73
     1
 74
     0
 95
        8
 96
        4
 40
0.5555555555555557
 40
0.5555555555555557
 40
0.5555555555555557
 40
0.5555555555555557
 40
0.6111111111111113
 40
0.6111111111111113
 40
0.6111111111111113
 40
0.6111111111111113
 10
22.16858138676947
 20
23.30938674810845
 42
1.0
 10
22.16858138676947
 20
23.23381341477512
 42
1.0
 10
22.17395472010281
 20
23.15962674810843
 42
1.0
 10
22.18452805343613
 20
23.08700008144177
 42
1.0
 72
     1
 10
22.18452805343613
 20
23.08700008144177
 11
25.22899805343609
 21
23.08700008144177
 72
     4
 94
        3
 73
     1
 74
     0
 95
        8
 96
        4
 40
0.4444444444444445
 40
0.4444444444444445
 40
0.4444444444444445
 40
0.4444444444444445
 40
0.5000000000000001
 40
0.5000000000000001
 40
0.5000000000000001
 40
0.5000000000000001
 10
25.22899805343609
 20
23.08700008144177
 42
1.0
 10
25.2395280534361
 20
23.15962674810843
 42
1.0
 10
25.24524805343614
 20
23.23381341477512
 42
1.0
 10
25.24524805343614
 20
23.30938674810845
 42
1.0
 72
     4
 94
        3
 73
     1
 74
     0
 95
        8
 96
        4
 40
0.388888888888889
 40
0.388888888888889
 40
0.388888888888889
 40
0.388888888888889
 40
0.4444444444444445
 40
0.4444444444444445
 40
0.4444444444444445
 40
0.4444444444444445
 10
25.24524805343614
 20
23.30938674810845
 42
1.0
 10
25.24524805343614
 20
23.47539674810844
 42
1.0
 10
25.21877138676942
 20
23.63508008144177
 42
1.0
 10
25.17010805343611
 20
23.78479674810843
 42
1.0
 72
     4
 94
        3
 73
     1
 74
     0
 95
        8
 96
        4
 40
0.3333333333333334
 40
0.3333333333333334
 40
0.3333333333333334
 40
0.3333333333333334
 40
0.388888888888889
 40
0.388888888888889
 40
0.388888888888889
 40
0.388888888888889
 10
25.17010805343611
 20
23.78479674810843
 42
1.0
 10
25.31757138676943
 20
23.87298008144176
 42
1.0
 10
25.93030472010277
 20
24.21509674810843
 42
1.0
 10
26.54698138676947
 20
24.20365674810845
 42
1.0
 72
     4
 94
        3
 73
     1
 74
     0
 95
        8
 96
        4
 40
0.2777777777777778
 40
0.2777777777777778
 40
0.2777777777777778
 40
0.2777777777777778
 40
0.3333333333333334
 40
0.3333333333333334
 40
0.3333333333333334
 40
0.3333333333333334
 10
26.54698138676947
 20
24.20365674810845
 42
1.0
 10
27.25500472010278
 20
24.19031008144176
 42
1.0
 10
27.67659472010281
 20
23.86882008144178
 42
1.0
 10
27.67434138676944
 20
23.30449008144178
 42
1.0
 72
     4
 94
        3
 73
     1
 74
     0
 95
        8
 96
        4
 40
0.2222222222222222
 40
0.2222222222222222
 40
0.2222222222222222
 40
0.2222222222222222
 40
0.2777777777777778
 40
0.2777777777777778
 40
0.2777777777777778
 40
0.2777777777777778
 10
27.67434138676944
 20
23.30449008144178
 42
1.0
 10
27.67468805343615
 20
23.22727008144179
 42
1.0
 10
27.66688805343615
 20
23.15490341477511
 42
1.0
 10
27.65163472010279
 20
23.08700008144177
 42
1.0
 72
     1
 10
27.65163472010279
 20
23.08700008144177
 11
28.38782472010276
 21
23.08700008144177
 72
     1
 10
28.38782472010276
 20
23.08700008144177
 11
28.38782472010276
 21
29.52312674810845
 72
     4
 94
        3
 73
     1
 74
     0
 95
        8
 96
        4
 40
0.0555555555555556
 40
0.0555555555555556
 40
0.0555555555555556
 40
0.0555555555555556
 40
0.1111111111111111
 40
0.1111111111111111
 40
0.1111111111111111
 40
0.1111111111111111
 10
28.38782472010276
 20
29.52312674810845
 42
1.0
 10
28.38782472010276
 20
29.84535341477509
 42
1.0
 10
28.12496472010278
 20
30.10821341477513
 42
1.0
 10
27.80273805343614
 20
30.10821341477513
 42
1.0
 72
     1
 10
27.80273805343614
 20
30.10821341477513
 11
19.61117805343615
 21
30.10821341477513
 97
        0
 92
        0
 93
        6
 72
     4
 94
        3
 73
     1
 74
     0
 95
        8
 96
        4
 40
0.6666666666666666
 40
0.6666666666666666
 40
0.6666666666666666
 40
0.6666666666666666
 40
0.8333333333333333
 40
0.8333333333333333
 40
0.8333333333333333
 40
0.8333333333333333
 10
24.19060138676954
 20
24.76998008144177
 42
1.0
 10
24.03845805343613
 20
24.82029008144179
 42
1.0
 10
23.87578472010276
 20
24.84772008144179
 42
1.0
 10
23.70691472010283
 20
24.84772008144179
 42
1.0
 72
     4
 94
        3
 73
     1
 74
     0
 95
        8
 96
        4
 40
0.8333333333333333
 40
0.8333333333333333
 40
0.8333333333333333
 40
0.8333333333333333
 40
1.0
 40
1.0
 40
1.0
 40
1.0
 10
23.70691472010283
 20
24.84772008144179
 42
1.0
 10
23.54099138676946
 20
24.84772008144179
 42
1.0
 10
23.38113472010278
 20
24.82137341477511
 42
1.0
 10
23.23133138676947
 20
24.77266674810843
 42
1.0
 72
     4
 94
        3
 73
     1
 74
     0
 95
        8
 96
        4
 40
0.0
 40
0.0
 40
0.0
 40
0.0
 40
0.1666666666666667
 40
0.1666666666666667
 40
0.1666666666666667
 40
0.1666666666666667
 10
23.23133138676947
 20
24.77266674810843
 42
1.0
 10
23.14314805343609
 20
24.92013008144178
 42
1.0
 10
22.80124805343614
 20
25.53269008144177
 42
1.0
 10
22.8126447201028
 20
26.14954008144177
 42
1.0
 72
     4
 94
        3
 73
     1
 74
     0
 95
        8
 96
        4
 40
0.1666666666666667
 40
0.1666666666666667
 40
0.1666666666666667
 40
0.1666666666666667
 40
0.3333333333333333
 40
0.3333333333333333
 40
0.3333333333333333
 40
0.3333333333333333
 10
22.8126447201028
 20
26.14954008144177
 42
1.0
 10
22.82599138676949
 20
26.85743341477512
 42
1.0
 10
23.14743805343611
 20
27.27911008144176
 42
1.0
 10
23.71176805343617
 20
27.27690008144176
 42
1.0
 72
     4
 94
        3
 73
     1
 74
     0
 95
        8
 96
        4
 40
0.3333333333333333
 40
0.3333333333333333
 40
0.3333333333333333
 40
0.3333333333333333
 40
0.5
 40
0.5
 40
0.5
 40
0.5
 10
23.71176805343617
 20
27.27690008144176
 42
1.0
 10
24.27609805343611
 20
27.27911008144176
 42
1.0
 10
24.59758805343615
 20
26.85743341477512
 42
1.0
 10
24.61093472010278
 20
26.14954008144177
 42
1.0
 72
     4
 94
        3
 73
     1
 74
     0
 95
        8
 96
        4
 40
0.5
 40
0.5
 40
0.5
 40
0.5
 40
0.6666666666666666
 40
0.6666666666666666
 40
0.6666666666666666
 40
0.6666666666666666
 10
24.61093472010278
 20
26.14954008144177
 42
1.0
 10
24.62228805343614
 20
25.52896341477514
 42
1.0
 10
24.27609805343617
 20
24.91250341477511
 42
1.0
 10
24.19060138676954
 20
24.76998008144177
 42
1.0
 97
        0
 92
        0
 93
        5
 72
     4
 94
        3
 73
     1
 74
     0
 95
        8
 96
        4
 40
0.6000000000000001
 40
0.6000000000000001
 40
0.6000000000000001
 40
0.6000000000000001
 40
0.8
 40
0.8
 40
0.8
 40
0.8
 10
22.33875138676949
 20
25.95605674810844
 42
1.0
 10
22.78452138676945
 20
25.52645008144178
 42
1.0
 10
22.97566472010282
 20
24.84763341477511
 42
1.0
 10
23.0166147201028
 20
24.68431008144179
 42
1.0
 72
     4
 94
        3
 73
     1
 74
     0
 95
        8
 96
        4
 40
0.8
 40
0.8
 40
0.8
 40
0.8
 40
1.0
 40
1.0
 40
1.0
 40
1.0
 10
23.0166147201028
 20
24.68431008144179
 42
1.0
 10
22.72381138676949
 20
24.53693341477511
 42
1.0
 10
22.48448138676945
 20
24.29907674810844
 42
1.0
 10
22.33563138676947
 20
24.00727008144177
 42
1.0
 72
     4
 94
        3
 73
     1
 74
     0
 95
        8
 96
        4
 40
0.0
 40
0.0
 40
0.0
 40
0.0
 40
0.2
 40
0.2
 40
0.2
 40
0.2
 10
22.33563138676947
 20
24.00727008144177
 42
1.0
 10
22.16702138676946
 20
24.04978008144176
 42
1.0
 10
21.49422805343615
 20
24.24135674810843
 42
1.0
 10
21.06709138676949
 20
24.68444008144177
 42
1.0
 72
     4
 94
        3
 73
     1
 74
     0
 95
        8
 96
        4
 40
0.2
 40
0.2
 40
0.2
 40
0.2
 40
0.4
 40
0.4
 40
0.4
 40
0.4
 10
21.06709138676949
 20
24.68444008144177
 42
1.0
 10
20.57586472010281
 20
25.19460341477511
 42
1.0
 10
20.50514472010278
 20
25.71997674810844
 42
1.0
 10
20.90571805343611
 20
26.11751674810844
 42
1.0
 72
     4
 94
        3
 73
     1
 74
     0
 95
        8
 96
        4
 40
0.4
 40
0.4
 40
0.4
 40
0.4
 40
0.6000000000000001
 40
0.6000000000000001
 40
0.6000000000000001
 40
0.6000000000000001
 10
20.90571805343611
 20
26.11751674810844
 42
1.0
 10
21.30338805343612
 20
26.51800341477512
 42
1.0
 10
21.8286747201028
 20
26.44728341477512
 42
1.0
 10
22.33875138676949
 20
25.95605674810844
 42
1.0
 97
        0
 92
        0
 93
        5
 72
     4
 94
        3
 73
     1
 74
     0
 95
        8
 96
        4
 40
0.6000000000000001
 40
0.6000000000000001
 40
0.6000000000000001
 40
0.6000000000000001
 40
0.8
 40
0.8
 40
0.8
 40
0.8
 10
26.35354138676949
 20
24.67750674810845
 42
1.0
 10
25.9238047201028
 20
24.2316934147751
 42
1.0
 10
25.24503138676948
 20
24.04050674810845
 42
1.0
 10
25.08183805343611
 20
23.99964341477509
 42
1.0
 72
     4
 94
        3
 73
     1
 74
     0
 95
        8
 96
        4
 40
0.8
 40
0.8
 40
0.8
 40
0.8
 40
1.0
 40
1.0
 40
1.0
 40
1.0
 10
25.08183805343611
 20
23.99964341477509
 42
1.0
 10
24.93446138676947
 20
24.29231674810844
 42
1.0
 10
24.69660472010282
 20
24.53160341477512
 42
1.0
 10
24.40475472010284
 20
24.68045341477512
 42
1.0
 72
     4
 94
        3
 73
     1
 74
     0
 95
        8
 96
        4
 40
0.0
 40
0.0
 40
0.0
 40
0.0
 40
0.2
 40
0.2
 40
0.2
 40
0.2
 10
24.40475472010284
 20
24.68045341477512
 42
1.0
 10
24.4471780534361
 20
24.84884674810844
 42
1.0
 10
24.6387547201028
 20
25.52194341477512
 42
1.0
 10
25.08192472010279
 20
25.94916674810843
 42
1.0
 72
     4
 94
        3
 73
     1
 74
     0
 95
        8
 96
        4
 40
0.2
 40
0.2
 40
0.2
 40
0.2
 40
0.4
 40
0.4
 40
0.4
 40
0.4
 10
25.08192472010279
 20
25.94916674810843
 42
1.0
 10
25.59195805343606
 20
26.44039341477511
 42
1.0
 10
26.1174613867694
 20
26.51107008144179
 42
1.0
 10
26.51487138676944
 20
26.11049674810844
 42
1.0
 72
     4
 94
        3
 73
     1
 74
     0
 95
        8
 96
        4
 40
0.4
 40
0.4
 40
0.4
 40
0.4
 40
0.6000000000000001
 40
0.6000000000000001
 40
0.6000000000000001
 40
0.6000000000000001
 10
26.51487138676944
 20
26.11049674810844
 42
1.0
 10
26.91548805343613
 20
25.71300008144181
 42
1.0
 10
26.84468138676949
 20
25.18762674810845
 42
1.0
 10
26.35354138676949
 20
24.67750674810845
 42
1.0
 97
        0
 75
     0
 76
     1
 98
        1
 10
0.0
 20
0.0
  0
LINE
  5
B7
330
1F
100
AcDbEntity
  8
LAYER_1
100
AcDbLine
 10
57.912170181
 20
9.25
 30
0.0
 11
192.0
 21
9.25
 31
0.0
  0
LINE
  5
B8
330
1F
100
AcDbEntity
  8
LAYER_1
100
AcDbLine
 10
170.2003193142
 20
9.25
 30
0.0
 11
170.2003193142
 21
5.0
 31
0.0
  0
LINE
  5
B9
330
1F
100
AcDbEntity
  8
LAYER_1
100
AcDbLine
 10
72.4236994804
 20
43.2488390232
 30
0.0
 11
17.8
 21
43.2488390232
 31
0.0
  0
LINE
  5
BA
330
1F
100
AcDbEntity
  8
LAYER_1
100
AcDbLine
 10
17.8
 20
39.4398424143
 30
0.0
 11
57.912170181
 21
39.4398424143
 31
0.0
  0
LINE
  5
BB
330
1F
100
AcDbEntity
  8
LAYER_1
100
AcDbLine
 10
17.8
 20
5.0
 30
0.0
 11
205.0
 21
5.0
 31
0.0
  0
LINE
  5
BC
330
1F
100
AcDbEntity
  8
LAYER_1
100
AcDbLine
 10
72.4236994804
 20
43.2488390232
 30
0.0
 11
205.0
 21
43.2488390232
 31
0.0
  0
LINE
  5
BD
330
1F
100
AcDbEntity
  8
LAYER_1
100
AcDbLine
 10
57.912170181
 20
39.4398424143
 30
0.0
 11
57.912170181
 21
5.0
 31
0.0
  0
LINE
  5
BE
330
1F
100
AcDbEntity
  8
LAYER_1
100
AcDbLine
 10
57.912170181
 20
39.4398424143
 30
0.0
 11
57.912170181
 21
43.2488390232
 31
0.0
  0
LINE
  5
BF
330
1F
100
AcDbEntity
  8
LAYER_1
100
AcDbLine
 10
30.0200285606
 20
43.2488390232
 30
0.0
 11
30.0200285606
 21
30.9210438952
 31
0.0
  0
LINE
  5
C0
330
1F
100
AcDbEntity
  8
LAYER_1
100
AcDbLine
 10
151.6806522035
 20
9.25
 30
0.0
 11
151.6806522035
 21
5.0
 31
0.0
  0
LINE
  5
C1
330
1F
100
AcDbEntity
  8
0
  6
Continuous
 62
     7
370
     0
100
AcDbLine
 10
17.8
 20
60.25
 30
0.0
 11
17.8
 21
5.0
 31
0.0
  0
LINE
  5
C2
330
1F
100
AcDbEntity
  8
0
  6
Continuous
 62
     7
370
     0
100
AcDbLine
 10
17.8
 20
60.25
 30
0.0
 11
17.8
 21
5.0
 31
0.0
  0
LINE
  5
C3
330
1F
100
AcDbEntity
  8
LAYER_1
100
AcDbLine
 10
17.8
 20
35.0226876266
 30
0.0
 11
57.912170181
 21
35.0226876266
 31
0.0
  0
LINE
  5
C4
330
1F
100
AcDbEntity
  8
LAYER_1
100
AcDbLine
 10
17.8
 20
30.9210438952
 30
0.0
 11
57.912170181
 21
30.9210438952
 31
0.0
  0
LINE
  5
C5
330
1F
100
AcDbEntity
  8
LAYER_1
100
AcDbLine
 10
48.2132471834
 20
43.2488390232
 30
0.0
 11
48.2132471834
 21
30.9210438952
 31
0.0
  0
LINE
  5
C6
330
1F
100
AcDbEntity
  8
LAYER_1
100
AcDbLine
 10
17.8
 20
18.9134525394
 30
0.0
 11
57.912170181
 21
18.9134525394
 31
0.0
  0
LINE
  5
C7
330
1F
100
AcDbEntity
  8
LAYER_1
100
AcDbLine
 10
57.912170181
 20
35.0226876266
 30
0.0
 11
116.6
 21
35.0226876266
 31
0.0
  0
LINE
  5
C8
330
1F
100
AcDbEntity
  8
LAYER_1
100
AcDbLine
 10
101.6371252905
 20
43.2488390232
 30
0.0
 11
101.6371252905
 21
35.0226876266
 31
0.0
  0
LINE
  5
C9
330
1F
100
AcDbEntity
  8
0
  6
Continuous
 62
    22
370
     0
100
AcDbLine
 10
19.6111780534
 20
30.1082134148
 30
0.0
 11
27.8027380534
 21
30.1082134148
 31
0.0
  0
LINE
  5
CA
330
1F
100
AcDbEntity
  8
0
  6
Continuous
 62
    22
370
     0
100
AcDbLine
 10
28.3878247201
 20
29.5231267481
 30
0.0
 11
28.3878247201
 21
23.0870000814
 31
0.0
  0
LINE
  5
CB
330
1F
100
AcDbEntity
  8
LAYER_1
100
AcDbLine
 10
116.6
 20
22.0
 30
0.0
 11
205.0
 21
22.0
 31
0.0
  0
LINE
  5
CC
330
1F
100
AcDbEntity
  8
LAYER_1
100
AcDbLine
 10
116.6
 20
43.2488390232
 30
0.0
 11
116.6
 21
9.25
 31
0.0
  0
LINE
  5
CD
330
1F
100
AcDbEntity
  8
LAYER_1
100
AcDbLine
 10
116.6
 20
9.25
 30
0.0
 11
116.6
 21
5.0
 31
0.0
  0
LINE
  5
CE
330
1F
100
AcDbEntity
  8
0
  6
Continuous
 62
    22
370
     0
100
AcDbLine
 10
28.3878247201
 20
23.0870000814
 30
0.0
 11
27.6516347201
 21
23.0870000814
 31
0.0
  0
LINE
  5
CF
330
1F
100
AcDbEntity
  8
0
  6
Continuous
 62
    22
370
     0
100
AcDbLine
 10
25.2289980534
 20
23.0870000814
 30
0.0
 11
22.1845280534
 21
23.0870000814
 31
0.0
  0
LINE
  5
D0
330
1F
100
AcDbEntity
  8
LAYER_1
 62
     7
100
AcDbLine
 10
205.0
 20
13.5
 30
0.0
 11
192.0
 21
13.5
 31
0.0
  0
LINE
  5
D1
330
1F
100
AcDbEntity
  8
0
  6
Continuous
 62
    22
370
     0
100
AcDbLine
 10
19.7641013868
 20
23.0870000814
 30
0.0
 11
19.0260913868
 21
23.0870000814
 31
0.0
  0
LINE
  5
D2
330
1F
100
AcDbEntity
  8
0
  6
Continuous
 62
    22
370
     0
100
AcDbLine
 10
19.0260913868
 20
23.0870000814
 30
0.0
 11
19.0260913868
 21
29.5231267481
 31
0.0
  0
LINE
  5
D3
330
1F
100
AcDbEntity
  8
LAYER_1
100
AcDbLine
 10
12.8
 20
292.0
 30
0.0
 11
12.8
 21
5.0
 31
0.0
  0
LINE
  5
D4
330
1F
100
AcDbEntity
  8
LAYER_1
100
AcDbLine
 10
17.8
 20
48.5
 30
0.0
 11
12.8
 21
48.5
 31
0.0
  0
LINE
  5
D5
330
1F
100
AcDbEntity
  8
LAYER_1
100
AcDbLine
 10
12.8
 20
5.0
 30
0.0
 11
17.8
 21
5.0
 31
0.0
  0
LINE
  5
D6
330
1F
100
AcDbEntity
  8
LAYER_1
100
AcDbLine
 10
17.8
 20
292.0
 30
0.0
 11
17.8
 21
5.0
 31
0.0
  0
LINE
  5
D7
330
1F
100
AcDbEntity
  8
LAYER_1
100
AcDbLine
 10
205.0
 20
5.0
 30
0.0
 11
205.0
 21
292.0
 31
0.0
  0
LINE
  5
D8
330
1F
100
AcDbEntity
  8
LAYER_1
100
AcDbLine
 10
205.0
 20
292.0
 30
0.0
 11
17.8
 21
292.0
 31
0.0
  0
LINE
  5
D9
330
1F
100
AcDbEntity
  8
LAYER_1
100
AcDbLine
 10
12.8
 20
98.5
 30
0.0
 11
17.8
 21
98.5
 31
0.0
  0
LINE
  5
DA
330
1F
100
AcDbEntity
  8
LAYER_1
100
AcDbLine
 10
12.8
 20
198.5
 30
0.0
 11
17.8
 21
198.5
 31
0.0
  0
LINE
  5
DB
330
1F
100
AcDbEntity
  8
LAYER_1
100
AcDbLine
 10
17.8
 20
248.5
 30
0.0
 11
12.8
 21
248.5
 31
0.0
  0
LINE
  5
DC
330
1F
100
AcDbEntity
  8
LAYER_1
100
AcDbLine
 10
58.9
 20
292.0
 30
0.0
 11
58.9
 21
297.0
 31
0.0
  0
LINE
  5
DD
330
1F
100
AcDbEntity
  8
LAYER_1
100
AcDbLine
 10
158.9
 20
292.0
 30
0.0
 11
158.9
 21
297.0
 31
0.0
  0
LINE
  5
DE
330
1F
100
AcDbEntity
  8
LAYER_1
100
AcDbLine
 10
17.8
 20
292.0
 30
0.0
 11
12.8
 21
292.0
 31
0.0
  0
LINE
  5
DF
330
1F
100
AcDbEntity
  8
LAYER_1
100
AcDbLine
 10
17.8
 20
292.0
 30
0.0
 11
17.8
 21
297.0
 31
0.0
  0
LINE
  5
E0
330
1F
100
AcDbEntity
  8
LAYER_1
100
AcDbLine
 10
205.0
 20
292.0
 30
0.0
 11
205.0
 21
297.0
 31
0.0
  0
LINE
  5
E1
330
1F
100
AcDbEntity
  8
LAYER_1
100
AcDbLine
 10
108.9
 20
297.0
 30
0.0
 11
108.9
 21
287.0
 31
0.0
  0
LINE
  5
E2
330
1F
100
AcDbEntity
  8
LAYER_1
100
AcDbLine
 10
12.8
 20
148.5
 30
0.0
 11
22.8
 21
148.5
 31
0.0
  0
LINE
  5
E3
330
1F
100
AcDbEntity
  8
LAYER_1
100
AcDbLine
 10
192.0
 20
22.0
 30
0.0
 11
192.0
 21
5.0
 31
0.0
  0
SPLINE
  5
E4
330
1F
100
AcDbEntity
  8
0
  6
Continuous
 62
    22
370
     0
100
AcDbSpline
210
0.0
220
0.0
230
1.0
 70
     8
 71
     3
 72
     8
 73
     4
 74
     0
 42
0.00000001
 43
0.00000001
 40
0.0555555555555556
 40
0.0555555555555556
 40
0.0555555555555556
 40
0.0555555555555556
 40
0.1111111111111111
 40
0.1111111111111111
 40
0.1111111111111111
 40
0.1111111111111111
 10
27.80273805343614
 20
30.10821341477513
 30
0.0
 10
28.12496472010278
 20
30.10821341477513
 30
0.0
 10
28.38782472010276
 20
29.84535341477509
 30
0.0
 10
28.38782472010276
 20
29.52312674810845
 30
0.0
  0
SPLINE
  5
E5
330
1F
100
AcDbEntity
  8
0
  6
Continuous
 62
    22
370
     0
100
AcDbSpline
210
0.0
220
0.0
230
1.0
 70
     8
 71
     3
 72
     8
 73
     4
 74
     0
 42
0.00000001
 43
0.00000001
 40
0.2222222222222222
 40
0.2222222222222222
 40
0.2222222222222222
 40
0.2222222222222222
 40
0.2777777777777778
 40
0.2777777777777778
 40
0.2777777777777778
 40
0.2777777777777778
 10
27.65163472010279
 20
23.08700008144177
 30
0.0
 10
27.66688805343615
 20
23.15490341477511
 30
0.0
 10
27.67468805343615
 20
23.22727008144179
 30
0.0
 10
27.67434138676944
 20
23.30449008144178
 30
0.0
  0
SPLINE
  5
E6
330
1F
100
AcDbEntity
  8
0
  6
Continuous
 62
    22
370
     0
100
AcDbSpline
210
0.0
220
0.0
230
1.0
 70
     8
 71
     3
 72
     8
 73
     4
 74
     0
 42
0.00000001
 43
0.00000001
 40
0.2777777777777778
 40
0.2777777777777778
 40
0.2777777777777778
 40
0.2777777777777778
 40
0.3333333333333334
 40
0.3333333333333334
 40
0.3333333333333334
 40
0.3333333333333334
 10
27.67434138676944
 20
23.30449008144178
 30
0.0
 10
27.67659472010281
 20
23.86882008144178
 30
0.0
 10
27.25500472010278
 20
24.19031008144176
 30
0.0
 10
26.54698138676947
 20
24.20365674810845
 30
0.0
  0
SPLINE
  5
E7
330
1F
100
AcDbEntity
  8
0
  6
Continuous
 62
    22
370
     0
100
AcDbSpline
210
0.0
220
0.0
230
1.0
 70
     8
 71
     3
 72
     8
 73
     4
 74
     0
 42
0.00000001
 43
0.00000001
 40
0.3333333333333334
 40
0.3333333333333334
 40
0.3333333333333334
 40
0.3333333333333334
 40
0.388888888888889
 40
0.388888888888889
 40
0.388888888888889
 40
0.388888888888889
 10
26.54698138676947
 20
24.20365674810845
 30
0.0
 10
25.93030472010277
 20
24.21509674810843
 30
0.0
 10
25.31757138676943
 20
23.87298008144176
 30
0.0
 10
25.17010805343611
 20
23.78479674810843
 30
0.0
  0
SPLINE
  5
E8
330
1F
100
AcDbEntity
  8
0
  6
Continuous
 62
    22
370
     0
100
AcDbSpline
210
0.0
220
0.0
230
1.0
 70
     8
 71
     3
 72
     8
 73
     4
 74
     0
 42
0.00000001
 43
0.00000001
 40
0.388888888888889
 40
0.388888888888889
 40
0.388888888888889
 40
0.388888888888889
 40
0.4444444444444445
 40
0.4444444444444445
 40
0.4444444444444445
 40
0.4444444444444445
 10
25.17010805343611
 20
23.78479674810843
 30
0.0
 10
25.21877138676942
 20
23.63508008144177
 30
0.0
 10
25.24524805343614
 20
23.47539674810844
 30
0.0
 10
25.24524805343614
 20
23.30938674810845
 30
0.0
  0
SPLINE
  5
E9
330
1F
100
AcDbEntity
  8
0
  6
Continuous
 62
    22
370
     0
100
AcDbSpline
210
0.0
220
0.0
230
1.0
 70
     8
 71
     3
 72
     8
 73
     4
 74
     0
 42
0.00000001
 43
0.00000001
 40
0.4444444444444445
 40
0.4444444444444445
 40
0.4444444444444445
 40
0.4444444444444445
 40
0.5000000000000001
 40
0.5000000000000001
 40
0.5000000000000001
 40
0.5000000000000001
 10
25.24524805343614
 20
23.30938674810845
 30
0.0
 10
25.24524805343614
 20
23.23381341477512
 30
0.0
 10
25.2395280534361
 20
23.15962674810843
 30
0.0
 10
25.22899805343609
 20
23.08700008144177
 30
0.0
  0
SPLINE
  5
EA
330
1F
100
AcDbEntity
  8
0
  6
Continuous
 62
    22
370
     0
100
AcDbSpline
210
0.0
220
0.0
230
1.0
 70
     8
 71
     3
 72
     8
 73
     4
 74
     0
 42
0.00000001
 43
0.00000001
 40
0.5555555555555557
 40
0.5555555555555557
 40
0.5555555555555557
 40
0.5555555555555557
 40
0.6111111111111113
 40
0.6111111111111113
 40
0.6111111111111113
 40
0.6111111111111113
 10
22.18452805343613
 20
23.08700008144177
 30
0.0
 10
22.17395472010281
 20
23.15962674810843
 30
0.0
 10
22.16858138676947
 20
23.23381341477512
 30
0.0
 10
22.16858138676947
 20
23.30938674810845
 30
0.0
  0
SPLINE
  5
EB
330
1F
100
AcDbEntity
  8
0
  6
Continuous
 62
    22
370
     0
100
AcDbSpline
210
0.0
220
0.0
230
1.0
 70
     8
 71
     3
 72
     8
 73
     4
 74
     0
 42
0.00000001
 43
0.00000001
 40
0.6111111111111113
 40
0.6111111111111113
 40
0.6111111111111113
 40
0.6111111111111113
 40
0.6666666666666669
 40
0.6666666666666669
 40
0.6666666666666669
 40
0.6666666666666669
 10
22.16858138676947
 20
23.30938674810845
 30
0.0
 10
22.16858138676947
 20
23.47843008144176
 30
0.0
 10
22.19592472010279
 20
23.6408434147751
 30
0.0
 10
22.24636472010278
 20
23.79290008144178
 30
0.0
  0
SPLINE
  5
EC
330
1F
100
AcDbEntity
  8
0
  6
Continuous
 62
    22
370
     0
100
AcDbSpline
210
0.0
220
0.0
230
1.0
 70
     8
 71
     3
 72
     8
 73
     4
 74
     0
 42
0.00000001
 43
0.00000001
 40
0.6666666666666669
 40
0.6666666666666669
 40
0.6666666666666669
 40
0.6666666666666669
 40
0.7222222222222224
 40
0.7222222222222224
 40
0.7222222222222224
 40
0.7222222222222224
 10
22.24636472010278
 20
23.79290008144178
 30
0.0
 10
22.1036247201028
 20
23.87857008144179
 30
0.0
 10
21.48720805343612
 20
24.22480341477509
 30
0.0
 10
20.86676138676946
 20
24.2134934147751
 30
0.0
  0
SPLINE
  5
ED
330
1F
100
AcDbEntity
  8
0
  6
Continuous
 62
    22
370
     0
100
AcDbSpline
210
0.0
220
0.0
230
1.0
 70
     8
 71
     3
 72
     8
 73
     4
 74
     0
 42
0.00000001
 43
0.00000001
 40
0.7222222222222224
 40
0.7222222222222224
 40
0.7222222222222224
 40
0.7222222222222224
 40
0.777777777777778
 40
0.777777777777778
 40
0.777777777777778
 40
0.777777777777778
 10
20.86676138676946
 20
24.2134934147751
 30
0.0
 10
20.15878138676947
 20
24.2001034147751
 30
0.0
 10
19.73714805343613
 20
23.87857008144179
 30
0.0
 10
19.73940138676944
 20
23.31424008144178
 30
0.0
  0
SPLINE
  5
EE
330
1F
100
AcDbEntity
  8
0
  6
Continuous
 62
    22
370
     0
100
AcDbSpline
210
0.0
220
0.0
230
1.0
 70
     8
 71
     3
 72
     8
 73
     4
 74
     0
 42
0.00000001
 43
0.00000001
 40
0.777777777777778
 40
0.777777777777778
 40
0.777777777777778
 40
0.777777777777778
 40
0.8333333333333336
 40
0.8333333333333336
 40
0.8333333333333336
 40
0.8333333333333336
 10
19.73940138676944
 20
23.31424008144178
 30
0.0
 10
19.73909805343616
 20
23.23338008144177
 30
0.0
 10
19.74741805343616
 20
23.15767674810845
 30
0.0
 10
19.76410138676943
 20
23.08700008144177
 30
0.0
  0
SPLINE
  5
EF
330
1F
100
AcDbEntity
  8
0
  6
Continuous
 62
    22
370
     0
100
AcDbSpline
210
0.0
220
0.0
230
1.0
 70
     8
 71
     3
 72
     8
 73
     4
 74
     0
 42
0.00000001
 43
0.00000001
 40
0.9444444444444448
 40
0.9444444444444448
 40
0.9444444444444448
 40
0.9444444444444448
 40
1.0
 40
1.0
 40
1.0
 40
1.0
 10
19.02609138676947
 20
29.52312674810845
 30
0.0
 10
19.02609138676947
 20
29.84535341477509
 30
0.0
 10
19.2889513867695
 20
30.10821341477513
 30
0.0
 10
19.61117805343615
 20
30.10821341477513
 30
0.0
  0
SPLINE
  5
F0
330
1F
100
AcDbEntity
  8
0
  6
Continuous
 62
    22
370
     0
100
AcDbSpline
210
0.0
220
0.0
230
1.0
 70
     8
 71
     3
 72
     8
 73
     4
 74
     0
 42
0.00000001
 43
0.00000001
 40
0.0
 40
0.0
 40
0.0
 40
0.0
 40
0.2
 40
0.2
 40
0.2
 40
0.2
 10
22.33563138676947
 20
24.00727008144177
 30
0.0
 10
22.16702138676946
 20
24.04978008144176
 30
0.0
 10
21.49422805343615
 20
24.24135674810843
 30
0.0
 10
21.06709138676949
 20
24.68444008144177
 30
0.0
  0
SPLINE
  5
F1
330
1F
100
AcDbEntity
  8
0
  6
Continuous
 62
    22
370
     0
100
AcDbSpline
210
0.0
220
0.0
230
1.0
 70
     8
 71
     3
 72
     8
 73
     4
 74
     0
 42
0.00000001
 43
0.00000001
 40
0.2
 40
0.2
 40
0.2
 40
0.2
 40
0.4
 40
0.4
 40
0.4
 40
0.4
 10
21.06709138676949
 20
24.68444008144177
 30
0.0
 10
20.57586472010281
 20
25.19460341477511
 30
0.0
 10
20.50514472010278
 20
25.71997674810844
 30
0.0
 10
20.90571805343611
 20
26.11751674810844
 30
0.0
  0
SPLINE
  5
F2
330
1F
100
AcDbEntity
  8
0
  6
Continuous
 62
    22
370
     0
100
AcDbSpline
210
0.0
220
0.0
230
1.0
 70
     8
 71
     3
 72
     8
 73
     4
 74
     0
 42
0.00000001
 43
0.00000001
 40
0.4
 40
0.4
 40
0.4
 40
0.4
 40
0.6000000000000001
 40
0.6000000000000001
 40
0.6000000000000001
 40
0.6000000000000001
 10
20.90571805343611
 20
26.11751674810844
 30
0.0
 10
21.30338805343612
 20
26.51800341477512
 30
0.0
 10
21.8286747201028
 20
26.44728341477512
 30
0.0
 10
22.33875138676949
 20
25.95605674810844
 30
0.0
  0
SPLINE
  5
F3
330
1F
100
AcDbEntity
  8
0
  6
Continuous
 62
    22
370
     0
100
AcDbSpline
210
0.0
220
0.0
230
1.0
 70
     8
 71
     3
 72
     8
 73
     4
 74
     0
 42
0.00000001
 43
0.00000001
 40
0.6000000000000001
 40
0.6000000000000001
 40
0.6000000000000001
 40
0.6000000000000001
 40
0.8
 40
0.8
 40
0.8
 40
0.8
 10
22.33875138676949
 20
25.95605674810844
 30
0.0
 10
22.78452138676945
 20
25.52645008144178
 30
0.0
 10
22.97566472010282
 20
24.84763341477511
 30
0.0
 10
23.0166147201028
 20
24.68431008144179
 30
0.0
  0
SPLINE
  5
F4
330
1F
100
AcDbEntity
  8
0
  6
Continuous
 62
    22
370
     0
100
AcDbSpline
210
0.0
220
0.0
230
1.0
 70
     8
 71
     3
 72
     8
 73
     4
 74
     0
 42
0.00000001
 43
0.00000001
 40
0.8
 40
0.8
 40
0.8
 40
0.8
 40
1.0
 40
1.0
 40
1.0
 40
1.0
 10
23.0166147201028
 20
24.68431008144179
 30
0.0
 10
22.72381138676949
 20
24.53693341477511
 30
0.0
 10
22.48448138676945
 20
24.29907674810844
 30
0.0
 10
22.33563138676947
 20
24.00727008144177
 30
0.0
  0
SPLINE
  5
F5
330
1F
100
AcDbEntity
  8
0
  6
Continuous
 62
    22
370
     0
100
AcDbSpline
210
0.0
220
0.0
230
1.0
 70
     8
 71
     3
 72
     8
 73
     4
 74
     0
 42
0.00000001
 43
0.00000001
 40
0.0
 40
0.0
 40
0.0
 40
0.0
 40
0.1666666666666667
 40
0.1666666666666667
 40
0.1666666666666667
 40
0.1666666666666667
 10
23.23133138676947
 20
24.77266674810843
 30
0.0
 10
23.14314805343609
 20
24.92013008144178
 30
0.0
 10
22.80124805343614
 20
25.53269008144177
 30
0.0
 10
22.8126447201028
 20
26.14954008144177
 30
0.0
  0
SPLINE
  5
F6
330
1F
100
AcDbEntity
  8
0
  6
Continuous
 62
    22
370
     0
100
AcDbSpline
210
0.0
220
0.0
230
1.0
 70
     8
 71
     3
 72
     8
 73
     4
 74
     0
 42
0.00000001
 43
0.00000001
 40
0.1666666666666667
 40
0.1666666666666667
 40
0.1666666666666667
 40
0.1666666666666667
 40
0.3333333333333333
 40
0.3333333333333333
 40
0.3333333333333333
 40
0.3333333333333333
 10
22.8126447201028
 20
26.14954008144177
 30
0.0
 10
22.82599138676949
 20
26.85743341477512
 30
0.0
 10
23.14743805343611
 20
27.27911008144176
 30
0.0
 10
23.71176805343617
 20
27.27690008144176
 30
0.0
  0
SPLINE
  5
F7
330
1F
100
AcDbEntity
  8
0
  6
Continuous
 62
    22
370
     0
100
AcDbSpline
210
0.0
220
0.0
230
1.0
 70
     8
 71
     3
 72
     8
 73
     4
 74
     0
 42
0.00000001
 43
0.00000001
 40
0.3333333333333333
 40
0.3333333333333333
 40
0.3333333333333333
 40
0.3333333333333333
 40
0.5
 40
0.5
 40
0.5
 40
0.5
 10
23.71176805343617
 20
27.27690008144176
 30
0.0
 10
24.27609805343611
 20
27.27911008144176
 30
0.0
 10
24.59758805343615
 20
26.85743341477512
 30
0.0
 10
24.61093472010278
 20
26.14954008144177
 30
0.0
  0
SPLINE
  5
F8
330
1F
100
AcDbEntity
  8
0
  6
Continuous
 62
    22
370
     0
100
AcDbSpline
210
0.0
220
0.0
230
1.0
 70
     8
 71
     3
 72
     8
 73
     4
 74
     0
 42
0.00000001
 43
0.00000001
 40
0.5
 40
0.5
 40
0.5
 40
0.5
 40
0.6666666666666666
 40
0.6666666666666666
 40
0.6666666666666666
 40
0.6666666666666666
 10
24.61093472010278
 20
26.14954008144177
 30
0.0
 10
24.62228805343614
 20
25.52896341477514
 30
0.0
 10
24.27609805343617
 20
24.91250341477511
 30
0.0
 10
24.19060138676954
 20
24.76998008144177
 30
0.0
  0
SPLINE
  5
F9
330
1F
100
AcDbEntity
  8
0
  6
Continuous
 62
    22
370
     0
100
AcDbSpline
210
0.0
220
0.0
230
1.0
 70
     8
 71
     3
 72
     8
 73
     4
 74
     0
 42
0.00000001
 43
0.00000001
 40
0.6666666666666666
 40
0.6666666666666666
 40
0.6666666666666666
 40
0.6666666666666666
 40
0.8333333333333333
 40
0.8333333333333333
 40
0.8333333333333333
 40
0.8333333333333333
 10
24.19060138676954
 20
24.76998008144177
 30
0.0
 10
24.03845805343613
 20
24.82029008144179
 30
0.0
 10
23.87578472010276
 20
24.84772008144179
 30
0.0
 10
23.70691472010283
 20
24.84772008144179
 30
0.0
  0
SPLINE
  5
FA
330
1F
100
AcDbEntity
  8
0
  6
Continuous
 62
    22
370
     0
100
AcDbSpline
210
0.0
220
0.0
230
1.0
 70
     8
 71
     3
 72
     8
 73
     4
 74
     0
 42
0.00000001
 43
0.00000001
 40
0.8333333333333333
 40
0.8333333333333333
 40
0.8333333333333333
 40
0.8333333333333333
 40
1.0
 40
1.0
 40
1.0
 40
1.0
 10
23.70691472010283
 20
24.84772008144179
 30
0.0
 10
23.54099138676946
 20
24.84772008144179
 30
0.0
 10
23.38113472010278
 20
24.82137341477511
 30
0.0
 10
23.23133138676947
 20
24.77266674810843
 30
0.0
  0
SPLINE
  5
FB
330
1F
100
AcDbEntity
  8
0
  6
Continuous
 62
    22
370
     0
100
AcDbSpline
210
0.0
220
0.0
230
1.0
 70
     8
 71
     3
 72
     8
 73
     4
 74
     0
 42
0.00000001
 43
0.00000001
 40
0.0
 40
0.0
 40
0.0
 40
0.0
 40
0.2
 40
0.2
 40
0.2
 40
0.2
 10
24.40475472010284
 20
24.68045341477512
 30
0.0
 10
24.4471780534361
 20
24.84884674810844
 30
0.0
 10
24.6387547201028
 20
25.52194341477512
 30
0.0
 10
25.08192472010279
 20
25.94916674810843
 30
0.0
  0
SPLINE
  5
FC
330
1F
100
AcDbEntity
  8
0
  6
Continuous
 62
    22
370
     0
100
AcDbSpline
210
0.0
220
0.0
230
1.0
 70
     8
 71
     3
 72
     8
 73
     4
 74
     0
 42
0.00000001
 43
0.00000001
 40
0.2
 40
0.2
 40
0.2
 40
0.2
 40
0.4
 40
0.4
 40
0.4
 40
0.4
 10
25.08192472010279
 20
25.94916674810843
 30
0.0
 10
25.59195805343606
 20
26.44039341477511
 30
0.0
 10
26.1174613867694
 20
26.51107008144179
 30
0.0
 10
26.51487138676944
 20
26.11049674810844
 30
0.0
  0
SPLINE
  5
FD
330
1F
100
AcDbEntity
  8
0
  6
Continuous
 62
    22
370
     0
100
AcDbSpline
210
0.0
220
0.0
230
1.0
 70
     8
 71
     3
 72
     8
 73
     4
 74
     0
 42
0.00000001
 43
0.00000001
 40
0.4
 40
0.4
 40
0.4
 40
0.4
 40
0.6000000000000001
 40
0.6000000000000001
 40
0.6000000000000001
 40
0.6000000000000001
 10
26.51487138676944
 20
26.11049674810844
 30
0.0
 10
26.91548805343613
 20
25.71300008144181
 30
0.0
 10
26.84468138676949
 20
25.18762674810845
 30
0.0
 10
26.35354138676949
 20
24.67750674810845
 30
0.0
  0
SPLINE
  5
FE
330
1F
100
AcDbEntity
  8
0
  6
Continuous
 62
    22
370
     0
100
AcDbSpline
210
0.0
220
0.0
230
1.0
 70
     8
 71
     3
 72
     8
 73
     4
 74
     0
 42
0.00000001
 43
0.00000001
 40
0.6000000000000001
 40
0.6000000000000001
 40
0.6000000000000001
 40
0.6000000000000001
 40
0.8
 40
0.8
 40
0.8
 40
0.8
 10
26.35354138676949
 20
24.67750674810845
 30
0.0
 10
25.9238047201028
 20
24.2316934147751
 30
0.0
 10
25.24503138676948
 20
24.04050674810845
 30
0.0
 10
25.08183805343611
 20
23.99964341477509
 30
0.0
  0
SPLINE
  5
FF
330
1F
100
AcDbEntity
  8
0
  6
Continuous
 62
    22
370
     0
100
AcDbSpline
210
0.0
220
0.0
230
1.0
 70
     8
 71
     3
 72
     8
 73
     4
 74
     0
 42
0.00000001
 43
0.00000001
 40
0.8
 40
0.8
 40
0.8
 40
0.8
 40
1.0
 40
1.0
 40
1.0
 40
1.0
 10
25.08183805343611
 20
23.99964341477509
 30
0.0
 10
24.93446138676947
 20
24.29231674810844
 30
0.0
 10
24.69660472010282
 20
24.53160341477512
 30
0.0
 10
24.40475472010284
 20
24.68045341477512
 30
0.0
  0
INSERT
  5
100
330
1F
100
AcDbEntity
  8
0
  6
Continuous
 62
     7
100
AcDbBlockReference
  2
Block5
 10
192.2258982298
 20
5.9521386459
 30
0.0
 41
0.8
 42
0.8
 43
0.8
  0
INSERT
  5
101
330
1F
100
AcDbEntity
  8
0
  6
Continuous
 62
     7
100
AcDbBlockReference
  2
Block6
 10
29.5056080534
 20
25.5464700814
 30
0.0
 41
0.9
 42
0.9
 43
0.9
  0
INSERT
  5
102
330
1F
100
AcDbEntity
  8
0
  6
Continuous
 62
     7
100
AcDbBlockReference
  2
Block4_2
 10
29.2916806504
 20
23.1899252004
 30
0.0
 41
0.8
 42
0.8
 43
0.8
  0
MTEXT
  5
104
330
1F
100
AcDbEntity
  8
LAYER_1
100
AcDbMText
 10
83.0666696667
 20
295.6680244618
 30
0.0
 40
1.8520833333
 41
0.0
 71
     1
 72
     1
  1
2
  7
SLDTEXTSTYLE1
 73
     1
 44
1.0
  0
MTEXT
  5
105
330
1F
100
AcDbEntity
  8
LAYER_1
100
AcDbMText
 10
133.0666696667
 20
295.6680244618
 30
0.0
 40
1.8520833333
 41
0.0
 71
     1
 72
     1
  1
3
  7
SLDTEXTSTYLE1
 73
     1
 44
1.0
  0
MTEXT
  5
106
330
1F
100
AcDbEntity
  8
LAYER_1
100
AcDbMText
 10
33.4833363333
 20
295.6680244618
 30
0.0
 40
1.8520833333
 41
0.0
 71
     1
 72
     1
  1
1
  7
SLDTEXTSTYLE1
 73
     1
 44
1.0
  0
MTEXT
  5
107
330
1F
100
AcDbEntity
  8
LAYER_1
100
AcDbMText
 10
183.0666606667
 20
295.6680244618
 30
0.0
 40
1.8520833333
 41
0.0
 71
     1
 72
     1
  1
4
  7
SLDTEXTSTYLE1
 73
     1
 44
1.0
  0
MTEXT
  5
108
330
1F
100
AcDbEntity
  8
LAYER_1
100
AcDbMText
 10
14.4666666667
 20
274.6680204618
 30
0.0
 40
1.8520833333
 41
0.0
 71
     1
 72
     1
  1
A
  7
SLDTEXTSTYLE1
 73
     1
 44
1.0
  0
MTEXT
  5
109
330
1F
100
AcDbEntity
  8
LAYER_1
100
AcDbMText
 10
14.4666666667
 20
124.6680204618
 30
0.0
 40
1.8520833333
 41
0.0
 71
     1
 72
     1
  1
D
  7
SLDTEXTSTYLE1
 73
     1
 44
1.0
  0
MTEXT
  5
10A
330
1F
100
AcDbEntity
  8
LAYER_1
100
AcDbMText
 10
14.4666666667
 20
74.6680204618
 30
0.0
 40
1.8520833333
 41
0.0
 71
     1
 72
     1
  1
E
  7
SLDTEXTSTYLE1
 73
     1
 44
1.0
  0
MTEXT
  5
10B
330
1F
100
AcDbEntity
  8
0
  6
Continuous
 62
     7
370
     0
100
AcDbMText
 10
14.4666666667
 20
24.6680204618
 30
0.0
 40
1.8520833333
 41
0.0
 71
     1
 72
     1
  1
F
  7
SLDTEXTSTYLE1
 73
     1
 44
1.0
  0
MTEXT
  5
10C
330
1F
100
AcDbEntity
  8
LAYER_1
 62
     7
100
AcDbMText
 10
157.2831673906
 20
36.2085264272
 30
0.0
 40
4.2333333333
 41
0.0
 71
     2
 72
     1
  1
Not Included
  7
SLDTEXTSTYLE1
 73
     1
 44
1.0
  0
MTEXT
  5
10E
330
1F
100
AcDbEntity
  8
LAYER_1
 62
     7
100
AcDbMText
 10
157.9368801208
 20
19.3492322405
 30
0.0
 40
4.7625
 41
0.0
 71
     2
 72
     1
  1
Pcb Sample
  7
SLDTEXTSTYLE2
 73
     1
 44
1.0
  0
MTEXT
  5
10F
330
1F
100
AcDbEntity
  8
LAYER_1
 62
     7
100
AcDbMText
 10
117.0833516552
 20
7.360852194
 30
0.0
 40
1.4986
 41
0.0
 71
     1
 72
     1
  1
WEIGHT:
  7
SLDTEXTSTYLE1
 73
     1
 44
1.0
  0
MTEXT
  5
110
330
1F
100
AcDbEntity
  8
LAYER_1
 62
     7
100
AcDbMText
 10
195.9209848464
 20
19.3004444529
 30
0.0
 40
2.9104166667
 41
0.0
 71
     1
 72
     1
  1
A4
  7
SLDTEXTSTYLE2
 73
     1
 44
1.0
  0
MTEXT
  5
111
330
1F
100
AcDbEntity
  8
LAYER_1
 62
     7
100
AcDbMText
 10
172.0292061292
 20
7.3622680617
 30
0.0
 40
1.5
 41
0.0
 71
     1
 72
     1
  1
SHEET  OF
  7
SLDTEXTSTYLE1
 73
     1
 44
1.0
  0
MTEXT
  5
112
330
1F
100
AcDbEntity
  8
LAYER_1
 62
     7
100
AcDbMText
 10
153.39887399
 20
7.3622680617
 30
0.0
 40
1.5
 41
0.0
 71
     1
 72
     1
  1
SCALE:1:1
  7
SLDTEXTSTYLE1
 73
     1
 44
1.0
  0
MTEXT
  5
113
330
1F
100
AcDbEntity
  8
LAYER_1
 62
     7
100
AcDbMText
 10
117.8739661175
 20
19.8686378852
 30
0.0
 40
1.5
 41
0.0
 71
     1
 72
     1
  1
DWG NO.
  7
SLDTEXTSTYLE1
 73
     1
 44
1.0
  0
MTEXT
  5
114
330
1F
100
AcDbEntity
  8
LAYER_1
 62
     7
100
AcDbMText
 10
117.7561869366
 20
41.2783343442
 30
0.0
 40
1.5
 41
0.0
 71
     1
 72
     1
  1
TITLE:
  7
SLDTEXTSTYLE1
 73
     1
 44
1.0
  0
INSERT
  5
11D
330
1F
100
AcDbEntity
  8
LAYER_1
 62
     7
100
AcDbBlockReference
  2
SW_NOTE_0
 10
18.3881780308
 20
13.0247901204
 30
0.0
  0
MTEXT
  5
11E
330
1F
100
AcDbEntity
  8
LAYER_1
 62
     7
100
AcDbMText
 10
18.5551505956
 20
16.8172984235
 30
0.0
 40
1.3229166667
 41
0.0
 71
     1
 72
     1
  1
PROPRIETARY AND CONFIDENTIAL
  7
SLDTEXTSTYLE1
 73
     1
 44
1.0
  0
MTEXT
  5
120
330
1F
100
AcDbEntity
  8
0
  6
Continuous
 62
     7
370
     0
100
AcDbMText
 10
39.4182837927
 20
33.56320199
 30
0.0
 40
1.3229166667
 41
0.0
 71
     2
 72
     1
  1
Ali Altýnýþýk
  7
SLDTEXTSTYLE3
 73
     1
 44
1.0
  0
MTEXT
  5
121
330
1F
100
AcDbEntity
  8
0
  6
Continuous
 62
     7
370
     0
100
AcDbMText
 10
39.0115220023
 20
37.4002802643
 30
0.0
 40
1.3229166667
 41
0.0
 71
     2
 72
     1
  1
Dursun Daþdemir
  7
SLDTEXTSTYLE3
 73
     1
 44
1.0
  0
INSERT
  5
129
330
1F
100
AcDbEntity
  8
LAYER_1
 62
     7
100
AcDbBlockReference
  2
SW_NOTE_1
 10
59.4900176838
 20
31.5760908868
 30
0.0
  0
MTEXT
  5
12A
330
1F
100
AcDbEntity
  8
LAYER_1
 62
     7
100
AcDbMText
 10
19.008654731
 20
33.2814200842
 30
0.0
 40
1.3229166667
 41
0.0
 71
     1
 72
     1
  1
CHECKED
  7
SLDTEXTSTYLE1
 73
     1
 44
1.0
  0
MTEXT
  5
12B
330
1F
100
AcDbEntity
  8
LAYER_1
 62
     7
100
AcDbMText
 10
18.9084553422
 20
37.9012772081
 30
0.0
 40
1.3229166667
 41
0.0
 71
     1
 72
     1
  1
DRAWN
  7
SLDTEXTSTYLE1
 73
     1
 44
1.0
  0
MTEXT
  5
12C
330
1F
100
AcDbEntity
  8
LAYER_1
 62
     7
100
AcDbMText
 10
50.9512425609
 20
42.1983598398
 30
0.0
 40
1.3229166667
 41
0.0
 71
     1
 72
     1
  1
DATE
  7
SLDTEXTSTYLE1
 73
     1
 44
1.0
  0
MTEXT
  5
12D
330
1F
100
AcDbEntity
  8
LAYER_1
 62
     7
100
AcDbMText
 10
36.7537744369
 20
42.1983598398
 30
0.0
 40
1.3229166667
 41
0.0
 71
     1
 72
     1
  1
NAME
  7
SLDTEXTSTYLE1
 73
     1
 44
1.0
  0
MTEXT
  5
12E
330
1F
100
AcDbEntity
  8
LAYER_1
100
AcDbMText
 10
59.3413422793
 20
42.1983598398
 30
0.0
 40
1.3229166667
 41
0.0
 71
     1
 72
     1
  1
ARTICLE NO:
  7
SLDTEXTSTYLE1
 73
     1
 44
1.0
  0
MTEXT
  5
12F
330
1F
100
AcDbEntity
  8
LAYER_1
100
AcDbMText
 10
104.3140115482
 20
41.366131429
 30
0.0
 40
1.5
 41
0.0
 71
     1
 72
     1
  1
REVISION:
  7
SLDTEXTSTYLE1
 73
     1
 44
1.0
  0
MTEXT
  5
130
330
1F
100
AcDbEntity
  8
0
  6
Continuous
 62
     7
370
     0
100
AcDbMText
 10
18.5551505956
 20
22.1600404711
 30
0.0
 40
2.38125
 41
0.0
 71
     1
 72
     1
  1
www.altinkaya.com.tr
  7
SLDTEXTSTYLE0
 73
     1
 44
1.0
  0
MTEXT
  5
131
330
1F
100
AcDbEntity
  8
LAYER_1
100
AcDbMText
 10
58.8555277922
 20
8.2402381253
 30
0.0
 40
2.38125
 41
0.0
 71
     1
 72
     1
  1
MATERIAL:
  7
SLDTEXTSTYLE1
 73
     1
 44
1.0
  0
MTEXT
  5
132
330
1F
100
AcDbEntity
  8
LAYER_1
100
AcDbMText
 10
14.4666666667
 20
226.0618211972
 30
0.0
 40
1.8520833333
 41
0.0
 71
     1
 72
     1
  1
B
  7
SLDTEXTSTYLE1
 73
     1
 44
1.0
  0
MTEXT
  5
133
330
1F
100
AcDbEntity
  8
LAYER_1
100
AcDbMText
 10
14.4666666667
 20
175.680008057
 30
0.0
 40
1.8520833333
 41
0.0
 71
     1
 72
     1
  1
C
  7
SLDTEXTSTYLE1
 73
     1
 44
1.0
  0
INSERT
  5
13D
330
1F
100
AcDbEntity
  8
LAYER_1
100
AcDbBlockReference
  2
SW_NOTE_2
 10
59.1279157415
 20
22.2424903138
 30
0.0
  0
CIRCLE
  5
13E
330
1F
100
AcDbEntity
  8
0
  6
Continuous
 62
     7
370
    15
100
AcDbCircle
 10
71.4613289037
 20
184.3593355482
 30
0.0
 40
1.650000000000006
  0
CIRCLE
  5
13F
330
1F
100
AcDbEntity
  8
0
  6
Continuous
 62
     7
370
    15
100
AcDbCircle
 10
122.2613289037
 20
219.6593355482
 30
0.0
 40
1.650000000000006
  0
LINE
  5
140
330
1F
100
AcDbEntity
  8
0
  6
Continuous
 62
     7
370
    15
100
AcDbLine
 10
142.8613289037
 20
228.0093355482
 30
0.0
 11
50.8613289037
 21
228.0093355482
 31
0.0
  0
LINE
  5
141
330
1F
100
AcDbEntity
  8
0
  6
Continuous
 62
     7
370
    15
100
AcDbLine
 10
142.8613289037
 20
176.0093355482
 30
0.0
 11
142.8613289037
 21
228.0093355482
 31
0.0
  0
LINE
  5
142
330
1F
100
AcDbEntity
  8
0
  6
Continuous
 62
     7
370
    15
100
AcDbLine
 10
50.8613289037
 20
176.0093355482
 30
0.0
 11
142.8613289037
 21
176.0093355482
 31
0.0
  0
LINE
  5
143
330
1F
100
AcDbEntity
  8
0
  6
Continuous
 62
     7
370
    15
100
AcDbLine
 10
50.8613289037
 20
228.0093355482
 30
0.0
 11
50.8613289037
 21
176.0093355482
 31
0.0
  0
CIRCLE
  5
144
330
1F
100
AcDbEntity
  8
0
  6
Continuous
 62
     7
370
    15
100
AcDbCircle
 10
71.4613289037
 20
219.6593355482
 30
0.0
 40
1.650000000000006
  0
CIRCLE
  5
145
330
1F
100
AcDbEntity
  8
0
  6
Continuous
 62
     7
370
    15
100
AcDbCircle
 10
122.2613289037
 20
184.3593355482
 30
0.0
 40
1.650000000000006
  0
DIMENSION
  5
146
330
1F
100
AcDbEntity
  8
LAYER_1
100
AcDbDimension
  2
*D7
 10
142.8613289037
 20
166.0093355482
 30
0.0
 11
95.6065116279
 21
166.0093355482
 31
0.0
 70
   160
 71
     2
 42
-1.0
  3
SLDDIMSTYLE0
100
AcDbAlignedDimension
 13
50.8613289037
 23
176.0093355482
 33
0.0
 14
142.8613289037
 24
176.0093355482
 34
0.0
100
AcDbRotatedDimension
  0
DIMENSION
  5
151
330
1F
100
AcDbEntity
  8
LAYER_1
100
AcDbDimension
  2
*D8
 10
44.277807309
 20
176.0093355482
 30
0.0
 11
44.277807309
 21
200.6674086379
 31
0.0
 70
   160
 71
     2
 42
-1.0
  3
SLDDIMSTYLE0
100
AcDbAlignedDimension
 13
50.8613289037
 23
228.0093355482
 33
0.0
 14
50.8613289037
 24
176.0093355482
 34
0.0
 50
90.0
100
AcDbRotatedDimension
  0
DIMENSION
  5
15B
330
1F
100
AcDbEntity
  8
LAYER_1
100
AcDbDimension
  2
*D9
 10
149.2364327492
 20
184.3593355482
 30
0.0
 11
149.2364327492
 21
200.6674086379
 31
0.0
 70
   160
 71
     2
 42
-1.0
  3
SLDDIMSTYLE1
100
AcDbAlignedDimension
 13
126.4113289037
 23
219.6593355482
 33
0.0
 14
126.4113289037
 24
184.3593355482
 34
0.0
 50
90.0
100
AcDbRotatedDimension
  0
DIMENSION
  5
166
330
1F
100
AcDbEntity
  8
LAYER_1
100
AcDbDimension
  2
*D10
 10
71.4613289037
 20
232.8174011991
 30
0.0
 11
91.5569461751
 21
232.8174011991
 31
0.0
 70
   160
 71
     2
 42
-1.0
  3
SLDDIMSTYLE1
100
AcDbAlignedDimension
 13
122.2613289037
 23
223.8093355482
 33
0.0
 14
71.4613289037
 24
223.8093355482
 34
0.0
100
AcDbRotatedDimension
  0
DIMENSION
  5
170
330
1F
100
AcDbEntity
  8
LAYER_1
100
AcDbDimension
  2
*D12
 10
70.2946027147
 20
183.1926093592
 30
0.0
 11
82.2856630515
 21
195.183669696
 31
0.0
 70
   163
  1
4x<>
 71
     1
 42
-1.0
  3
SLDDIMSTYLE2
100
AcDbDiametricDimension
 15
72.6280550926
 25
185.5260617371
 35
0.0
 40
0.0
  0
INSERT
  5
189
330
1F
100
AcDbEntity
  8
LAYER_1
100
AcDbBlockReference
  2
SW_CENTERMARKSYMBOL_0
 10
71.4613289037
 20
219.6593355482
 30
0.0
  0
INSERT
  5
195
330
1F
100
AcDbEntity
  8
LAYER_1
100
AcDbBlockReference
  2
SW_CENTERMARKSYMBOL_1
 10
122.2613289037
 20
219.6593355482
 30
0.0
  0
INSERT
  5
1A1
330
1F
100
AcDbEntity
  8
LAYER_1
100
AcDbBlockReference
  2
SW_CENTERMARKSYMBOL_2
 10
122.2613289037
 20
184.3593355482
 30
0.0
  0
INSERT
  5
1AD
330
1F
100
AcDbEntity
  8
LAYER_1
100
AcDbBlockReference
  2
SW_CENTERMARKSYMBOL_3
 10
71.4613289037
 20
184.3593355482
 30
0.0
  0
LINE
  5
1AE
330
1F
100
AcDbEntity
  8
0
  6
Continuous
 62
     7
370
    15
100
AcDbLine
 10
167.4415282392
 20
228.0093355482
 30
0.0
 11
167.4415282392
 21
176.0093355482
 31
0.0
  0
LINE
  5
1AF
330
1F
100
AcDbEntity
  8
0
  6
Continuous
 62
     7
370
    15
100
AcDbLine
 10
167.4415282392
 20
176.0093355482
 30
0.0
 11
165.8415282392
 21
176.0093355482
 31
0.0
  0
LINE
  5
1B0
330
1F
100
AcDbEntity
  8
0
  6
Continuous
 62
     7
370
    15
100
AcDbLine
 10
165.8415282392
 20
228.0093355482
 30
0.0
 11
165.8415282392
 21
176.0093355482
 31
0.0
  0
LINE
  5
1B1
330
1F
100
AcDbEntity
  8
0
  6
Continuous
 62
     7
370
    15
100
AcDbLine
 10
167.4415282392
 20
228.0093355482
 30
0.0
 11
165.8415282392
 21
228.0093355482
 31
0.0
  0
DIMENSION
  5
1B2
330
1F
100
AcDbEntity
  8
LAYER_1
100
AcDbDimension
  2
*D17
 10
167.4415282392
 20
169.5419402469
 30
0.0
 11
177.4415282392
 21
169.5419402469
 31
0.0
 70
   160
 71
     2
 42
-1.0
  3
SLDDIMSTYLE3
100
AcDbAlignedDimension
 13
165.8415282392
 23
176.0093355482
 33
0.0
 14
167.4415282392
 24
176.0093355482
 34
0.0
100
AcDbRotatedDimension
  0
ENDSEC
  0
SECTION
  2
OBJECTS
  0
DICTIONARY
  5
C
330
0
100
AcDbDictionary
281
     1
  3
ACAD_GROUP
350
D
  3
ACAD_LAYOUT
350
1A
  3
ACAD_MLINESTYLE
350
17
  3
ACAD_PLOTSETTINGS
350
19
  3
ACAD_PLOTSTYLENAME
350
E
  0
DICTIONARY
  5
D
102
{ACAD_REACTORS
330
C
102
}
330
C
100
AcDbDictionary
281
     1
  0
DICTIONARY
  5
1A
102
{ACAD_REACTORS
330
C
102
}
330
C
100
AcDbDictionary
281
     1
  3
Layout1
350
1E
  3
Layout2
350
26
  3
Model
350
22
  0
DICTIONARY
  5
17
102
{ACAD_REACTORS
330
C
102
}
330
C
100
AcDbDictionary
281
     1
  3
Standard
350
18
  0
DICTIONARY
  5
19
102
{ACAD_REACTORS
330
C
102
}
330
C
100
AcDbDictionary
281
     1
  0
ACDBDICTIONARYWDFLT
  5
E
102
{ACAD_REACTORS
330
C
102
}
330
C
100
AcDbDictionary
281
     1
  3
Normal
350
F
100
AcDbDictionaryWithDefault
340
F
  0
LAYOUT
  5
1E
102
{ACAD_REACTORS
330
1A
102
}
330
1A
100
AcDbPlotSettings
  1

  2
none_device
  4

  6

 40
0.0
 41
0.0
 42
0.0
 43
0.0
 44
0.0
 45
0.0
 46
0.0
 47
0.0
 48
0.0
 49
0.0
140
0.0
141
0.0
142
1.0
143
1.0
 70
   688
 72
     0
 73
     0
 74
     5
  7

 75
    16
147
1.0
148
0.0
149
0.0
100
AcDbLayout
  1
Layout1
 70
     1
 71
     1
 10
0.0
 20
0.0
 11
420.0
 21
297.0
 12
0.0
 22
0.0
 32
0.0
 14
1.0000000000E+20
 24
1.0000000000E+20
 34
1.0000000000E+20
 15
-1.0000000000E+20
 25
-1.0000000000E+20
 35
-1.0000000000E+20
146
0.0
 13
0.0
 23
0.0
 33
0.0
 16
1.0
 26
0.0
 36
0.0
 17
0.0
 27
1.0
 37
0.0
 76
     0
330
1B
  0
LAYOUT
  5
26
102
{ACAD_REACTORS
330
1A
102
}
330
1A
100
AcDbPlotSettings
  1

  2
none_device
  4

  6

 40
0.0
 41
0.0
 42
0.0
 43
0.0
 44
0.0
 45
0.0
 46
0.0
 47
0.0
 48
0.0
 49
0.0
140
0.0
141
0.0
142
1.0
143
1.0
 70
   688
 72
     0
 73
     0
 74
     5
  7

 75
    16
147
1.0
148
0.0
149
0.0
100
AcDbLayout
  1
Layout2
 70
     1
 71
     2
 10
0.0
 20
0.0
 11
0.0
 21
0.0
 12
0.0
 22
0.0
 32
0.0
 14
0.0
 24
0.0
 34
0.0
 15
0.0
 25
0.0
 35
0.0
146
0.0
 13
0.0
 23
0.0
 33
0.0
 16
1.0
 26
0.0
 36
0.0
 17
0.0
 27
1.0
 37
0.0
 76
     0
330
23
  0
LAYOUT
  5
22
102
{ACAD_REACTORS
330
1A
102
}
330
1A
100
AcDbPlotSettings
  1

  2
none_device
  4

  6

 40
0.0
 41
0.0
 42
0.0
 43
0.0
 44
0.0
 45
0.0
 46
0.0
 47
0.0
 48
0.0
 49
0.0
140
0.0
141
0.0
142
1.0
143
1.0
 70
  1712
 72
     0
 73
     0
 74
     0
  7

 75
     0
147
1.0
148
0.0
149
0.0
100
AcDbLayout
  1
Model
 70
     1
 71
     0
 10
0.0
 20
0.0
 11
210.0
 21
297.0
 12
0.0
 22
0.0
 32
0.0
 14
0.0
 24
0.0
 34
0.0
 15
210.0
 25
297.0
 35
0.0
146
0.0
 13
0.0
 23
0.0
 33
0.0
 16
1.0
 26
0.0
 36
0.0
 17
0.0
 27
1.0
 37
0.0
 76
     0
330
1F
331
29
  0
MLINESTYLE
  5
18
102
{ACAD_REACTORS
330
17
102
}
330
17
100
AcDbMlineStyle
  2
Standard
 70
     0
  3

 62
   256
 51
90.0
 52
90.0
 71
     2
 49
0.5
 62
   256
  6
BYLAYER
 49
-0.5
 62
   256
  6
BYLAYER
  0
ACDBPLACEHOLDER
  5
F
102
{ACAD_REACTORS
330
E
102
}
330
E
  0
ENDSEC
  0
EOF
